<?xml version="1.0" encoding="utf-8"?>
<!-- Generator: Adobe Illustrator 25.0.1, SVG Export Plug-In . SVG Version: 6.00 Build 0)  -->
<svg version="1.1" xmlns="http://www.w3.org/2000/svg" xmlns:xlink="http://www.w3.org/1999/xlink" x="0px" y="0px"
	 viewBox="0 0 432 288" style="enable-background:new 0 0 432 288;" xml:space="preserve">
<style type="text/css">
	.st0{fill:#74CCE5;}
	.st1{fill:#E6E3B7;}
	.st2{fill:#603813;}
	.st3{fill:none;}
	.st4{fill:#689676;}
	.st5{fill:#ECC19C;}
	.st6{fill:none;stroke:#000000;stroke-width:2;stroke-miterlimit:10;}
</style>
<g id="Layer_1">
	<g>
		<path class="st0" d="M190,50.4c9,0,22.8,3.6,30.1,3.6c2.4,0,4.4-0.4,6.3-2.1l0.2,0.1c-4.2,8.2-8.9,10.4-14.1,10.4
			c-2.1,0-4.3-0.4-6.5-0.9c-1.8,0.6-2.9,3.3-3.5,7.5l-3,19.1c-0.9,5.7-0.1,7.6,4.4,7.6l-0.1,0.4h-21.8l0.1-0.4c5.6,0,6.1-3,7.1-9.2
			l2.4-16c1-6.7,9.3-8.8,13.9-9.2c-8.8-2.4-18.4-7.8-25.6-7.8c-3.6,0-5.8,1.3-5.8,4.2c0,2.8,2.1,4.2,4.5,4.2c1.7,0,3.5-0.8,4.7-2.2
			c2.2,1,3.1,2.6,3.1,4.3c0,4-3.5,6.2-7.1,6.2c-3.7,0-7.6-2.4-7.9-7.5C171.5,53,181.3,50.4,190,50.4z"/>
		<path class="st0" d="M227.9,71.5c0-2.1-1.3-3.5-3.1-3.5c-4.1,0-7.1,6.5-7.4,11.9c-0.3,5.6,1.7,10.6,7.6,10.6
			c2.4,0,5.7-0.8,8.2-3.8l0.3,0.2c-3.4,5.6-9,9.5-15.2,9.5c-6.5,0-11-4.3-11-11.4c0-9.1,7.8-17.4,17.9-17.4c4.2,0,10.3,1,10.3,6
			c0,4-4.6,9.1-17.7,5.6l0.1-0.2C225.1,79.5,227.9,75.3,227.9,71.5z"/>
		<path class="st0" d="M264.8,84.4c-0.8,4.6-1.3,10.6,1.1,11.5l-0.2,0.2c-1.2,0.3-2.5,0.4-3.8,0.4c-4.6,0-8.5-1.9-6.9-8.6l2-8.2
			l-0.2-0.1c-3.4,13.3-7.5,16.9-12.3,16.9c-5.6,0-7.6-5-7.6-9.9c0-8.5,7.6-18.9,17.4-18.9c5.3,0,9.5,4.6,13.3,0.2L264.8,84.4z
			 M246.5,89.3c0,2.2,0.5,4.2,1.9,4.2c3.3,0,6.8-8.3,8.2-16.2l0.6-3.3c0.8-4.3,0.4-6-2.2-6C250.5,68.1,246.5,80.6,246.5,89.3z"/>
		<path class="st0" d="M287.1,67.7c3.8,0,10.3,1.3,10.3,6.6c0,3-2.4,6-6.1,6c-2.4,0-4.6-1.5-4.2-4.7c2.2-0.6,3.3-2.4,3.3-4
			c0-1.8-1.2-3.5-3.6-3.5c-5.3,0-7.5,8.5-7.5,13.1c0,6.4,3.4,9.4,7.6,9.4c3.1,0,6.1-1.3,8.3-3.8l0.3,0.2c-3.8,6.3-9.9,9.5-15.3,9.5
			c-5.9,0-11-3.8-11-11.3C269.2,75.8,277,67.7,287.1,67.7z"/>
		<path class="st0" d="M303.8,57.5c0.2-1.1-0.7-1.9-2.2-1.4l-0.2-0.2c1.9-0.9,5.6-2.1,8.2-2.1c3,0,4.2,1.1,3.5,4.7l-5,25.8l0.2,0.1
			c3.6-13.7,8.9-16.9,13.7-16.9c6.7,0,6.2,5.5,5.6,9.2l-1.3,7.6c-0.8,4.6-1.3,10.6,1.1,11.5l-0.2,0.2c-5.8,1.1-12.3,0.4-10.9-8.2
			l2.1-13.2c0.4-2.5,0.4-4-0.9-4c-3,0-6.7,6.2-8.7,14.1c-0.9,3.7-2.4,10.4-0.6,11.3l-0.2,0.2c-7.2,1.1-11,0.6-9.4-7.9L303.8,57.5z"
			/>
		<path class="st0" d="M351.1,71.5c0-2.1-1.3-3.5-3.1-3.5c-4.1,0-7.1,6.5-7.4,11.9c-0.3,5.6,1.7,10.6,7.6,10.6
			c2.4,0,5.7-0.8,8.2-3.8l0.3,0.2c-3.4,5.6-9,9.5-15.2,9.5c-6.5,0-11-4.3-11-11.4c0-9.1,7.8-17.4,17.9-17.4c4.2,0,10.3,1,10.3,6
			c0,4-4.6,9.1-17.7,5.6l0.1-0.2C348.3,79.5,351.1,75.3,351.1,71.5z"/>
		<path class="st0" d="M370.2,95.9l-0.2,0.2c-1,0.3-2.1,0.4-3.2,0.4c-3.7,0-7.4-1.8-6.2-8.4l3-16.8c0.2-1.1-0.7-1.9-2.2-1.4
			l-0.2-0.2c1.9-0.9,5.6-2.1,8.2-2.1c3,0,4.3,1.1,3.5,4.7L370,84.5l0.2,0.1c3.6-13.7,7.2-17.4,12.6-17.4c4.7,0,6.8,3,6.8,6.2
			c0,3.6-2.7,7.2-7.4,7.2c-2.4,0-4.7-1.5-4.4-4.7c2,0,4-1.9,4-4.4c0-1.7-0.8-2.6-2.1-2.6c-3.3,0-6.6,6.5-8.9,15.7
			C369.9,88.4,368.4,95,370.2,95.9z"/>
		<path class="st0" d="M215.4,120.5c0,6.5-5.9,12.4-12.9,12.4c-5.6,0-9.5-3.7-9.5-8.9c0-6.7,5.8-12.3,12.9-12.3
			C211.5,111.7,215.4,115.3,215.4,120.5z M208.2,116c0-2.3-0.5-4.1-2.4-4.1c-4.3,0-5.6,12.4-5.6,16.5c0,2.3,0.6,4,2.4,4
			C206.9,132,208.2,120.7,208.2,116z"/>
		<path class="st0" d="M220.3,111.9c0.9-5.5,1.7-10.1,7.8-10.1c3.5,0,5.7,1.8,5.7,4.3c0,2.4-1.7,4.4-4.7,4.4c-2.2,0-4.3-2.1-3.3-4.4
			c1.3,0.3,2.5-0.6,2.5-1.9c0-1-0.4-1.9-1.5-1.9c-1.7,0-3.6,1.9-3.6,4c0,3.3,4,4.1,3.7,5.7h3.3l-0.1,0.4h-2.7l-3.1,19.7
			c-0.8,4.7-3.3,10.1-8.3,10.1c-3.4,0-5.3-1.8-5.3-4.2c0-2.9,2.3-4.1,4.4-4.1c2.1,0,4,1.3,3.7,4c-1.5-0.1-2.3,0.6-2.3,1.8
			c0,0.9,0.5,1.5,1.5,1.5c1.8,0,2.4-1.6,2.4-3.4c0-3.3-3.5-4.1-2.9-7.6l2.8-17.8h-2.1l0.1-0.4L220.3,111.9L220.3,111.9z"/>
		<path class="st0" d="M247.8,111.9h2.8l-0.1,0.4h-2.7l-2,11.9c-0.6,3.4-1,7.8,0.8,8.5l-0.1,0.1c-0.6,0.1-1.2,0.2-1.9,0.2
			c-3,0-6.9-1.1-6-6.2l2.2-14.4H239l0.1-0.4c5.7,0,8.7-1.9,9.6-7.5h0.4L247.8,111.9z"/>
		<path class="st0" d="M253.2,104.2c0.1-0.8-0.5-1.4-1.6-1l-0.1-0.1c1.4-0.7,4.1-1.5,6-1.5c2.2,0,3.1,0.8,2.6,3.5l-3.7,19l0.2,0
			c2.6-10.1,6.6-12.4,10.1-12.4c4.9,0,4.6,4,4.1,6.8l-1,5.6c-0.6,3.4-1,7.8,0.8,8.5l-0.1,0.1c-4.2,0.8-9.1,0.3-8.1-6.1l1.6-9.7
			c0.3-1.9,0.3-3-0.7-3c-2.2,0-4.9,4.5-6.4,10.4c-0.7,2.7-1.8,7.6-0.4,8.3l-0.1,0.1c-5.3,0.8-8.1,0.5-7-5.9L253.2,104.2z"/>
		<path class="st0" d="M288,114.5c0-1.5-1-2.6-2.3-2.6c-3,0-5.2,4.7-5.4,8.7c-0.2,4.2,1.3,7.8,5.6,7.8c1.8,0,4.2-0.6,6.1-2.8
			l0.2,0.1c-2.5,4.1-6.7,7-11.2,7c-4.7,0-8.1-3.1-8.1-8.4c0-6.7,5.7-12.8,13.2-12.8c3.1,0,7.6,0.8,7.6,4.4c0,2.9-3.4,6.7-13.1,4.2
			l0-0.2C285.9,120.3,288,117.3,288,114.5z"/>
		<path class="st0" d="M234.4,152.5l-9.3,16.7l-1.1,7.1c-1,6.2-1.5,9.2,4.1,9.2L228,186h-21.9l0.1-0.4c5.6,0,6.1-3,7.1-9.2l0.8-5.4
			c-1.3-9.9-5.2-20.7-9.9-20.7c-0.7,0-1.7,0.5-2.5,1.2l-0.2-0.3c2.4-2,6.1-4,9.8-4c10.1,0,13.5,13,11.6,24.3l10.8-19.2
			c2.6-4.6,7.2-11.4,13.1-11.4c5.1,0,7.7,3.1,7.7,7.2c0,4.6-3.2,8.8-8.2,8.8c-3.9,0-6.3-2.6-6.3-5.5c0-1.7,0.8-4.3,3.9-5.1
			c0.6,1.4,1.7,2.2,3.3,2.2c2.2,0,3.5-1.7,3.5-3.6c0-1.8-1-3.3-4-3.3C242.3,141.8,238.2,145.6,234.4,152.5z"/>
		<path class="st0" d="M253.3,161.4c0-2.1-1.3-3.5-3.1-3.5c-4.1,0-7.1,6.5-7.4,11.9c-0.3,5.6,1.7,10.6,7.6,10.6
			c2.4,0,5.7-0.8,8.2-3.8l0.3,0.2c-3.4,5.6-9,9.5-15.2,9.5c-6.5,0-11-4.3-11-11.4c0-9.1,7.8-17.4,17.9-17.4c4.2,0,10.3,1,10.3,6
			c0,4-4.6,9.1-17.7,5.6l0.1-0.2C250.4,169.4,253.3,165.2,253.3,161.4z"/>
		<path class="st0" d="M290.2,174.3c-0.8,4.6-1.3,10.6,1.1,11.5l-0.2,0.2c-1.2,0.3-2.5,0.4-3.8,0.4c-4.6,0-8.5-1.9-6.9-8.6l2-8.2
			l-0.2-0.1c-3.4,13.3-7.5,16.9-12.3,16.9c-5.6,0-7.6-5-7.6-9.9c0-8.5,7.6-18.9,17.4-18.9c5.3,0,9.5,4.6,13.3,0.2L290.2,174.3z
			 M271.9,179.2c0,2.2,0.5,4.2,1.9,4.2c3.3,0,6.8-8.3,8.2-16.2l0.6-3.3c0.8-4.3,0.4-6-2.2-6C275.9,158,271.9,170.5,271.9,179.2z"/>
		<path class="st0" d="M304.7,185.8l-0.2,0.2c-1,0.3-2.1,0.4-3.2,0.4c-3.7,0-7.4-1.8-6.2-8.4l3-16.8c0.2-1.1-0.7-1.9-2.2-1.4
			l-0.2-0.2c1.9-0.9,5.6-2.1,8.2-2.1c3,0,4.3,1.1,3.5,4.7l-2.9,12.1l0.2,0.1c3.6-13.7,7.2-17.4,12.6-17.4c4.7,0,6.8,3,6.8,6.2
			c0,3.6-2.7,7.2-7.4,7.2c-2.4,0-4.7-1.5-4.4-4.7c2,0,4-1.9,4-4.4c0-1.7-0.8-2.6-2.1-2.6c-3.3,0-6.6,6.5-8.9,15.7
			C304.4,178.3,302.9,184.9,304.7,185.8z"/>
		<path class="st1" d="M246.9,210.9c0,11.8-15.2,11.2-22.4,12.6c-4.3,0.8-6.9,2.4-8.9,5.7c1.9-1.8,5.7-2.6,8.2-2.6
			c5.1,0,10,3.3,15.5,3.3c2.4,0,4.7-0.6,5.6-3.1l0.3,0.1c-2,6.2-4.8,13-11.7,13c-4.6,0-12.8-4-17.5-4c-1.2,0-2.3,0.3-2.9,0.9
			c-0.2,0.8-0.2,1.8-0.2,2.8h-0.4c0.3-21.5,23.5-17.4,23.5-31.2c0-2.3-0.6-6.1-4.7-6.1c-3.6,0-6,3-6,5.6c0,2,1.4,3.7,4.7,2.6
			c1.6,3.8-2,7.8-6.2,7.8c-4,0-6.9-2.4-6.9-6.8c0-6.5,6.5-9.7,15.7-9.7C238.5,201.6,246.9,203,246.9,210.9z"/>
		<path class="st1" d="M283.3,216.9c0,10.9-7.8,22.7-20.7,22.7c-9.3,0-14.6-6.4-14.6-15.3c0-11,7.7-22.8,20.6-22.8
			C277.9,201.6,283.3,208,283.3,216.9z M272.3,209.7c0-5.2-1.2-7.7-3.8-7.7c-6.2,0-9.7,20.1-9.7,29.7c0,5.2,1.2,7.6,3.8,7.6
			C268.8,239.3,272.3,219.4,272.3,209.7z"/>
		<path class="st1" d="M316.5,210.9c0,11.8-15.2,11.2-22.4,12.6c-4.3,0.8-6.9,2.4-8.9,5.7c1.9-1.8,5.7-2.6,8.2-2.6
			c5.1,0,10,3.3,15.5,3.3c2.4,0,4.7-0.6,5.6-3.1l0.3,0.1c-2,6.2-4.8,13-11.7,13c-4.6,0-12.8-4-17.5-4c-1.2,0-2.3,0.3-2.9,0.9
			c-0.2,0.8-0.2,1.8-0.2,2.8h-0.4c0.3-21.5,23.5-17.4,23.5-31.2c0-2.3-0.6-6.1-4.7-6.1c-3.6,0-6,3-6,5.6c0,2,1.4,3.7,4.7,2.6
			c1.6,3.8-2,7.8-6.2,7.8c-4,0-6.9-2.4-6.9-6.8c0-6.5,6.5-9.7,15.7-9.7C308.2,201.6,316.5,203,316.5,210.9z"/>
		<path class="st1" d="M352.9,216.9c0,10.9-7.8,22.7-20.7,22.7c-9.3,0-14.6-6.4-14.6-15.3c0-11,7.8-22.8,20.6-22.8
			C347.6,201.6,352.9,208,352.9,216.9z M342,209.7c0-5.2-1.2-7.7-3.8-7.7c-6.2,0-9.7,20.1-9.7,29.7c0,5.2,1.2,7.6,3.8,7.6
			C338.4,239.3,342,219.4,342,209.7z"/>
	</g>
	<path class="st2" d="M159.3,129.5c1.2-3,9.2-23.7,6-39.9c-3.5-17.8-10.6-25.9-20.9-33.1c-2.2-1.6-4.7-2.9-7.3-4l0,0
		c-4.3-1.8-8.8-2.8-13.4-2.8c-5.3,0-10.5,1.2-15.4,3.6c-14.5,7.1-31.6,22.5-31,55.8c0.4,22.4,4.9,35.9,8.6,43.3c4,8,7.9,10.7,8,10.7
		l0.5,0.3l-0.5,0.4c0,0-4,2.9-3.4,8.4c0.3,3.2,1.9,5.1,3.4,6.9c1.1,1.4,2.3,2.8,2.9,4.7c0.2,0.6,0.1,1.1,0.1,1.7
		c-0.2,1.6-0.4,4,3.3,9.1c-0.1-2.1,0-5.8,1.4-8.6c0.8-1.4,1.5-2,2.4-2.7c1.3-1,2.6-2.1,4.2-6.5c0.4-1.2,0.5-2.5,0.2-3.7
		c-0.4-1.6-1.2-3.8-3-5.3c-1.7-1.4-1.2-2.4-0.6-3.6c0.7-1.4,1.8-3.5,0.4-8.2c-2.5-8.4-10.9-9.7-11-9.7l-0.3,0l-0.1-0.2
		c0-0.1-3.2-8.3-1.7-19c1.4-10.5,6.4-16.3,19.2-28.9C123.7,86,125,81.7,125,81.6l0.3-1l0.5,0.8c0.1,0.1,8.3,14,15.5,17.5
		c6.8,3.3,8.7,1.7,8.7,1.7l0.5-0.4l0.2,0.6c0.1,0.4,3.5,9.7,2.2,16.6c-1,5.4-3.1,9.4-4.5,11.4c1.5-0.4,3.4-0.2,5.9-0.3
		C157.1,128.7,158.6,129.3,159.3,129.5z"/>
	<path class="st3" d="M105.7,167.6"/>
	<path class="st1" d="M139.8,133.6c0,0-7.4,0.9-15.2,11.2c-7.8,10.3-3.6,21.8-2.9,27.1c0.6,5.3-0.7,9-0.7,9s9-10,13.3-17.6
		c4.3-7.6,6.6-11.5,6.6-11.5s8.9,15.2,15,21.8c4.2,4.4,9.4,9.2,15.6,10.8c5.6,1.4,6.9,0.3,6.9,0.3c-2.8-1.3-4.4-3.5-4.4-3.5
		s4,1.9,5.9,1.9c0,0-1.7-1.6-2.9-6c-2-7.8,2.8-8.8,0.4-23.5c-2.3-14.4-14.2-21.7-23.1-22.5c-6-0.6-13.8,2.4-12.1,1.9L139.8,133.6z"
		/>
	<path class="st4" d="M79.3,141.9c0,0,3.7,10.6,6.2,14.8c2.4,4.2,5.6,7,5.6,7s-3.8,4.5-2.7,8.9c1.7,6.8,5.6,9.2,6.1,11.2
		c0.6,2-0.4,3.5,0.4,5.6c2.3,5.9,7.3,10,7.3,10s-0.5-4.6,0-7.8c1.4-8.3,7.4-8.8,8.3-15.9c0.8-6.6-4.4-9.9-4.4-9.9s3.1-4.7,0.3-11.9
		c-3.2-8.1-11.1-9.3-11.1-9.3l-1.4-8.7l9.1-4.9c0,0,3.8,5.5,9.1,8.7c3.7,2.2,9.5,4,9.5,4s-3.6,4.5-4.2,13c-0.3,4.7,1.8,12.8,2,17.3
		c0.2,4.6-0.8,11.7-0.8,11.7l5.6-5.4c0,0,1.4,8.5,2.3,9.6c0.9,1.2,0,1.4,0,1.4s-10,4.7-15.1,9.6c-2.4,2.3-6.5,5.4-6.5,5.4l-2.1-2.8
		c-0.6-0.4-3.7,0.5-4,1.2c-0.4,1.3-1.6,3.8-2.9,4.8c-2.2,1.6-3.7,1.9-3.7,1.9l-2.8,2.5c0,0-10.3-14.4-5.7-30.1l0,0
		c0,0-8.7,7.2-8,16.2s6.7,13.5,6.7,13.5s-4.3,3.8-4.7,10.7c-0.4,7,3.7,11.3,3.7,11.3s-12.6-2.6-19.9-9.6c-8-7.7-16.9-30.7-1.4-61.5
		C70.1,144.2,79.3,141.9,79.3,141.9z"/>
	<path class="st4" d="M178.5,147.1c0,0,2,4.2,2.3,9.4c0.3,5.8-0.7,11-0.9,17.7c-0.2,6.6,6.2,14.2,6.2,14.2s2.4-0.6,6.3,1.4
		c3.8,1.9,6.9,7.8,6.9,7.8s1.1-6.5-2.5-12.1s-6.5-6.2-6.5-6.2s0.9-11.3-4.4-24C180.6,146.2,178.5,147.1,178.5,147.1z"/>
	<path class="st5" d="M185.4,216L185.4,216c2,0,5.1-0.9,7.2-3.4c3.9-4.6,5.3-9.5,5-12.1c-0.3-3-3.2-6.3-5.8-8.2
		c-1.6-1.2-3.2-1.8-4.1-1.6c-1.9,0.4-2.9,0.2-3.8,0c-0.4-0.1-0.8-0.1-1.2-0.1c-0.6,0-1.3,0.1-1.9,0.3c-0.7,0.1-1.5,0.3-2.2,0.2
		c-1.5,0-3.3-1.3-3.9-1.8c-0.9,0.8-0.3,2.2-0.1,2.7c0.6,0.2,2.6,1,4.9,2.3c2.3,1.3,3.3,1.3,3.3,1.3l0.4,0l0,0.4
		c0,0.1,0.1,2.5-0.9,5.4c-2.6,7.8-1.2,12.2,0,13.7C183,215.6,184.1,216,185.4,216z"/>
	<path class="st5" d="M83.6,216c0,0,3.5,1.9,5.1,1.5c1.5-0.4,1.4-1.1,3.1-2.4c1.5-1.2,1.7-1.1,4.5-2.7c2.8-1.6,3.9-6,3.9-6
		s1.3-0.7,1.9,0.9s-0.5,2.2-0.5,2.2s-6.6,6.2-7.8,16.4c-0.9,7.9,1.8,11.6,3.4,13.8c2.4,3.3,4,4.8,4,4.8s-4.2-0.4-9.9-5.1
		c-5.2-4.2-8.8-6.2-8.8-6.2s-2-1.4-2.7-7.2C79.3,220.9,83.6,216,83.6,216z"/>
	<path class="st0" d="M179.6,240.9c0.7,1.8,1.1,3.9,1.2,4.8c2.7-0.5,16.8-3.3,18.7-11.7c1.9-8.5-3.4-18.3-4.7-20.5
		c-0.8,0.9-3,3-5.8,4c-3.1,1.1-5.5,1.1-7.2,0c-1.9-1.3-2.9-4-2.9-8.6c-0.1-5,1.6-10.2,2.1-11.6l-6.2-3c-1.5-0.7-3-1.3-4.6-1.8
		l-4-1.1c-0.4,1.2-1.8,4.9-6.1,8.4c-2.3,1.9-9.3,6.5-13,6.3c-3.7-0.1-8.4-3.3-12.2-5.9c-4.3-2.9-6.6-6.1-7.2-7.1
		c-1.6,0.8-8.3,4.1-12.5,7.1c-9,6.3-14.7,13-16.9,19.9c-3.2,9.8-1.4,17.4,5.8,23.9c7.6,6.8,29.4,4.8,33.1,4.3l-4-12.1
		c-1.3,0.6-4.6,1.9-9.3,1.5c-3.3-0.3-9-2.5-9.9-4.9c-1-2.7-0.9-5.1,0.1-7.2c1.7-3.5,5.6-4.7,5.7-4.7l0.5-0.2v2.6
		c0,0.1,0.1,6.3,2,10.6c1,2.2,8.4,0.3,11.7-0.9c2-0.8,5.1-2.6,6.9-3.8c-0.1-0.1-0.2-0.3-0.3-0.4c-2.3-3.9-3.5-6.4-2.4-7.2
		c0.1-0.1,0.4-0.2,0.7-0.1c1.6,0.4,4.4,5.1,5,6.1l2.7,4.7c0.6-0.1,3.2-0.2,4.7,0.6c3.3,1.8,5.7,4.1,6.4,5.3
		c1.3-0.5,6.8-2.4,10.5-2.6c1.8-0.1,3-1,3.4-1.2l1.8-13.7l0.4,0c0.1,0,7.2,0.6,7.9,6.2c0.6,4.7-4.7,7.6-6.7,8.5
		C176.3,236.6,178.9,239,179.6,240.9z"/>
	<path class="st5" d="M136.1,235.5c0,0,5.8-3.5,6-3.5s3,4.6,3,4.6s0.3,1.2,1.9,0.6c1.6-0.6,1.4-2.5,1.4-2.5s4.2,1.2,6.3,4.1
		c2.2,2.9,0,7.8,0,7.8s-4,1.6-7.9,1.9s-6.8-1-6.8-1L136.1,235.5z"/>
	<path class="st5" d="M158.3,241c0,0,1.9-1,6.5-2c4.6-1,8.2-1.3,8.2-1.3s2.2,0.4,3.7,3.3s1.9,6.2,1.9,6.2s-2.6,0.7-7,0.7
		s-13.2-2.3-13.2-2.3s-0.9-1.3-0.9-2.8S158.3,241,158.3,241z"/>
	<g>
		<path class="st5" d="M165.9,184.2c0,0-3.8-1-8.6-5.4c-0.2,0.8-1.2,1.6-2.4,1.7c-1.9,0.1-3.1-1.2-3.1-1.2l-1.2-1.2
			c-0.2-0.1-0.1-0.3,0.1-0.3c0.7-0.1,1.4-0.5,2.5-0.5c0.3,0,2.6,0.1,2.8,0.1c-0.7-0.8-2.6-2.9-3.3-3.7
			c-8.4-10.1-11.7-17.1-11.7-17.1s-5.4,9.8-8.2,13.1c-2.7,3.3-7.1,8.9-7.1,8.9s1.1,11.7,5.5,15.9c4.5,4.3,12.3,9.5,16.1,9.5
			c2.6,0,11.2-4.6,14.4-8.8C166.1,189.4,165.9,184.2,165.9,184.2z M139.3,180.6c-2.1,0.2-2.8-1.1-2.8-1.1l-1.7-1.2
			c-0.1-0.1-0.1-0.8,0-0.8c1.3-0.2,5.2-0.8,7.7-0.1C143.7,177.6,141.1,180.4,139.3,180.6z M149.7,188.7c-0.5,0.8-1.7,2-2.8,1.9
			c-1.1,0-2.1-1.1-2.5-1.9c-0.1-0.2,0.1-1,0.3-0.9c0.6,0.4,1.7,1.3,2.4,1.2c0.6-0.1,1.5-0.8,2.1-1.3
			C149.4,187.7,149.8,188.5,149.7,188.7z"/>
	</g>
	<path class="st5" d="M149.3,103.2c0,0-2.1,0.4-7.2-1.6c-9.5-3.6-16.5-16.8-16.5-16.8s-4.3,7.3-9.6,12.3
		c-9.2,8.6-16.1,17.2-16.1,17.2s2.2,13.8,8.6,19c6.7,6.7,14.4,7.7,14.4,7.7s5.7-5.4,9.8-7.3s12.2-4.4,12.2-4.4s5.1-6.8,6-12.8
		C151.8,111.3,149.3,103.2,149.3,103.2z M119.4,110.9c-0.8,1.3-2.5,2.9-4.5,2.8c-1.9-0.1-3.7-1.3-4.6-2.5c-0.2-0.3,0.8-1.4,1.2-1.1
		c1,0.7,2.3,0.7,3.3,0.7c2,0.1,2.8-0.1,3.8-1.1C119,109.4,119.7,110.4,119.4,110.9z M131.1,122c-0.8,1.3-2.5,3.1-4.6,3
		c-1.9-0.1-3.4-1.6-4.2-2.8c-0.2-0.3,0.5-1.2,0.8-0.9c1,0.7,2.2,1.5,3.3,1.4c1.1-0.1,2.7-1,3.9-1.7
		C130.8,120.6,131.3,121.6,131.1,122z M141.9,110.6c-0.8,1.3-2.5,2.9-4.5,2.8c-1.9-0.1-3.7-1.3-4.5-2.6c-0.2-0.3,0.5-1.3,0.9-1
		c1,0.7,2.3,0.7,3.3,0.7c2,0.1,2.8-0.1,3.8-1.1C141.3,109.2,142.2,110.2,141.9,110.6z"/>
</g>
<g id="Layer_2">
	<path class="st6" d="M313.5,259.5H128.2c-61.9,0-112.6-50.7-112.6-112.6v0c0-61.9,50.7-112.6,112.6-112.6h185.3
		c61.9,0,112.6,50.7,112.6,112.6v0C426.1,208.8,375.5,259.5,313.5,259.5z"/>
</g>
</svg>
