<?xml version="1.0" encoding="utf-8"?>
<!-- Generator: Adobe Illustrator 25.0.1, SVG Export Plug-In . SVG Version: 6.00 Build 0)  -->
<svg version="1.1" id="Layer_1" xmlns="http://www.w3.org/2000/svg" xmlns:xlink="http://www.w3.org/1999/xlink" x="0px" y="0px"
	 viewBox="0 0 1621.79 1216.34" style="enable-background:new 0 0 1621.79 1216.34;" xml:space="preserve">
<style type="text/css">
	.st0{fill:#74CCE5;}
	.st1{fill:#E6E3B7;}
	.st2{fill:#603813;}
	.st3{fill:none;}
	.st4{fill:#689676;}
	.st5{fill:#ECC19C;}
</style>
<g>
	<path class="st0" d="M713.35,236.31c31.92,0,81.13,12.92,106.97,12.92c8.74,0,15.58-1.33,22.42-7.6l0.76,0.38
		c-14.82,29.07-31.73,37.05-50.16,37.05c-7.41,0-15.2-1.33-23.18-3.23c-6.27,2.28-10.26,11.59-12.54,26.6l-10.83,68.02
		c-3.23,20.33-0.19,27.17,15.58,27.17l-0.19,1.33h-77.71l0.19-1.33c19.95,0,21.85-10.64,25.27-32.87l8.74-56.81
		c3.61-23.94,33.25-31.35,49.59-32.68c-31.16-8.36-65.55-27.55-91.2-27.55c-12.73,0-20.71,4.75-20.71,14.82
		c0,10.07,7.6,15.01,15.96,15.01c6.08,0,12.54-2.66,16.72-7.98c7.79,3.61,11.02,9.31,11.02,15.2c0,14.44-12.35,22.23-25.27,22.23
		c-13.3,0-27.17-8.36-28.31-26.79C647.42,245.62,682.38,236.31,713.35,236.31z"/>
	<path class="st0" d="M848.25,311.74c0-7.41-4.56-12.35-11.02-12.35c-14.63,0-25.08,22.99-26.22,42.18
		c-1.14,20.14,6.08,37.81,27.17,37.81c8.74,0,20.33-3.04,29.26-13.49l1.14,0.57c-11.97,19.76-32.11,33.82-54.15,33.82
		c-22.99,0-39.33-15.2-39.33-40.66c0-32.49,27.74-61.75,63.84-61.75c14.82,0,36.48,3.61,36.48,21.28
		c0,14.06-16.34,32.49-63.08,20.14l0.19-0.76C838.18,339.86,848.25,325.23,848.25,311.74z"/>
	<path class="st0" d="M979.54,357.53c-2.85,16.34-4.56,37.62,3.8,40.85l-0.57,0.57c-4.37,0.95-8.93,1.33-13.49,1.33
		c-16.15,0-30.4-6.84-24.7-30.59l7.03-29.26l-0.76-0.19c-11.97,47.31-26.6,60.04-43.7,60.04c-19.95,0-26.98-17.67-26.98-35.15
		c0-30.21,27.17-67.26,61.94-67.26c18.81,0,33.82,16.34,47.5,0.76L979.54,357.53z M914.56,375.01c0,7.79,1.71,15.01,6.65,15.01
		c11.59,0,24.13-29.64,29.07-57.57l2.09-11.59c2.85-15.39,1.33-21.47-7.98-21.47C928.62,299.39,914.56,343.85,914.56,375.01z"/>
	<path class="st0" d="M1059.14,297.87c13.49,0,36.48,4.56,36.48,23.56c0,10.83-8.74,21.28-21.66,21.28
		c-8.55,0-16.34-5.32-15.01-16.72c7.79-2.09,11.59-8.36,11.59-14.25c0-6.46-4.37-12.35-12.92-12.35c-18.81,0-26.6,30.4-26.6,46.55
		c0,22.8,12.16,33.44,27.17,33.44c11.21,0,21.66-4.56,29.45-13.49l1.14,0.57c-13.49,22.61-35.34,33.82-54.53,33.82
		c-21.09,0-38.95-13.49-38.95-40.28C995.3,326.94,1023.04,297.87,1059.14,297.87z"/>
	<path class="st0" d="M1118.61,261.77c0.57-3.8-2.47-6.65-7.79-4.94l-0.57-0.57c6.65-3.23,19.95-7.41,29.07-7.41
		c10.83,0,15.01,3.99,12.54,16.91l-17.67,91.96l0.76,0.19c12.73-48.64,31.73-60.04,48.83-60.04c23.75,0,22.23,19.57,19.95,32.68
		l-4.56,26.98c-2.85,16.34-4.56,37.62,3.8,40.85l-0.57,0.57c-20.52,3.99-43.89,1.52-38.95-29.26l7.6-47.12
		c1.33-8.93,1.33-14.44-3.23-14.44c-10.64,0-23.75,21.85-30.78,50.16c-3.23,13.11-8.55,36.86-2.09,40.09l-0.57,0.57
		c-25.84,3.8-39.14,2.28-33.63-28.31L1118.61,261.77z"/>
	<path class="st0" d="M1286.76,311.74c0-7.41-4.56-12.35-11.02-12.35c-14.63,0-25.08,22.99-26.22,42.18
		c-1.14,20.14,6.08,37.81,27.17,37.81c8.74,0,20.33-3.04,29.26-13.49l1.14,0.57c-11.97,19.76-32.11,33.82-54.15,33.82
		c-22.99,0-39.33-15.2-39.33-40.66c0-32.49,27.74-61.75,63.84-61.75c14.82,0,36.48,3.61,36.48,21.28
		c0,14.06-16.34,32.49-63.08,20.14l0.19-0.76C1276.69,339.86,1286.76,325.23,1286.76,311.74z"/>
	<path class="st0" d="M1354.78,398.38l-0.57,0.57c-3.42,0.95-7.41,1.52-11.4,1.52c-13.11,0-26.41-6.46-22.23-29.83l10.64-59.85
		c0.57-3.8-2.47-6.65-7.79-4.94l-0.57-0.57c6.65-3.23,19.95-7.41,29.07-7.41c10.83,0,15.2,3.99,12.54,16.91l-10.45,43.13l0.76,0.19
		c12.73-48.64,25.46-61.75,44.84-61.75c16.91,0,24.32,10.64,24.32,22.04c0,12.73-9.5,25.46-26.41,25.46
		c-8.55,0-16.72-5.32-15.58-16.72c7.03,0,14.06-6.65,14.06-15.58c0-5.89-3.04-9.12-7.41-9.12c-11.78,0-23.56,23.18-31.73,56.05
		C1353.64,371.59,1348.32,395.15,1354.78,398.38z"/>
	<path class="st0" d="M803.87,485.97c0,23.24-21,43.96-45.92,43.96c-20.02,0-33.88-13.16-33.88-31.64
		c0-23.94,20.58-43.82,45.78-43.82C789.87,454.47,803.87,467.49,803.87,485.97z M778.11,470.15c0-8.26-1.82-14.56-8.4-14.56
		c-15.4,0-20.02,44.24-20.02,58.8c0,8.26,1.96,14.42,8.4,14.42C773.63,526.85,778.11,486.67,778.11,470.15z"/>
	<path class="st0" d="M821.09,455.45c3.22-19.46,6.16-35.98,27.58-35.98c12.46,0,20.16,6.3,20.16,15.26
		c0,8.68-6.02,15.54-16.8,15.54c-7.98,0-15.4-7.42-11.62-15.68c4.76,0.98,8.82-2.1,8.82-6.86c0-3.5-1.26-6.58-5.46-6.58
		c-6.16,0-12.74,6.58-12.74,14.14c0,11.9,14.28,14.56,13.02,20.16h11.76l-0.28,1.4h-9.52l-11.06,70.28
		c-2.66,16.8-11.76,35.98-29.4,35.98c-12.04,0-18.9-6.3-18.9-15.12c0-10.36,8.12-14.7,15.82-14.7c7.28,0,14.28,4.76,13.3,14.28
		c-5.18-0.28-8.12,2.24-8.12,6.44c0,3.08,1.82,5.32,5.18,5.32c6.3,0,8.4-5.74,8.4-12.04c0-11.9-12.32-14.7-10.36-27.16l10.08-63.28
		h-7.42l0.28-1.4H821.09z"/>
	<path class="st0" d="M919.23,455.45h9.8l-0.28,1.4h-9.66l-7,42.28c-1.96,12.04-3.36,27.72,2.8,30.1l-0.42,0.42
		c-1.96,0.28-4.34,0.56-6.86,0.56c-10.78,0-24.5-3.92-21.42-22.12l7.98-51.24h-6.3l0.28-1.4c20.16,0,31.08-6.72,34.3-26.6h1.26
		L919.23,455.45z"/>
	<path class="st0" d="M938.26,427.87c0.42-2.8-1.82-4.9-5.74-3.64l-0.42-0.42c4.9-2.38,14.7-5.46,21.42-5.46
		c7.98,0,11.06,2.94,9.24,12.46l-13.02,67.76l0.56,0.14c9.38-35.84,23.38-44.24,35.98-44.24c17.5,0,16.38,14.42,14.7,24.08
		l-3.36,19.88c-2.1,12.04-3.36,27.72,2.8,30.1l-0.42,0.42c-15.12,2.94-32.34,1.12-28.7-21.56l5.6-34.72
		c0.98-6.58,0.98-10.64-2.38-10.64c-7.84,0-17.5,16.1-22.68,36.96c-2.38,9.66-6.3,27.16-1.54,29.54l-0.42,0.42
		c-19.04,2.8-28.84,1.68-24.78-20.86L938.26,427.87z"/>
	<path class="st0" d="M1062.16,464.69c0-5.46-3.36-9.1-8.12-9.1c-10.78,0-18.48,16.94-19.32,31.08
		c-0.84,14.84,4.48,27.86,20.02,27.86c6.44,0,14.98-2.24,21.56-9.94l0.84,0.42c-8.82,14.56-23.66,24.92-39.9,24.92
		c-16.94,0-28.98-11.2-28.98-29.96c0-23.94,20.44-45.5,47.04-45.5c10.92,0,26.88,2.66,26.88,15.68c0,10.36-12.04,23.94-46.48,14.84
		l0.14-0.56C1054.74,485.41,1062.16,474.63,1062.16,464.69z"/>
	<path class="st0" d="M871.32,600.01l-33.06,59.47l-3.99,25.27c-3.61,22.23-5.32,32.87,14.63,32.87l-0.19,1.33h-77.9l0.19-1.33
		c19.95,0,21.66-10.64,25.27-32.87l2.85-19.19c-4.56-35.15-18.62-73.72-35.15-73.72c-2.47,0-5.89,1.9-8.93,4.37l-0.57-0.95
		c8.36-7.03,21.85-14.44,34.96-14.44c35.91,0,48.07,46.17,41.42,86.64l38.38-68.4c9.31-16.34,25.65-40.47,46.74-40.47
		c18.05,0,27.36,11.21,27.36,25.84c0,16.34-11.4,31.54-29.07,31.54c-13.87,0-22.42-9.12-22.42-19.57c0-6.08,3.04-15.2,13.87-18.05
		c2.28,5.13,6.08,7.98,11.78,7.98c7.98,0,12.54-5.89,12.54-12.92c0-6.46-3.61-11.59-14.25-11.59
		C899.44,561.82,885,575.5,871.32,600.01z"/>
	<path class="st0" d="M938.58,631.74c0-7.41-4.56-12.35-11.02-12.35c-14.63,0-25.08,22.99-26.22,42.18
		c-1.14,20.14,6.08,37.81,27.17,37.81c8.74,0,20.33-3.04,29.26-13.49l1.14,0.57c-11.97,19.76-32.11,33.82-54.15,33.82
		c-22.99,0-39.33-15.2-39.33-40.66c0-32.49,27.74-61.75,63.84-61.75c14.82,0,36.48,3.61,36.48,21.28
		c0,14.06-16.34,32.49-63.08,20.14l0.19-0.76C928.51,659.86,938.58,645.23,938.58,631.74z"/>
	<path class="st0" d="M1069.87,677.53c-2.85,16.34-4.56,37.62,3.8,40.85l-0.57,0.57c-4.37,0.95-8.93,1.33-13.49,1.33
		c-16.15,0-30.4-6.84-24.7-30.59l7.03-29.26l-0.76-0.19c-11.97,47.31-26.6,60.04-43.7,60.04c-19.95,0-26.98-17.67-26.98-35.15
		c0-30.21,27.17-67.26,61.94-67.26c18.81,0,33.82,16.34,47.5,0.76L1069.87,677.53z M1004.88,695.01c0,7.79,1.71,15.01,6.65,15.01
		c11.59,0,24.13-29.64,29.07-57.57l2.09-11.59c2.85-15.39,1.33-21.47-7.98-21.47C1018.95,619.39,1004.88,663.85,1004.88,695.01z"/>
	<path class="st0" d="M1121.73,718.38l-0.57,0.57c-3.42,0.95-7.41,1.52-11.4,1.52c-13.11,0-26.41-6.46-22.23-29.83l10.64-59.85
		c0.57-3.8-2.47-6.65-7.79-4.94l-0.57-0.57c6.65-3.23,19.95-7.41,29.07-7.41c10.83,0,15.2,3.99,12.54,16.91l-10.45,43.13l0.76,0.19
		c12.73-48.64,25.46-61.75,44.84-61.75c16.91,0,24.32,10.64,24.32,22.04c0,12.73-9.5,25.46-26.41,25.46
		c-8.55,0-16.72-5.32-15.58-16.72c7.03,0,14.06-6.65,14.06-15.58c0-5.89-3.04-9.12-7.41-9.12c-11.78,0-23.56,23.18-31.73,56.05
		C1120.59,691.59,1115.27,715.15,1121.73,718.38z"/>
	<path class="st1" d="M915.87,807.68c0,41.99-54.15,39.9-79.8,44.84c-15.2,2.85-24.51,8.74-31.73,20.33
		c6.84-6.46,20.33-9.31,29.07-9.31c18.05,0,35.53,11.59,55.1,11.59c8.36,0,16.72-2.09,20.14-11.21l1.14,0.19
		c-7.03,22.23-17.1,46.17-41.61,46.17c-16.15,0-45.6-14.44-62.32-14.44c-4.18,0-8.17,0.95-10.26,3.23
		c-0.57,3.04-0.76,6.46-0.76,9.88h-1.33c1.14-76.57,83.79-61.94,83.79-111.15c0-8.17-2.28-21.66-16.72-21.66
		c-12.92,0-21.28,10.64-21.28,20.14c0,7.22,4.94,13.11,16.72,9.31c5.7,13.49-7.03,27.93-22.23,27.93
		c-14.06,0-24.51-8.74-24.51-24.32c0-22.99,22.99-34.58,55.86-34.58C886.04,774.62,915.87,779.56,915.87,807.68z"/>
	<path class="st1" d="M1045.26,829.34c0,38.76-27.93,80.94-73.72,80.94c-33.25,0-52.06-22.8-52.06-54.53
		c0-38.95,27.55-81.13,73.53-81.13C1026.26,774.62,1045.26,797.61,1045.26,829.34z M1006.31,803.5c0-18.62-4.37-27.36-13.49-27.36
		c-22.04,0-34.58,71.44-34.58,105.64c0,18.43,4.37,26.98,13.49,26.98C993.77,908.76,1006.31,837.89,1006.31,803.5z"/>
	<path class="st1" d="M1163.82,807.68c0,41.99-54.15,39.9-79.8,44.84c-15.2,2.85-24.51,8.74-31.73,20.33
		c6.84-6.46,20.33-9.31,29.07-9.31c18.05,0,35.53,11.59,55.1,11.59c8.36,0,16.72-2.09,20.14-11.21l1.14,0.19
		c-7.03,22.23-17.1,46.17-41.61,46.17c-16.15,0-45.6-14.44-62.32-14.44c-4.18,0-8.17,0.95-10.26,3.23
		c-0.57,3.04-0.76,6.46-0.76,9.88h-1.33c1.14-76.57,83.79-61.94,83.79-111.15c0-8.17-2.28-21.66-16.72-21.66
		c-12.92,0-21.28,10.64-21.28,20.14c0,7.22,4.94,13.11,16.72,9.31c5.7,13.49-7.03,27.93-22.23,27.93
		c-14.06,0-24.51-8.74-24.51-24.32c0-22.99,22.99-34.58,55.86-34.58C1133.99,774.62,1163.82,779.56,1163.82,807.68z"/>
	<path class="st1" d="M1293.21,829.34c0,38.76-27.93,80.94-73.72,80.94c-33.25,0-52.06-22.8-52.06-54.53
		c0-38.95,27.55-81.13,73.53-81.13C1274.21,774.62,1293.21,797.61,1293.21,829.34z M1254.26,803.5c0-18.62-4.37-27.36-13.49-27.36
		c-22.04,0-34.58,71.44-34.58,105.64c0,18.43,4.37,26.98,13.49,26.98C1241.72,908.76,1254.26,837.89,1254.26,803.5z"/>
</g>
<path class="st2" d="M525.59,242.26c-33.33-14.26-71.32-12.94-103.86,3.06c-47.64,23.42-113.28,77.9-111.27,199.96
	c2.55,154.72,59.74,193.53,59.74,193.53s-14.81,10.72-12.77,31.15c2.04,20.43,17.48,26.15,22.47,41.87
	c2.14,6.74-7.15,14.3,15.32,42.89c0,0-2.55-21.45,4.6-34.72c6.67-12.39,14.24-6.99,23.52-32.8c1.61-4.47,1.93-9.32,0.85-13.95
	c-1.39-6.01-4.44-14.14-11.1-19.64c-11.74-9.7,9.19-10.21,0-41.36c-9.19-31.15-40.34-35.74-40.34-35.74s-11.23-28.6-6.13-66.89
	c4.93-36.95,22.98-57.7,67.91-102.13s49.02-59.74,49.02-59.74s29.62,50.04,55.66,62.81c26.04,12.77,32.68,5.62,32.68,5.62
	s12.26,33.7,7.66,58.21c-4.6,24.51-21.45,46.47-21.45,46.47s15.32-4.6,28.09-5.11c12.77-0.51,19.72,2.49,19.72,2.49
	s33.39-79.09,21.13-142.41c-12.26-63.32-37.28-92.43-75.06-118.98C543.34,250.77,534.33,245.99,525.59,242.26z"/>
<path class="st3" d="M413.11,653.62"/>
<path class="st1" d="M534.64,532.6c0,0-26.55,3.06-54.13,39.83c-27.57,36.77-12.66,77.62-10.42,96.51s-2.35,32.17-2.35,32.17
	s32.17-35.74,47.49-62.81c15.32-27.06,23.49-40.85,23.49-40.85s28.57,54.12,50.55,77.62c14.81,15.83,36.26,32.68,58.72,38.3
	c19.87,4.97,24.51,1.02,24.51,1.02c-9.87-4.77-15.83-12.26-15.83-12.26s14.3,6.64,20.94,6.64c0,0-6.12-5.65-10.21-21.45
	c-7.15-27.57,10.05-31.15,1.53-83.74c-8.3-51.24-50.55-77.11-82.21-80.17c-21.33-2.06-49.04,8.42-42.89,6.64L534.64,532.6z"/>
<path class="st4" d="M319.15,562.21c0,0,13.28,37.79,21.96,52.6c8.68,14.81,19.87,24.98,19.87,24.98s-13.41,16.08-9.55,31.57
	c6.02,24.14,19.76,32.75,21.81,39.9c2.04,7.15-1.38,12.46,1.55,19.98c8.17,20.94,26.06,35.74,26.06,35.74s-1.9-16.54,0-27.57
	c5.11-29.62,26.55-31.15,29.62-56.68c2.82-23.52-15.79-35.23-15.79-35.23s11.23-16.81,1.02-42.38
	c-11.52-28.85-39.36-33.23-39.36-33.23l-5.11-31.11l32.33-17.63c0,0,13.63,19.67,32.53,30.91c13.05,7.76,41.87,7.15,41.87,7.15
	s-17.87,25.02-19.91,55.15c-1.14,16.82,5.4,43.4,6.02,59.74c0.62,16.34-3.97,39.78-3.97,39.78l18.89-17.32
	c0,0,5.11,30.13,8.17,34.21c3.06,4.09,0,5.11,0,5.11s-35.74,16.85-53.62,34.21c-8.58,8.34-25.28,19.4-25.28,19.4l-6.25-5.3
	c-2.06-1.27-9.07-2.1-9.83,0.2c-1.55,4.68-7.27,16.86-12.13,20.43c-7.66,5.62-13.91,4.09-13.91,4.09l-10.41,8.92
	c0,0-37.08-52.84-20.74-108.5l0,0c0,0-31.15,25.53-28.6,57.7c2.55,32.17,25.79,49.02,25.79,49.02s-13.31,12.51-14.81,37.02
	c-1.53,25.02,12.26,40.09,12.26,40.09s-47.74-9.19-73.79-34.21c-28.43-27.31-60.26-109.28-5.11-219.06
	C286.6,570.44,319.15,562.21,319.15,562.21z"/>
<path class="st4" d="M664.85,571.91c0,0,12.71,34.04,13.62,52.43c1.02,20.6-6.47,27.74-7.21,51.74
	c-0.72,23.39,25.41,51.68,25.41,51.68s7.66-3.2,21.79,3.72c13.39,6.56,22.98,21.19,22.98,21.19s3.06-16.9-9.7-36.81
	c-12.77-19.91-28.57-24.47-28.57-24.47s0-53.62-12.79-83.23C675.27,573.19,664.85,571.91,664.85,571.91z"/>
<path class="st5" d="M657.59,741.38c0,0-5-8.85,1.47-12.6c0,0,7.83,6.64,13.96,6.81c4.62,0.13,9.53-1.51,14.64-1.7
	c4.43-0.17,7.68,2.23,17.36,0.32c10.61-2.09,34.96,19.26,36.94,36.28c1.25,10.76-5.25,28.8-18.21,44.09
	c-11.55,13.63-32.07,16.01-38.47,8.51c-4.09-4.79-10.09-20.64-0.34-50.04c3.36-10.14,3.06-18.72,3.06-18.72s-3.86,0.31-12.68-4.77
	C665.78,744.07,657.59,741.38,657.59,741.38z"/>
<path class="st5" d="M332.72,825.03c0,0,14.64,7.65,20.09,6.29s5.11-3.91,11.23-8.51c5.51-4.14,6.13-3.83,16-9.62S396,792,396,792
	s4.5-2.56,6.89,3.23c2.38,5.79-1.78,7.75-1.78,7.75s-22.65,21.15-26.58,57.4c-3.07,28.23,5.52,41.41,11.01,49.07
	c8.53,11.9,15.28,17.19,15.28,17.19s-17.78-0.47-38.24-17.19c-18.38-15.02-31.55-21.96-31.55-21.96s-6.98-5.06-9.53-25.53
	C319.19,843.52,332.72,825.03,332.72,825.03z"/>
<path class="st0" d="M492.23,742.49c0,0-28.47,13.7-45.94,26.02c-30.07,21.21-52.04,45.05-60.71,71.41
	c-9.76,29.69-8.91,59.65,21.22,86.71s122.72,13.45,122.72,13.45l-15.32-45.45c0,0-15.97,8.75-36,7.15
	c-12.38-0.99-31.32-8.93-33.96-16.34c-11-30.97,19.8-40.6,19.8-40.6v7.4c0,3.81,0.96,24.31,7.26,38.55c4.39,9.92,34.34,1.1,43.4-2.3
	c7.49-2.81,18.43-9.63,25.79-14.51c0.33-0.22-14.96-23.46-10.47-26.34c4.51-2.89,18.38,20.94,18.38,20.94l14.3,19.4
	c0,0,7.42-1.39,13.79,2.04c13.75,7.4,21.96,17.36,21.96,17.36s23.43-8.83,37.79-9.7c8.43-0.51,13.28-5.11,13.28-5.11l6.22-47.76
	c0,0,24.42,1.8,26.97,20.7c2.55,18.89-26.97,30.64-26.97,30.64s14.21,11.74,17.27,19.91c3.06,8.17,4.6,19.4,4.6,19.4
	s63.55-11,71.23-45.19c7.91-35.23-18.15-75.87-18.15-75.87s-8.81,10.84-21.43,15.36c-27.06,9.7-33.64-6.36-34.15-29.34
	c-0.45-20.23,7.85-42.15,7.85-42.15l-23.06-11.34c-5.38-2.65-11-4.77-16.78-6.36l-15.56-4.26c0,0-3.64,15.77-21.51,30.58
	c-8.51,7.05-32.88,22.61-45.13,22.28c-12.26-0.34-28.42-11.07-42.64-20.68C500.17,756.26,492.23,742.49,492.23,742.49z"/>
<path class="st5" d="M520.34,895.15c0,0,21.45-16.34,22.47-16.34c1.02,0,10.72,20.43,10.72,20.43s1.02,4.09,6.64,2.04
	s5.02-8.99,5.02-8.99s14.89,4.4,22.55,14.61c7.66,10.21,0,27.57,0,27.57s-14.3,5.62-28.09,6.64c-13.79,1.02-27.06-4.6-27.06-4.6
	L520.34,895.15z"/>
<path class="st5" d="M599.49,913.02c0,0,6.64-3.57,22.98-7.15c16.34-3.57,29.11-4.6,29.11-4.6s7.66,1.53,13.28,11.74
	s6.64,21.96,6.64,21.96s-9.19,2.55-25.02,2.55s-46.98-8.17-46.98-8.17s-3.06-4.6-3.06-9.96S599.49,913.02,599.49,913.02z"/>
<g>
	<path class="st5" d="M627.57,712.87c0,0-16.27-7.98-33.49-23.98c-0.69,2.67-1.17,3.22-5.49,3.54c-6.89,0.5-9.66-3.69-9.66-3.69
		l-5.66-3.04c-0.56-0.3-0.42-1.15,0.21-1.23c2.42-0.34,6.73-0.81,10.74-0.66c0.91,0.03,4.16,0.21,4.97,0.28
		c-2.57-2.65-5.93-6.24-8.42-9.25c-29.79-36.03-41.54-66.66-41.54-66.66s-19.4,38.81-29.11,50.55
		c-9.7,11.74-26.28,32.64-26.28,32.64s5.02,42.61,20.66,57.74c15.89,15.37,43.87,33.69,57.19,33.72
		c9.14,0.02,39.83-16.36,51.06-31.17C628.18,731.35,627.57,712.87,627.57,712.87z M532.77,693.79c-7.29,0.65-8.3-5.38-8.3-5.38
		l-7.73-2.84c-0.48-0.18-0.42-0.87,0.08-0.96c4.78-0.82,18.03-2.75,26.69-0.48C547.95,685.29,539.26,693.21,532.77,693.79z
		 M569.16,728.13c-1.7,2.92-4.67,6.58-8.89,6.42c-3.97-0.14-6.83-3.33-8.57-6.06c-0.47-0.74,0.45-1.57,1.13-1.02
		c2.02,1.62,4.67,3.26,6.83,2.99c2.33-0.29,5.64-2.16,8.05-3.71C568.62,726.17,569.7,727.2,569.16,728.13z"/>
</g>
<path class="st5" d="M568.36,424.32c0,0-7.37,1.29-25.55-5.6c-33.7-12.77-58.72-59.74-58.72-59.74s-15.18,26.07-34.21,43.91
	c-32.68,30.64-57.19,61.32-57.19,61.32s8.17,53.06,31.15,71.45c22.98,18.38,46.27,18.38,46.27,18.38h13.54
	c0,0,11.26-14.38,26.06-21.02c14.81-6.64,40.77-11.15,40.77-11.15s20.7-28.65,23.98-50.04
	C577.31,453.15,568.36,424.32,568.36,424.32z M461.85,449.82c-2.9,4.75-7.71,7.62-14.92,7.37c-6.78-0.24-11.95-2.34-14.93-6.78
	c-0.8-1.2,0.77-2.55,1.94-1.66c3.46,2.63,8.14,2.56,11.84,2.65c6.98,0.17,9.87-0.17,13.6-3.82
	C460.68,446.31,462.78,448.31,461.85,449.82z M503.42,489.59c-2.9,4.75-7.98,10.68-15.19,10.43c-6.78-0.24-11.68-5.4-14.65-9.84
	c-0.8-1.2,0.77-2.55,1.94-1.66c3.46,2.63,7.99,5.3,11.67,4.86c3.98-0.47,9.64-3.51,13.77-6.03
	C502.5,486.41,504.34,488.08,503.42,489.59z M541.18,449.13c-2.9,4.75-7.71,7.62-14.92,7.37c-6.78-0.24-11.95-2.34-14.93-6.78
	c-0.8-1.2,0.77-2.55,1.94-1.66c3.46,2.63,8.14,2.56,11.84,2.65c6.98,0.17,9.87-0.17,13.6-3.82
	C540.01,445.62,542.1,447.61,541.18,449.13z"/>
</svg>
