<?xml version="1.0" encoding="utf-8"?>
<!-- Generator: Adobe Illustrator 25.0.1, SVG Export Plug-In . SVG Version: 6.00 Build 0)  -->
<svg version="1.1" id="Layer_1" xmlns="http://www.w3.org/2000/svg" xmlns:xlink="http://www.w3.org/1999/xlink" x="0px" y="0px"
	 viewBox="0 0 1621.8 1216.3" style="enable-background:new 0 0 1621.8 1216.3;" xml:space="preserve">
<style type="text/css">
	.st0{fill:#74CCE5;}
	.st1{fill:#E6E3B7;}
	.st2{fill:#603813;}
	.st3{fill:none;}
	.st4{fill:#689676;}
	.st5{fill:#ECC19C;}
	.st6{fill:none;stroke:#000000;stroke-width:3;stroke-miterlimit:10;}
</style>
<g>
	<path class="st0" d="M713.3,236.3c31.9,0,81.1,12.9,107,12.9c8.7,0,15.6-1.3,22.4-7.6l0.8,0.4c-14.8,29.1-31.7,37.1-50.2,37.1
		c-7.4,0-15.2-1.3-23.2-3.2c-6.3,2.3-10.3,11.6-12.5,26.6l-10.8,68c-3.2,20.3-0.2,27.2,15.6,27.2l-0.2,1.3h-77.7l0.2-1.3
		c20,0,21.8-10.6,25.3-32.9l8.7-56.8c3.6-23.9,33.2-31.4,49.6-32.7c-31.2-8.4-65.5-27.6-91.2-27.6c-12.7,0-20.7,4.8-20.7,14.8
		c0,10.1,7.6,15,16,15c6.1,0,12.5-2.7,16.7-8c7.8,3.6,11,9.3,11,15.2c0,14.4-12.3,22.2-25.3,22.2c-13.3,0-27.2-8.4-28.3-26.8
		C647.4,245.6,682.4,236.3,713.3,236.3z"/>
	<path class="st0" d="M848.2,311.7c0-7.4-4.6-12.4-11-12.4c-14.6,0-25.1,23-26.2,42.2c-1.1,20.1,6.1,37.8,27.2,37.8
		c8.7,0,20.3-3,29.3-13.5l1.1,0.6c-12,19.8-32.1,33.8-54.2,33.8c-23,0-39.3-15.2-39.3-40.7c0-32.5,27.7-61.8,63.8-61.8
		c14.8,0,36.5,3.6,36.5,21.3c0,14.1-16.3,32.5-63.1,20.1l0.2-0.8C838.2,339.9,848.2,325.2,848.2,311.7z"/>
	<path class="st0" d="M979.5,357.5c-2.8,16.3-4.6,37.6,3.8,40.9l-0.6,0.6c-4.4,1-8.9,1.3-13.5,1.3c-16.2,0-30.4-6.8-24.7-30.6
		l7-29.3l-0.8-0.2c-12,47.3-26.6,60-43.7,60c-20,0-27-17.7-27-35.1c0-30.2,27.2-67.3,61.9-67.3c18.8,0,33.8,16.3,47.5,0.8
		L979.5,357.5z M914.6,375c0,7.8,1.7,15,6.7,15c11.6,0,24.1-29.6,29.1-57.6l2.1-11.6c2.8-15.4,1.3-21.5-8-21.5
		C928.6,299.4,914.6,343.9,914.6,375z"/>
	<path class="st0" d="M1059.1,297.9c13.5,0,36.5,4.6,36.5,23.6c0,10.8-8.7,21.3-21.7,21.3c-8.6,0-16.3-5.3-15-16.7
		c7.8-2.1,11.6-8.4,11.6-14.2c0-6.5-4.4-12.4-12.9-12.4c-18.8,0-26.6,30.4-26.6,46.5c0,22.8,12.2,33.4,27.2,33.4
		c11.2,0,21.7-4.6,29.4-13.5l1.1,0.6c-13.5,22.6-35.3,33.8-54.5,33.8c-21.1,0-39-13.5-39-40.3C995.3,326.9,1023,297.9,1059.1,297.9z
		"/>
	<path class="st0" d="M1118.6,261.8c0.6-3.8-2.5-6.6-7.8-4.9l-0.6-0.6c6.7-3.2,19.9-7.4,29.1-7.4c10.8,0,15,4,12.5,16.9l-17.7,92
		l0.8,0.2c12.7-48.6,31.7-60,48.8-60c23.8,0,22.2,19.6,19.9,32.7l-4.6,27c-2.8,16.3-4.6,37.6,3.8,40.9l-0.6,0.6
		c-20.5,4-43.9,1.5-38.9-29.3l7.6-47.1c1.3-8.9,1.3-14.4-3.2-14.4c-10.6,0-23.8,21.9-30.8,50.2c-3.2,13.1-8.6,36.9-2.1,40.1
		l-0.6,0.6c-25.8,3.8-39.1,2.3-33.6-28.3L1118.6,261.8z"/>
	<path class="st0" d="M1286.8,311.7c0-7.4-4.6-12.4-11-12.4c-14.6,0-25.1,23-26.2,42.2c-1.1,20.1,6.1,37.8,27.2,37.8
		c8.7,0,20.3-3,29.3-13.5l1.1,0.6c-12,19.8-32.1,33.8-54.2,33.8c-23,0-39.3-15.2-39.3-40.7c0-32.5,27.7-61.8,63.8-61.8
		c14.8,0,36.5,3.6,36.5,21.3c0,14.1-16.3,32.5-63.1,20.1l0.2-0.8C1276.7,339.9,1286.8,325.2,1286.8,311.7z"/>
	<path class="st0" d="M1354.8,398.4l-0.6,0.6c-3.4,1-7.4,1.5-11.4,1.5c-13.1,0-26.4-6.5-22.2-29.8l10.6-59.9
		c0.6-3.8-2.5-6.6-7.8-4.9l-0.6-0.6c6.7-3.2,19.9-7.4,29.1-7.4c10.8,0,15.2,4,12.5,16.9l-10.4,43.1l0.8,0.2
		c12.7-48.6,25.5-61.8,44.8-61.8c16.9,0,24.3,10.6,24.3,22c0,12.7-9.5,25.5-26.4,25.5c-8.6,0-16.7-5.3-15.6-16.7
		c7,0,14.1-6.6,14.1-15.6c0-5.9-3-9.1-7.4-9.1c-11.8,0-23.6,23.2-31.7,56C1353.6,371.6,1348.3,395.1,1354.8,398.4z"/>
	<path class="st0" d="M803.9,486c0,23.2-21,44-45.9,44c-20,0-33.9-13.2-33.9-31.6c0-23.9,20.6-43.8,45.8-43.8
		C789.9,454.5,803.9,467.5,803.9,486z M778.1,470.1c0-8.3-1.8-14.6-8.4-14.6c-15.4,0-20,44.2-20,58.8c0,8.3,2,14.4,8.4,14.4
		C773.6,526.8,778.1,486.7,778.1,470.1z"/>
	<path class="st0" d="M821.1,455.5c3.2-19.5,6.2-36,27.6-36c12.5,0,20.2,6.3,20.2,15.3c0,8.7-6,15.5-16.8,15.5
		c-8,0-15.4-7.4-11.6-15.7c4.8,1,8.8-2.1,8.8-6.9c0-3.5-1.3-6.6-5.5-6.6c-6.2,0-12.7,6.6-12.7,14.1c0,11.9,14.3,14.6,13,20.2h11.8
		l-0.3,1.4H846l-11,70.3c-2.7,16.8-11.8,36-29.4,36c-12,0-18.9-6.3-18.9-15.1c0-10.4,8.1-14.7,15.8-14.7c7.3,0,14.3,4.8,13.3,14.3
		c-5.2-0.3-8.1,2.2-8.1,6.4c0,3.1,1.8,5.3,5.2,5.3c6.3,0,8.4-5.7,8.4-12c0-11.9-12.3-14.7-10.4-27.2l10.1-63.3h-7.4l0.3-1.4
		L821.1,455.5L821.1,455.5z"/>
	<path class="st0" d="M919.2,455.5h9.8l-0.3,1.4H919l-7,42.3c-2,12-3.4,27.7,2.8,30.1l-0.4,0.4c-2,0.3-4.3,0.6-6.9,0.6
		c-10.8,0-24.5-3.9-21.4-22.1l8-51.2h-6.3l0.3-1.4c20.2,0,31.1-6.7,34.3-26.6h1.3L919.2,455.5z"/>
	<path class="st0" d="M938.3,427.9c0.4-2.8-1.8-4.9-5.7-3.6l-0.4-0.4c4.9-2.4,14.7-5.5,21.4-5.5c8,0,11.1,2.9,9.2,12.5l-13,67.8
		l0.6,0.1c9.4-35.8,23.4-44.2,36-44.2c17.5,0,16.4,14.4,14.7,24.1l-3.4,19.9c-2.1,12-3.4,27.7,2.8,30.1l-0.4,0.4
		c-15.1,2.9-32.3,1.1-28.7-21.6l5.6-34.7c1-6.6,1-10.6-2.4-10.6c-7.8,0-17.5,16.1-22.7,37c-2.4,9.7-6.3,27.2-1.5,29.5l-0.4,0.4
		c-19,2.8-28.8,1.7-24.8-20.9L938.3,427.9z"/>
	<path class="st0" d="M1062.2,464.7c0-5.5-3.4-9.1-8.1-9.1c-10.8,0-18.5,16.9-19.3,31.1c-0.8,14.8,4.5,27.9,20,27.9
		c6.4,0,15-2.2,21.6-9.9l0.8,0.4c-8.8,14.6-23.7,24.9-39.9,24.9c-16.9,0-29-11.2-29-30c0-23.9,20.4-45.5,47-45.5
		c10.9,0,26.9,2.7,26.9,15.7c0,10.4-12,23.9-46.5,14.8l0.1-0.6C1054.7,485.4,1062.2,474.6,1062.2,464.7z"/>
	<path class="st0" d="M871.3,600l-33.1,59.5l-4,25.3c-3.6,22.2-5.3,32.9,14.6,32.9l-0.2,1.3h-77.9l0.2-1.3c20,0,21.7-10.6,25.3-32.9
		l2.8-19.2c-4.6-35.2-18.6-73.7-35.2-73.7c-2.5,0-5.9,1.9-8.9,4.4l-0.6-1c8.4-7,21.8-14.4,35-14.4c35.9,0,48.1,46.2,41.4,86.6
		l38.4-68.4c9.3-16.3,25.7-40.5,46.7-40.5c18,0,27.4,11.2,27.4,25.8c0,16.3-11.4,31.5-29.1,31.5c-13.9,0-22.4-9.1-22.4-19.6
		c0-6.1,3-15.2,13.9-18c2.3,5.1,6.1,8,11.8,8c8,0,12.5-5.9,12.5-12.9c0-6.5-3.6-11.6-14.2-11.6C899.4,561.8,885,575.5,871.3,600z"/>
	<path class="st0" d="M938.6,631.7c0-7.4-4.6-12.3-11-12.3c-14.6,0-25.1,23-26.2,42.2c-1.1,20.1,6.1,37.8,27.2,37.8
		c8.7,0,20.3-3,29.3-13.5l1.1,0.6c-12,19.8-32.1,33.8-54.2,33.8c-23,0-39.3-15.2-39.3-40.7c0-32.5,27.7-61.8,63.8-61.8
		c14.8,0,36.5,3.6,36.5,21.3c0,14.1-16.3,32.5-63.1,20.1l0.2-0.8C928.5,659.9,938.6,645.2,938.6,631.7z"/>
	<path class="st0" d="M1069.9,677.5c-2.8,16.3-4.6,37.6,3.8,40.8l-0.6,0.6c-4.4,1-8.9,1.3-13.5,1.3c-16.2,0-30.4-6.8-24.7-30.6
		l7-29.3l-0.8-0.2c-12,47.3-26.6,60-43.7,60c-20,0-27-17.7-27-35.2c0-30.2,27.2-67.3,61.9-67.3c18.8,0,33.8,16.3,47.5,0.8
		L1069.9,677.5z M1004.9,695c0,7.8,1.7,15,6.7,15c11.6,0,24.1-29.6,29.1-57.6l2.1-11.6c2.8-15.4,1.3-21.5-8-21.5
		C1019,619.4,1004.9,663.8,1004.9,695z"/>
	<path class="st0" d="M1121.7,718.4l-0.6,0.6c-3.4,1-7.4,1.5-11.4,1.5c-13.1,0-26.4-6.5-22.2-29.8l10.6-59.8
		c0.6-3.8-2.5-6.7-7.8-4.9l-0.6-0.6c6.7-3.2,19.9-7.4,29.1-7.4c10.8,0,15.2,4,12.5,16.9l-10.4,43.1l0.8,0.2
		c12.7-48.6,25.5-61.8,44.8-61.8c16.9,0,24.3,10.6,24.3,22c0,12.7-9.5,25.5-26.4,25.5c-8.6,0-16.7-5.3-15.6-16.7
		c7,0,14.1-6.7,14.1-15.6c0-5.9-3-9.1-7.4-9.1c-11.8,0-23.6,23.2-31.7,56C1120.6,691.6,1115.3,715.2,1121.7,718.4z"/>
	<path class="st1" d="M915.9,807.7c0,42-54.2,39.9-79.8,44.8c-15.2,2.8-24.5,8.7-31.7,20.3c6.8-6.5,20.3-9.3,29.1-9.3
		c18,0,35.5,11.6,55.1,11.6c8.4,0,16.7-2.1,20.1-11.2l1.1,0.2c-7,22.2-17.1,46.2-41.6,46.2c-16.2,0-45.6-14.4-62.3-14.4
		c-4.2,0-8.2,1-10.3,3.2c-0.6,3-0.8,6.5-0.8,9.9h-1.3c1.1-76.6,83.8-61.9,83.8-111.2c0-8.2-2.3-21.7-16.7-21.7
		c-12.9,0-21.3,10.6-21.3,20.1c0,7.2,4.9,13.1,16.7,9.3c5.7,13.5-7,27.9-22.2,27.9c-14.1,0-24.5-8.7-24.5-24.3
		c0-23,23-34.6,55.9-34.6C886,774.6,915.9,779.6,915.9,807.7z"/>
	<path class="st1" d="M1045.3,829.3c0,38.8-27.9,80.9-73.7,80.9c-33.2,0-52.1-22.8-52.1-54.5c0-39,27.5-81.1,73.5-81.1
		C1026.3,774.6,1045.3,797.6,1045.3,829.3z M1006.3,803.5c0-18.6-4.4-27.4-13.5-27.4c-22,0-34.6,71.4-34.6,105.6
		c0,18.4,4.4,27,13.5,27C993.8,908.8,1006.3,837.9,1006.3,803.5z"/>
	<path class="st1" d="M1163.8,807.7c0,42-54.2,39.9-79.8,44.8c-15.2,2.8-24.5,8.7-31.7,20.3c6.8-6.5,20.3-9.3,29.1-9.3
		c18.1,0,35.5,11.6,55.1,11.6c8.4,0,16.7-2.1,20.1-11.2l1.1,0.2c-7,22.2-17.1,46.2-41.6,46.2c-16.2,0-45.6-14.4-62.3-14.4
		c-4.2,0-8.2,1-10.3,3.2c-0.6,3-0.8,6.5-0.8,9.9h-1.3c1.1-76.6,83.8-61.9,83.8-111.2c0-8.2-2.3-21.7-16.7-21.7
		c-12.9,0-21.3,10.6-21.3,20.1c0,7.2,4.9,13.1,16.7,9.3c5.7,13.5-7,27.9-22.2,27.9c-14.1,0-24.5-8.7-24.5-24.3
		c0-23,23-34.6,55.9-34.6C1134,774.6,1163.8,779.6,1163.8,807.7z"/>
	<path class="st1" d="M1293.2,829.3c0,38.8-27.9,80.9-73.7,80.9c-33.2,0-52.1-22.8-52.1-54.5c0-39,27.6-81.1,73.5-81.1
		C1274.2,774.6,1293.2,797.6,1293.2,829.3z M1254.3,803.5c0-18.6-4.4-27.4-13.5-27.4c-22,0-34.6,71.4-34.6,105.6
		c0,18.4,4.4,27,13.5,27C1241.7,908.8,1254.3,837.9,1254.3,803.5z"/>
</g>
<path class="st2" d="M577.7,510.9c2.6,0,5.2,0,8.1-0.1l0.2,0l0.2,0c7.6,0.7,12.5,1.9,15.7,2.9c7.3-19,30.2-85.2,20.1-136.9
	c-12.1-62.2-36.9-90.4-73-115.8c-7.5-5.3-16.1-10.1-25.5-14c-14.9-6.3-30.5-9.5-46.4-9.5c-18.3,0-36.7,4.3-53.3,12.4
	c-50.6,24.8-110.5,78.9-108.5,195.4c1.3,79.1,17.2,126.6,30.3,152.6c13,25.9,25.9,35.9,27.3,36.9l5.8,3.9l-5.5,4.2l0,0
	c-1.3,1-12.4,10.3-10.8,26.7c1,10.2,5.9,16.2,11.1,22.6l0.2,0.3c4,4.9,8.5,10.4,10.9,17.9c0.8,2.6,0.6,5,0.4,7.3l0,0.2
	c-0.5,4.3-1,9.9,5,20.5c0.5-7,2-14.5,5.3-20.7c3-5.6,6.2-8.1,9.3-10.6l0.3-0.2c4.4-3.5,8.5-6.8,13.6-21.3c1.3-3.7,1.5-7.5,0.7-11.1
	c-1.2-5.2-3.8-12.3-9.4-16.9c-8.5-7-5.3-12.9-3-17.3c2.4-4.7,5.8-11.2,1.3-26.5c-7.5-25.4-31.5-31.3-36.3-32.2c0,0,0,0,0,0l-2.9-0.3
	l-1.1-2.9c-1.2-3.1-11.3-32.1-6.3-69.2c5.2-38.4,23.1-59.3,69.3-105c41-40.5,47.2-56.3,47.7-57.5l3.3-11.2l5.9,9.8
	c1.2,2,29.6,49.1,53.5,60.9c19.6,9.6,26.3,6.8,27,6.4l5.4-5.1l2.7,7c1.3,3.7,12.5,36.1,7.9,60.9c-3,16.1-8.5,28.1-12.6,35.5
	C573.6,510.8,575.6,510.8,577.7,510.9z"/>
<path class="st3" d="M413.1,653.6"/>
<g>
	<path class="st1" d="M544.6,533.1c1.2-0.7,2.1-2.4,1.5-4.1c0,0,0-0.1,0-0.1c-1.1,0.3-1.9,0.6-2.5,0.8L544.6,533.1z"/>
	<path class="st1" d="M669.7,703.5c-1.9-3.6-4.1-8.7-5.8-15.4c-3.4-13.2-1.6-21.4,0.5-30.9c2.5-11.1,5.5-24.9,0.9-53.2
		c-8.4-51.8-51.9-74.6-79.1-77.3c-17.1-1.7-38.6,5.1-41.6,6.3l0,0.1l0,0c0,0,0,0,0,0l-9.7,2.8c-0.4,0.1-25.6,3.7-51.7,38.4
		c-22.1,29.4-15.8,61.4-11.7,82.6c0.8,4.4,1.6,8.1,2,11.4c1,7.9,0.8,14.8,0.2,20.3c10.6-12.5,28.3-34.4,38.4-52.2
		c15.1-26.8,23.5-40.7,23.5-40.9l3-5.1l3,5.1c0.3,0.5,31.7,54,53,77c13.5,14.5,31.9,31.8,54,37.3c6,1.5,10.4,2.1,13.7,2.3
		c-5.3-4-8.4-7.8-8.6-8.1l-9-11.4l13.2,6.1C661.1,700.3,665.6,702.2,669.7,703.5z"/>
</g>
<path class="st4" d="M385.2,784.7c0.5-1.4,1.7-3.2,6.8-5c2.1-0.7,9.2-3,12.5-1l0.5,0.3l5.9,7.6c4.6-3.6,14.1-11.1,20.2-17
	c16.6-16.1,47.3-31.3,53.5-34.3c-0.1-0.1-0.1-0.2-0.2-0.3c-2.6-3.5-5.9-19.2-7.7-29.2l-22.5,21.8l1.4-10.1c0-0.3,3.5-25.4,3-41.2
	c-0.2-6.7-1.7-15.6-3.2-25c-2.2-13.2-4.4-26.9-3.7-37c1.5-22.5,8.8-37.4,12.9-44.1c-7-2.4-20.5-7.3-30.2-13.1
	c-15.4-9.2-27.3-23.5-31.7-29.4l-27.4,14.9l4.3,26.3c7.5,1.9,29.4,9.4,39.6,34.8c8.4,21,3.2,36.5,0.3,42.7
	c5.5,4.5,17.1,16.6,14.8,36.6c-1.7,13.6-8.2,21-14.5,28.3c-6.2,7.1-12.7,14.5-15.1,28.6c-1.8,10.5,0,26.4,0,26.6l1,8.6l-6.7-5.5
	c-0.8-0.6-18.7-15.6-27.1-37.1c-1.9-4.8-1.5-8.8-1.3-12.4c0.2-2.8,0.4-5.2-0.4-8c-0.5-1.8-2.5-4.3-4.8-7.2
	c-5.1-6.5-12.9-16.2-17-32.7c-3.4-13.3,4.4-26.6,8.3-32.1c-3.8-3.8-11.7-12.4-18.3-23.6c-7.3-12.4-17.6-40.1-21.1-49.8
	c-8.6,4-34.8,20.2-63.1,76.7C230,691,220.2,738.9,225.5,782c5.8,47.3,26.6,70.5,32.9,76.5c18,17.3,45.6,26.9,59.8,30.9
	c-4.3-7.3-9.2-19.1-8.2-34.5c1.2-19.4,10.4-32.2,15.2-37.6c-6.3-5.9-20.1-21.6-22.2-48c-2.6-33.6,28.5-59.6,29.9-60.7l8.8-7.2
	l-3.2,10.9c-13.4,45.5,10.1,88.7,17.5,100.8l7.5-6.8l0.9-0.2c0,0,4.8-1.1,11.7-6.1C379.8,797.2,383.7,789.4,385.2,784.7z"/>
<path class="st4" d="M681,677.2c-0.6,18.9,15.6,41,20.1,46.8c0.5,0,1.1-0.1,1.7-0.1c4.2,0,11.4,0.9,20.8,5.5
	c8.1,4,15.2,12.5,19.9,19.4c-0.4-8-2.3-19.2-8.8-29.4c-11.6-18.1-20.9-20.6-20.9-20.6l-3-0.6l0.3-3c0-0.4,2.8-39.8-15.5-83.5
	c-7.3-12.6-12.7-19.5-16.4-23.2c2.1,6.4,4.3,15.4,4.8,25.4c0.6,12.4-0.4,24-1.4,36.3C682,658.7,681.3,667.5,681,677.2z"/>
<path class="st5" d="M737,771.1c-1-9.2-10.4-20.4-19.2-26.7c-5.5-4.1-10-5.5-11.9-5.2c-7.1,1.4-11.4,0.8-14.8,0.1
	c-1.4-0.3-2.2-0.4-3.2-0.3c-2.1,0.1-4.2,0.4-6.4,0.9c-2.5,0.5-5.6,1-8.8,0.9c-4.2-0.1-8.5-2.1-11.9-4.3c0.1,0.4,0.2,0.7,0.3,1.1
	c3.5,1.3,9.8,4,16.5,7.9c6.3,3.6,9.5,4.1,10,4.1l4.8-0.3l0.3,5.2c0,2.4-0.1,10.7-3.3,20.3c-8.7,26.2-4.2,41-0.6,45.2
	c1.3,1.6,4.3,2.5,8,2.5c6.3,0,16.1-2.9,22.9-11C732.4,796.6,738,779.9,737,771.1z"/>
<g>
	<path class="st5" d="M397.2,800l0.3-0.1c0.8-0.5,0.8-1.7,0.1-3.3c-0.3-0.8-0.7-1.3-1-1.5c-0.8,2.5-2.5,6.7-5.1,10.9
		c2.8-3.4,4.8-5.3,5.1-5.5L397.2,800z"/>
	<path class="st5" d="M373.8,820.7c-3.1,1.7-4.5,2.4-7.7,4.9c-2.2,1.6-3.4,3-4.5,4.1c-1.9,2-3.6,3.9-7.9,5c-5.1,1.3-13.5-2.2-18-4.3
		c-3.7,4.9-12.3,18-10.6,31.2c2,16.6,7.1,22.2,8,23.1c2.3,1.2,14.7,8.3,31.7,22.2c8.6,7,16.2,11.3,21.9,13.8
		c-1.8-2.3-3.9-4.9-6.1-8.1l-0.1-0.2c-5.5-7.7-15.7-22-12.5-51.3c2.4-21.8,11.6-38.6,18.9-48.9c-1.5,1.6-3.2,3-5.1,4.1
		C378.1,818.4,375.6,819.7,373.8,820.7z"/>
</g>
<path class="st0" d="M679.7,913.3L679.7,913.3c1.9,5,3.2,10.4,3.9,14.3c21.8-4.7,55.2-15.5,60.3-38.4c5.7-25.4-8-54.9-14.3-66.5
	c-4.3,4-10.8,9-18.7,11.8c-12.4,4.4-21.8,4.3-28.8-0.5c-7.9-5.5-11.7-16.1-12-33.4c-0.4-16,4.4-32.5,6.7-39.7l-19.1-9.3
	c-4.9-2.4-10.2-4.5-15.9-6.1l-11-3c-2.6,6.4-8.6,17.6-21.6,28.4c-7.4,6.2-33.7,23.8-48.4,23.4c-14-0.4-31.3-12.1-45.2-21.5
	c-13.1-8.8-21.1-18.3-25-23.7c-18.2,9.2-32.1,17.1-41.3,23.7c-31.3,22.1-51.1,45.3-58.9,68.9c-11,33.5-4.7,59.4,19.8,81.4
	c22.3,20,83.8,17.9,110.7,14.9l-11.7-35.4c-6.6,2.6-17.4,5.4-31.4,4.3c-10.9-0.8-34.3-8.5-38.3-19.6c-3.8-10.6-3.6-20.2,0.6-28.5
	c6-12.1,18.4-17.3,22.1-18.6l0.3-0.1l6.5-2v14.2c0,0.2,0.3,21.7,6.8,36.5c1.5,3.3,19.7,1.5,37.1-5c6.2-2.3,15.4-7.9,20.9-11.5
	c-7.9-13.7-13.2-24.4-6.6-28.9l0.1-0.1c1.6-1,3.4-1.2,5.2-0.8c1.8,0.4,7.1,1.8,20.1,23.3l8.6,14.8c4-0.2,11.5,0.1,16.5,2.9
	c10.1,5.4,18.3,12.6,22.4,17.8c8.4-2.9,24.3-8,35.6-8.7c4-0.2,7.1-1.7,8.9-2.9l6.5-50.4l4.6,0.3c5,0.1,29,4.6,31.6,25
	c2.1,15.6-10.7,25.9-21.1,31.6C671.9,901.4,677.6,907.8,679.7,913.3z"/>
<path class="st5" d="M553.6,904.5c-2-1.1-2.9-2.8-3.3-3.8c-3-5-6.5-10.7-8.4-13.5c-3.3,1.8-9.9,5.7-16.4,9.5l12.7,38.1
	c3.1,1.1,11.2,3.5,21,2.8c10.7-0.8,21.8-4.5,25.7-5.9c1.5-3.9,5.1-15.8-0.1-22.7c-4.5-6.1-12.1-10-16.8-11.9c-0.9,3-2.8,6-6.7,7.5
	C558.4,905.7,555.8,905.7,553.6,904.5z"/>
<path class="st5" d="M668.6,934.2c-0.7-4-2.2-11.2-5.8-17.6c-4-7.3-9.1-9.4-10.5-9.8c-2.7,0.2-14.1,1.4-28,4.5
	c-15.5,3.4-22,6.8-22.1,6.9l-0.5,0.2c-0.2,0.2-0.7,1-0.7,2.9c0,2.9,1.2,5.5,1.9,7c6.2,1.6,31.4,7.7,44.7,7.7
	C657.5,935.9,664.8,934.9,668.6,934.2z"/>
<path class="st5" d="M539.2,621.4c-5.9,10.4-18.8,32.4-26.3,41.4c-8.2,9.9-20.9,26-24.4,30.4c0.9,7.2,5.4,40.6,18.5,53.1
	c15.6,15.1,43,32.7,54.8,32.7c7.6,0,37.5-15.6,48.3-29.8c11.2-14.7,13.4-28.5,13.9-33.9c-4.6-1.7-14.4-6.2-26.3-16.5
	c-2.2,2.2-5.5,3.8-8.9,4c-7.9,0.6-12.8-4.5-13.7-5.5l-4.1-4.1c-1.3-1-1.9-2.6-1.5-4.3c0.4-1.7,1.9-3,3.6-3.1c0.6-0.1,1.3-0.3,2-0.5
	c1.9-0.6,4.2-1.3,7.3-1.2c0.2,0,0.9,0,1.8,0c-2.4-2.8-4.9-5.7-6.2-7.2C556.5,650.9,544.4,630.8,539.2,621.4z M533.1,703.3
	c-0.6,0.1-1.2,0.1-1.8,0.1c-5.7,0-9.4-2.8-11-5l-5.5-3.8c-1-0.6-2.2-2-1.9-5.2c0.3-3.2,2.1-4,3.2-4.3l0.1,0c7-1.2,20-2.8,28.8-0.4
	c2.5,0.7,4,2.8,3.7,5.3C548.3,695.2,539.5,702.7,533.1,703.3z M571.2,723.5c1.5,1.4,3.1,4.5,1.8,7l-0.1,0.2c-1.8,3-6.7,8.6-12.8,8.6
	c-0.2,0-0.3,0-0.5,0c-6-0.1-10.2-5.8-11.8-8.3c-1.6-2.5-0.1-6.2,1.2-7.5c1.4-1.4,3.4-1.6,5-0.5l0.2,0.1c3.4,2.7,5.3,3.5,5.9,3.6
	c0.9-0.2,2.8-1.6,4-2.5c0.7-0.5,1.4-1,2-1.4l0.1-0.1C567.7,721.8,569.7,722.1,571.2,723.5z"/>
<path class="st5" d="M541.7,422c-28.2-10.6-50-43.2-57.7-56.1c-5.5,8.6-17.4,26.2-31.7,39.6c-28.5,26.7-51,53.7-55.9,59.7
	c1.5,8.3,9.7,48.2,29.1,63.8l0.3,0.3c19.4,19.4,41.7,24.9,47.8,26.1c4.8-4.5,21.5-19.6,34.7-25.4c13.3-5.9,37.3-13.6,42.8-15.4
	c3.2-4.5,17.2-25.1,20-43.1c2.2-14.6-3.2-36.1-5.3-43.5C561.8,427.8,554.1,426.7,541.7,422z M465.1,453.5L465.1,453.5
	c-3.3,5.5-10.1,11.7-18.5,11.7c-0.2,0-0.5,0-0.7,0c-8.2-0.2-15.6-5.6-18.9-10.5c-1.4-2.1-0.7-4.9,1.9-7.4c2.5-2.4,5.3-2.9,7.3-1.4
	c2.6,1.9,6.4,1.9,9.7,1.9l0.1,0c6.8,0.2,8.4-0.2,11.1-2.8c1.7-1.6,4.1-1.6,6-0.1C465,446.5,466.9,450.5,465.1,453.5z M506.6,493.2
	L506.6,493.2c-3.5,5.8-10.4,12.3-18.7,12.3c-0.2,0-0.4,0-0.7,0c-8.9-0.3-14.9-7.4-17.7-11.7c-1.4-2-0.8-4.9,1.5-7.1
	c2.1-2,4.6-2.4,6.5-1c5.4,4,8.1,4.4,9.3,4.3c1.8-0.2,5.4-1.4,12.3-5.5c1.8-1.2,4.1-1,5.9,0.6C507,487,508.2,490.6,506.6,493.2z
	 M545.2,452.8c-3.3,5.5-10.1,11.7-18.6,11.7c-0.2,0-0.3,0-0.5,0c-8.1-0.2-15.3-5.6-18.8-10.7c-1.7-2.5-0.3-5.7,1.7-7.6
	c2.4-2.3,5-1.9,6.4-0.8c2.6,1.9,6.4,1.9,9.7,1.9c6.9,0.2,8.5-0.2,11.2-2.8c1.4-1.4,4.1-2,6.7,0.1C545.3,446.5,546.9,450,545.2,452.8
	z"/>
<path class="st6" d="M1215.4,982.5h-823c-160.6,0-292.1-131.4-292.1-292.1V406.5c0-160.6,131.4-292.1,292.1-292.1h823
	c160.6,0,292.1,131.4,292.1,292.1v283.9C1507.5,851,1376.1,982.5,1215.4,982.5z"/>
</svg>
