<?xml version="1.0" encoding="utf-8"?>
<!-- Generator: Adobe Illustrator 25.0.1, SVG Export Plug-In . SVG Version: 6.00 Build 0)  -->
<svg version="1.1" id="Layer_1" xmlns="http://www.w3.org/2000/svg" xmlns:xlink="http://www.w3.org/1999/xlink" x="0px" y="0px"
	 viewBox="0 0 397.5 289.7" style="enable-background:new 0 0 397.5 289.7;" xml:space="preserve">
<style type="text/css">
	.st0{fill:#74CCE5;}
	.st1{fill:#E6E3B7;}
	.st2{fill:#603813;}
	.st3{fill:none;}
	.st4{fill:#689676;}
	.st5{fill:#ECC19C;}
	.st6{fill:none;stroke:#000000;stroke-width:3;stroke-miterlimit:10;}
</style>
<g>
	<path class="st0" d="M174,60.9c8.7,0,22.2,3.5,29.3,3.5c2.4,0,4.3-0.4,6.1-2.1l0.2,0.1c-4.1,8-8.7,10.2-13.7,10.2
		c-2,0-4.2-0.4-6.4-0.9c-1.7,0.6-2.8,3.2-3.4,7.3l-3,18.6c-0.9,5.6-0.1,7.4,4.3,7.4l-0.1,0.4h-21.3l0.1-0.4c5.5,0,6-2.9,6.9-9
		l2.4-15.5c1-6.5,9.1-8.6,13.6-9c-8.5-2.3-17.9-7.6-25-7.6c-3.5,0-5.7,1.3-5.7,4.1c0,2.8,2.1,4.1,4.4,4.1c1.7,0,3.4-0.7,4.6-2.2
		c2.1,1,3,2.5,3,4.2c0,3.9-3.4,6.1-6.9,6.1c-3.6,0-7.4-2.3-7.7-7.3C155.9,63.4,165.5,60.9,174,60.9z"/>
	<path class="st0" d="M210.9,81.5c0-2-1.3-3.4-3-3.4c-4,0-6.9,6.3-7.2,11.6c-0.3,5.5,1.7,10.3,7.4,10.3c2.4,0,5.6-0.8,8-3.7l0.3,0.2
		c-3.3,5.4-8.8,9.3-14.8,9.3c-6.3,0-10.8-4.2-10.8-11.1c0-8.9,7.6-16.9,17.5-16.9c4.1,0,10,1,10,5.8c0,3.9-4.5,8.9-17.3,5.5l0.1-0.2
		C208.2,89.3,210.9,85.2,210.9,81.5z"/>
	<path class="st0" d="M246.8,94.1c-0.8,4.5-1.3,10.3,1,11.2l-0.2,0.2c-1.2,0.3-2.4,0.4-3.7,0.4c-4.4,0-8.3-1.9-6.8-8.4l1.9-8
		l-0.2-0.1c-3.3,12.9-7.3,16.4-12,16.4c-5.5,0-7.4-4.8-7.4-9.6c0-8.3,7.4-18.4,16.9-18.4c5.1,0,9.3,4.5,13,0.2L246.8,94.1z
		 M229.1,98.9c0,2.1,0.5,4.1,1.8,4.1c3.2,0,6.6-8.1,8-15.8l0.6-3.2c0.8-4.2,0.4-5.9-2.2-5.9C232.9,78.2,229.1,90.3,229.1,98.9z"/>
	<path class="st0" d="M268.6,77.8c3.7,0,10,1.3,10,6.5c0,3-2.4,5.8-5.9,5.8c-2.4,0-4.5-1.5-4.1-4.6c2.1-0.6,3.2-2.3,3.2-3.9
		c0-1.8-1.2-3.4-3.5-3.4c-5.1,0-7.3,8.3-7.3,12.7c0,6.2,3.3,9.1,7.4,9.1c3.1,0,5.9-1.3,8-3.7l0.3,0.2c-3.7,6.2-9.7,9.3-14.9,9.3
		c-5.8,0-10.7-3.7-10.7-11C251.2,85.7,258.7,77.8,268.6,77.8z"/>
	<path class="st0" d="M284.9,67.9c0.2-1-0.7-1.8-2.1-1.3l-0.2-0.2c1.8-0.9,5.4-2,8-2c3,0,4.1,1.1,3.4,4.6l-4.8,25.2l0.2,0.1
		c3.5-13.3,8.7-16.4,13.4-16.4c6.5,0,6.1,5.4,5.4,9l-1.3,7.4c-0.8,4.5-1.3,10.3,1,11.2l-0.2,0.2c-5.6,1.1-12,0.4-10.6-8l2.1-12.9
		c0.4-2.4,0.4-3.9-0.9-3.9c-2.9,0-6.5,6-8.4,13.7c-0.9,3.6-2.4,10.1-0.6,11l-0.2,0.2c-7.1,1-10.7,0.6-9.2-7.7L284.9,67.9z"/>
	<path class="st0" d="M331,81.5c0-2-1.3-3.4-3-3.4c-4,0-6.9,6.3-7.2,11.6c-0.3,5.5,1.7,10.3,7.4,10.3c2.4,0,5.6-0.8,8-3.7l0.3,0.2
		c-3.3,5.4-8.8,9.3-14.8,9.3c-6.3,0-10.8-4.2-10.8-11.1c0-8.9,7.6-16.9,17.5-16.9c4.1,0,10,1,10,5.8c0,3.9-4.5,8.9-17.3,5.5l0.1-0.2
		C328.2,89.3,331,85.2,331,81.5z"/>
	<path class="st0" d="M349.6,105.3l-0.2,0.2c-0.9,0.3-2,0.4-3.1,0.4c-3.6,0-7.2-1.8-6.1-8.2l2.9-16.4c0.2-1-0.7-1.8-2.1-1.3
		l-0.2-0.2c1.8-0.9,5.4-2,8-2c3,0,4.2,1.1,3.4,4.6l-2.8,11.8l0.2,0.1c3.5-13.3,7-16.9,12.3-16.9c4.6,0,6.7,2.9,6.7,6
		c0,3.5-2.6,7-7.2,7c-2.4,0-4.6-1.5-4.3-4.6c1.9,0,3.9-1.8,3.9-4.3c0-1.6-0.8-2.5-2-2.5c-3.2,0-6.5,6.4-8.7,15.3
		C349.3,97.9,347.8,104.4,349.6,105.3z"/>
	<path class="st0" d="M198.8,129.3c0,6.4-5.7,12-12.6,12c-5.5,0-9.3-3.6-9.3-8.7c0-6.5,5.6-12,12.5-12
		C194.9,120.6,198.8,124.2,198.8,129.3z M191.7,124.9c0-2.3-0.5-4-2.3-4c-4.2,0-5.5,12.1-5.5,16.1c0,2.3,0.5,3.9,2.3,3.9
		C190.5,140.4,191.7,129.4,191.7,124.9z"/>
	<path class="st0" d="M203.5,120.9c0.9-5.3,1.7-9.9,7.6-9.9c3.4,0,5.5,1.7,5.5,4.2c0,2.4-1.6,4.2-4.6,4.2c-2.2,0-4.2-2-3.2-4.3
		c1.3,0.3,2.4-0.6,2.4-1.9c0-1-0.4-1.8-1.5-1.8c-1.7,0-3.5,1.8-3.5,3.9c0,3.3,3.9,4,3.6,5.5h3.2l-0.1,0.4h-2.6l-3,19.2
		c-0.7,4.6-3.2,9.9-8,9.9c-3.3,0-5.2-1.7-5.2-4.1c0-2.8,2.2-4,4.3-4c2,0,3.9,1.3,3.6,3.9c-1.4-0.1-2.2,0.6-2.2,1.8
		c0,0.8,0.5,1.5,1.4,1.5c1.7,0,2.3-1.6,2.3-3.3c0-3.3-3.4-4-2.8-7.4l2.8-17.3h-2l0.1-0.4L203.5,120.9L203.5,120.9z"/>
	<path class="st0" d="M230.3,120.9h2.7l-0.1,0.4h-2.7l-1.9,11.6c-0.5,3.3-0.9,7.6,0.8,8.2l-0.1,0.1c-0.5,0.1-1.2,0.2-1.9,0.2
		c-3,0-6.7-1.1-5.9-6.1l2.2-14h-1.7l0.1-0.4c5.5,0,8.5-1.8,9.4-7.3h0.4L230.3,120.9z"/>
	<path class="st0" d="M235.6,113.3c0.1-0.8-0.5-1.3-1.6-1l-0.1-0.1c1.3-0.7,4-1.5,5.9-1.5c2.2,0,3,0.8,2.5,3.4l-3.6,18.6l0.2,0
		c2.6-9.8,6.4-12.1,9.9-12.1c4.8,0,4.5,3.9,4,6.6l-0.9,5.4c-0.6,3.3-0.9,7.6,0.8,8.2l-0.1,0.1c-4.1,0.8-8.8,0.3-7.9-5.9l1.5-9.5
		c0.3-1.8,0.3-2.9-0.7-2.9c-2.1,0-4.8,4.4-6.2,10.1c-0.7,2.7-1.7,7.4-0.4,8.1l-0.1,0.1c-5.2,0.8-7.9,0.5-6.8-5.7L235.6,113.3z"/>
	<path class="st0" d="M269.5,123.4c0-1.5-0.9-2.5-2.2-2.5c-3,0-5.1,4.6-5.3,8.5c-0.2,4.1,1.2,7.6,5.5,7.6c1.8,0,4.1-0.6,5.9-2.7
		l0.2,0.1c-2.4,4-6.5,6.8-10.9,6.8c-4.6,0-7.9-3.1-7.9-8.2c0-6.5,5.6-12.5,12.9-12.5c3,0,7.4,0.7,7.4,4.3c0,2.8-3.3,6.5-12.7,4.1
		l0-0.2C267.4,129.1,269.5,126.1,269.5,123.4z"/>
	<path class="st0" d="M217.2,160.5l-9.1,16.3l-1.1,6.9c-1,6.1-1.5,9,4,9L211,193h-21.3l0.1-0.4c5.5,0,5.9-2.9,6.9-9l0.8-5.3
		c-1.3-9.6-5.1-20.2-9.6-20.2c-0.7,0-1.6,0.5-2.4,1.2l-0.2-0.3c2.3-1.9,6-3.9,9.6-3.9c9.8,0,13.2,12.6,11.3,23.7l10.5-18.7
		c2.5-4.5,7-11.1,12.8-11.1c4.9,0,7.5,3.1,7.5,7.1c0,4.5-3.1,8.6-8,8.6c-3.8,0-6.1-2.5-6.1-5.4c0-1.7,0.8-4.2,3.8-4.9
		c0.6,1.4,1.7,2.2,3.2,2.2c2.2,0,3.4-1.6,3.4-3.5c0-1.8-1-3.2-3.9-3.2C224.9,150,221,153.8,217.2,160.5z"/>
	<path class="st0" d="M235.6,169.1c0-2-1.3-3.4-3-3.4c-4,0-6.9,6.3-7.2,11.6c-0.3,5.5,1.7,10.3,7.4,10.3c2.4,0,5.6-0.8,8-3.7
		l0.3,0.2c-3.3,5.4-8.8,9.3-14.8,9.3c-6.3,0-10.8-4.2-10.8-11.1c0-8.9,7.6-16.9,17.5-16.9c4.1,0,10,1,10,5.8c0,3.9-4.5,8.9-17.3,5.5
		l0.1-0.2C232.9,176.9,235.6,172.8,235.6,169.1z"/>
	<path class="st0" d="M271.6,181.7c-0.8,4.5-1.3,10.3,1,11.2l-0.2,0.2c-1.2,0.3-2.4,0.4-3.7,0.4c-4.4,0-8.3-1.9-6.8-8.4l1.9-8
		l-0.2-0.1c-3.3,12.9-7.3,16.4-12,16.4c-5.5,0-7.4-4.8-7.4-9.6c0-8.3,7.4-18.4,16.9-18.4c5.1,0,9.3,4.5,13,0.2L271.6,181.7z
		 M253.8,186.5c0,2.1,0.5,4.1,1.8,4.1c3.2,0,6.6-8.1,8-15.8l0.6-3.2c0.8-4.2,0.4-5.9-2.2-5.9C257.7,165.8,253.8,177.9,253.8,186.5z"
		/>
	<path class="st0" d="M285.8,192.9l-0.2,0.2c-0.9,0.3-2,0.4-3.1,0.4c-3.6,0-7.2-1.8-6.1-8.2l2.9-16.4c0.2-1-0.7-1.8-2.1-1.3
		l-0.2-0.2c1.8-0.9,5.4-2,8-2c3,0,4.2,1.1,3.4,4.6l-2.8,11.8l0.2,0.1c3.5-13.3,7-16.9,12.3-16.9c4.6,0,6.7,2.9,6.7,6
		c0,3.5-2.6,7-7.2,7c-2.4,0-4.6-1.5-4.3-4.6c1.9,0,3.9-1.8,3.9-4.3c0-1.6-0.8-2.5-2-2.5c-3.2,0-6.5,6.4-8.7,15.3
		C285.5,185.5,284,192,285.8,192.9z"/>
	<path class="st1" d="M229.4,217.3c0,11.5-14.8,10.9-21.8,12.3c-4.2,0.8-6.7,2.4-8.7,5.6c1.9-1.8,5.6-2.5,8-2.5
		c4.9,0,9.7,3.2,15.1,3.2c2.3,0,4.6-0.6,5.5-3.1l0.3,0.1c-1.9,6.1-4.7,12.6-11.4,12.6c-4.4,0-12.5-3.9-17.1-3.9
		c-1.1,0-2.2,0.3-2.8,0.9c-0.2,0.8-0.2,1.8-0.2,2.7h-0.4c0.3-21,22.9-16.9,22.9-30.4c0-2.2-0.6-5.9-4.6-5.9c-3.5,0-5.8,2.9-5.8,5.5
		c0,2,1.3,3.6,4.6,2.5c1.6,3.7-1.9,7.6-6.1,7.6c-3.9,0-6.7-2.4-6.7-6.7c0-6.3,6.3-9.5,15.3-9.5C221.2,208.3,229.4,209.6,229.4,217.3
		z"/>
	<path class="st1" d="M264.9,223.2c0,10.6-7.6,22.1-20.2,22.1c-9.1,0-14.3-6.2-14.3-14.9c0-10.7,7.5-22.2,20.1-22.2
		C259.6,208.3,264.9,214.6,264.9,223.2z M254.2,216.2c0-5.1-1.2-7.5-3.7-7.5c-6,0-9.5,19.5-9.5,28.9c0,5,1.2,7.4,3.7,7.4
		C250.8,245,254.2,225.6,254.2,216.2z"/>
	<path class="st1" d="M297.3,217.3c0,11.5-14.8,10.9-21.8,12.3c-4.2,0.8-6.7,2.4-8.7,5.6c1.9-1.8,5.6-2.5,8-2.5
		c5,0,9.7,3.2,15.1,3.2c2.3,0,4.6-0.6,5.5-3.1l0.3,0.1c-1.9,6.1-4.7,12.6-11.4,12.6c-4.4,0-12.5-3.9-17.1-3.9
		c-1.1,0-2.2,0.3-2.8,0.9c-0.2,0.8-0.2,1.8-0.2,2.7h-0.4c0.3-21,22.9-16.9,22.9-30.4c0-2.2-0.6-5.9-4.6-5.9c-3.5,0-5.8,2.9-5.8,5.5
		c0,2,1.3,3.6,4.6,2.5c1.6,3.7-1.9,7.6-6.1,7.6c-3.9,0-6.7-2.4-6.7-6.7c0-6.3,6.3-9.5,15.3-9.5C289.1,208.3,297.3,209.6,297.3,217.3
		z"/>
	<path class="st1" d="M332.7,223.2c0,10.6-7.6,22.1-20.2,22.1c-9.1,0-14.3-6.2-14.3-14.9c0-10.7,7.6-22.2,20.1-22.2
		C327.5,208.3,332.7,214.6,332.7,223.2z M322.1,216.2c0-5.1-1.2-7.5-3.7-7.5c-6,0-9.5,19.5-9.5,28.9c0,5,1.2,7.4,3.7,7.4
		C318.6,245,322.1,225.6,322.1,216.2z"/>
</g>
<path class="st2" d="M136.8,136.1c0.7,0,1.4,0,2.2,0l0.1,0l0.1,0c2.1,0.2,3.4,0.5,4.3,0.8c2-5.2,8.3-23.3,5.5-37.5
	c-3.3-17-10.1-24.7-20-31.7c-2.1-1.5-4.4-2.8-7-3.8c-4.1-1.7-8.3-2.6-12.7-2.6c-5,0-10,1.2-14.6,3.4c-13.9,6.8-30.3,21.6-29.7,53.5
	c0.4,21.7,4.7,34.7,8.3,41.8c3.6,7.1,7.1,9.8,7.5,10.1l1.6,1.1l-1.5,1.2l0,0c-0.3,0.3-3.4,2.8-3,7.3c0.3,2.8,1.6,4.4,3,6.2l0.1,0.1
	c1.1,1.3,2.3,2.9,3,4.9c0.2,0.7,0.2,1.4,0.1,2l0,0.1c-0.1,1.2-0.3,2.7,1.4,5.6c0.2-1.9,0.6-4,1.5-5.7c0.8-1.5,1.7-2.2,2.5-2.9
	l0.1-0.1c1.2-1,2.3-1.9,3.7-5.8c0.4-1,0.4-2.1,0.2-3.1c-0.3-1.4-1-3.4-2.6-4.6c-2.3-1.9-1.5-3.5-0.8-4.7c0.7-1.3,1.6-3.1,0.4-7.2
	c-2.1-6.9-8.6-8.6-9.9-8.8c0,0,0,0,0,0l-0.8-0.1l-0.3-0.8c-0.3-0.9-3.1-8.8-1.7-18.9c1.4-10.5,6.3-16.2,19-28.8
	c11.2-11.1,12.9-15.4,13-15.7l0.9-3.1l1.6,2.7c0.3,0.6,8.1,13.5,14.7,16.7c5.4,2.6,7.2,1.9,7.4,1.8l1.5-1.4l0.7,1.9
	c0.4,1,3.4,9.9,2.2,16.7c-0.8,4.4-2.3,7.7-3.4,9.7C135.7,136,136.3,136.1,136.8,136.1z"/>
<path class="st3" d="M91.8,175.1"/>
<g>
	<path class="st1" d="M127.8,142.1c0.3-0.2,0.6-0.6,0.4-1.1c0,0,0,0,0,0c-0.3,0.1-0.5,0.2-0.7,0.2L127.8,142.1z"/>
	<path class="st1" d="M162,188.8c-0.5-1-1.1-2.4-1.6-4.2c-0.9-3.6-0.4-5.9,0.1-8.4c0.7-3,1.5-6.8,0.3-14.6
		c-2.3-14.2-14.2-20.4-21.7-21.2c-4.7-0.5-10.6,1.4-11.4,1.7l0,0l0,0c0,0,0,0,0,0l-2.6,0.8c-0.1,0-7,1-14.2,10.5
		c-6,8.1-4.3,16.8-3.2,22.6c0.2,1.2,0.4,2.2,0.5,3.1c0.3,2.2,0.2,4.1,0,5.6c2.9-3.4,7.8-9.4,10.5-14.3c4.1-7.3,6.4-11.2,6.4-11.2
		l0.8-1.4l0.8,1.4c0.1,0.1,8.7,14.8,14.5,21.1c3.7,4,8.7,8.7,14.8,10.2c1.6,0.4,2.8,0.6,3.7,0.6c-1.5-1.1-2.3-2.1-2.3-2.2l-2.5-3.1
		l3.6,1.7C159.7,187.9,160.9,188.4,162,188.8z"/>
</g>
<path class="st4" d="M84.1,211c0.1-0.4,0.5-0.9,1.9-1.4c0.6-0.2,2.5-0.8,3.4-0.3l0.1,0.1l1.6,2.1c1.3-1,3.9-3,5.5-4.7
	c4.5-4.4,12.9-8.6,14.6-9.4c0,0,0-0.1-0.1-0.1c-0.7-1-1.6-5.2-2.1-8l-6.2,6l0.4-2.8c0-0.1,1-6.9,0.8-11.3c-0.1-1.8-0.5-4.3-0.9-6.8
	c-0.6-3.6-1.2-7.4-1-10.1c0.4-6.2,2.4-10.2,3.5-12.1c-1.9-0.6-5.6-2-8.3-3.6c-4.2-2.5-7.5-6.4-8.7-8l-7.5,4.1l1.2,7.2
	c2,0.5,8.1,2.6,10.8,9.5c2.3,5.8,0.9,10,0.1,11.7c1.5,1.2,4.7,4.5,4,10c-0.5,3.7-2.2,5.8-4,7.7c-1.7,1.9-3.5,4-4.1,7.8
	c-0.5,2.9,0,7.2,0,7.3l0.3,2.4l-1.8-1.5c-0.2-0.2-5.1-4.3-7.4-10.2c-0.5-1.3-0.4-2.4-0.3-3.4c0.1-0.8,0.1-1.4-0.1-2.2
	c-0.1-0.5-0.7-1.2-1.3-2c-1.4-1.8-3.5-4.4-4.6-9c-0.9-3.6,1.2-7.3,2.3-8.8c-1-1.1-3.2-3.4-5-6.5c-2-3.4-4.8-11-5.8-13.6
	c-2.4,1.1-9.5,5.5-17.3,21c-6.5,13-9.2,26.1-7.8,37.9c1.6,12.9,7.3,19.3,9,20.9c4.9,4.7,12.5,7.4,16.4,8.5c-1.2-2-2.5-5.2-2.3-9.4
	c0.3-5.3,2.9-8.8,4.2-10.3c-1.7-1.6-5.5-5.9-6.1-13.1c-0.7-9.2,7.8-16.3,8.2-16.6l2.4-2l-0.9,3c-3.7,12.4,2.8,24.3,4.8,27.6l2-1.9
	l0.3-0.1c0,0,1.3-0.3,3.2-1.7C82.7,214.4,83.7,212.3,84.1,211z"/>
<path class="st4" d="M165.1,181.6c-0.2,5.2,4.3,11.2,5.5,12.8c0.1,0,0.3,0,0.5,0c1.1,0,3.1,0.2,5.7,1.5c2.2,1.1,4.2,3.4,5.5,5.3
	c-0.1-2.2-0.6-5.3-2.4-8c-3.2-4.9-5.7-5.6-5.7-5.6l-0.8-0.2l0.1-0.8c0-0.1,0.8-10.9-4.2-22.9c-2-3.5-3.5-5.3-4.5-6.4
	c0.6,1.7,1.2,4.2,1.3,7c0.2,3.4-0.1,6.6-0.4,9.9C165.4,176.5,165.2,178.9,165.1,181.6z"/>
<path class="st5" d="M180.5,207.3c-0.3-2.5-2.9-5.6-5.2-7.3c-1.5-1.1-2.7-1.5-3.3-1.4c-2,0.4-3.1,0.2-4.1,0
	c-0.4-0.1-0.6-0.1-0.9-0.1c-0.6,0-1.1,0.1-1.8,0.2c-0.7,0.1-1.5,0.3-2.4,0.2c-1.1,0-2.3-0.6-3.3-1.2c0,0.1,0.1,0.2,0.1,0.3
	c1,0.4,2.7,1.1,4.5,2.2c1.7,1,2.6,1.1,2.7,1.1l1.3-0.1l0.1,1.4c0,0.6,0,2.9-0.9,5.6c-2.4,7.2-1.1,11.2-0.2,12.4
	c0.4,0.4,1.2,0.7,2.2,0.7c1.7,0,4.4-0.8,6.3-3C179.2,214.3,180.7,209.7,180.5,207.3z"/>
<g>
	<path class="st5" d="M87.4,215.2L87.4,215.2c0.3-0.2,0.3-0.5,0.1-0.9c-0.1-0.2-0.2-0.3-0.3-0.4c-0.2,0.7-0.7,1.8-1.4,3
		c0.8-0.9,1.3-1.4,1.4-1.5L87.4,215.2z"/>
	<path class="st5" d="M81,220.9c-0.8,0.5-1.2,0.7-2.1,1.3c-0.6,0.4-0.9,0.8-1.2,1.1c-0.5,0.5-1,1.1-2.2,1.4
		c-1.4,0.4-3.7-0.6-4.9-1.2c-1,1.4-3.4,4.9-2.9,8.5c0.6,4.6,2,6.1,2.2,6.3c0.6,0.3,4,2.3,8.7,6.1c2.4,1.9,4.4,3.1,6,3.8
		c-0.5-0.6-1.1-1.4-1.7-2.2l0,0c-1.5-2.1-4.3-6-3.4-14.1c0.7-6,3.2-10.6,5.2-13.4c-0.4,0.4-0.9,0.8-1.4,1.1
		C82.2,220.2,81.5,220.6,81,220.9z"/>
</g>
<path class="st0" d="M164.8,246.2L164.8,246.2c0.5,1.4,0.9,2.8,1.1,3.9c6-1.3,15.1-4.3,16.5-10.5c1.6-6.9-2.2-15-3.9-18.2
	c-1.2,1.1-3,2.5-5.1,3.2c-3.4,1.2-6,1.2-7.9-0.1c-2.2-1.5-3.2-4.4-3.3-9.2c-0.1-4.4,1.2-8.9,1.8-10.9l-5.2-2.6
	c-1.3-0.7-2.8-1.2-4.4-1.7l-3-0.8c-0.7,1.8-2.3,4.8-5.9,7.8c-2,1.7-9.2,6.5-13.3,6.4c-3.8-0.1-8.6-3.3-12.4-5.9
	c-3.6-2.4-5.8-5-6.9-6.5c-5,2.5-8.8,4.7-11.3,6.5c-8.6,6.1-14,12.4-16.1,18.9c-3,9.2-1.3,16.3,5.4,22.3c6.1,5.5,23,4.9,30.3,4.1
	l-3.2-9.7c-1.8,0.7-4.8,1.5-8.6,1.2c-3-0.2-9.4-2.3-10.5-5.4c-1-2.9-1-5.5,0.2-7.8c1.6-3.3,5-4.7,6.1-5.1l0.1,0l1.8-0.6v3.9
	c0,0.1,0.1,5.9,1.9,10c0.4,0.9,5.4,0.4,10.1-1.4c1.7-0.6,4.2-2.2,5.7-3.1c-2.2-3.7-3.6-6.7-1.8-7.9l0,0c0.4-0.3,0.9-0.3,1.4-0.2
	c0.5,0.1,2,0.5,5.5,6.4l2.4,4c1.1,0,3.1,0,4.5,0.8c2.8,1.5,5,3.4,6.1,4.9c2.3-0.8,6.6-2.2,9.8-2.4c1.1-0.1,1.9-0.5,2.4-0.8l1.8-13.8
	l1.3,0.1c1.4,0,7.9,1.2,8.7,6.9c0.6,4.3-2.9,7.1-5.8,8.6C162.6,243,164.2,244.7,164.8,246.2z"/>
<path class="st5" d="M130.2,243.8c-0.6-0.3-0.8-0.8-0.9-1c-0.8-1.4-1.8-2.9-2.3-3.7c-0.9,0.5-2.7,1.6-4.5,2.6l3.5,10.4
	c0.8,0.3,3.1,1,5.8,0.8c2.9-0.2,6-1.2,7-1.6c0.4-1.1,1.4-4.3,0-6.2c-1.2-1.7-3.3-2.7-4.6-3.3c-0.2,0.8-0.8,1.6-1.8,2
	C131.5,244.1,130.8,244.1,130.2,243.8z"/>
<path class="st5" d="M161.7,251.9c-0.2-1.1-0.6-3.1-1.6-4.8c-1.1-2-2.5-2.6-2.9-2.7c-0.7,0.1-3.9,0.4-7.7,1.2c-4.3,0.9-6,1.9-6,1.9
	l-0.1,0.1c-0.1,0.1-0.2,0.3-0.2,0.8c0,0.8,0.3,1.5,0.5,1.9c1.7,0.4,8.6,2.1,12.2,2.1C158.7,252.4,160.7,252.1,161.7,251.9z"/>
<path class="st5" d="M126.3,166.3c-1.6,2.9-5.1,8.9-7.2,11.3c-2.3,2.7-5.7,7.1-6.7,8.3c0.2,2,1.5,11.1,5.1,14.5c4.3,4.1,11.8,9,15,9
	c2.1,0,10.3-4.3,13.2-8.2c3.1-4,3.7-7.8,3.8-9.3c-1.3-0.5-3.9-1.7-7.2-4.5c-0.6,0.6-1.5,1-2.4,1.1c-2.2,0.2-3.5-1.2-3.8-1.5L135,186
	c-0.4-0.3-0.5-0.7-0.4-1.2c0.1-0.5,0.5-0.8,1-0.9c0.2,0,0.3-0.1,0.6-0.1c0.5-0.2,1.1-0.3,2-0.3c0.1,0,0.2,0,0.5,0
	c-0.7-0.8-1.3-1.5-1.7-2C131,174.4,127.7,168.9,126.3,166.3z M124.6,188.7c-0.2,0-0.3,0-0.5,0c-1.6,0-2.6-0.8-3-1.4l-1.5-1
	c-0.3-0.2-0.6-0.6-0.5-1.4c0.1-0.9,0.6-1.1,0.9-1.2l0,0c1.9-0.3,5.5-0.8,7.9-0.1c0.7,0.2,1.1,0.8,1,1.4
	C128.8,186.5,126.4,188.6,124.6,188.7z M135.1,194.3c0.4,0.4,0.8,1.2,0.5,1.9l0,0.1c-0.5,0.8-1.8,2.4-3.5,2.4c0,0-0.1,0-0.1,0
	c-1.6,0-2.8-1.6-3.2-2.3c-0.4-0.7,0-1.7,0.3-2c0.4-0.4,0.9-0.4,1.4-0.1l0,0c0.9,0.7,1.4,1,1.6,1c0.2-0.1,0.8-0.4,1.1-0.7
	c0.2-0.1,0.4-0.3,0.6-0.4l0,0C134.1,193.8,134.6,193.9,135.1,194.3z"/>
<path class="st5" d="M127,111.7c-7.7-2.9-13.7-11.8-15.8-15.4c-1.5,2.4-4.8,7.2-8.7,10.8c-7.8,7.3-14,14.7-15.3,16.3
	c0.4,2.3,2.7,13.2,8,17.5l0.1,0.1c5.3,5.3,11.4,6.8,13.1,7.2c1.3-1.2,5.9-5.4,9.5-7c3.7-1.6,10.2-3.7,11.7-4.2
	c0.9-1.2,4.7-6.9,5.5-11.8c0.6-4-0.9-9.9-1.4-11.9C132.5,113.3,130.4,113,127,111.7z M106,120.4L106,120.4c-0.9,1.5-2.8,3.2-5.1,3.2
	c-0.1,0-0.1,0-0.2,0c-2.3-0.1-4.3-1.5-5.2-2.9c-0.4-0.6-0.2-1.3,0.5-2c0.7-0.7,1.4-0.8,2-0.4c0.7,0.5,1.7,0.5,2.7,0.5l0,0
	c1.8,0.1,2.3-0.1,3-0.8c0.5-0.4,1.1-0.4,1.6,0C106,118.4,106.5,119.5,106,120.4z M117.4,131.2L117.4,131.2c-1,1.6-2.8,3.4-5.1,3.4
	c-0.1,0-0.1,0-0.2,0c-2.4-0.1-4.1-2-4.8-3.2c-0.4-0.6-0.2-1.3,0.4-1.9c0.6-0.5,1.3-0.6,1.8-0.3c1.5,1.1,2.2,1.2,2.5,1.2
	c0.5-0.1,1.5-0.4,3.4-1.5c0.5-0.3,1.1-0.3,1.6,0.2C117.5,129.5,117.8,130.5,117.4,131.2z M127.9,120.2c-0.9,1.5-2.8,3.2-5.1,3.2
	c0,0-0.1,0-0.1,0c-2.2-0.1-4.2-1.5-5.1-2.9c-0.5-0.7-0.1-1.6,0.5-2.1c0.7-0.6,1.4-0.5,1.7-0.2c0.7,0.5,1.7,0.5,2.7,0.5
	c1.9,0.1,2.3-0.1,3.1-0.8c0.4-0.4,1.1-0.5,1.8,0C128,118.4,128.4,119.4,127.9,120.2z"/>
<path class="st6" d="M267.3,284.2H130.2c-69.1,0-125.6-56.5-125.6-125.6V131C4.6,61.9,61.2,5.4,130.2,5.4h137.1
	c69.1,0,125.6,56.5,125.6,125.6v27.6C392.9,227.7,336.4,284.2,267.3,284.2z"/>
</svg>
