<?xml version="1.0" encoding="utf-8"?>
<!-- Generator: Adobe Illustrator 25.0.1, SVG Export Plug-In . SVG Version: 6.00 Build 0)  -->
<svg version="1.1" id="Layer_1" xmlns="http://www.w3.org/2000/svg" xmlns:xlink="http://www.w3.org/1999/xlink" x="0px" y="0px"
	 viewBox="0 0 1621.8 1216.3" style="enable-background:new 0 0 1621.8 1216.3;" xml:space="preserve">
<style type="text/css">
	.st0{fill:#74CCE5;}
	.st1{fill:#E6E3B7;}
	.st2{fill:#603813;}
	.st3{fill:none;}
	.st4{fill:#689676;}
	.st5{fill:#ECC19C;}
	.st6{fill:none;stroke:#000000;stroke-width:8;stroke-miterlimit:10;}
</style>
<g>
	<path class="st0" d="M706.3,236.3c31.9,0,81.1,12.9,107,12.9c8.7,0,15.6-1.3,22.4-7.6l0.8,0.4c-14.8,29.1-31.7,37.1-50.2,37.1
		c-7.4,0-15.2-1.3-23.2-3.2c-6.3,2.3-10.3,11.6-12.5,26.6l-10.8,68c-3.2,20.3-0.2,27.2,15.6,27.2l-0.2,1.3h-77.7l0.2-1.3
		c20,0,21.8-10.6,25.3-32.9l8.7-56.8c3.6-23.9,33.2-31.4,49.6-32.7c-31.2-8.4-65.5-27.6-91.2-27.6c-12.7,0-20.7,4.8-20.7,14.8
		c0,10.1,7.6,15,16,15c6.1,0,12.5-2.7,16.7-8c7.8,3.6,11,9.3,11,15.2c0,14.4-12.3,22.2-25.3,22.2c-13.3,0-27.2-8.4-28.3-26.8
		C640.4,245.6,675.4,236.3,706.3,236.3z"/>
	<path class="st0" d="M841.2,311.7c0-7.4-4.6-12.4-11-12.4c-14.6,0-25.1,23-26.2,42.2c-1.1,20.1,6.1,37.8,27.2,37.8
		c8.7,0,20.3-3,29.3-13.5l1.1,0.6c-12,19.8-32.1,33.8-54.2,33.8c-23,0-39.3-15.2-39.3-40.7c0-32.5,27.7-61.8,63.8-61.8
		c14.8,0,36.5,3.6,36.5,21.3c0,14.1-16.3,32.5-63.1,20.1l0.2-0.8C831.2,339.9,841.2,325.2,841.2,311.7z"/>
	<path class="st0" d="M972.5,357.5c-2.8,16.3-4.6,37.6,3.8,40.9l-0.6,0.6c-4.4,1-8.9,1.3-13.5,1.3c-16.2,0-30.4-6.8-24.7-30.6
		l7-29.3l-0.8-0.2c-12,47.3-26.6,60-43.7,60c-20,0-27-17.7-27-35.1c0-30.2,27.2-67.3,61.9-67.3c18.8,0,33.8,16.3,47.5,0.8
		L972.5,357.5z M907.6,375c0,7.8,1.7,15,6.7,15c11.6,0,24.1-29.6,29.1-57.6l2.1-11.6c2.8-15.4,1.3-21.5-8-21.5
		C921.6,299.4,907.6,343.9,907.6,375z"/>
	<path class="st0" d="M1052.1,297.9c13.5,0,36.5,4.6,36.5,23.6c0,10.8-8.7,21.3-21.7,21.3c-8.6,0-16.3-5.3-15-16.7
		c7.8-2.1,11.6-8.4,11.6-14.2c0-6.5-4.4-12.4-12.9-12.4c-18.8,0-26.6,30.4-26.6,46.5c0,22.8,12.2,33.4,27.2,33.4
		c11.2,0,21.7-4.6,29.4-13.5l1.1,0.6c-13.5,22.6-35.3,33.8-54.5,33.8c-21.1,0-39-13.5-39-40.3C988.3,326.9,1016,297.9,1052.1,297.9z
		"/>
	<path class="st0" d="M1111.6,261.8c0.6-3.8-2.5-6.6-7.8-4.9l-0.6-0.6c6.7-3.2,19.9-7.4,29.1-7.4c10.8,0,15,4,12.5,16.9l-17.7,92
		l0.8,0.2c12.7-48.6,31.7-60,48.8-60c23.8,0,22.2,19.6,19.9,32.7l-4.6,27c-2.8,16.3-4.6,37.6,3.8,40.9l-0.6,0.6
		c-20.5,4-43.9,1.5-38.9-29.3l7.6-47.1c1.3-8.9,1.3-14.4-3.2-14.4c-10.6,0-23.8,21.9-30.8,50.2c-3.2,13.1-8.6,36.9-2.1,40.1
		l-0.6,0.6c-25.8,3.8-39.1,2.3-33.6-28.3L1111.6,261.8z"/>
	<path class="st0" d="M1279.8,311.7c0-7.4-4.6-12.4-11-12.4c-14.6,0-25.1,23-26.2,42.2c-1.1,20.1,6.1,37.8,27.2,37.8
		c8.7,0,20.3-3,29.3-13.5l1.1,0.6c-12,19.8-32.1,33.8-54.2,33.8c-23,0-39.3-15.2-39.3-40.7c0-32.5,27.7-61.8,63.8-61.8
		c14.8,0,36.5,3.6,36.5,21.3c0,14.1-16.3,32.5-63.1,20.1l0.2-0.8C1269.7,339.9,1279.8,325.2,1279.8,311.7z"/>
	<path class="st0" d="M1347.8,398.4l-0.6,0.6c-3.4,1-7.4,1.5-11.4,1.5c-13.1,0-26.4-6.5-22.2-29.8l10.6-59.9
		c0.6-3.8-2.5-6.6-7.8-4.9l-0.6-0.6c6.7-3.2,19.9-7.4,29.1-7.4c10.8,0,15.2,4,12.5,16.9l-10.4,43.1l0.8,0.2
		c12.7-48.6,25.5-61.8,44.8-61.8c16.9,0,24.3,10.6,24.3,22c0,12.7-9.5,25.5-26.4,25.5c-8.6,0-16.7-5.3-15.6-16.7
		c7,0,14.1-6.6,14.1-15.6c0-5.9-3-9.1-7.4-9.1c-11.8,0-23.6,23.2-31.7,56C1346.6,371.6,1341.3,395.1,1347.8,398.4z"/>
	<path class="st0" d="M803.9,486c0,23.2-21,44-45.9,44c-20,0-33.9-13.2-33.9-31.6c0-23.9,20.6-43.8,45.8-43.8
		C789.9,454.5,803.9,467.5,803.9,486z M778.1,470.1c0-8.3-1.8-14.6-8.4-14.6c-15.4,0-20,44.2-20,58.8c0,8.3,2,14.4,8.4,14.4
		C773.6,526.8,778.1,486.7,778.1,470.1z"/>
	<path class="st0" d="M821.1,455.5c3.2-19.5,6.2-36,27.6-36c12.5,0,20.2,6.3,20.2,15.3c0,8.7-6,15.5-16.8,15.5
		c-8,0-15.4-7.4-11.6-15.7c4.8,1,8.8-2.1,8.8-6.9c0-3.5-1.3-6.6-5.5-6.6c-6.2,0-12.7,6.6-12.7,14.1c0,11.9,14.3,14.6,13,20.2h11.8
		l-0.3,1.4H846L835,527.1c-2.7,16.8-11.8,36-29.4,36c-12,0-18.9-6.3-18.9-15.1c0-10.4,8.1-14.7,15.8-14.7c7.3,0,14.3,4.8,13.3,14.3
		c-5.2-0.3-8.1,2.2-8.1,6.4c0,3.1,1.8,5.3,5.2,5.3c6.3,0,8.4-5.7,8.4-12c0-11.9-12.3-14.7-10.4-27.2l10.1-63.3h-7.4l0.3-1.4
		L821.1,455.5L821.1,455.5z"/>
	<path class="st0" d="M919.2,455.5h9.8l-0.3,1.4h-9.7l-7,42.3c-2,12-3.4,27.7,2.8,30.1l-0.4,0.4c-2,0.3-4.3,0.6-6.9,0.6
		c-10.8,0-24.5-3.9-21.4-22.1l8-51.2h-6.3l0.3-1.4c20.2,0,31.1-6.7,34.3-26.6h1.3L919.2,455.5z"/>
	<path class="st0" d="M938.3,427.9c0.4-2.8-1.8-4.9-5.7-3.6l-0.4-0.4c4.9-2.4,14.7-5.5,21.4-5.5c8,0,11.1,2.9,9.2,12.5l-13,67.8
		l0.6,0.1c9.4-35.8,23.4-44.2,36-44.2c17.5,0,16.4,14.4,14.7,24.1l-3.4,19.9c-2.1,12-3.4,27.7,2.8,30.1l-0.4,0.4
		c-15.1,2.9-32.3,1.1-28.7-21.6l5.6-34.7c1-6.6,1-10.6-2.4-10.6c-7.8,0-17.5,16.1-22.7,37c-2.4,9.7-6.3,27.2-1.5,29.5l-0.4,0.4
		c-19,2.8-28.8,1.7-24.8-20.9L938.3,427.9z"/>
	<path class="st0" d="M1062.2,464.7c0-5.5-3.4-9.1-8.1-9.1c-10.8,0-18.5,16.9-19.3,31.1c-0.8,14.8,4.5,27.9,20,27.9
		c6.4,0,15-2.2,21.6-9.9l0.8,0.4c-8.8,14.6-23.7,24.9-39.9,24.9c-16.9,0-29-11.2-29-30c0-23.9,20.4-45.5,47-45.5
		c10.9,0,26.9,2.7,26.9,15.7c0,10.4-12,23.9-46.5,14.8l0.1-0.6C1054.7,485.4,1062.2,474.6,1062.2,464.7z"/>
	<path class="st0" d="M871.3,600l-33.1,59.5l-4,25.3c-3.6,22.2-5.3,32.9,14.6,32.9l-0.2,1.3h-77.9l0.2-1.3c20,0,21.7-10.6,25.3-32.9
		l2.8-19.2c-4.6-35.2-18.6-73.7-35.2-73.7c-2.5,0-5.9,1.9-8.9,4.4l-0.6-1c8.4-7,21.8-14.4,35-14.4c35.9,0,48.1,46.2,41.4,86.6
		l38.4-68.4c9.3-16.3,25.7-40.5,46.7-40.5c18,0,27.4,11.2,27.4,25.8c0,16.3-11.4,31.5-29.1,31.5c-13.9,0-22.4-9.1-22.4-19.6
		c0-6.1,3-15.2,13.9-18c2.3,5.1,6.1,8,11.8,8c8,0,12.5-5.9,12.5-12.9c0-6.5-3.6-11.6-14.2-11.6C899.4,561.8,885,575.5,871.3,600z"/>
	<path class="st0" d="M938.6,631.7c0-7.4-4.6-12.3-11-12.3c-14.6,0-25.1,23-26.2,42.2c-1.1,20.1,6.1,37.8,27.2,37.8
		c8.7,0,20.3-3,29.3-13.5l1.1,0.6c-12,19.8-32.1,33.8-54.2,33.8c-23,0-39.3-15.2-39.3-40.7c0-32.5,27.7-61.8,63.8-61.8
		c14.8,0,36.5,3.6,36.5,21.3c0,14.1-16.3,32.5-63.1,20.1l0.2-0.8C928.5,659.9,938.6,645.2,938.6,631.7z"/>
	<path class="st0" d="M1069.9,677.5c-2.8,16.3-4.6,37.6,3.8,40.8l-0.6,0.6c-4.4,1-8.9,1.3-13.5,1.3c-16.2,0-30.4-6.8-24.7-30.6
		l7-29.3l-0.8-0.2c-12,47.3-26.6,60-43.7,60c-20,0-27-17.7-27-35.2c0-30.2,27.2-67.3,61.9-67.3c18.8,0,33.8,16.3,47.5,0.8
		L1069.9,677.5z M1004.9,695c0,7.8,1.7,15,6.7,15c11.6,0,24.1-29.6,29.1-57.6l2.1-11.6c2.8-15.4,1.3-21.5-8-21.5
		C1019,619.4,1004.9,663.8,1004.9,695z"/>
	<path class="st0" d="M1121.7,718.4l-0.6,0.6c-3.4,1-7.4,1.5-11.4,1.5c-13.1,0-26.4-6.5-22.2-29.8l10.6-59.8
		c0.6-3.8-2.5-6.7-7.8-4.9l-0.6-0.6c6.7-3.2,19.9-7.4,29.1-7.4c10.8,0,15.2,4,12.5,16.9l-10.4,43.1l0.8,0.2
		c12.7-48.6,25.5-61.8,44.8-61.8c16.9,0,24.3,10.6,24.3,22c0,12.7-9.5,25.5-26.4,25.5c-8.6,0-16.7-5.3-15.6-16.7
		c7,0,14.1-6.7,14.1-15.6c0-5.9-3-9.1-7.4-9.1c-11.8,0-23.6,23.2-31.7,56C1120.6,691.6,1115.3,715.2,1121.7,718.4z"/>
	<path class="st1" d="M915.9,807.7c0,42-54.2,39.9-79.8,44.8c-15.2,2.8-24.5,8.7-31.7,20.3c6.8-6.5,20.3-9.3,29.1-9.3
		c18,0,35.5,11.6,55.1,11.6c8.4,0,16.7-2.1,20.1-11.2l1.1,0.2c-7,22.2-17.1,46.2-41.6,46.2c-16.2,0-45.6-14.4-62.3-14.4
		c-4.2,0-8.2,1-10.3,3.2c-0.6,3-0.8,6.5-0.8,9.9h-1.3c1.1-76.6,83.8-61.9,83.8-111.2c0-8.2-2.3-21.7-16.7-21.7
		c-12.9,0-21.3,10.6-21.3,20.1c0,7.2,4.9,13.1,16.7,9.3c5.7,13.5-7,27.9-22.2,27.9c-14.1,0-24.5-8.7-24.5-24.3
		c0-23,23-34.6,55.9-34.6C886,774.6,915.9,779.6,915.9,807.7z"/>
	<path class="st1" d="M1045.3,829.3c0,38.8-27.9,80.9-73.7,80.9c-33.2,0-52.1-22.8-52.1-54.5c0-39,27.5-81.1,73.5-81.1
		C1026.3,774.6,1045.3,797.6,1045.3,829.3z M1006.3,803.5c0-18.6-4.4-27.4-13.5-27.4c-22,0-34.6,71.4-34.6,105.6
		c0,18.4,4.4,27,13.5,27C993.8,908.8,1006.3,837.9,1006.3,803.5z"/>
	<path class="st1" d="M1163.8,807.7c0,42-54.2,39.9-79.8,44.8c-15.2,2.8-24.5,8.7-31.7,20.3c6.8-6.5,20.3-9.3,29.1-9.3
		c18.1,0,35.5,11.6,55.1,11.6c8.4,0,16.7-2.1,20.1-11.2l1.1,0.2c-7,22.2-17.1,46.2-41.6,46.2c-16.2,0-45.6-14.4-62.3-14.4
		c-4.2,0-8.2,1-10.3,3.2c-0.6,3-0.8,6.5-0.8,9.9h-1.3c1.1-76.6,83.8-61.9,83.8-111.2c0-8.2-2.3-21.7-16.7-21.7
		c-12.9,0-21.3,10.6-21.3,20.1c0,7.2,4.9,13.1,16.7,9.3c5.7,13.5-7,27.9-22.2,27.9c-14.1,0-24.5-8.7-24.5-24.3
		c0-23,23-34.6,55.9-34.6C1134,774.6,1163.8,779.6,1163.8,807.7z"/>
	<path class="st1" d="M1293.2,829.3c0,38.8-27.9,80.9-73.7,80.9c-33.2,0-52.1-22.8-52.1-54.5c0-39,27.6-81.1,73.5-81.1
		C1274.2,774.6,1293.2,797.6,1293.2,829.3z M1254.3,803.5c0-18.6-4.4-27.4-13.5-27.4c-22,0-34.6,71.4-34.6,105.6
		c0,18.4,4.4,27,13.5,27C1241.7,908.8,1254.3,837.9,1254.3,803.5z"/>
</g>
<path class="st2" d="M605.1,516.3c4.2-10.6,31.7-82.5,20.5-140.2c-12.3-63.3-37.6-92.1-74.4-118c-7.9-5.6-16.7-10.4-26.1-14.4l0,0
	c-15.3-6.5-31.5-9.8-47.8-9.8c-18.7,0-37.5,4.3-54.8,12.8C370.9,272,310,326.9,312,445.3c1.3,79.6,17.4,127.8,30.7,154.1
	c14.3,28.4,28.3,38.1,28.4,38.2l1.8,1.2l-1.7,1.3c-0.1,0.1-14.1,10.5-12.2,29.8c1.1,11.3,6.7,18.1,12,24.6c4,4.9,8.2,10,10.4,16.9
	c0.6,2,0.4,3.9,0.2,6.1c-0.6,5.7-1.5,14.1,11.8,32.3c-0.3-7.3-0.1-20.8,5.1-30.5c2.7-5,5.5-7.2,8.5-9.6c4.6-3.7,9.4-7.4,14.9-23
	c1.5-4.3,1.8-8.8,0.8-13.1c-1.3-5.7-4.2-13.6-10.6-18.8c-6.2-5.1-4.4-8.6-2.1-12.9c2.6-5,6.5-12.5,1.6-29.1
	c-8.8-29.8-38.8-34.6-39.1-34.7l-0.9-0.1l-0.3-0.8c-0.1-0.3-11.3-29.4-6.2-67.6c5-37.3,22.7-57.9,68.3-103
	c43.8-43.3,48.6-58.9,48.6-59.1l1-3.4l1.8,3c0.3,0.5,29.7,49.8,55,62.2c24.3,11.9,30.9,6,30.9,5.9l1.7-1.6l0.8,2.1
	c0.5,1.4,12.3,34.4,7.7,59c-3.6,19.1-14.3,36.4-19.2,43.6c5.5-1.4,15.4-3.7,24.3-4C595.9,513.9,602.4,515.5,605.1,516.3z"/>
<path class="st3" d="M413.1,653.6"/>
<path class="st1" d="M534.6,532.6c0,0-26.5,3.1-54.1,39.8c-27.6,36.8-12.7,77.6-10.4,96.5s-2.4,32.2-2.4,32.2s32.2-35.7,47.5-62.8
	c15.3-27.1,23.5-40.8,23.5-40.8s31.6,54.1,53.5,77.6c14.8,15.8,33.3,32.7,55.7,38.3c19.9,5,24.5,1,24.5,1
	c-9.9-4.8-15.8-12.3-15.8-12.3s14.3,6.6,20.9,6.6c0,0-6.1-5.7-10.2-21.5c-7.2-27.6,10-31.2,1.5-83.7c-8.3-51.2-50.5-77.1-82.2-80.2
	c-21.3-2.1-49,8.4-42.9,6.6L534.6,532.6z"/>
<path class="st4" d="M319.1,562.2c0,0,13.3,37.8,22,52.6s19.9,25,19.9,25s-13.4,16.1-9.5,31.6c6,24.1,19.8,32.8,21.8,39.9
	c2,7.2-1.4,12.5,1.5,20c8.2,20.9,26.1,35.7,26.1,35.7s-1.9-16.5,0-27.6c5.1-29.6,26.5-31.2,29.6-56.7c2.8-23.5-15.8-35.2-15.8-35.2
	s11.2-16.8,1-42.4c-11.5-28.8-39.4-33.2-39.4-33.2l-5.1-31.1l32.3-17.6c0,0,13.6,19.7,32.5,30.9c13,7.8,41.9,7.2,41.9,7.2
	s-18.9,23-20.9,53.2c-1.1,16.8,5.4,45.4,6,61.7c0.6,16.3-4,41.8-4,41.8l19.9-19.3c0,0,5.1,30.1,8.2,34.2c3.1,4.1,0,5.1,0,5.1
	s-35.7,16.8-53.6,34.2c-8.6,8.3-23.3,19.4-23.3,19.4l-7.6-9.9c-2.1-1.3-13.3,1.8-14.1,4.1c-1.5,4.7-5.6,13.5-10.5,17.1
	c-7.7,5.6-13,6.7-13,6.7l-9.8,8.9c0,0-36.6-51.4-20.2-107.1l0,0c0,0-31.1,25.5-28.6,57.7s23.8,48,23.8,48s-15.3,13.5-16.8,38
	c-1.5,25,13.3,40.1,13.3,40.1s-44.7-9.2-70.8-34.2c-28.4-27.3-60.3-109.3-5.1-219.1C286.6,570.4,319.1,562.2,319.1,562.2z"/>
<path class="st4" d="M666.8,572.9c0,0,11.7,33,12.6,51.4c1,20.6-4.5,27.7-5.2,51.7c-0.7,23.4,25.4,51.7,25.4,51.7s4.7-3.2,18.8,3.7
	c13.4,6.6,23,21.2,23,21.2s3.1-16.9-9.7-36.8c-12.8-19.9-28.6-24.5-28.6-24.5s0-53.6-12.8-83.2C675.3,573.2,666.8,572.9,666.8,572.9
	z"/>
<path class="st5" d="M697,825.8C697,825.8,697,825.8,697,825.8c7.1,0,18-3.2,25.6-12.2c13.8-16.3,18.9-33.7,17.9-42.9
	c-1.2-10.7-11.5-22.6-20.6-29.2c-5.8-4.3-11.3-6.4-14.6-5.8c-6.7,1.3-10.5,0.7-13.5,0.1c-1.5-0.3-2.7-0.5-4.1-0.4
	c-2.3,0.1-4.6,0.5-6.8,0.9c-2.6,0.5-5.3,0.9-8,0.8c-5.4-0.1-11.7-4.6-14-6.4c-3.3,2.8-1.1,7.9-0.3,9.5c2.1,0.7,9.2,3.4,17.4,8.1
	c8.1,4.7,11.8,4.6,11.8,4.6l1.5-0.1l0.1,1.5c0,0.4,0.3,9-3.1,19.2c-9.1,27.6-4.3,43.5,0.1,48.6C688.4,824.5,692.3,825.8,697,825.8z"
	/>
<path class="st5" d="M332.7,825c0,0,14.6,7.7,20.1,6.3s5.1-3.9,11.2-8.5c5.5-4.1,6.1-3.8,16-9.6s14-21.2,14-21.2s4.5-2.6,6.9,3.2
	c2.4,5.8-1.8,7.8-1.8,7.8s-23.6,22.2-27.6,58.4c-3.1,28.2,6.5,41.4,12,49.1c8.5,11.9,14.3,17.2,14.3,17.2s-14.8-1.5-35.2-18.2
	c-18.4-15-31.5-22-31.5-22s-7-5.1-9.5-25.5C319.2,843.5,332.7,825,332.7,825z"/>
<path class="st0" d="M676.4,914.5c2.4,6.5,3.9,13.8,4.4,17.2c9.6-1.9,59.8-11.8,66.5-41.8c6.8-30.2-12.2-65-16.9-73
	c-3,3.2-10.6,10.6-20.7,14.2c-11.2,4-19.6,4-25.6-0.1c-6.8-4.7-10.2-14.4-10.5-30.6c-0.4-17.7,5.7-36.4,7.5-41.4l-21.9-10.7
	c-5.2-2.6-10.8-4.7-16.5-6.3l-14.1-3.9c-1.4,4.4-6.5,17.4-21.6,29.9c-8.2,6.8-33.1,23-46.1,22.6c-13-0.4-29.9-11.8-43.4-20.9
	c-15.3-10.3-23.4-21.6-25.8-25.3c-5.6,2.8-29.4,14.6-44.5,25.3C415.3,792.2,395,816,387,840.4c-11.5,35-4.9,62,20.8,85.1
	c27,24.2,106.7,15,119.7,13.3l-14.2-42.1c-4.6,2.2-18.4,7.9-35.2,6.5c-11.8-0.9-32.2-8.8-35.3-17.3c-3.4-9.6-3.3-18.3,0.4-25.7
	c6.1-12.3,19.8-16.7,20.3-16.9l1.9-0.6v9.4c0,0.2,0.3,22.5,7.1,37.9c3.5,8,30,1.2,41.5-3.1c7.2-2.7,18-9.4,24.4-13.6
	c-0.3-0.5-0.6-1-0.9-1.6c-8.1-13.9-12.3-22.9-8.4-25.5c0.5-0.3,1.4-0.7,2.6-0.4c5.7,1.4,15.8,18.2,17.9,21.7l9.7,16.6
	c2.3-0.3,11.4-0.6,16.8,2.3c11.7,6.3,20.2,14.6,22.7,18.9c4.7-1.7,24.3-8.6,37.2-9.4c6.5-0.4,10.7-3.4,12-4.4l6.3-48.6l1.4,0.1
	c0.3,0,25.7,2.1,28.3,22c2.3,16.9-16.6,27-23.7,30.3C664.6,899.1,673.9,907.8,676.4,914.5z"/>
<path class="st5" d="M521.3,895.2c0,0,20.5-12.3,21.5-12.3c1,0,10.7,16.4,10.7,16.4s1,4.1,6.6,2s5-9,5-9s14.9,4.4,22.5,14.6
	c7.7,10.2,0,27.6,0,27.6s-14.3,5.6-28.1,6.6c-13.8,1-24.1-3.6-24.1-3.6L521.3,895.2z"/>
<path class="st5" d="M600.5,915c0,0,6.6-3.6,23-7.2c16.3-3.6,29.1-4.6,29.1-4.6s7.7,1.5,13.3,11.7s6.6,22,6.6,22s-9.2,2.5-25,2.5
	s-47-8.2-47-8.2s-3.1-4.6-3.1-10S600.5,915,600.5,915z"/>
<g>
	<path class="st5" d="M627.6,712.9c0,0-14.3-6-31.5-22c-0.7,2.7-3.2,3.2-7.5,3.5c-6.9,0.5-10.9-4.4-10.9-4.4l-4.4-4.4
		c-0.6-0.3-0.4-1.2,0.2-1.2c2.4-0.3,4.7-1.8,8.7-1.7c0.9,0,5.2,0.2,6,0.3c-2.6-2.7-4.9-5.2-7.4-8.2c-29.8-36-41.5-60.7-41.5-60.7
		s-19.4,34.8-29.1,46.5c-9.7,11.7-25.3,31.6-25.3,31.6s4,41.6,19.7,56.7c15.9,15.4,43.9,33.7,57.2,33.7c9.1,0,39.8-16.4,51.1-31.2
		C628.2,731.3,627.6,712.9,627.6,712.9z M532.8,693.8c-7.3,0.7-9.9-3.9-9.9-3.9l-6.2-4.3c-0.5-0.2-0.4-2.9,0.1-3
		c4.8-0.8,18.6-2.8,27.3-0.5C548.5,683.3,539.3,693.2,532.8,693.8z M569.9,728.9c-1.7,2.9-5.9,7.1-10.1,6.9c-4-0.1-7.3-4-9-6.7
		c-0.5-0.7,0.5-3.7,1.2-3.2c2,1.6,6.2,4.7,8.4,4.4c2.3-0.3,5.2-2.9,7.6-4.5C568.8,725.3,570.4,727.9,569.9,728.9z"/>
</g>
<path class="st5" d="M568.4,424.3c0,0-7.4,1.3-25.5-5.6C509.1,406,484.1,359,484.1,359s-15.2,26.1-34.2,43.9
	c-32.7,30.6-57.2,61.3-57.2,61.3s8.2,53.1,31.1,71.5c23,18.4,46.3,18.4,46.3,18.4h13.5c0,0,11.3-14.4,26.1-21
	c14.8-6.6,41.8-13.2,41.8-13.2s19.7-26.6,23-48C577.3,453.1,568.4,424.3,568.4,424.3z M462.1,451.7c-2.9,4.8-7.9,8.6-15.1,8.3
	c-6.8-0.2-14.2-2.9-17.2-7.3c-0.8-1.2,3-4.9,4.2-4c3.5,2.6,8.1,2.6,11.8,2.6c7,0.2,9.9-0.2,13.6-3.8
	C460.7,446.3,463,450.2,462.1,451.7z M503.4,489.6c-2.9,4.8-8,10.7-15.2,10.4c-6.8-0.2-11.7-5.4-14.6-9.8c-0.8-1.2,0.8-2.5,1.9-1.7
	c3.5,2.6,8,5.3,11.7,4.9c4-0.5,9.6-3.5,13.8-6C502.5,486.4,504.3,488.1,503.4,489.6z M542.2,450.9c-2.9,4.8-8.8,8.2-16,8
	c-6.8-0.2-12.9-3.6-15.9-8c-0.8-1.2,1.7-3.7,2.9-2.8c3.5,2.6,8.1,2.6,11.8,2.6c7,0.2,9.9-0.2,13.6-3.8
	C540,445.6,543.2,449.4,542.2,450.9z"/>
<path class="st6" d="M1125.2,1015.1H469.6c-244.3,0-444.3-199.9-444.3-444.3v-24.5c0-244.3,199.9-444.3,444.3-444.3h655.7
	c244.3,0,444.3,199.9,444.3,444.3v24.5C1569.5,815.2,1369.6,1015.1,1125.2,1015.1z"/>
</svg>
