<?xml version="1.0" encoding="utf-8"?>
<!-- Generator: Adobe Illustrator 25.0.1, SVG Export Plug-In . SVG Version: 6.00 Build 0)  -->
<svg version="1.1" id="Layer_1" xmlns="http://www.w3.org/2000/svg" xmlns:xlink="http://www.w3.org/1999/xlink" x="0px" y="0px"
	 viewBox="0 0 890.1 954.97" style="enable-background:new 0 0 890.1 954.97;" xml:space="preserve">
<g>
	<path d="M874.48,642.95c-0.13-0.26-0.29-0.51-0.45-0.77c-0.13-0.21-0.32-0.51-0.35-0.61c-2.4-16.34-8.53-31.32-18.19-44.55
		c-0.18-0.58-0.35-1.17-0.52-1.75c-0.44-1.52-0.9-3.09-1.44-4.63c-1.02-2.93-1.95-6-2.85-8.97c-2.07-6.88-4.22-13.99-7.82-20.26
		c-12.22-21.31-27.46-40.05-45.3-55.69c-9.36-8.21-17.94-13.4-26.95-16.3c-0.29-0.34-0.57-0.68-0.86-1.02
		c-0.85-1-1.73-2.03-2.54-3.06c-28.25-36.26-59.69-63.51-96.11-83.3l-18.37-26.71c7.26-37.18,7.94-73.75,2-108.69
		C638.48,171,599.78,96.57,536.42,39.09c-9.72-8.82-19.73-14.06-30.6-16.03c-10.11-1.83-19.12-2.84-27.53-3.07
		c-21.14-0.6-43.9,2.67-69.55,9.98c-40.2,11.45-70.82,26.5-96.38,47.37c-13.59,11.09-29.43,26.97-31.36,51.46
		c-0.21,2.61-0.67,5.29-1.12,7.88c-0.27,1.58-0.56,3.21-0.79,4.84c-5.8,41.39-5.05,78.85,2.29,114.52c1.93,9.4,4.25,18.88,6.5,28.04
		c0.93,3.78,1.85,7.57,2.76,11.36c-1.63,0.87-2.94,0.61-5.02-1.76c-7.39-8.45-16.64-14.95-27.5-19.33
		c-26.08-10.52-53.09-9.44-82.58,3.31c-23.85,10.31-43.34,26.11-57.95,46.93c-20.02,10.44-32.92,24.1-39.42,41.71
		c-3.81,1.3-7.61,2.61-11.42,3.92c-10.31,3.55-20.98,7.22-31.5,10.69c-5.4,1.78-8.81,5.37-10.44,10.98
		c-4.13,14.22,3.7,37.67,15.52,46.47c3.1,2.31,6.25,3.46,9.53,3.46c1.78,0,3.59-0.34,5.45-1.01c4.32-1.56,8.79-2.97,13.13-4.32
		c1.41-0.44,2.81-0.89,4.21-1.33c0.47,8.02,0.79,14.26,1.03,20.14c0.46,11.44,3.11,20.32,8.35,27.92c2.02,2.94,4.13,5.88,6.18,8.72
		c0.71,0.99,1.42,1.98,2.13,2.98c-0.37,0.78-0.78,1.79-0.49,2.89c0.96,3.75,1.85,7.62,2.7,11.36c2.07,9.07,4.2,18.45,7.74,27.18
		c11.76,29.01,32.48,46.5,61.59,51.99c21.67,4.08,43.98,1,66.32-9.17c0.09-0.04,0.18-0.08,0.28-0.12c-1.77,7.4-3.54,14.8-5.31,22.21
		c-4.19,17.49-8.52,35.58-12.71,53.39c-1.43,6.1-2.7,12.34-3.93,18.37c-0.57,2.8-1.14,5.59-1.72,8.38l-0.58,2.75
		c-0.1,0.41-0.22,0.79-0.37,1.13c-1.96,4.36-4.04,8.78-6.04,13.05c-4.1,8.74-8.34,17.79-11.93,26.95
		c-5.63,14.41-8.75,29.79-9.27,45.73c-0.46,14.03,1.8,28.33,7.07,44.91c-0.13,0.29-0.27,0.58-0.4,0.87c-0.48,1.08-0.94,2.11-1.52,3
		c-8.64,13.43-14.18,25.16-17.44,36.94c-7.22,26.08,0.48,45.61,23.53,59.72c11.68,7.15,25.29,12.19,41.6,15.41
		c5.25,1.04,10.61,1.93,15.79,2.8c2.37,0.4,4.73,0.79,7.09,1.2l0.17,0.03h40.17l0.33-0.03c1.87-0.31,3.75-0.61,5.63-0.91
		c4.03-0.65,8.2-1.32,12.29-2.07c50.27-9.21,86.79-22.24,118.4-42.22c11.88-7.51,21.92-16.73,29.83-27.39
		c0.44-0.6,2.02-1.33,3.31-1.34c16.48-0.14,33.92-0.15,54.89-0.03c1.18,0.01,2.41,0.45,2.66,0.74
		c17.65,24.19,43.4,37.12,63.85,45.69c34.4,14.4,67.13,23.08,100.06,26.54c0.24,0.02,0.68,0.24,1.06,0.43
		c0.31,0.15,0.62,0.31,0.94,0.44l0.36,0.15h40.56l0.16-0.03c1.86-0.31,3.72-0.62,5.59-0.92c4.05-0.67,8.24-1.35,12.36-2.09
		c23.62-4.2,40.31-10.84,54.13-21.54c15.45-11.96,21.47-27.9,17.9-47.39c-3.44-18.76-12.58-34.52-21.18-47.52
		c0.03-0.17,0.06-0.33,0.08-0.5c0.12-0.83,0.24-1.61,0.47-2.29c5.97-17.84,7.74-36.14,5.27-54.4c-0.58-4.31-1.31-8.65-2.01-12.86
		c-0.19-1.13-0.37-2.26-0.56-3.39c1.78,0.08,3.56,0.15,5.35,0.15c5.8,0,11.6-0.68,17.11-3.63c1.8-0.96,3.4-2.19,4.96-3.38
		c1.62-1.24,3.15-2.41,4.81-3.23c21-10.4,34.61-27.81,40.44-51.75c0.59-2.44,1.29-4.92,1.95-7.32c0.32-1.13,0.63-2.27,0.94-3.4
		l0.07-0.26v-26.75L874.48,642.95z M37.95,393.24c0.1-0.04,0.24-0.05,0.4-0.05c1,0,2.97,0.68,3.99,1.72
		c6.34,6.44,9.47,14.56,10.75,27.93c-0.21,0.49-0.41,1.04-0.63,1.66c-0.62,1.72-1.56,4.31-2.82,4.93c-2.01,0.99-3.38-0.44-5.88-4.24
		c-0.22-0.34-0.44-0.67-0.65-0.98c-5.9-8.69-8.35-17.72-7.27-26.86C36.03,395.59,37.32,393.48,37.95,393.24z M861.7,669.62
		c-2.62,21.32-12.02,37.37-28.72,49c-0.28-0.76-0.53-1.44-0.79-2.12c-2.66-6.9-11.01-12.21-18.26-11.58
		c-1.25,0.11-2.25,0.73-3.12,1.28c-0.29,0.18-0.57,0.36-0.86,0.51l-2.17,1.1l1.5,1.92c0.21,0.27,0.4,0.56,0.6,0.84
		c0.55,0.82,1.18,1.75,2.15,2.43c1.01,0.71,2.07,1.28,3.1,1.84c1.29,0.7,2.52,1.37,3.5,2.21c2.26,1.95,3.37,4.3,3.02,6.43
		c-0.3,1.84-1.71,3.36-3.96,4.29c-3.97,1.63-8.57,2.27-13.02,2.89c-1.44,0.2-2.89,0.4-4.31,0.63c-0.94,0.15-2.08,0.01-3.52-0.18
		c-0.21-0.03-0.45-0.05-0.67-0.08c-0.39-3.26-2.44-10.52-9.5-27.67c1.96-1.05,5.67-3.06,10.96-5.98l0.18-0.11
		c1.31-0.91,2.53-1.77,3.69-2.59c2.4-1.69,4.47-3.15,6.61-4.58c18.47-12.3,31.76-28.43,39.48-47.96c2.21-5.58,3.43-11.57,4.61-17.36
		c0.52-2.56,1.07-5.21,1.69-7.77C862.08,633.51,864.73,651.16,861.7,669.62z M191.94,801.06c-6.41-26.63-2.94-54.22,10.56-84.26
		c2-3.92,3.93-7.96,5.81-11.87c4.12-8.6,8.38-17.48,13.52-25.55c12.77-20.05,26.89-40.61,41.96-61.12
		c11.51-15.66,18.69-33.66,21.93-55.01c2.21-14.5,4.13-29.29,5.99-43.58c1.01-7.75,2.05-15.76,3.12-23.63
		c3.17-23.24,7.93-50.52,19.12-76.74c0.73-1.71,1.57-3.35,2.47-5.09c0.4-0.77,0.8-1.55,1.18-2.33l3.99-6.37
		c4.29-6.86,8.72-13.95,13.17-20.86c0.09-0.14,0.26-0.29,0.44-0.44c3.59,14.99,12.53,26.93,26.57,35.57l-15.68,24.17l-0.17,0.32
		c-10.23,24.49-16.84,50.3-19.64,76.73c-1.16,10.92-1.96,22.05-2.73,32.81c-0.23,3.18-0.46,6.36-0.69,9.54
		c-3.09,41.5-18.88,79.19-46.87,111.97c-27.86,29.92-34.33,42.12-39.62,63.58c-1.74,7.06-3.03,14.41-4.28,21.52
		c-0.38,2.17-0.76,4.33-1.16,6.49c-14.63,11.83-27.06,24.03-37.87,37.19C192.6,803.05,192.17,802.06,191.94,801.06z M61.81,415.33
		c-2.42-11.02-6.33-19.57-12.23-26.66c0.95-0.39,1.75-0.71,2.55-0.98c7.61-2.55,15.22-5.08,22.83-7.62
		c19.07-6.35,38.79-12.93,58.14-19.56c4.94-1.69,6.88,0.08,8.12,2.04c3.24,5.1,6.28,10.47,9.22,15.67c1.25,2.21,2.49,4.41,3.76,6.6
		l5.72,8.61l-98.06,32.79v-10.47L61.81,415.33z M540.86,110.4c0.02,0.02,0.05,0.03,0.07,0.05c0.84,0.54,1.63,1.06,2.14,1.65
		c28.26,33.14,49.65,72.6,65.27,120.39c-2.37-3.99-4.85-8.01-7.6-11.8c-13.26-18.29-30.76-33.41-52.01-44.99
		c0.01-0.18,0.02-0.37,0.03-0.55c0.08-1.41,0.18-3-0.28-4.53c-5.21-17.51-16.94-30.03-34.88-37.28L540.86,110.4z M627.81,461.46
		c1.16,4.32,2.34,8.63,3.52,12.94c2.83,10.29,5.75,20.93,8.22,31.47c1.21,5.16,1.76,10.64,2.29,15.94c0.24,2.4,0.49,4.88,0.8,7.32
		l0.03,5.03c-32.41-10.08-68.57-16.47-110.45-19.52c-55.98-4.07-111.25-0.26-164.27,11.3c-7.83,1.71-15.65,3.93-23.22,6.07
		c-2.53,0.72-5.12,1.45-7.71,2.16l0.63-5.38l0.01-0.22c0-0.85-0.02-1.7-0.04-2.55c-0.05-1.76-0.1-3.43,0.11-5.03
		c2.06-15.79,5.07-34.37,11.83-52.48c5.26-15.16,11.43-30.97,23.69-43.32c1.19,0.26,2.38,0.51,3.57,0.76
		c3.69,0.77,7.51,1.58,11.18,2.58c1.45,0.39,2.87,1.18,4.37,2.01c0.62,0.34,1.25,0.69,1.88,1.01c3.27,3.61,6.52,7.36,9.66,10.99
		c7.11,8.2,14.46,16.68,22.51,24.21c17.34,16.22,39.28,25.37,61.79,25.75c0.49,0.01,0.98,0.01,1.48,0.01
		c22.02,0,43.65-8.38,61.08-23.7c8.12-7.14,15.38-15.42,22.41-23.43c3.18-3.62,6.47-7.37,9.78-10.95c0.94-1.01,1.87-2.03,2.81-3.05
		l0.83-0.9l13.58-3.61c1.62-0.43,3.25-0.87,4.87-1.31l1.15-0.31C615.41,434.51,622.3,446.05,627.81,461.46z M335.37,368.51
		l-2.69,1.52l-0.9-2.13c-1.39-3.28-2.78-6.55-4.21-9.81c-0.85-1.95-1.77-3.91-2.75-5.98c-0.19-0.4-0.38-0.81-0.58-1.23l4.35-1.64
		l7.13,14.1L335.37,368.51z M303.18,357.85c2.47-1.08,5.08-1.9,7.84-2.75c0.57-0.18,1.15-0.36,1.73-0.54l11.77,22.98l-0.95,1.29
		l-10.94,1.95c-0.13-0.15-0.24-0.31-0.37-0.46c-0.76-0.91-1.47-1.77-1.91-2.66c-2.19-4.48-4.32-9.09-6.38-13.55
		c-0.64-1.39-1.29-2.78-1.93-4.17c0.1-0.19,0.19-0.39,0.29-0.58C302.58,358.84,302.99,357.99,303.18,357.85z M377.73,215.1
		c-1.02-7.56-1.95-15.27-2.86-22.72c-0.27-2.26-0.55-4.53-0.83-6.79l8.73-1.83c15.51-3.29,31.03-6.58,46.54-9.89
		c0.16-0.03,0.31-0.08,0.46-0.12l0.02,2c-19.94,10.88-37.11,25.56-51.14,43.7C378.26,217.97,377.92,216.54,377.73,215.1z
		 M544.69,340.5c5.68-9.06,7.7-19.77,6.02-31.89c-1.37-9.85-4.79-17.73-10.46-24.08c-6.18-6.92-13.17-9.06-21.3-6.48
		c6.41-7.16,15.17-10.1,24.44-13.14c1.22,0.78,2.45,1.53,3.66,2.26c3.22,1.94,6.27,3.77,8.81,6.13
		c20.36,18.9,25.24,48.45,12.76,77.13c-0.05,0.05-0.14,0.13-0.24,0.21L544.69,340.5z M525.17,288.88c0.05,0,0.1,0,0.15,0
		c4.76,0.1,8.48,4.91,8.47,10.94c-0.01,5.91-3.56,10.38-8.27,10.39c0,0-0.01,0-0.01,0c-4.76,0-8.69-4.79-8.77-10.68
		c-0.04-3.27,1.12-6.32,3.19-8.36C521.44,289.66,523.25,288.88,525.17,288.88z M527.55,326.47c5.11-0.09,9.98-2.76,13.88-7.48
		c-0.05,6.48-2.87,15.35-6.13,17.32c-0.81,0.49-4.16,0-6.02-1.35c-6.49-4.7-11.65-9.14-15.76-13.59c-0.64-0.69-1.05-1.79-1.36-3.02
		C516.7,323.72,522.06,326.57,527.55,326.47z M502.24,317.32h-27.01l-1.64-14.92l1.39,2.01l-2.26-9.91l-0.04-0.41l-0.07-0.1
		l-2.62-11.5l2.13-3.02c10.59,3.79,21.51,3.82,32.51,0.08c1.37,2.65,2.6,4.38,4.57,4.75c0.23,0.04,0.45,0.07,0.67,0.07
		C501.6,293.6,501.89,305.62,502.24,317.32z M445.68,257.67l-12.8-3.54c2.62-1.08,5.32-2.17,8-3.11c0.23,0.02,0.63,0.18,0.8,0.31
		C443.03,253.31,444.29,255.36,445.68,257.67z M407.05,345.03c-1.89-5.79-3.85-11.77-4.81-17.73c-4.19-25.78,8.8-51.3,31.62-62.38
		c0.5,0.18,1.01,0.36,1.51,0.53c8.53,2.99,16.58,5.82,22.47,12.6l0.03,0.06c-9.06-2.78-16.89,0.25-23.35,9.04
		c-11.19,15.25-11.81,38.49-1.49,54.22L409,351.17C408.36,349.1,407.7,347.04,407.05,345.03z M451.44,310.21L451.44,310.21
		c-4.68,0-8.39-4.55-8.43-10.35c-0.03-3.26,1.25-6.48,3.41-8.61c1.57-1.54,3.47-2.38,5.37-2.38c0.05,0,0.11,0,0.16,0
		c4.6,0.11,8.16,4.77,8.11,10.61C460.01,305.5,456.23,310.21,451.44,310.21z M449.96,326.03c5.21-0.13,10.29-2.9,14.91-8.06
		c-0.33,3.21-1.28,5.71-4.59,7.6c-2.69,1.54-4.8,3.88-6.83,6.15c-0.63,0.7-1.26,1.4-1.9,2.07c-2.74,2.86-5.48,4.21-7.71,3.82
		c-2.48-0.44-4.1-3.02-5.02-5.12c-2.03-4.62-3.08-8.89-3.18-13.15C440.04,323.87,444.94,326.17,449.96,326.03z M532.5,257.26
		c1.29-2.07,2.53-4.04,3.85-5.87c0.18-0.18,0.77-0.43,1.07-0.46c2.61,0.9,5.22,1.97,7.77,3.02L532.5,257.26z M419.23,261.34
		c0.53-0.32,1.78-0.18,3.02,0.04c-0.19,0.18-0.38,0.37-0.58,0.55c-1.28,1.2-2.65,2.38-3.98,3.53c-2.93,2.53-5.97,5.15-8.46,8.24
		c-15.77,19.57-19.95,42.92-12.41,69.38l2.03,7.14l-35.73-9.24c0.17-0.97,0.34-1.96,0.52-2.99c0.62-3.69,1.27-7.5,2.39-11.14
		C374.53,299.24,391.93,277.81,419.23,261.34z M578.67,347.77c5.76-15.99,6.67-32.5,2.64-47.77c-4.21-15.93-13.57-29.3-27.09-38.66
		c-0.15-0.1-0.3-0.28-0.46-0.49c2.72-0.8,5.31-0.11,8.66,2.18c28.33,19.39,45.28,42.65,51.81,71.11c0.46,1.99,0.72,4.07,0.98,6.08
		c0.04,0.34,0.09,0.68,0.13,1.01l-37.68,9.69C577.99,349.84,578.3,348.79,578.67,347.77z M610.96,294.85
		c-13.63-20.24-30.59-35.88-50.42-46.48c-5.04-2.7-10.59-5.2-17.45-7.89c-1.96-0.77-2.36-1.38-2.42-3.65
		c-0.06-2.34-0.71-4.57-1.34-6.72c-0.26-0.91-0.51-1.77-0.72-2.63l-1.25-5.2l-2.47,4.74c-0.51,0.97-1.06,1.93-1.61,2.89
		c-1.25,2.19-2.55,4.45-3.39,6.93c-3.84,11.24-10.61,20.26-20.13,26.81c-15.08,10.38-32.32,9.21-46.13-3.11
		c-7.04-6.29-12.25-14.61-15.91-25.46c-0.71-2.09-1.82-3.95-2.91-5.76c-0.46-0.78-0.93-1.55-1.36-2.34l-2.51-4.64l-1.2,5.14
		c-0.21,0.92-0.42,1.85-0.62,2.78c-0.47,2.13-0.95,4.34-1.58,6.42c-0.56,1.83-1.02,2.92-1.36,3.23
		c-28.32,10.68-51.6,29.47-69.18,55.82l-14.34,31.86c-1.26-1.27-2.29-3.17-3.03-5.63c-2.53-8.4-0.98-20.32,3.69-28.34l0.14-0.29
		c3.52-9.11,9.31-17.1,16.75-23.12c13.74-11.11,25.97-24.01,37.79-36.48c3.19-3.36,6.38-6.73,9.6-10.06
		c3.89-4.03,8.61-7.52,13.16-10.9c1.6-1.18,3.19-2.36,4.76-3.57c0.88-0.67,2-1.19,3.2-1.72l1.39,5.2l1.35,0.16
		c4.7,0.56,6.41-2.73,7.53-4.9c0.39-0.76,0.76-1.47,1.18-1.98l0.28-0.33l0.12-0.42c3.8-13.86,9.61-24.85,17.76-33.61
		c6.8-7.3,14.39-11.16,21.9-11.03c7.53,0.09,15,4.08,21.62,11.53c7.67,8.64,11.91,19.06,14.74,27.17c0.73,2.08,1.55,4.14,2.34,6.13
		c0.36,0.91,0.73,1.83,1.08,2.74l0.3,0.79l6.25,2.67l3.18-5.39c1.41,1,2.82,1.99,4.24,2.99c4.59,3.22,9.34,6.55,13.7,10.15
		c2.85,2.35,5.35,5.05,8.01,7.9c1.56,1.68,3.17,3.41,4.84,5.05c2.21,2.16,4.41,4.32,6.61,6.49c9.35,9.19,19.03,18.69,28.75,27.82
		c8.96,8.42,15.8,16.05,20.02,25.91l0.09,0.19c7.21,12.9,7.1,28.43,0.17,35.66l-15.05-33.25L610.96,294.85z M605.27,250.96
		c-3.08-2.58-6.27-5.24-9.07-8.12c-4.69-4.83-9.34-9.87-13.84-14.74c-3.93-4.26-7.99-8.66-12.08-12.92
		c-9.34-9.73-19.27-16.65-30.37-21.16c-1.41-0.57-3.03-2.27-4.33-4.53c-1.42-2.48-2.54-5.12-3.72-7.9c-0.11-0.25-0.21-0.5-0.32-0.75
		c32.82,13.88,57.67,37.5,73.93,70.29C605.4,251.07,605.34,251.02,605.27,250.96z M403.25,209.86
		c15.99-15.46,32.54-26.25,44.35-29.11c-0.12,0.27-0.25,0.55-0.37,0.82c-1.63,3.66-3.18,7.12-5,10.47
		c-0.47,0.86-1.84,1.85-3.59,2.58c-14.77,6.16-25.82,16.64-34.67,26.08c-7.83,8.35-16.1,16.59-24.1,24.55
		c-2.46,2.45-4.92,4.9-7.37,7.36C376.49,240.63,387.8,224.8,403.25,209.86z M515.52,160.28c-3.87-3.14-7.87-6.39-12.45-8.49
		c-12.3-5.64-24.91-3.5-37.46,6.34c-1.48,1.16-2.88,2.43-4.23,3.65c-0.56,0.5-1.11,1.01-1.67,1.5c-0.55,0.29-1.09,0.59-1.64,0.9
		c-1.29,0.72-2.5,1.4-3.75,1.87c-3.32,1.25-6.76,2.42-10.08,3.55c-0.37,0.13-0.75,0.26-1.12,0.38c0.11-0.94,0.28-1.81,0.64-2.34
		c2.27-3.35,4.89-6.59,7.42-9.73c1-1.24,2-2.48,2.98-3.73c9.71-9.23,23.7-14.13,38.41-13.47c13.93,0.63,26.54,6.28,34.64,15.57
		c4.51,4.79,7.28,9.15,8.68,13.72l-15.41-5.82C518.81,162.95,517.14,161.59,515.52,160.28z M571.24,431.48
		c-8.6,10.03-18.35,21.4-29.42,30.73c-31.11,26.21-74.27,25.88-104.96-0.79c-10.32-8.96-19.53-19.66-28.44-29.99l-2.12-2.46
		c-6.24-7.22-12.42-10.84-20.67-12.1c-16.8-2.56-29.09-11.27-36.52-25.88c-5.46-10.73-5.68-20.72-0.67-29.71
		c0.94-1.69,2.54-3.13,4.23-4.67c0.65-0.58,1.31-1.18,1.95-1.81c1.43-0.17,2.87-0.4,4.27-0.63c3.53-0.58,6.86-1.13,9.88-0.56
		c8.88,1.69,17.73,4.64,26.3,7.5l0.29,0.1c6.74,2.25,13.4,1.97,20.35-0.87c8-3.26,16.16-6.52,24.05-9.66l2.82-1.12
		c0.31-0.12,0.64-0.23,1.02-0.33l1.17,4.09l1.59-0.08c0.14-0.01,0.3,0.01,0.46,0.02c0.76,0.05,1.91,0.13,2.76-0.78
		c0.75-0.8,1.53-1.59,2.3-2.38c2.26-2.3,4.6-4.68,6.45-7.44c5.83-8.67,15.24-14.14,26.48-15.42c11.17-1.26,23.02,1.94,29.47,7.98
		c2.19,2.05,4.08,4.41,6.08,6.91c1.13,1.41,2.29,2.87,3.52,4.27c1.45,1.65,2.94,3.19,4.67,4.98c0.82,0.85,1.7,1.75,2.63,2.74
		l2.32,2.43l2.44-7.52c1.91,0.75,3.82,1.47,5.68,2.18c5.73,2.18,11.13,4.23,16.39,6.79c10.87,5.28,21.31,5.82,31.93,1.63
		c7.68-3.03,14.59-5.02,21.13-6.08c3-0.49,6.24,0.03,9.67,0.58c1.43,0.23,2.9,0.46,4.37,0.62c6.86,4,10.82,14.36,9.24,24.3
		c-3.06,19.23-18.59,34.27-38.65,37.43C583.92,418.33,576.98,424.78,571.24,431.48z M409.5,784.83l-0.21-0.96
		c1.65-6.99,3.26-14.08,4.82-20.94l0.03-0.15c3.68-16.17,7.48-32.89,11.9-49.08c16.25-59.47,35.41-111.06,58.56-157.7
		c1.56-3.15,3.27-6.28,5.13-9.59c1.5,3.06,3.01,6.09,4.49,9.08c6.89,13.91,14.01,28.3,20.11,42.73
		c24.85,58.76,43.68,121.17,55.95,185.49l-0.24,1.15l2.38,11.58c-2.94,0.38-5.96,0.75-8.99,1.09c-35.49,4.07-67.92,5.32-99.15,3.81
		c-21-1.01-39.75-2.58-57.23-4.79L409.5,784.83z M288.68,697.82c0.13-1.51,0.27-3.02,0.37-4.61l0.25-4.89l0.01-0.21
		c0.05-4.5,0.93-5.46,3.28-8.03c0.74-0.81,1.58-1.73,2.46-2.84c11.16-14.02,20.25-28.86,27.08-44.17
		c9.68,33.66,22.11,67.38,37.93,102.88c4.89,10.98,10.34,21.84,15.64,32.41c2.36,4.71,4.81,9.59,7.18,14.44l5.86,11.14
		c-26.13-4.23-49.71-10.2-71.96-18.22c-6.93-2.5-13.86-5.86-20.56-9.11l-0.25-0.12c-1.93-0.93-3.89-1.89-5.87-2.83
		c-0.14-4.08-0.28-8.16-0.42-12.33c-0.51-14.67-1.03-29.84-1.42-44.76C288.16,703.78,288.41,700.88,288.68,697.82z M590.9,793.76
		l3.89-7.5l0.68-0.01l1.8-3.45c24.95-47.76,45.15-98.26,60.09-150.16c7.73,17.23,18.23,33.92,31.97,50.84l1.67,15.03l0.02,1.57
		c-0.18,0.19-0.35,0.37-0.51,0.55l-1.31,1.51l1.9,1.66c0.99,17.65,1.6,38.36-1.21,58.93c-1.33,0.71-2.65,1.42-3.95,2.12l-0.16,0.08
		c-5.01,2.7-9.73,5.26-14.68,7.26C647.41,781.78,621.14,788.85,590.9,793.76z M338.56,553.83c3.16-0.67,6.31-1.52,9.35-2.35
		c2.03-0.55,4.13-1.12,6.2-1.63c25.74-6.28,52.41-10.44,81.52-12.72c12.42-0.97,25.13-1.31,37.42-1.63
		c2.65-0.07,5.34-0.14,8.04-0.22c-0.16,0.28-0.31,0.56-0.47,0.83c-2.58,4.55-5.25,9.25-7.66,14.1
		c-23.54,47.4-42.98,99.76-59.46,160.05c-4.49,16.45-8.33,33.3-12.04,49.62c-1.57,6.92-3.2,14.06-4.85,21.09l-2.12-4.03
		c-2.39-4.88-4.84-9.78-7.22-14.51c-5.2-10.37-10.58-21.1-15.34-31.8c-17.83-40.03-31.36-77.92-41.35-115.85
		c-0.15-0.58-0.28-1.21-0.41-1.92l-0.02-0.12c-0.07-0.35-0.14-0.71-0.21-1.06l-1.98-9.35c1.74-7.87,3.53-15.99,4.88-24.08
		c1.04-6.28,1.54-12.72,2.02-18.94c0.15-1.91,0.3-3.87,0.47-5.82C336.32,553.84,337.42,554.07,338.56,553.83z M275.95,693.95
		c-0.07,0.91-0.14,1.81-0.22,2.72c-0.29,3.3-0.59,6.7-0.5,10.24c0.39,14.9,0.92,30.03,1.42,44.67l0.01,0.38
		c0.08,2.2,0.15,4.41,0.23,6.61c-8.34-11.95-14.49-24.99-18.69-39.57C263.34,710.21,269.04,702.65,275.95,693.95z M649.46,611.72
		c-0.1,0.45-0.19,0.9-0.29,1.42c-0.15,0.77-0.3,1.5-0.47,2.14c-14.75,54.97-35.47,108.43-61.6,158.9l-0.81,0.23l-3.32,6.4
		c-12.45-65.06-31.51-128.19-56.66-187.65c-6.25-14.79-13.46-29.35-20.44-43.43l-0.1-0.2c-2.3-4.66-4.67-9.43-6.99-14.19
		c2.76,0.07,5.5,0.14,8.2,0.21c12.02,0.29,24.46,0.59,36.6,1.57c34.48,2.8,65.21,7.96,93.94,15.8c1.86,0.51,3.7,0.93,5.9,1.42
		c0.19,0.04,0.36,0.06,0.53,0.06c0.14,0,0.27-0.01,0.39-0.03c0.3,4.78,0.62,9.71,1.39,14.54c1.41,8.83,3.13,17.74,4.8,26.36
		c0.39,1.99,0.76,3.98,1.14,5.98L649.46,611.72z M704.06,702.73l-0.06-4.69l-0.43-3.95c4.28,5.63,8.97,11.99,12.66,17
		c2.69,3.64,4.41,5.98,5.58,7.5l-0.04,0.14c-4.7,15-10.68,27.73-18.16,38.63C705.59,738.02,704.99,719.08,704.06,702.73z
		 M244.46,754.36c1.13-5.56,2.29-11.32,4.45-16.53c0.58-1.4,1.17-2.76,1.75-4.09c0.37,0.85,0.74,1.7,1.11,2.55
		c1.67,3.84,3.39,7.81,5.18,11.67c0.42,0.9,0.61,1.45,0.57,1.63c0,0-0.11,0.24-0.8,0.62c-4.1,2.3-8.18,4.78-12.13,7.17
		c-0.29,0.18-0.59,0.35-0.88,0.53C243.98,756.73,244.23,755.53,244.46,754.36z M464.16,822.8c-57.03-2.96-102.19-11.36-142.09-26.45
		c-10.02-3.79-18.7-8.91-26.2-15.49c5.33,2.54,10.81,5.02,16.49,7.07c42.31,15.25,88.97,23.39,151.31,26.4
		c8.7,0.42,17.6,0.63,26.47,0.63c23.86,0,48.32-1.48,74.79-4.51c44.07-5.06,79.36-13.38,111.06-26.2c3.01-1.22,5.92-2.61,8.76-4.05
		c-8.47,7.55-18.89,13.42-31.85,17.98c-27.79,9.79-57.02,16.52-89.37,20.57C528.57,823.13,496.07,824.46,464.16,822.8z M729,733.57
		c3.73,7.71,5.59,15.93,7.02,24.4l-13.8-8.32L729,733.57z M360.73,186.71L360.73,186.71L360.73,186.71l0.76-0.05
		c2.73-0.09,3.83,0.9,4.3,5.36c0.98,9.38,2.28,18.88,3.53,28.06c0.49,3.55,0.97,7.09,1.44,10.64l-3.87,8.85
		c-3.63,8.4-7.27,16.8-10.92,25.18c-0.29,0.66-0.56,1.34-0.83,2.02c-0.75,1.88-1.46,3.65-2.52,5.04
		c-7.9,10.43-12.84,20.75-15.12,31.55l-0.02,0.11c-2.52,16.68,1.7,29.18,12.91,38.23c0.71,0.58,0.97,1.01,0.97,1.2
		c0,0.06-0.04,0.61-1.43,1.73c-2.4,1.92-4.65,4.04-6.82,6.1c-0.28,0.27-0.57,0.53-0.86,0.8l-5.52-11.06
		c3.2-15.06,0-29.23-9.55-42.11c-1.74-2.34-4.06-4.12-6.3-5.84c-0.85-0.65-1.64-1.27-2.41-1.91l-2.76-9.28
		c-0.43-1.75-0.92-3.51-1.38-5.21c-1-3.61-2.03-7.35-2.53-11.02l-0.29-2.1c-2.71-19.96-5.52-40.59-7.51-60.95
		c-0.55-5.64-0.12-11.57,0.29-17.29c0.13-1.75,0.24-3.53,0.35-5.32C323.89,186.88,343.71,187.32,360.73,186.71z M643.27,361.7
		c-2.49-8-7.27-13.82-14.49-17.66c-0.69-0.37-0.94-0.64-1.02-0.75c0.06-0.16,0.34-0.68,1.57-1.66
		c11.31-9.03,15.46-21.53,12.68-38.21c-1.85-11.08-7.21-20.25-13.53-30.19l-1.7-7.83c-0.04-0.27-0.07-0.55-0.1-0.82
		c-0.08-0.73-0.17-1.48-0.35-2.26c-12.64-52.81-32.81-97.76-61.66-137.42c-3.91-5.38-8.33-10.48-12.59-15.42
		c-1.66-1.92-3.36-3.9-5.02-5.87c0.71-1.32,1.42-2.64,2.14-3.95c2.22-4.06,4.52-8.26,6.48-12.57c1.11-2.45,1.69-5,2.35-7.95
		c0.05-0.21,0.09-0.41,0.14-0.62c0.58,0.66,1.14,1.31,1.7,1.95c2.78,3.18,5.41,6.19,7.9,9.25c24.92,30.69,44.27,67.53,59.13,112.64
		c1.48,4.49,2.82,9.14,4.12,13.63c0.61,2.1,1.21,4.19,1.83,6.28c1.2,5.53,2.52,11.14,3.79,16.56c2.83,12.06,5.76,24.53,7.59,36.91
		C648.32,303.45,648,332.35,643.27,361.7z M546.35,77c-1.25,7.17-4.67,14.06-10.76,21.68c-8.58,10.74-19.81,20.38-35.31,30.34
		c-0.39,0.01-0.77,0.01-1.16,0.02c-1.24,0.03-2.4,0.06-3.57,0.01c-10.4-0.42-19.82,0.82-28.22,3.72
		c19.54-9.39,36.08-20.26,50.09-32.93c1.83-1.66,3.4-3.17,4.78-4.62c8.3-8.7,16.88-19.43,18.93-33.68
		C545.69,65.56,547.44,70.75,546.35,77z M528.57,69.65c-3.52,7.27-8.67,14.45-14.89,20.78c-14.52,14.76-32.72,26.49-59.02,38.02
		c-35.59,15.61-69.91,23.95-104.91,25.49c-2.85-0.39-5.7-0.75-8.56-1.11c-6.99-0.89-14.21-1.8-21.22-3.08
		c-3.69-0.67-7.75-2.21-12.42-4.7c-13.8-7.36-17.38-19.09-10.1-33.01c4.75-9.08,11.77-17.04,22.74-25.8
		c27.5-21.94,60.68-37.46,101.43-47.45c19.44-4.76,36.42-7.1,52.1-7.1c6.85,0,13.45,0.45,19.89,1.33
		c8.61,1.18,16.98,3.56,24.19,6.88c6.3,2.9,10.61,7.19,12.48,12.41C532.15,57.49,531.56,63.49,528.57,69.65z M443.43,142.96
		c4.66-1.76,9.15-3.59,13.52-5.47c-9.02,5.21-16.56,12.79-22.56,22.74c-2.99,0.81-5.98,1.65-8.97,2.49
		c-6.99,1.96-14.22,4-21.39,5.63c-27.61,6.31-50.72,8.06-72.71,5.52c-8.85-1.02-19.11-2.8-28.2-8.29
		c-9.9-5.98-13.21-11.36-11.94-20.29c0.37,0.3,0.74,0.6,1.11,0.89c2.71,2.18,5.5,4.44,8.58,6.23c9.42,5.49,20.64,8.48,35.32,9.42
		C369.62,163.96,403.69,157.97,443.43,142.96z M294.93,174.64c0.14,4.83,0.24,9.72,0.33,14.47c0.23,11.64,0.47,23.69,1.41,35.5
		c0.83,10.39,2.48,20.86,4.07,30.98c0.7,4.44,1.42,9.04,2.06,13.56l5.41,20.37c-2.91,1.1-5.56,2.05-6.15,1.9
		c-0.32-0.32-0.71-2.02-1.05-3.51c-0.24-1.04-0.52-2.26-0.89-3.65c-1.94-7.3-3.57-14.83-5.15-22.12c-0.71-3.24-1.41-6.49-2.15-9.76
		c-5.31-21.5-7.7-67.79-4.66-83.35L294.93,174.64z M316.04,303.45c5.4,5.61,8.69,12.83,9.77,21.46c0.04,0.99,0.11,1.98,0.18,2.97
		c0.16,2.27,0.31,4.41,0.16,6.52c-0.11,1.56-0.68,3.75-4.36,4.86c-4.58,1.38-9.04,2.9-13.75,4.5c-1.09,0.37-2.19,0.75-3.3,1.12
		v-8.03l-0.04-0.39c-0.32-1.62-0.6-3.25-0.88-4.88c-0.64-3.76-1.31-7.64-2.45-11.38c-1.12-3.67-2.7-7.17-4.36-10.88
		c-0.47-1.05-0.95-2.12-1.43-3.22c1.01-0.33,2.01-0.67,3.02-1.01c4.41-1.48,8.96-3,13.49-4.05
		C312.64,300.96,314.6,301.95,316.04,303.45z M227.11,417.68c18.29-4.79,34.9-12.32,50.51-22.87c-1.67,6.06-6.74,11.92-14.46,16.54
		C251.7,418.22,237.76,420.52,227.11,417.68z M174.24,428.22c-16.39-2.54-30.11-8.13-36.88-14.89c1.69-0.55,3.37-1.09,5.04-1.63
		c6.03-1.94,12.26-3.94,18.22-6.34c5.44-2.19,8.54-1.66,12.28,2.12c6.34,6.4,14.65,10.38,23.4,11.22c6.3,0.6,11.35,3.52,16.64,6.68
		C204.74,429.54,190.1,430.67,174.24,428.22z M289.69,357.16l-0.06,0.18c-3.34,11.62-9.3,20.61-17.72,26.74
		c-20.05,14.59-40.11,22.44-61.33,24.02c-15.6,1.16-28.17-4.55-37.35-16.96c-4.08-5.51-7.63-11.64-11.05-17.56
		c-1.55-2.68-3.15-5.45-4.79-8.14c-0.54-0.88-1.05-1.79-1.57-2.69c-1.14-2-2.32-4.07-3.77-5.97c-4.38-5.71-9.24-8.47-15.23-8.47
		c-2.35,0-4.87,0.42-7.6,1.26c-3.44,1.05-6.79,2.17-10.67,3.46c-0.65,0.22-1.32,0.44-2,0.66c8.71-23.06,22.56-40.47,42.29-53.15
		c31.91-21.53,61.76-26.94,91.26-16.55c23.79,8.37,37.97,24.6,42.14,48.22C293.73,340.69,292.88,349.09,289.69,357.16z
		 M260.96,761.23c1.22-0.69,1.89-1.07,2.4-1.07c0.53,0,0.88,0.42,1.48,1.33c20.97,31.83,51.72,56.42,94.01,75.16
		c3.87,1.72,7.84,3.33,11.69,4.9c1.8,0.73,3.61,1.47,5.4,2.22l0.28,0.09c5.19,1.31,10.39,2.63,15.58,3.95
		c13.72,3.48,27.92,7.08,41.91,10.49c3.41,0.83,6.92,1.28,10.63,1.75c0.69,0.09,1.39,0.18,2.11,0.27c-0.03,0.04-0.07,0.08-0.1,0.12
		c-1.43,1.71-2.67,3.18-3.96,4.53c-15.92,16.51-35.91,26.21-51.56,32.82c-21.28,8.99-44.69,16.13-71.55,21.81
		c-0.49,0.1-1.07,0.12-1.68,0.15c-0.34,0.01-0.68,0.02-1.02,0.05l-0.28,0.04c-19.2,4.18-39.99,5.33-63.55,3.51
		c-19.42-1.5-35.62-5.44-49.5-12.05c-5.65-2.69-11.11-6.02-16.21-9.91c-12.34-9.38-16.25-22.16-11.96-39.05
		c3.67-14.46,10.62-28.36,21.85-43.76C214.33,794.72,235.88,775.42,260.96,761.23z M489.47,835.32c0.23,0,0.45,0,0.68,0
		c47.3,0,95.26-6,142.77-17.84c-32.83,17.78-69.48,28.35-111.56,32.23c-63.95,5.89-128.54-6.3-175.99-32.81
		C393.23,829.07,441.64,835.26,489.47,835.32z M603.41,843.82c23.47-9.13,41.7-18.3,57.35-28.87c23.2-15.66,40.83-33.05,53.9-53.14
		c1.33-2.05,1.65-2.05,3.27-1.11c39.1,22.79,66.06,51.78,82.4,88.61c4.64,10.44,6.51,19.95,5.73,29.08
		c-0.82,9.63-5.78,17.51-15.6,24.8c-10.99,8.16-24.6,13.63-42.83,17.22c-25.65,5.05-52.38,5.1-81.7,0.15
		c-0.23-0.04-0.55-0.17-0.89-0.3c-0.23-0.09-0.45-0.18-0.68-0.26l-0.17-0.05c-4.6-1.13-9.28-2.23-13.81-3.3
		c-10.07-2.37-20.48-4.81-30.54-7.74c-24.4-7.12-44.77-16.07-62.26-27.38c-10.18-6.58-17.84-13.23-24.44-21.26
		C557.02,857.12,580.02,851.74,603.41,843.82z M786.52,512.15c18.07,14.93,33.63,33.42,46.26,54.96
		c12.61,21.51,13.91,45.5,3.84,71.32c-0.37,0.95-0.98,1.88-1.63,2.86c-0.34,0.51-0.68,1.03-0.95,1.5c-1.43,2.22-2.8,4.53-4.14,6.76
		c-2.89,4.84-5.88,9.84-9.46,14.13c-9.06,10.85-21.09,19.68-36.78,26.99c-1.62,0.75-4.05,1.89-4.58,1.7c-0.53-0.2-1.64-2.7-2.31-4.2
		c-0.32-0.71-0.61-1.42-0.9-2.14l-0.32-0.78l-3.71-27.64l-0.02-0.12c-0.58-2.93-1.15-5.85-1.71-8.78
		c-1.46-7.57-2.97-15.39-4.71-23.04c-0.47-2.05-0.23-2.58,1.65-3.83c18.56-12.27,30.03-28.4,34.08-47.95
		c3.28-15.8,1.23-30.93-6.09-44.95c-3.11-5.95-6.62-11.78-10.01-17.41c-0.16-0.27-0.32-0.55-0.49-0.82
		C785.21,511.16,785.89,511.63,786.52,512.15z M687.26,426.95c9.97,6.98,20.28,14.19,29.84,21.94
		c15.98,12.95,30.73,29.2,46.42,51.12c0.86,1.2,1.6,2.49,2.39,3.86c0.38,0.65,0.75,1.3,1.14,1.94l0.79,1.13
		c9.52,13.46,19.36,27.38,22.19,44.08c2.82,16.65-1.41,31.98-12.56,45.56c-3.21,3.91-7.01,7.43-11.04,11.16
		c-1.2,1.11-2.42,2.24-3.66,3.42l-18.18-55.91l-0.1-0.24c-1.86-3.91-3.71-7.83-5.56-11.74c-4.68-9.9-9.52-20.13-14.41-30.15
		c-2.04-4.17-4.49-8.17-6.87-12.03l-1.21-1.96c-0.82-1.34-2.18-3.17-4.04-4.27c-1.45-0.87-4.41-1.56-6.15-0.3
		c-1.68,1.21-2.24,4.37-1.58,6.18c1.12,3.06,2.73,5.91,4.15,8.34c14.88,25.43,26.8,53.14,35.43,82.36c0.15,0.52,0.25,1.12,0.35,1.74
		c0.05,0.33,0.11,0.66,0.17,0.99l0.04,0.18c0.77,2.69,1.6,5.42,2.41,8.04c1.77,5.77,3.59,11.75,4.86,17.69
		c2.46,11.55,4.65,23.38,6.76,34.82c0.33,1.81,0.68,3.63,1.01,5.44l-38.71-55.53c-7.18-9.4-11.72-20.97-14.28-36.41
		c-3.44-20.76-6.23-42.01-8.93-62.56l-0.87-6.58c-2.9-21.99-7.54-50.29-17.9-78C681.89,423.19,684.6,425.09,687.26,426.95z
		 M104.02,354.33c-0.97,3.43-2.34,4.87-5.21,5.49c-1.8,0.39-3.56,0.95-5.27,1.52c3.2-6.16,7.72-11.46,13.7-16.02
		C106.06,348.25,104.9,351.25,104.02,354.33z M114.39,420.84c6.29-2.46,10.34-1.91,16.68,2.25c32.97,21.68,65.51,24.53,96.71,8.49
		c1.14-0.59,2.85-0.85,5.21-0.81c18.05,0.35,33.3-5.11,45.34-16.23c9.61-8.87,13.53-19.23,11.66-30.79c-0.1-0.6,0.24-1.72,0.84-2.77
		c1.51-2.66,3.17-5.32,4.78-7.89c6.59,14.79,6.61,30.37,5.83,42.53c-0.14,2.22-1.17,4.51-2.26,6.93c-0.53,1.17-1.07,2.38-1.52,3.62
		l-0.06,0.18c-0.81,3.1-1.63,6.21-2.45,9.31c-2.03,7.71-4.14,15.67-6.12,23.54l-0.27,1.07c-0.95,3.74-1.94,7.62-2.13,11.56
		c-0.49,9.9-7.1,15.56-15.04,21.43c-23.43,17.31-47.6,25.73-73.88,25.73c-29.23,0-52.29-4.45-72.57-14.01
		c-16.37-7.71-27.77-18.16-34.84-31.94c-1.79-3.48-3.02-7.9-3.66-13.14c-0.69-5.61-0.99-11.4-1.28-17c-0.13-2.42-0.25-4.83-0.4-7.18
		l-0.14-4.28c2.62-0.92,5.24-1.84,7.87-2.74C99.82,426.21,107.22,423.65,114.39,420.84z M169.28,529.12
		c3.05,0.36,6.09,0.74,9.14,1.13l4.1,0.51l3.83,0.02c13.34,0.03,27.14,0.07,40.62-3.35c22.46-5.71,40.74-14.93,55.88-28.19
		c-0.11,1.01-0.22,2.02-0.33,3.03c-0.52,4.84-1.01,9.4-1.73,14.02c-0.72,4.63-1.43,9.27-2.14,13.91c-2.41,15.8-4.9,32.14-7.99,48.06
		c-2.51,12.93-9,25.12-20.41,38.38l-27.88,39.85c0.08-0.48,0.17-0.95,0.25-1.43c1.39-7.96,2.83-16.19,4.46-24.23
		c1.05-5.2,2.42-10.45,3.75-15.53c0.61-2.33,1.22-4.66,1.78-6.93c1.04-3.61,2.04-7.3,3.01-10.86c2.41-8.86,4.91-18.03,8.11-26.72
		c0.98-2.66,3.38-4.96,5.92-7.4c1.44-1.38,2.93-2.81,4.21-4.37c1.52-1.85,2.82-3.85,4.08-5.78c0.55-0.85,1.11-1.7,1.68-2.54
		l0.88-1.29l-3.77-4.25l-1.42,0.82c-0.72,0.42-1.45,0.82-2.18,1.22c-1.64,0.9-3.34,1.84-4.93,2.96c-3.01,2.12-6,4.36-8.88,6.54
		c-5.81,4.37-11.81,8.89-18.14,12.43c-9.62,5.38-20.93,8.23-34.63,8.73c-18.37,1.33-33.62-2.04-46.61-10.3
		c-15.6-9.91-26.44-24.78-32.21-44.19c-1.46-4.92-2.49-10.1-3.48-15.12c-0.13-0.67-0.27-1.35-0.4-2.02
		C121.63,518.51,143.09,526.02,169.28,529.12z M748.64,766.83c-1.3-20.43-7.73-39.81-19.68-59.21c-0.63-1.02-1.2-2.06-1.8-3.16
		c-0.28-0.51-0.56-1.03-0.85-1.54l-0.17-0.26c-3.94-4.99-8-10.01-11.94-14.87c-8.71-10.76-17.73-21.89-25.88-33.31
		c-18.55-25.97-29.19-57.34-31.61-93.25c-2.07-30.65-4.22-62.33-14.16-92.95c-1.88-5.79-4.08-11.55-6.21-17.12
		c-0.99-2.58-1.98-5.17-2.93-7.76l-14.96-23.94c13.94-8.98,22.42-20.4,25.85-34.8c0.17,0.08,0.32,0.15,0.37,0.2
		c4.5,6.94,8.97,14.07,13.29,20.96l3.81,6.07c8.3,16.34,14.11,34.6,17.75,55.82c2.94,17.16,5.4,34.71,7.77,51.69
		c1.43,10.25,2.92,20.85,4.49,31.27c1.42,9.38,3.33,18.49,5.5,28.56c3.93,18.24,14.19,33.19,24.37,46.93
		c17.88,24.15,36.5,50.12,50.38,78.72c1.24,2.56,2.29,5.31,3.3,7.98c0.49,1.28,0.97,2.57,1.49,3.85c0.78,1.93,1.6,3.85,2.42,5.77
		c1.73,4.06,3.52,8.25,4.89,12.45c7.16,21.9,8.65,42.26,4.54,62.25c-0.47,2.27-1.14,4.48-1.86,6.8
		C774.37,789.39,761.86,777.21,748.64,766.83z"/>
	<path d="M777.79,864.22c2.04,1.14,4.06,1.72,5.93,1.72c1.5,0,2.91-0.37,4.17-1.11c3.15-1.85,4.88-5.72,4.88-10.91l0-0.14
		c-0.53-7.28-4.45-13.33-11.04-17.05c-3.72-2.09-7.56-2.28-10.52-0.49c-2.98,1.79-4.62,5.3-4.5,9.62
		C766.92,853.93,770.76,860.28,777.79,864.22z"/>
	<path d="M191.36,864.7c1.4,0.84,2.99,1.26,4.65,1.26c1.87,0,3.82-0.53,5.66-1.59c6.89-3.95,10.97-10.01,11.2-16.63l0-0.05
		c0.06-5.57-1.67-9.68-4.87-11.57c-2.84-1.67-6.49-1.42-10.28,0.73c-6.85,3.88-10.62,10.26-10.91,18.48
		C186.66,859.39,188.37,862.9,191.36,864.7z"/>
	<path d="M510.05,40.5c-10.98-5.68-23.03-6.58-34.69-7.44l-1.93-0.14l-0.21,0.03c-3.91,0.52-7.91,0.98-11.78,1.42
		c-8.52,0.98-17.33,1.99-25.89,3.69c-40.37,8.01-74.29,21.72-103.69,41.91c-8.66,5.95-19.52,14.33-26.66,26.48
		c-4.56,7.77-5.73,15.23-3.37,21.6c2.28,6.15,7.73,10.85,15.76,13.6c9.47,3.23,18.8,4.93,27.08,4.93c0.31,0,0.61,0,0.92-0.01
		c53.85-0.83,104.25-17.19,149.81-48.63c6.18-4.26,11.48-9.8,16.61-15.16l0.58-0.6c2.73-2.85,5.26-6.63,7.53-11.24
		C526.22,58.52,522.36,46.87,510.05,40.5z M484.99,93.63l-11.83-5.81l30.49-27.38l-8.62-3.71c-3.13-1.34-5.49-0.88-7-0.42
		c-3.44,1.06-6.89,2.12-10.34,3.19l-0.97,0.3c-10.84,3.34-22.06,6.79-33.09,10.3c-4.94,1.57-8.7,1.76-12.58,0.62
		c-6.44-1.89-12.89-3.31-20.2-4.71c23.45-7.46,46.51-11.14,69.56-11.14c2.4,0,4.81,0.04,7.21,0.12c7.12,0.24,14.43,2.49,20.65,4.67
		c2.98,1.04,4.61,2.06,4.96,3.09c0.35,1.03-0.3,2.82-2.01,5.48c-3.75,5.83-7.78,10.72-11.97,14.52c-4.01,3.64-8.59,6.87-13.02,10
		C485.82,93.05,485.4,93.34,484.99,93.63z M384.39,114.41h-26.94c2.42-1.17,4.83-2.33,7.25-3.49l0.38-0.18
		c7.2-3.46,14.64-7.04,21.92-10.67c3.02-1.51,5.1-4.17,6.41-6.05c1.62-2.33,3.2-4.71,4.75-7.06c2.17-3.28,4.41-6.68,6.7-9.79
		c0.04-0.02,0.07-0.04,0.11-0.05c8.52,1.57,15.67,3.06,22.69,5.12c6.27,1.84,12.31,1.63,19.61-0.7c7.46-2.38,14.96-4.71,22.91-7.17
		l-18.25,16.39l16.89,8.29l-1.99,1.16c-2.44,0.36-4.88,0.71-7.32,1.07l-0.63,0.09c-7.18,1.05-14.6,2.13-21.91,3.27
		c-1.39,0.22-2.85,0.37-4.39,0.54c-4.63,0.49-9.42,1-13.89,3.26c-10.11,5.11-20.02,10.83-29.61,16.36
		c-3.46,1.99-6.91,3.99-10.38,5.96l-3.18,0.42L384.39,114.41z M424.11,119.16c2.51-1.27,6.02-1.64,9.74-2.04
		c1.62-0.17,3.29-0.35,4.97-0.61c2.23-0.35,4.48-0.69,6.73-1.03c-10.03,4.32-20.94,8.16-32.93,11.6c-2.08,0.6-4.18,1.15-6.29,1.68
		C412.2,125.44,418.15,122.17,424.11,119.16z M462.29,46.22c-43.44,4.73-83.9,18.57-120.24,41.15c-7.24,4.5-13.89,9.55-19.75,15.01
		c-4,3.73-7.52,8-10.92,12.16c0.43-1.19,0.95-2.26,1.66-3.12l0.26-0.32c5.82-7.05,11.83-14.34,18.96-19.75
		c26.65-20.19,59.55-34.41,100.58-43.46c11.99-2.65,25.57-5.11,39.67-5.11c5.46,0,11.01,0.37,16.57,1.25
		c3.38,0.53,6.77,1.6,10.11,2.84C486.27,44.28,473.55,45,462.29,46.22z M320.02,118.6c9.6-13.03,23.21-21.59,33.99-27.6
		c13.43-7.48,26.65-13.77,39.73-18.91c-1.95,2.75-3.79,5.53-5.59,8.25c-1.49,2.25-3.03,4.58-4.59,6.82
		c-1.27,1.83-1.89,2.15-1.92,2.16c-7.24,3.62-14.65,7.18-21.81,10.62c-3.49,1.68-6.98,3.36-10.47,5.04
		c-4.19,2.03-8.37,4.1-12.55,6.16l-10.25,5.06l3.33,10.2h34.57l-5.78,10.94c-12.71,1.17-23.3,0.36-32.97-2.5
		c-5.1-1.51-10.6-3.29-11.3-5.37C313.79,127.62,316.21,123.78,320.02,118.6z"/>
	<path d="M615.17,375.62c-0.86,0.47-1.74,0.92-2.61,1.37c-1.92,0.99-3.9,2.01-5.78,3.22c-21.52,13.87-48.91,13.72-68.17-0.39
		c-0.56-0.41-1.03-1.45-1.49-2.46c-0.42-0.94-0.86-1.91-1.51-2.8c-1.52-2.09-3.09-3.3-4.65-3.62c-1.52-0.3-2.91,0.35-4.13,0.92
		c-0.37,0.18-0.75,0.35-1.11,0.49l-1.29,0.46c-14.49,5.21-29.47,10.59-45.18,6.9c-6.11-1.43-12.24-3.39-18.17-5.28
		c-2.76-0.88-5.62-1.79-8.45-2.65c-0.34-0.1-0.7-0.23-1.08-0.37c-1.86-0.67-4.18-1.5-6-0.21c-1.1,0.78-1.65,2.08-1.63,3.89
		c0.02,2.82-1.11,3.59-3.34,5.13l-0.13,0.09c-20,13.81-45.84,13.79-67.43-0.04c-1.9-1.22-3.9-2.24-5.83-3.23
		c-0.88-0.45-1.76-0.9-2.63-1.37l-1.4-0.76l-3.61,4.13l1.02,1.3c0.46,0.58,0.89,1.22,1.35,1.89c1.08,1.59,2.21,3.23,3.83,4.44
		c11.93,8.94,25.32,13.92,39.8,14.8c3.25,0.2,6.65,1.28,9.1,2.89c13.04,8.59,23.73,20.66,31.8,35.87c0.72,1.36,1.06,2.4,1.01,3.08
		c-0.15,1.89,0.29,3.32,1.31,4.27c0.94,0.88,2.12,1.11,3.2,1.11c0.53,0,1.03-0.06,1.47-0.12c1.77-0.27,3.45-0.81,5.08-1.33
		l0.52-0.17c20.56-6.57,41.45-6.51,62.11,0.18c7.58,2.46,8.74,1.89,11.31-5.48c0.11-0.33,0.27-0.68,0.49-1.09
		c8.8-16.53,19.95-28.84,34.09-37.64c1.53-0.95,3.77-1.55,5.99-1.61c13.48-0.33,26.19-4.64,38.84-13.16
		c2.09-1.41,3.72-3.33,5.29-5.19c0.7-0.82,1.36-1.6,2.05-2.33l1.2-1.27l-3.76-4.69L615.17,375.62z M553.99,399.55
		c-0.38,0.34-0.76,0.69-1.15,1.04c-3.49,3.14-7.43,6.69-11.48,9.95c-0.53-0.01-1.82-0.36-2.81-0.91
		c-17.59-9.8-33.13-14.17-48.98-13.75c-16.37,0.44-31.95,5.21-46.3,14.18c-3.2,2-4.48,1.83-7.16-0.99
		c-2.89-3.03-6.11-5.75-9.52-8.62c-0.59-0.5-1.19-1-1.79-1.51c10.04-2.69,19.4-7.34,28.49-14.15c0.17-0.1,0.94-0.23,2.24-0.02
		c1.69,0.27,3.5,0.77,5.39,1.48c19.15,7.21,39.49,6.94,60.47-0.79c3.11-1.15,5.09-0.49,8.36,1.43c6.26,3.66,12.82,6.95,19.17,10.12
		C550.61,397.86,552.31,398.7,553.99,399.55z M534.24,418.16c-0.7,1.13-1.39,2.26-2.09,3.39c-2.92,4.75-5.93,9.65-9.1,14.32
		c-0.38,0.26-1.75,0.54-2.66,0.38c-3.46-0.6-6.97-1.33-10.36-2.03c-3.81-0.79-7.76-1.61-11.68-2.26
		c-12.98-2.14-25.46,1.01-37.52,4.05l-0.71,0.18c-2.65,0.67-3.41,0.32-4.79-2.16c-2.12-3.82-4.44-7.41-6.9-11.21
		c-0.73-1.12-1.46-2.26-2.19-3.4C465.82,401.57,513.39,400.89,534.24,418.16z"/>
	<path d="M485.04,166.31c-0.02,0-0.04,0-0.06,0c-2.64,0-5.24,1.15-7.33,3.24c-2.64,2.64-4.14,6.37-4.12,10.23
		c0.02,3.3,1.01,6,2.87,7.81c1.51,1.46,3.49,2.23,5.75,2.23c0.08,0,0.17,0,0.26,0c5.92-0.15,11.21-6.29,11.31-13.13
		c0.05-3.16-0.97-5.97-2.87-7.91C489.29,167.2,487.23,166.32,485.04,166.31z"/>
</g>
</svg>
