<?xml version="1.0" encoding="utf-8"?>
<!-- Generator: Adobe Illustrator 25.0.1, SVG Export Plug-In . SVG Version: 6.00 Build 0)  -->
<svg version="1.1" id="Layer_1" xmlns="http://www.w3.org/2000/svg" xmlns:xlink="http://www.w3.org/1999/xlink" x="0px" y="0px"
	 viewBox="0 0 857.3 922.1" style="enable-background:new 0 0 857.3 922.1;" xml:space="preserve">
<g>
	<path d="M213.1,557.7c-2.4,1-4.3,1.7-6.2,2.5c-10.8,4.9-22,8.3-33.7,9.7c-18.4,2.1-36.2-0.1-52.9-8.6c-14.5-7.4-24.8-18.8-32.4-33
		c-5-9.5-8.1-19.6-10.5-30c-1.2-5.4-2.5-10.7-3.7-16.1c-0.2-0.8-0.3-1.8,0.1-2.5c0.5-1.1,0.3-1.9-0.4-2.8c-2.6-3.6-5.2-7.3-7.8-10.9
		c-4.6-6.5-7.2-13.7-7.8-21.6c-0.7-8.5-1-17.1-1.5-25.6c-0.1-1.2-0.2-2.3-0.3-3.7c-0.8,0.2-1.4,0.3-2,0.5c-6.3,2-12.6,4-18.9,6.1
		c-4.3,1.5-8.3,1.1-11.8-1.7c-2.1-1.7-4.2-3.6-5.8-5.7c-6.9-9.4-10.3-19.9-10.1-31.6c0-1.8,0.4-3.7,0.8-5.4c1.1-5,4.2-8.2,9.1-9.9
		c10.9-3.6,21.8-7.4,32.7-11.1c3.3-1.1,6.5-2.3,9.8-3.3c0.9-0.3,1.5-0.7,1.9-1.6c6-16.6,17.5-28.4,32.5-37.1
		c4.2-2.5,7.6-5.5,10.6-9.3c20-25.7,46.2-41.7,77.8-48.7c21.4-4.8,42.1-2,61.8,7.9c7.2,3.6,13.5,8.6,18.9,14.5
		c0.3,0.4,0.6,0.7,1,1.1c3.5,3.7,6,3.9,10.5,1c-0.5-2.2-1.1-4.5-1.6-6.9c-2.9-12.4-5.9-24.7-8.6-37.1c-2.4-11.3-3.8-22.9-4.7-34.4
		c-0.9-11.3-1.1-22.7-0.8-34c0.5-16.8,2.1-33.5,4.9-50.1c0.6-3.6,0.8-7.3,1.4-10.9c2-11.2,7.3-20.9,14.6-29.5
		c6.5-7.5,14-13.8,21.9-19.7c18.2-13.7,38.3-24,59.6-31.9c18.7-7,37.9-12.6,57.6-16.1c14.3-2.6,28.7-3.7,43.2-3
		c8.6,0.4,17,1.5,25.4,3.3c10.4,2.2,19.1,7.6,26.9,14.6c31.8,28.8,57.6,62.2,77.3,100.4c14.5,28.2,25.1,57.9,32.7,88.6
		c3.4,13.7,6.3,27.6,8.4,41.6c2.4,15.4,3.4,30.8,3.2,46.4c-0.1,10.9-0.8,21.7-2.1,32.5c-1,7.7-2.3,15.3-3.6,23
		c-0.3,1.7-0.1,3,0.9,4.5c5.7,8.2,11.3,16.5,17.1,24.7c0.7,0.9,1.5,1.9,2.5,2.4c34.3,18.8,63.3,44,88,74.2c3.1,3.8,6.1,7.6,9.2,11.3
		c0.6,0.7,1.4,1.4,2.2,1.7c9.7,3.2,17.9,8.9,25.4,15.5c18,15.8,32.9,34.2,44.8,55c2.8,5,4.7,10.3,6.4,15.7
		c1.9,6.2,3.8,12.4,5.8,18.5c0.3,0.9,0.8,1.8,1.3,2.5c8.9,12.5,14.5,26.4,16.9,41.6c1.7,4.1,0.9,8.5,1,12.8c0.1,1.6,0,3.2,0,4.8
		c-0.1,4,0.5,8.1-0.4,11.9c-2.2,9.3-4.4,18.7-8.8,27.3c-7,13.8-17.4,24.1-31,31.4c-2.3,1.2-4.6,2.6-6.7,4.2
		c-5.4,4.4-11.6,6.3-18.4,6.4c-2.8,0.1-5.6-0.1-8.4-0.2c-0.7,0-1.4,0-2.4,0c0.3,2,0.5,3.8,0.8,5.5c1.4,8.4,2.9,16.9,3.2,25.4
		c0.5,14-1.5,27.6-5.8,40.9c-0.1,0.5-0.3,0.9-0.4,1.4c-0.7,2.4-0.5,4.4,1,6.7c6.6,9.7,12.2,19.9,16,31c2.6,7.7,4.6,15.5,4.6,23.7
		c0,11.4-4,21.2-12.1,29.4c-6.6,6.6-14.3,11.4-22.7,15.4c-10.3,4.9-21.3,7.9-32.4,10c-6.3,1.2-12.6,2.2-18.9,3.3
		c-1.6,0.3-3.2,0.4-4.8,0.4c-11.6,0-23.2,0-34.8,0c-1.2,0-2.5-0.4-3.7-0.6c-2-0.3-4.1-0.7-6.2-0.9c-37.3-4.5-72.7-15.5-106.7-31.3
		c-12.7-5.9-24.6-13.3-35.2-22.6c-5.2-4.6-10-9.7-14.1-15.3c-1.6-2.2-3.6-3.1-6.1-3.1c-2.1,0-4.2-0.1-6.2-0.1
		c-15.6,0-31.2,0-46.8,0.1c-1.1,0-2.2,0.1-3.3,0.3c-1.8,0.3-3.3,1.2-4.4,2.7c-9.3,12.5-21.2,22-34.6,29.9
		c-20.9,12.3-43.3,21.3-66.6,27.9c-18.3,5.2-36.9,9.1-55.7,12.1c-5.1,0.8-10.1,1.2-15.3,1.2c-7.3-0.1-14.6-0.1-21.8,0
		c-5.7,0-11.3-0.2-16.9-1.2c-9.4-1.8-18.9-3.2-28.1-5.8c-9.8-2.8-19.2-6.6-27.9-12c-4.7-2.9-9-6.1-12.8-10
		c-8.7-9-12.6-19.8-11.9-32.3c0.7-10.9,4-21,8.7-30.7c2.7-5.6,5.9-11,8.9-16.4c0.6-1.1,1.3-2.2,2-3.2c1.9-2.9,2.5-5.6,1.3-9.2
		c-3.4-10.1-5.4-20.5-6-31.2c-0.7-12.1,0.6-24.1,3.2-35.9c2.6-11.6,7.1-22.5,12-33.3c3.5-7.7,7.2-15.4,10.7-23.1
		c0.8-1.7,1.4-3.6,1.8-5.4c7-35.4,16.2-70.4,24.4-105.5C212.5,560.1,212.7,559.1,213.1,557.7z M556,782.4c0-0.3,0.1-0.6,0.1-0.8
		c-1.1-5.6-1.9-11.3-3.1-16.9c-3.2-16.1-6.6-32.1-10.5-48c-16.4-66.5-39.7-130.5-71.4-191.3c-0.3-0.5-0.6-1-1.1-1.6
		c-0.5,0.8-0.8,1.3-1.1,1.9c-3.2,6.2-6.6,12.2-9.7,18.5c-25.3,52.2-44.1,106.9-58.6,163c-5.6,21.7-10.8,43.5-14.9,65.6
		c-0.6,3.2-1.3,6.4-2,9.8C441.4,790.1,498.7,790.6,556,782.4z M432.2,841.5c-1-0.1-1.4-0.2-1.9-0.2c-5-0.7-10-1.2-14.9-2.3
		c-14.7-3.5-29.3-7.2-43.9-10.9c-6.3-1.6-12.7-3-18.8-5.4c-16-6.5-31.6-13.9-46.3-23.1c-23.3-14.6-43.2-32.8-58.5-55.9
		c-0.2-0.3-0.4-0.7-0.7-1c-1.5-1.8-3.2-2.3-5.3-1.4c-1,0.4-1.8,0.9-2.7,1.5c-29,16.6-52.4,39.1-70.6,67.1
		c-7.3,11.2-12.9,23.1-16.1,36.2c-1.5,6.3-2.2,12.6-1,19c1.7,9.2,6.5,16.4,13.8,22c9.9,7.7,21,13,33,16.7
		c13.2,4.1,26.8,5.8,40.6,6.7c21,1.4,41.7-0.3,62.2-4.4c21.6-4.4,42.8-10.5,63.4-18.5c13.8-5.4,27.3-11.5,39.7-19.7
		c10.1-6.6,19.3-14.2,26.6-23.9C431.1,843.1,431.5,842.4,432.2,841.5z M507.9,841.5c0.7,0.9,1.1,1.5,1.5,2
		c7.3,9.4,16.2,17,26.1,23.5c15.4,10,32,17.6,49.4,23.6c13.6,4.7,27.5,8.2,41.5,11.5c7,1.6,13.9,3.7,21,5c12,2.2,24.2,3.2,36.5,3.5
		c12,0.3,24-0.5,35.8-2.3c10.1-1.5,20.1-3.7,29.8-7.2c10-3.6,19.3-8.5,27.3-15.6c8.5-7.5,13-16.8,12.7-28.3
		c-0.2-8.5-2.2-16.6-5.6-24.4c-7.5-17.5-17.6-33.5-30.2-47.8c-15.4-17.5-33.6-31.6-53.7-43.3c-0.5-0.3-1-0.6-1.5-0.8
		c-1.9-0.8-3.6-0.4-5,1.2c-0.5,0.5-0.9,1.1-1.3,1.7c-8.5,12.9-18.6,24.4-30.2,34.6c-24.3,21.4-52.3,36.3-82.6,47
		c-19.6,6.9-39.7,11.4-60.3,14.4C515.5,840.4,511.9,840.9,507.9,841.5z M425.9,329.1c-1.9,0.6-3.6,1.1-5.3,1.7
		c-8.7,3.4-17.4,6.9-26,10.4c-6.1,2.5-12.2,2.6-18.5,0.5c-7.3-2.4-14.7-4.5-22-6.6c-3.5-1-7.2-1.6-10.9-1.1
		c-2.8,0.4-5.7,0.8-8.5,1.3c-0.5,0.1-1,0.2-1.3,0.5c-3.4,3.1-6.8,6-8.6,10.4c-3.2,7.8-3.4,15.6-0.5,23.4c6.8,18.6,20,29.9,39.6,33.3
		c8.5,1.5,15.4,5.1,20.8,11.7c0.4,0.5,0.8,1,1.3,1.5c5.5,6.2,10.8,12.4,16.4,18.5c6.5,7.1,13.4,13.8,21.4,19.1
		c18.7,12.5,39.2,17.1,61.5,13.1c15.6-2.9,29.2-10,41.1-20.5c8-7.1,15.3-15,22.3-23.1c3.2-3.6,6.3-7.3,9.6-10.7
		c5.1-5.2,11.2-8.2,18.4-9.5c14.1-2.4,25.5-9.2,33.5-21.1c5.8-8.6,9-18,7.5-28.6c-0.9-6.2-3.4-11.6-8.2-15.9c-1.5-1.3-3-2.3-5.1-2.4
		c-1.2,0-2.4-0.3-3.6-0.5c-4.5-0.8-8.9-0.8-13.3,0.2c-6.3,1.4-12.3,3.3-18.3,5.6c-5.8,2.2-11.7,3.2-17.9,2.2
		c-4.2-0.7-8.1-2.2-12-3.9c-8.1-3.5-16.3-6.8-24.7-10.2c-0.7,2.1-1.4,3.8-2,5.5c-0.2,0.1-0.4,0.1-0.6,0.2c-0.3-0.5-0.6-1-0.9-1.4
		c-3.7-4.3-7.5-8.5-11.1-12.9c-4.1-4.8-9.2-8.1-15.2-10.1c-7-2.3-14.2-2.9-21.5-1.8c-10.7,1.7-19.6,6.6-26.2,15.3
		c-2.5,3.3-5.4,6.3-8.1,9.4c-0.3,0.4-0.8,0.6-1.3,1C426.9,332.2,426.4,330.8,425.9,329.1z M378,772.6c0.3-0.9,0.5-1.4,0.6-2
		c2.7-11.8,5.5-23.6,8.2-35.5c9.7-43.4,22.3-86,37.9-127.6c11.7-31,24.5-61.5,41.1-90.2c0.2-0.4,0.3-0.8,0.5-1.3
		c-0.4-0.1-0.6-0.2-0.8-0.2c-13.2,0.4-26.4,0.6-39.5,1.3c-11.6,0.7-23.1,1.9-34.6,3.1c-12.8,1.3-25.5,3.4-38.1,6
		c-10.7,2.3-21.3,5-31.9,7.6c-2.2,0.5-4.4,0.9-6.5-0.2c-0.5-0.2-1-0.3-1.7-0.4c-0.2,2.5-0.4,4.9-0.6,7.3c-0.8,7.3-1.3,14.7-2.4,21.9
		c-1.2,7.4-2.9,14.7-4.4,22.1c-0.2,0.8-0.3,1.6-0.1,2.3c0.9,4.5,1.8,9.1,2.9,13.6c6.1,23.3,13.6,46.1,22,68.7
		c13.1,35.1,29.2,68.8,46.6,102C377.2,771.4,377.5,771.9,378,772.6z M627.4,534.4c-3.5,1-6.4-0.3-9.4-1c-3.4-0.8-6.8-1.8-10.2-2.6
		c-16.1-3.9-32.3-7.2-48.7-9.2c-12.9-1.6-25.9-3.2-38.9-4.1c-14.3-1-28.8-1.1-43.1-1.6c-0.8,0-1.5,0-2.6,0c0.4,0.9,0.6,1.6,0.9,2.2
		c1.9,4,3.9,7.9,5.8,11.8c7.8,15.9,15.8,31.8,22.7,48.1c26.3,62.1,45.2,126.5,57.6,192.7c0.1,0.6,0.3,1.3,0.6,2.3
		c3-5.3,5.2-10.4,8.4-14.9c1.6-2.3,2.7-5.1,4-7.7C592,715.4,607,679.3,619.2,642c5.9-18.2,11.8-36.5,15.4-55.4
		c0.2-1.1,0.3-2.2,0.1-3.3c-0.6-3.5-1.4-7.1-2-10.6c-1.8-10.1-4.1-20.2-4.8-30.5C627.7,539.7,627.6,537.3,627.4,534.4z M313.9,521.7
		c1.2-0.3,2.2-0.5,3.1-0.8c9.2-2.5,18.3-5.2,27.5-7.4c20.5-4.9,41.4-8.2,62.4-10.5c16.7-1.8,33.5-2.9,50.2-3.3c19-0.4,38,0.2,57,1.6
		c16.7,1.3,33.3,3.1,49.8,5.8c20.1,3.3,40,7.7,59.4,13.9c0.7,0.2,1.5,0.4,2.4,0.6c0-0.8,0.1-1.4,0.1-2c-0.2-4.5-0.3-9-0.7-13.4
		c-0.5-5.4-1-10.9-2.3-16.1c-2.7-11.7-5.9-23.2-9-34.8c-1.7-6.4-3.4-12.8-6-18.9c-4.8-11-10.8-21-19.2-29.6c-1-1-1.8-1.2-3.1-0.8
		c-6.2,1.7-12.3,3.3-18.5,4.9c-1.3,0.3-2.3,1-3.2,2c-5.2,5.9-10.5,11.7-15.7,17.5c-6.9,7.8-13.8,15.5-21.9,22.1
		C511,464.9,493.6,472,473.8,473c-15.3,0.8-29.7-2.7-43.3-9.5c-11.1-5.6-20.6-13.4-29-22.6c-7.5-8.3-15-16.6-22.3-25.1
		c-3.1-3.6-7-5.7-11.5-6.9c-3.8-1-7.6-1.7-11.5-2.6c-3.8-0.8-3.8-0.8-6.5,2c-6.9,7.5-12,16.1-16.1,25.4
		c-9.7,22.1-15.7,45.2-18.4,69.2c-0.6,5-0.7,10-1,15C314.2,519.1,314.1,520.2,313.9,521.7z M317.5,362.3c-2.6,2.1-4.7,3.8-6.2,6.2
		c-4.7,7.6-9.6,15.1-14.2,22.8c-2.1,3.5-4.1,7.2-5.7,11c-7.4,17.1-12,35-15.4,53.3c-3.3,17.6-5.2,35.4-7.6,53.1
		c-1.9,13.9-3.6,27.7-5.9,41.5c-3,18.3-9.9,34.9-20.8,50c-9.4,13-18.6,26.2-27.7,39.4c-6.8,10-13.7,19.9-19.4,30.6
		c-4.4,8.4-8.4,17-12.7,25.5c-4,8-7.1,16.2-9.7,24.7c-6.2,20.6-7.8,41.4-3.2,62.5c0.8,3.4,2.1,6.6,3.8,9.9c0.6-0.7,1.1-1.2,1.6-1.7
		c11.3-14,24.1-26.5,38-37.8c1.3-1,1.9-2.1,2.2-3.7c1.4-7.7,2.8-15.4,4.3-23.1c2.9-14.4,8.4-27.8,17.4-39.6
		c5.8-7.7,12.1-15.1,18.7-22.2c13.3-14.4,24.2-30.6,32.8-48.2c9-18.6,14.9-38.1,17.4-58.6c1.4-11.8,1.9-23.7,3-35.6
		c0.8-9.1,1.6-18.2,2.8-27.2c3-22.1,8.9-43.5,17.3-64.2c0.5-1.3,1.2-2.6,2-3.8c4.8-7.5,9.7-15,14.6-22.5c0.5-0.7,0.9-1.5,1.5-2.4
		C330.6,393.5,320.6,380.7,317.5,362.3z M594.6,402.1c4.2,6.7,8.1,13.1,12.2,19.5c2.8,4.3,5,8.8,6.9,13.7
		c4.9,12.9,9.3,25.9,12.2,39.3c4.3,20.4,6.2,41.1,7.6,61.8c0.7,10.6,1.5,21.2,3.4,31.7c3.2,18.1,8.8,35.5,17.2,51.9
		c5.8,11.4,13.2,21.7,21,31.7c9.1,11.5,18.3,22.9,27.4,34.3c0.6,0.7,1.3,1.5,1.7,2.3c3.6,6.5,7.4,12.9,10.7,19.6
		c6.1,12.7,9.9,26.1,10.9,40.3c0.2,2.7,1.1,4.4,3.3,6.1c13.8,10.9,26,23.4,37.3,36.9c0.6,0.7,1.2,1.4,1.8,2.1
		c0.3-0.3,0.5-0.4,0.5-0.5c0.9-2.8,1.9-5.6,2.6-8.5c4-16.3,3.9-32.6,0.7-49c-2-10.2-5.1-20.1-9.3-29.7c-2.9-6.7-5.3-13.7-8.6-20.3
		c-4.6-9.1-9.5-17.9-14.7-26.6c-10.7-17.9-23.2-34.7-35.5-51.6c-4.5-6.2-8.8-12.6-12.8-19.1c-4.4-7.1-7.9-14.7-9.7-22.9
		c-2.2-10-4.3-20-6-30.1c-2.1-12.6-3.6-25.3-5.5-38c-2.2-14.6-4.3-29.2-6.6-43.8c-2.2-14-5.6-27.7-10.5-41c-2.4-6.5-4.9-13-8.5-19
		c-5-8.3-10.4-16.5-15.5-24.8c-1.4-2.3-3.5-3.4-6.2-4.3C619.4,381.3,609.3,393.3,594.6,402.1z M62.4,412.9c-0.1,0.6-0.1,1-0.1,1.3
		c0.5,9.5,1,19,1.7,28.5c0.6,8.1,3.4,15.4,8,22.1c6.7,9.9,15.6,17.5,26,23.3c11.6,6.4,24,10.7,37,13.5c13,2.8,26.1,3.8,39.3,4
		c11.7,0.2,23.1-0.9,34.4-3.9c19-5.1,35.8-14.5,50.9-26.9c1.9-1.6,3.6-3.4,5.2-5.3c2.9-3.5,4.7-7.6,5.2-12.2
		c0.3-2.7,0.5-5.4,1.2-8.1c2.5-10,5.1-20,7.7-29.9c1-3.6,1.7-7.4,3.2-10.8c2.2-4.8,3.3-9.6,3.2-14.8c0-1,0-1.9,0-2.9
		c0.2-13.4-1.9-26.3-7.8-38.4c-0.3-0.5-0.6-1-1.1-1.9c-2.8,4.7-5.5,9-8,13.5c-0.8,1.4-1,3-0.7,4.6c1.2,7.6-0.6,14.6-5.1,20.9
		c-3,4.2-6.7,7.7-10.9,10.7c-11.1,8.1-23.6,11.4-37.2,11.2c-3.4,0-6.4,0.6-9.5,2.1c-10.3,5.2-21.3,8.2-32.9,8.8
		c-12.3,0.6-24.2-1.6-35.7-6c-8.4-3.2-16.3-7.5-23.7-12.5c-6.2-4.2-12.6-4.9-19.6-2c-5.5,2.3-11.1,4.1-16.6,6.1
		C71.8,409.6,67.1,411.2,62.4,412.9z M92.1,341.9c1.2-0.3,2.1-0.6,3-0.9c5.5-1.8,11.1-3.7,16.6-5.3c7-2.1,12.9-0.2,17.5,5.6
		c1.2,1.5,2.3,3.1,3.2,4.7c3,5.1,5.9,10.3,9,15.3c3.3,5.4,6.5,10.9,10.3,15.9c9.4,12.5,22.1,18.2,37.7,17.6c6.7-0.3,13.3-1.4,19.9-3
		c16.1-4,30.6-11.5,44-21.1c7.1-5.1,12.4-11.5,16-19.4c1.4-3.1,2.4-6.4,3.7-9.6c3.7-9.6,4.2-19.4,2-29.4
		c-3.8-16.9-12.6-30.4-27.5-39.7c-12.5-7.8-26.3-11.8-41-12.8c-13.2-0.9-25.9,1.4-38.3,6c-11.2,4.1-21.6,10-31.5,16.6
		C114.7,296.6,100.5,316.8,92.1,341.9z M516.6,214.6c0.9,2,1.3,3.8,1.3,5.7c0,3.6,1.8,5.6,5.1,7c6,2.5,11.9,5,17.6,8.1
		c19,10.3,34.2,24.8,46.5,42.5c1,1.4,1.9,3,2.6,4.6c4.9,10.7,9.7,21.4,14.5,32.1c0.4,0.8,0.8,1.6,1.3,2.5c4.4-3.7,7.2-8.1,8.4-13.5
		c1.7-7.9,0.6-15.6-2.3-23c-3.6-9-8.4-17.4-15.3-24.4c-4.5-4.6-9.1-8.9-13.7-13.4c-12.3-12.2-24.6-24.4-37-36.6
		c-2.9-2.9-5.9-5.6-9.1-8.1c-5.3-4.1-10.9-7.9-16.3-11.8c-0.3-0.2-0.7-0.3-1.1-0.5c-1.2,1.9-2.3,3.8-3.3,5.5c-2-0.2-3-1.3-3.6-3
		c-0.9-2.7-2-5.4-3-8.1c-3.1-8.5-6.9-16.7-12.6-23.9c-3.7-4.7-8-8.8-13.3-11.6c-5.4-2.9-11-4.1-17.1-3.1c-4.5,0.7-8.5,2.6-12.3,5.1
		c-4.4,3-8,6.8-11.3,11c-6.6,8.4-10.9,18-14,28.2c-0.7,2.1-1.8,4-2.9,6c-0.5,1-1.4,1.7-2.8,1.5c-0.6-2.1-1.2-4.1-1.9-6.5
		c-2.5,1.3-4.9,2.3-6.9,3.7c-9.4,6.5-18.1,13.7-25.6,22.4c-0.9,1.1-2,2.1-3,3.1c-12.2,12.9-24.6,25.6-38.4,36.9
		c-6.7,5.5-11.5,12.6-15.1,20.5c-0.6,1.4-1.3,2.8-1.9,4.1c-4,8.3-5.2,16.9-3.7,25.9c0.8,5.1,3.2,9.5,7.6,12.7
		c0.4-0.8,0.7-1.5,1.1-2.2c4.7-10.5,9.5-21,14.2-31.5c0.4-0.9,0.9-1.9,1.5-2.7c16.4-24.1,37.9-42.1,65.1-52.7
		c2.4-0.9,3.9-2.4,4.5-4.8c0.7-2.5,1.4-4.9,2.1-7.7c1.3,1.7,2.1,3.4,2.8,5.2c1.2,3,2.3,6.1,3.7,9.1c4.3,9,10.4,16.5,18.8,21.9
		c6.2,4,12.9,6.3,20.3,6.4c8.1,0.1,15.4-2.2,22.2-6.6c10.6-6.8,18-16.2,22.3-28C513.6,219.9,514.7,217.3,516.6,214.6z M653.5,397.3
		c0.4,1.1,0.6,1.9,0.9,2.7c10,25.2,15.6,51.5,19.3,78.2c1.4,10.2,2.6,20.5,4.1,30.7c2,13.9,4,27.8,6.1,41.7
		c2.3,15.1,7.3,28.9,16.3,41.5c14.6,20.2,28.6,40.9,42.9,61.3c0.6,0.8,1.2,1.6,1.8,2.4c0.3-0.7,0.3-1.3,0.2-1.8
		c-1.4-7.5-2.9-14.9-4.1-22.4c-3.3-20.1-8.2-39.9-14.1-59.4c-8.6-28.7-20.4-56-35.5-81.8c-1.2-2-2.2-4.1-3.1-6.2
		c-0.3-0.6-0.5-1.4-0.4-2.1c0.1-1.5,0.8-2,2.2-1.6c1.8,0.5,3,1.8,3.9,3.3c2.9,5,6,9.8,8.6,15c6.5,13.1,12.6,26.4,18.9,39.6
		c0.5,1.1,0.9,2.2,1.3,3.3c6.1,18.8,12.2,37.5,18.3,56.3c0.2,0.6,0.4,1.1,0.8,1.9c1.8-1.7,3.3-3.1,4.9-4.6c3.9-3.8,8-7.4,11.6-11.4
		c13.6-15.3,18.7-33,14.3-53.1c-1.9-8.8-5.5-16.9-10.3-24.4c-7.9-12.5-15.9-24.9-25-36.6c-12.1-15.6-25.3-30.2-41.1-42.1
		c-13.7-10.3-27.9-20.1-41.8-30.2C654.2,397.5,654.1,397.5,653.5,397.3z M80.1,483.4c0.1,0.8,0,1.1,0.1,1.4
		c1.1,5.4,2.1,10.8,3.3,16.2c2.8,12.6,7.6,24.4,15.6,34.7c13.5,17.4,31.3,27.1,53.4,28.8c6.2,0.5,12.3,0.1,18.4-0.2
		c6.6-0.4,13.1-1.6,19.5-3.5c8.3-2.5,15.7-6.8,22.6-11.8c5.3-3.8,10.5-7.8,15.8-11.7c2.1-1.5,4.3-2.7,6.5-4c0.3-0.2,0.8-0.2,1.2-0.3
		c0.1,0.3,0.2,0.4,0.2,0.4c-0.2,0.4-0.4,0.9-0.6,1.3c-2.5,4.2-5.6,8-9.3,11.3c-3.3,2.9-5.4,6.4-6.8,10.5
		c-5.5,17-10.2,34.1-14.2,51.5c-2.8,11.8-4.6,23.8-6.8,35.8c-0.5,2.7-0.9,5.4-1.3,8.1c0.8-0.5,1.3-1.1,1.8-1.8
		c13.4-18.7,26-38,40.1-56.2c6.4-8.2,11.1-17.4,13.5-27.6c1.4-6,2.5-12,3.5-18.1c3.7-22.9,7.7-45.7,10-68.8c0.1-1,0.1-2,0.2-3.5
		c-1.3,1.1-2.1,1.8-3,2.5c-5,4.5-10.2,8.7-15.9,12.3c-21.1,13.2-43.8,20.6-68.8,20.7c-5.4,0-10.7,0.4-16.1,0
		c-7.6-0.7-15.2-1.8-22.8-3c-21.1-3.4-40.6-10.7-57.9-23.4C81.8,484.4,81.1,484,80.1,483.4z M566,781.1c1.8-0.3,3.2-0.5,4.7-0.8
		c18.3-2.9,36.3-6.8,54-12.1c16.1-4.8,31.8-10.5,46.4-19.1c1.2-0.7,2-1.4,2.1-2.9c0.4-4.8,1.1-9.5,1.4-14.3c1-13.8,0.6-27.7,0-41.5
		c-0.2-3.4-0.2-6.8-0.5-10.2c-0.4-4.2-0.9-8.4-1.4-12.6c-0.1-1.2-0.5-2.3-1.3-3.2c-13.5-16.6-24.8-34.5-33.2-54.2
		c-0.3-0.7-0.7-1.4-1.2-2.5c-0.7,2.2-1.2,4-1.7,5.7c-13.6,47.5-31.3,93.3-53.3,137.5c-3.3,6.7-6.7,13.4-10.7,19.7
		c-1.7,2.7-3,5.6-4.5,8.5C566.6,779.6,566.4,780.2,566,781.1z M303.2,608.3c-0.4,0.4-0.5,0.5-0.6,0.7c-0.8,1.7-1.5,3.3-2.3,5
		c-7.9,17.7-17.9,34.1-30.7,48.7c-1.9,2.2-2.9,4.7-3,7.6c0,1.3-0.1,2.6-0.2,3.8c-0.3,5.1-0.9,10.2-0.9,15.3
		c0.3,14.5,0.8,29.1,1.3,43.6c0.1,4.7,0.3,9.4,0.5,14.1c0,1.1,0.2,1.9,1.4,2.5c8.4,3.8,16.5,8.1,25.1,11.4
		c23.9,9.2,48.8,15.1,74.1,19.2c2,0.3,4.1,0.6,6.4,1c-0.4-0.9-0.7-1.6-1-2.2c-5-9.9-10.1-19.8-15.2-29.7
		c-21.5-42.3-38.9-86.2-52.2-131.7C305,614.6,304.2,611.6,303.2,608.3z M755.7,484.7c-0.1,0.1-0.2,0.2-0.3,0.3
		c0.5,0.8,1,1.6,1.5,2.4c5.1,8.6,10.4,17.2,15.4,26c4.4,7.7,6.8,16,7.4,24.8c0.9,12.6-1.6,24.7-7.4,35.9
		c-5.9,11.6-14.8,20.6-25.4,27.9c-4.8,3.3-4.9,4-3.8,9.5c2.2,10.5,4.3,21,6.2,31.5c1.2,6.6,1.9,13.3,2.7,19.9c0.5,4,1.1,7.9,3,11.5
		c2.4,4.7,3.6,5.3,8.4,3.2c6.7-3,13.2-6.5,19.3-10.6c10.1-6.8,19-14.9,25.6-25.3c3.5-5.6,7-11.3,10.5-16.9c0.4-0.6,0.7-1.3,1-1.9
		c3.5-8.7,5.8-17.8,6.6-27.1c1.4-16.5-2-31.9-10.4-46.3c-5.3-9.1-11.2-17.9-17.8-26.1c-11.6-14.4-24.4-27.7-40.3-37.6
		C757,485.5,756.4,485.1,755.7,484.7z M332,140.8c0-0.1,0-0.1,0-0.2c1.6-0.1,3.2-0.3,4.8-0.4c13.3-0.8,26.4-2.7,39.4-5.6
		c26.8-5.8,52.2-15.3,76.6-27.6c13.2-6.7,25.5-14.6,36.6-24.4c8.4-7.4,15.8-15.7,21-25.7c1.3-2.5,2.4-5.1,3.2-7.7
		c2.9-9.8-0.2-19-8.6-24.9c-2.6-1.8-5.5-3.3-8.4-4.5c-11-4.7-22.7-6.5-34.6-7.1c-13.1-0.7-26,0.3-38.9,2.5
		c-17.6,3-34.8,7.4-51.7,13.3c-24.9,8.6-48.1,20.3-69.1,36.4c-7.6,5.8-14.8,12-20.7,19.5c-4,5.1-7.4,10.6-9.3,16.9
		c-3.1,10-0.4,19.3,7.6,25.9c5.8,4.7,12.4,8,19.7,9.3c7.5,1.3,15,2.3,22.5,3.3C325.5,140.1,328.8,140.4,332,140.8z M321.7,340
		c4-3.6,7.9-7,11.6-10.5c2-1.9,1.9-4.1-0.1-6.1c-0.7-0.7-1.5-1.3-2.2-1.9c-4.9-4.4-8.3-9.7-9.8-16.2c-1.6-6.7-1.5-13.3,0.1-20
		c2.4-10,7.2-18.9,13.3-27.2c1.1-1.5,2.1-3.2,2.9-4.9c5.3-12.2,10.6-24.5,15.9-36.7c0.6-1.3,0.7-2.5,0.5-3.9
		c-1.1-7.9-2.2-15.8-3.2-23.8c-0.7-5.1-1.2-10.2-1.9-15.2c-0.6-4.5-2.9-6.4-7.5-6.3c-3.9,0.1-7.8,0.2-11.8,0.2
		c-15.7,0-31.1-2.1-45.7-8.1c-0.5-0.2-1-0.2-1.6-0.4c-0.4,5.3-0.7,10.4-1,15.5c-0.6,10,1,19.9,2.2,29.9c1.1,9.4,2.3,18.9,3.6,28.3
		c0.8,6.4,1.4,12.9,2.8,19.2c1.5,7.3,3.8,14.3,5.7,21.5c0.5,1.9,1.5,3.2,3,4.4c2.3,1.8,4.7,3.7,6.6,5.9c3.9,4.7,6.6,10.2,8.4,16.1
		c2.1,7.2,2.5,14.4,1.1,21.8c-0.2,1.1-0.6,2.5-0.2,3.5C316.6,330,319.1,334.8,321.7,340z M624.3,357.3c0.3-0.2,0.4-0.2,0.4-0.3
		c0.4-2.5,0.8-5,1.3-7.6c3.1-18.1,4.7-36.3,4.4-54.6c-0.2-11.9-1-23.8-2.8-35.6c-2.7-18.4-7.3-36.5-11.7-54.6
		c-3.2-13.3-7.8-26.2-12.6-39c-15-39.7-35.5-76.1-64.3-107.6c-0.6-0.6-1.1-1.2-1.9-2.1c-1.7,5.8-2.3,11.5-5.1,16.5
		c-2.8,4.9-5.3,10-8,15.2c1,1.2,1.9,2.3,2.9,3.5c5.6,6.9,11.6,13.5,16.8,20.6c14.7,20,26.8,41.5,36.7,64.2
		c11.3,25.9,20,52.5,25.4,80.2c0.2,1.1,0.7,2.3,1.3,3.3c2.2,3.9,4.6,7.7,6.7,11.6c4.3,8.1,6.6,16.8,6.5,26
		c-0.1,10.3-3.9,18.8-11.9,25.4c-0.7,0.6-1.5,1.2-2.1,2c-1.7,2.1-1.6,3.6,0.6,5.2c0.5,0.4,1.1,0.7,1.6,1c6.1,3.4,10.1,8.5,12.2,15.1
		c1,3.1,1.9,6.3,2.9,9.4C623.7,355.8,624,356.5,624.3,357.3z M260,753.3c-0.1,0.2-0.3,0.3-0.4,0.5c0.5,0.4,1,0.8,1.5,1.2
		c4.5,3.9,9,7.9,13.5,11.9c6.4,5.6,13.5,10,21.2,13.4c8.7,3.8,17.8,6.8,26.8,9.6c29.8,9.2,60.3,14.2,91.2,17.2
		c14.8,1.4,29.7,2.3,44.5,2.7c18.7,0.5,37.4-0.1,56.1-1.6c17.4-1.4,34.7-3.4,51.9-6.3c23.1-3.9,45.8-9.7,67.9-17.4
		c13.2-4.6,25.2-11.2,35.5-20.9c3.7-3.5,7.6-6.8,11.5-10.2c0.6-0.5,1.1-1,1.7-1.5c-1.9,0.5-3.6,1.3-5.3,2.2
		c-13.1,7-26.5,13.1-40.6,17.7c-28.3,9.4-57.5,15.1-87,18.6c-12.1,1.4-24.2,2.6-36.3,3.5c-12.5,0.9-25.1,1.3-37.6,1.6
		c-13.8,0.3-27.5-0.3-41.2-1.1c-16.1-1-32.2-2.3-48.2-4.3c-17.5-2.2-34.8-5.1-51.9-9.2c-15.4-3.7-30.6-7.9-45.3-13.9
		c-9.2-3.8-18.2-8.3-27.2-12.5C261.4,754,260.7,753.7,260,753.3z M633.8,793c-0.1-0.1-0.1-0.2-0.2-0.3c-6.8,1.7-13.6,3.4-20.4,5.1
		c-29.4,7.4-59.2,12.6-89.4,15.4c-12.6,1.1-25.2,1.9-37.8,2.3c-22,0.8-44-0.1-65.9-2c-14.7-1.3-29.2-3.2-43.8-5.6
		c-18.9-3.1-37.6-7.2-56.2-12.1c-4.7-1.2-9.4-2.4-14.1-3.6c0.5,0.7,1.1,1.1,1.8,1.5c4.9,2.8,9.9,5.5,14.9,8.3
		c14.9,8.5,30.6,15.2,47,20.4c34.4,10.9,69.6,15.6,105.6,15.1c19-0.3,37.8-2.1,56.5-5.4c21.1-3.8,41.5-9.7,61.2-18.1
		c13.9-5.9,27-13.5,40.3-20.6C633.5,793.4,633.7,793.2,633.8,793z M144.9,378.6c-0.5-0.7-0.7-1.2-1-1.5c-4.9-7.1-9.4-14.5-13.6-22
		c-1.9-3.5-4.1-6.9-6.1-10.3c-2.2-3.6-5.3-4.9-9.4-4.1c-1,0.2-2,0.5-3,0.8c-6.4,2.2-12.9,4.4-19.3,6.5c-20,6.7-40,13.4-60,20.1
		c-2.5,0.8-4.9,1.9-7.6,2.9c0.8,0.9,1.3,1.6,1.8,2.3c1.7,2.4,3.7,4.7,5.1,7.2c4.6,8.1,7.9,16.6,7.3,26.2c-0.2,2.3,0,4.6,0,7.3
		C74.6,402.2,109.7,390.4,144.9,378.6z M520.7,325.3c0.3,0.2,0.5,0.4,0.7,0.5c8.8,3.8,17.6,7.6,26.4,11.4c0.9,0.4,1.7,0.4,2.4-0.3
		c0.6-0.7,1.3-1.4,1.7-2.3c0.8-1.7,1.5-3.5,2.1-5.3c5.2-14.9,6.5-30,2.1-45.2c-4.5-15.3-13-27.7-27.1-35.7c-1.2-0.7-2.4-1.4-3.5-2.1
		c-0.9-0.7-1.8-0.8-2.9-0.4c-3.8,1.4-7.7,2.7-11.5,4.2c-6,2.4-11.2,6.1-15.4,11.1c-0.8,0.9-1.6,1.8-2.4,2.7c-1.8,2-3.6,1.8-5-0.5
		c-0.7-1.1-1.3-2.3-2.1-3.7c-11.7,4.5-23.3,4.7-35,0c-1.1,1.5-2.1,3-3.2,4.3c-0.8,1.1-1.1,2.1-0.7,3.5c1,3.9,2,7.8,2.6,11.7
		c0.9,6,1.4,12.1,2,18.1c0.2,2.2,0.5,4.4,0.8,6.5c4,0.4,30.8,0.3,32.6-0.2c0-1.7-0.1-3.5,0-5.2c0.2-4.8,0.2-9.6,0.6-14.3
		c0.7-7.2,4.7-12.8,9.7-17.7c0.2-0.2,0.4-0.3,0.6-0.4c3.5-1.2,6.9-2.5,10.7-2.1c4.3,0.5,7.6,2.7,10.5,5.8c3.2,3.3,5.6,7.2,7.3,11.4
		c2.2,5.5,3.3,11.3,3.5,17.3c0.4,8.8-1.5,17-6.2,24.5C521.8,323.5,521.3,324.4,520.7,325.3z M811.7,706.6c0.5-0.2,0.8-0.3,1.1-0.5
		c12.9-8.4,22.4-19.6,27.8-34.2c2.5-6.6,3.7-13.5,4.7-20.5c2.2-16,0.5-31.4-5.8-46.3c-1.8-4.3-4-8.5-6.1-13.1
		c-0.3,0.8-0.6,1.1-0.6,1.5c-1,4.4-2.1,8.7-3,13.1c-1.4,6.4-2.6,12.8-5.1,18.9c-6.6,16.2-16.9,29.7-30.8,40.3
		c-8.7,6.7-17.8,13.1-27.7,18c-1,0.5-1.9,1.1-2.9,1.6c4,10.5,8.8,20.6,10.7,31.9c2.4,0.1,4.8,0.5,7.2,0.4c3.1-0.2,6.2-0.7,9.2-1.4
		c3.2-0.7,6.4-1.4,9.4-2.7c5.5-2.4,6.9-8.2,3.3-12.9c-1.2-1.6-3-2.9-4.6-4.1c-1.1-0.9-2.5-1.4-3.7-2.2c-0.9-0.5-1.7-1.1-1.8-2.3
		c1.5-1.1,3.2-0.9,4.7-0.6c5.7,1.3,10,4.4,12.3,10C810.4,703.2,811,704.9,811.7,706.6z M521.4,89.9c-11.2,9.4-22.1,18.6-33.2,28
		c1,0.4,1.7,0.8,2.5,1.1c2.6,1.2,5.3,2.2,7.9,3.5c11.6,5.9,20.2,14.7,25.3,26.8c1.5,3.6,2.8,7.2,2.2,11.1c0,0.2,0.1,0.5,0.1,0.8
		c1.6,0.9,3.3,1.9,5,2.8c23.2,13.4,42.1,31.3,55.5,54.7c3.6,6.3,7.4,12.5,11.1,18.8c0.4,0.6,0.8,1.2,1.1,1.8
		c-0.6-3.1-1.5-5.9-2.5-8.8c-5-15.5-10.1-31-16.3-46.1c-13.1-31.7-30-61.2-52.1-87.6C526,94.3,523.7,92.2,521.4,89.9z M436,118.4
		c-2.7,1.1-5.2,2.2-7.7,3.2c-2.5,1-5.1,2-7.6,2.9c-26.9,10-54.4,17.1-83.2,18.2c-11.1,0.4-22.2,0.2-33.2-1.7
		c-10.8-1.8-20.7-5.8-29.2-13c-1.4-1.2-2.8-2.3-4.3-3.5c-0.4-0.3-0.9-0.6-1.6-1.1c-0.3,3-0.8,5.6-0.9,8.3
		c-0.3,5.6,1.8,10.3,5.8,14.2c1.1,1.1,2.4,2.1,3.7,3.1c5.7,4.2,12,7,18.7,8.8c9.7,2.5,19.7,3.4,29.7,3.7c17.1,0.5,34-1.5,50.7-4.9
		c12.7-2.5,25.1-6.2,37.6-9.6c1.6-0.4,2.6-1.2,3.5-2.6c5.1-8.2,11.5-15.1,19.8-20.1c0.3-0.2,0.6-0.5,1-0.8c-0.6-1.3-1.2-2.5-1.8-3.7
		C436.6,119.5,436.4,119.1,436,118.4z M387.4,338.6c5.2-1.6,28.9-11.4,30.1-12.6c-0.1-0.1-0.1-0.3-0.2-0.4c-0.2-0.3-0.4-0.7-0.6-1
		c-7.6-11.4-9.3-23.8-6.3-36.9c1.6-7.2,4.9-13.7,10.2-19c2.3-2.2,4.9-3.9,8-4.6c3-0.7,6-0.4,9,0.6c1.9,0.6,3.9,1.2,6.4,1.9
		c-1.8-3.6-3-6.8-5.7-9.2c-2.9-2.5-6-4.8-9.5-6.3c-4.2-1.8-8.5-3.3-12.7-5c-1.4-0.6-2.5-0.5-3.8,0.2c-23.4,11.9-36.1,37.5-32.9,63
		C380.6,319.3,384.5,328.8,387.4,338.6z M599,327.1c-0.5-3.2-0.8-6.2-1.4-9.1c-2.7-12.9-7.7-24.8-14.9-35.9
		c-10.2-15.7-23.7-28.2-39.2-38.5c-0.9-0.6-1.9-1.1-3-1.6c-3.9-1.6-7.6-0.7-11.3,0.9c1.5,2.2,3,4.1,5.1,5.6
		c6.5,4.7,11.9,10.4,16.2,17.1c10.4,16.7,12.8,34.7,8.7,53.7c-1.3,5.8-3.3,11.5-5,17.2c-0.2,0.6-0.3,1.2-0.5,2.1
		C568.9,334.8,583.8,331,599,327.1z M383.5,338c-1.3-4.6-2.5-8.7-3.6-12.9c-2.9-10.5-4.2-21.2-2.7-32c2.2-16,9.1-29.5,21.1-40.3
		c3.1-2.8,6.2-5.6,9.2-8.4c0.4-0.3,0.7-0.8,1.2-1.4c-2.5-0.4-4.7-0.8-6.8-1.2c-1.8-0.3-3.4,0.2-5,1.2c-9.6,5.9-18.5,12.7-26.3,20.8
		c-15,15.5-25.1,33.6-29.1,54.9c-0.5,2.6-0.9,5.3-1.4,8.1C354.5,330.6,368.8,334.2,383.5,338z M519.3,39.3c-0.5,3-0.8,5.4-1.3,7.8
		c-1.6,8-5.5,14.9-10.4,21.3c-5.6,7.2-12.3,13.5-19.4,19.2c-12.2,9.9-25.6,18-39.7,25c-0.8,0.4-1.5,0.8-2.3,1.2
		c0.8,1.9,1.5,3.6,2.1,5.1c0.4,0.1,0.5,0.2,0.6,0.2c0.4-0.1,0.8-0.2,1.2-0.3c6.5-2,13.2-3,20.1-3.1c3.2,0,6.4,0,9.6,0
		c1.2,0,2.1-0.3,3.1-0.9c6.6-4.3,12.9-8.8,18.9-13.9c8-6.7,15.2-14.2,20.9-23c3.3-5.1,5.7-10.5,6.8-16.5c1.1-6.1,0-11.8-4.3-16.5
		C523.6,43,521.6,41.4,519.3,39.3z M292.2,275.1c-0.9-3.4-1.8-6.6-2.6-9.8c-1.4-5.4-2.8-10.8-3.9-16.3c-1-4.7-1.4-9.5-2.2-14.2
		c-3-17.1-4.3-34.4-4.6-51.8c-0.1-8.1-0.4-16.1-0.5-24.2c0-1.4-0.5-2.4-1.6-3.2c-2.9-2.3-5.8-4.8-8.7-7.2c-0.4-0.3-0.9-0.6-1.5-1
		c-0.1,0.5-0.2,0.8-0.3,1.1c-2.1,8.7-2.2,17.6-2.1,26.5c0.1,9,0.5,18.1,1.2,27.1c0.7,8.8,1.6,17.5,3.2,26.2
		c2.1,11.7,4.9,23.3,7.5,34.9c0.9,4,1.9,7.9,3,11.8c0.8,2.8,2.1,3.6,4.8,2.9C286.7,277.1,289.3,276,292.2,275.1z M520.7,158.6
		c-1.3-4.8-2.5-9.1-4.9-12.9c-5.5-8.5-12.6-15.2-22-19.4c-9.8-4.4-20-5.7-30.7-4.5c-10,1.1-19.1,4.6-27,10.7
		c-1.5,1.1-2.9,2.3-4.1,3.7c-3.2,3.9-6.2,8-9.4,11.9c-2.4,2.9-2.3,6.3-2.7,10.1c6.1-2.2,11.9-4.3,17.6-6.5c2.6-1,4.9-2.7,6.9-4.7
		c3.6-3.4,7.7-6.3,12.2-8.4c3.9-1.9,8.1-3.1,12.4-3.2c5.9-0.1,11.4,1.5,16.3,4.7c2.7,1.8,5.4,3.7,7.9,5.8c3.7,3.2,7.7,5.5,12.3,7.1
		C510.6,154.6,515.4,156.6,520.7,158.6z M112.3,395.6c4.1,4.8,8.7,8.3,14,10.9c5.9,2.9,12.1,5,18.5,6.5c12.7,3,25.5,4.2,38.5,2.2
		c5.7-0.9,10.9-2.8,16.1-6c-5.9-3.4-11.3-7.3-17.9-8.9c-1.5-0.4-3-0.7-4.5-0.8c-8.1-0.8-15-4.1-20.9-9.7c-0.7-0.7-1.4-1.3-2.1-2
		c-3.3-2.9-7-3.6-11.2-2.5c-1.1,0.3-2.1,0.7-3.2,1.1c-4.1,1.5-8.3,3-12.4,4.4C122.4,392.3,117.4,393.9,112.3,395.6z M346.8,246.5
		c0.4-0.4,0.8-0.7,1.2-1.1c13.6-13.8,27.2-27.5,40.7-41.3c9.4-9.6,19.5-18.2,32.2-23.3c2.3-0.9,4-2.6,5-4.9
		c2.2-4.9,4.5-9.7,6.7-14.6c0.1-0.2,0.1-0.5,0.2-1.1c-4.5,1-8.7,2-12.6,3.7c-5.8,2.5-11.3,5.6-16.5,9.2
		c-12.6,8.7-23.8,19.1-33.9,30.6c-5.4,6.2-10.3,12.8-14.5,20C351.2,230.7,348.9,238.5,346.8,246.5z M357.7,209.9
		c15.1-20.7,33.4-36.9,55.3-48.6c0-2.8,0-5.1,0-7.5c-20.7,4.4-41.2,8.8-62,13.2C353.3,181.1,353.6,195.5,357.7,209.9z M594.3,245.9
		c-17.2-41.1-45.5-71-88.1-87c1.1,2.6,2,4.7,3,6.9c1.4,3,2.7,6,4.2,8.9c1.4,2.7,3.4,4.8,6.3,6c10.7,4.4,19.8,11,27.8,19.3
		c6.8,7.1,13.6,14.2,20.1,21.6c7.9,8.9,17.2,16.2,26.1,24C593.8,245.7,594.1,245.8,594.3,245.9z M282,332.6
		c7.8-2.6,15.1-4.9,22.3-7.4c3.4-1.2,5.2-3.9,5.2-7.6c0-3.1-0.1-6.2-0.4-9.3c-0.9-8.8-4.1-16.5-10.2-23c-1-1.1-2.3-2-3.6-2.8
		c-1.4-0.9-2.9-1.1-4.6-0.6c-6,1.9-12,3.8-18,5.6c-0.2,0.1-0.4,0.3-0.7,0.5c2.9,7,6.5,13.8,8.1,21.4
		C281.7,317,282.6,324.6,282,332.6z M260,668.9c-0.2-0.1-0.3-0.2-0.5-0.3c-0.7,0.9-1.5,1.8-2.2,2.7c-7.1,8.9-14.1,17.8-20.1,27.4
		c-1.4,2.3-1.7,4.3-0.9,6.9c5,16.4,13,31.2,23.2,44.9c0.2,0.3,0.5,0.4,1.1,0.8c-0.2-4.3-0.4-8.2-0.5-12.1
		c-0.5-13.4-0.9-26.8-1.3-40.3c-0.2-6.1-0.4-12.1,0.2-18.2C259.5,676.9,259.7,672.9,260,668.9z M680.4,668.2c-0.2,0-0.3,0.1-0.5,0.1
		c0,0.9,0,1.7,0.1,2.6c1.5,10.1,1.5,20.2,1.9,30.3c0.4,10.8,0.3,21.6-0.5,32.3c-0.4,4.6-0.9,9.2-1.3,13.8c-0.1,1.2-0.5,2.5,0.1,4.1
		c2.2-3.2,4.3-6.2,6.3-9.2c8.2-12,14-25.2,18.4-39.1c0.4-1.2,0.3-2-0.5-3.1c-7.6-10-15-20.1-22.5-30.1
		C681.4,669.4,680.9,668.8,680.4,668.2z M262.6,371.6c-10,7.1-20.3,13.3-31.4,18.2c-11.1,4.9-22.7,8.2-34.5,11.4
		c3.4,1.2,6.7,2.2,10.1,2.9c3.3,0.7,6.6,1.3,9.9,1.3c11,0.1,21.1-3.2,30.3-9.1C255.9,390.6,261.4,382.6,262.6,371.6z M36.8,405.9
		c-0.9-4.4-1.6-8.9-2.7-13.3c-1.5-6-4.4-11.2-8.7-15.7c-1.4-1.5-3.2-2.4-5.1-2.9c-2.1-0.5-3.9,0-5,2c-0.8,1.4-1.5,2.9-1.8,4.4
		c-0.8,4-0.5,7.9,0.3,11.9c1.4,8,5.3,14.8,10.1,21.2c0.6,0.8,1.4,1.5,2.3,2.1c2,1.3,4.7,1.2,6.4-0.5C35,412.5,35.7,409.2,36.8,405.9
		z M294.6,334.4c-4.1,1.4-8,2.7-11.9,4.1c-2,0.7-2.6,2.6-3.2,4.3c-0.3,0.8,0.2,2,0.6,2.9c2.4,5.2,4.8,10.5,7.3,15.6
		c0.9,1.8,2.2,3.5,3.4,5.2c0.6,0.9,1.3,1.2,2.4,1c3.1-0.6,6.3-1.3,9.4-1.7c2.2-0.3,3.7-1.1,4.8-3c0.6-1,0.7-1.8,0.2-2.8
		c-1.6-2.9-3-5.8-4.5-8.7C300.4,345.7,297.6,340.3,294.6,334.4z M412.7,295.6c0.1,3.6,0.2,6.6,0.4,9.6c0.3,4.8,1.8,9.4,4.1,13.7
		c0.7,1.2,1.6,2.4,2.6,3.4c2,1.9,4.4,2.6,7.1,1.8c1.6-0.6,3.3-1.3,4.7-2.3c1.6-1.2,3.1-2.8,4.5-4.3c2.1-2.3,4.3-4.5,7-6.1
		c2.4-1.4,4.1-3.7,4.6-6.4c0.7-3.7,1-7.5,1.5-11.3c-0.8,0.3-1.3,0.7-1.7,1.1c-1.7,1.8-3.3,3.7-5,5.5c-2,2.2-4.3,4-7,5.3
		c-3.7,1.7-7.4,1.7-11.1,0c-2.6-1.2-4.7-3-6.7-5C416.2,298.9,414.7,297.5,412.7,295.6z M524.7,295c-0.1-0.1-0.3-0.1-0.4-0.2
		c-1.4,1.7-2.7,3.4-4.2,5c-1.6,1.7-3.1,3.5-5,4.8c-4.6,3.2-9.6,3.4-14.4,0.5c-2.1-1.3-4-3.1-5.8-4.9c-2.3-2.4-4.3-5-6.4-7.5
		c-0.5-0.6-1.1-1.2-1.6-1.7c0.8,4.6,1.9,9.1,3.2,13.5c0.4,1.4,1.5,2.6,2.5,3.7c4.5,4.7,9.5,8.8,14.8,12.6c1.2,0.9,2.6,1.5,4.1,1.9
		c4,1.2,6.4,0.3,8.6-3.2c0.8-1.3,1.5-2.7,2-4c1.8-4.3,2.6-8.9,2.6-13.6C524.8,299.6,524.7,297.3,524.7,295z M443.4,283
		c-0.1-3.4-0.9-6.5-3-9.2c-3.9-5.2-10.8-5.7-15.6-1.3c-5.3,5-6.1,14.1-1.6,19.9c4.4,5.7,12.4,5.8,16.9,0.1
		C442.4,289.8,443.3,286.5,443.4,283z M517.1,282.7c-0.1-3.6-1.3-7.5-4.6-10.4c-4.1-3.7-10.1-3.6-14.1,0.2
		c-5.8,5.5-5.7,15.8,0.1,21.3c4.9,4.6,12.1,3.9,16-1.6C516.3,289.5,517.1,286.6,517.1,282.7z M720.2,747.4
		c-1.9-13.3-4.4-25.8-11.3-37.3c-3.5,8.2-6.8,16.2-10.3,24.4C705.8,738.7,712.8,742.9,720.2,747.4z M231.2,710.1
		c-6.7,11.7-8.7,24.5-11.4,37.4c0.7-0.4,1.1-0.5,1.4-0.7c5.8-3.5,11.5-6.9,17.3-10.4c0.4-0.2,0.8-0.5,1.2-0.8c1.2-1,1.6-2.2,1.2-3.6
		c-0.2-0.7-0.5-1.3-0.8-2c-2.4-5.6-4.9-11.1-7.3-16.7C232.2,712.3,231.7,711.3,231.2,710.1z M311.7,357.9c2.4-1.4,4.7-2.7,6.9-3.9
		c0.2-2,0.3-3.8,0.5-5.7c0.1-1.3-0.2-2.5-0.8-3.7c-2.3-4.5-4.5-9-6.8-13.5c-0.3-0.7-0.7-1.3-1.1-2c-3.4,1.3-6.5,2.5-9.7,3.7
		C304.3,341.2,307.9,349.3,311.7,357.9z M68.3,349.8c0.5-0.1,0.9-0.2,1.4-0.3c3.7-1.1,7.5-2.3,11.2-3.4c3.1-0.9,4.9-3.1,6-6
		c2.2-5.9,4.4-11.8,6.6-17.7c0.2-0.5,0.3-1.1,0.5-1.8C82.6,328,73.2,336.8,68.3,349.8z M431.7,246c0.1-0.1,0.3-0.3,0.4-0.4
		c-2.4-3.9-4.7-7.8-7.2-11.6c-1.5-2.3-3.1-2.9-5.7-1.8c-4.6,1.8-9.2,3.7-13.8,5.5c-0.3,0.1-0.5,0.4-1,0.8
		C413.7,241,422.7,243.5,431.7,246z M506.6,245.1c0.1,0.1,0.2,0.3,0.3,0.4c9.1-2.4,18.2-4.7,27.4-7.1c-0.2-0.3-0.2-0.5-0.3-0.5
		c-5-2-10-4.1-15.1-6.1c-1.8-0.7-3.6,0-4.7,1.5C511.6,237.2,509.1,241.2,506.6,245.1z"/>
	<path d="M190.2,830.4c0,3-0.8,5.7-2.4,8.2c-2,3-4.6,5.3-7.8,6.9c-5,2.6-9.8-0.3-9.8-5.9c-0.1-7.3,3-13,9.4-16.6
		c5.5-3.1,9.6-0.9,10.4,5.3C190.1,828.9,190.2,829.7,190.2,830.4z"/>
	<path d="M749.8,829.4c0.1-2.9,0.6-5.5,3.3-7.1c2.7-1.5,5.3-0.7,7.7,0.8c5.2,3.1,8.4,7.5,9.1,13.6c0.3,2.3-0.1,4.5-1.1,6.5
		c-1.3,2.7-3.7,3.9-6.6,2.9c-6-1.9-9.9-6-11.6-12.1C750.2,832.5,750.1,830.9,749.8,829.4z"/>
	<path d="M596.5,362.9c-1.9,2.5-3.8,4.9-6.4,6.6c-8.7,5.9-18.1,10.1-28.6,11.7c-2.4,0.4-4.9,0.6-7.4,0.7c-3.7,0.1-7,1.1-10.1,3.2
		c-13.1,8.6-23.2,19.9-31,33.4c-1.4,2.5-2.6,5.1-3.8,7.7c-1.3,3-1.5,3.2-4.6,2.3c-4.3-1.2-8.6-2.5-12.9-3.5c-17.9-4-35.6-2.9-53,2.6
		c-1.6,0.5-3.2,1-4.8,1.3c-0.8,0.2-1.7,0-2.4,0c-0.2-0.3-0.4-0.4-0.4-0.5c0.1-3.4-1.5-6.1-3.1-8.9c-7.5-13.1-17.1-24.3-29.5-33
		c-4.1-2.9-8.6-4.3-13.6-4.7c-13.6-1-25.8-5.8-36.7-13.9c-1.8-1.4-3-3.2-4.4-5.6c0.9,0.3,1.4,0.4,1.8,0.7c2.4,1.3,4.8,2.6,7.1,4
		c11.6,7,24,10.7,37.6,10.2c12.3-0.5,23.4-4.5,33.5-11.7c2.1-1.5,3.4-3.5,3.5-6.2c0-0.7,0.2-1.3,0.4-2.3c1.2,0.3,2.2,0.6,3.2,0.9
		c8,2.5,16,4.9,24,7.4c10.5,3.2,21,2.9,31.5,0.2c7.7-1.9,15.1-4.5,22.5-7.4c1.8-0.7,2.3-0.7,3.6,0.7c0.9,1.1,1.7,2.3,2.3,3.6
		c0.9,2,2.2,3.5,4,4.6c11.8,7.8,24.9,11,39,9.9c11.3-0.9,21.7-4.6,31.2-10.6c2-1.3,4.2-2.3,6.3-3.5c0.3-0.2,0.7-0.2,1-0.3
		C596.3,362.6,596.4,362.8,596.5,362.9z M518.5,401.3c-0.6-0.5-1-1.1-1.6-1.5c-4.6-3.9-9.9-6.8-15.6-8.7
		c-18.1-6.2-36.4-6.4-54.7-1.6c-8.4,2.2-16.1,5.8-22.5,11.7c-0.5,0.4-0.8,0.9-1.3,1.4c2,3.2,4.1,6.3,6,9.4c1.6,2.6,3.1,5.2,4.7,7.8
		c1.7,2.8,3.6,3.7,6.9,3.1c0.6-0.1,1.2-0.3,1.9-0.4c4.8-1.1,9.6-2.3,14.5-3.3c7.8-1.5,15.7-1.9,23.6-0.3c5.3,1.1,10.6,2.2,16,3.2
		c2,0.4,3.9,0.6,5.9,0.7c1.8,0.1,3.2-0.7,4.2-2.3C510.3,414.1,514.3,407.8,518.5,401.3z M399.2,381c0.2,0.4,0.3,0.6,0.4,0.7
		c5.4,4.8,10.7,9.6,16.1,14.4c2.4,2.1,5.1,2.4,8,0.9c0.8-0.4,1.5-0.9,2.3-1.3c5.1-3.1,10.3-5.7,15.9-7.8c15.4-5.6,31-7.2,47.1-3.5
		c9.3,2.1,18,5.8,26.5,10.4c1.3,0.7,2.5,1.4,3.9,1.9c1.9,0.7,3.6,0.6,5.3-0.9c4.7-4.3,9.5-8.4,14.2-12.5c0.2-0.2,0.3-0.4,0.6-0.8
		c-0.5-0.3-0.8-0.5-1.2-0.7c-9.3-4.9-18.7-9.7-28-14.7c-3.2-1.7-6.5-2.1-9.9-0.7c-1,0.4-1.9,0.7-2.9,1c-18.5,6.1-37,6.4-55.4-0.5
		c-1.6-0.6-3.2-0.9-4.8-1.3c-2.5-0.7-4.6-0.2-6.7,1.4c-8.2,6.1-17.2,10.4-27.1,12.9C402,380.3,400.7,380.6,399.2,381z"/>
	<path d="M456.8,163.8c0.1-3.3,1-5.8,2.8-8c2.1-2.4,5.1-3.5,7.5-2.5c2.9,1.2,3.9,3.8,3.9,6.6c0,3.6-1.4,6.7-4.3,8.9
		c-1,0.8-2.4,1.3-3.7,1.5c-2.8,0.4-4.8-1.1-5.6-3.8C457,165.5,456.9,164.4,456.8,163.8z"/>
	<path d="M284.9,108.3c-1-2.2-0.9-4.4-0.6-6.6c0.7-3.8,2.2-7.3,4.2-10.6c4.2-7,9.8-12.8,16.1-17.9c10.5-8.5,21.9-15.5,33.9-21.7
		c21.5-11.3,44.2-19.1,67.9-24.5c11.9-2.7,23.8-4.5,35.9-5.8c3.3-0.3,6.7-1,10-1.2c2.9-0.2,5.7,0.1,8.6,0.3
		c7.2,0.6,14.3,1.4,21.2,3.8c3.2,1.2,6.4,2.5,9.3,4.3c5.2,3.1,8.5,7.7,8.9,14c0.2,3.3-0.5,6.5-1.8,9.6c-2.1,4.7-4.9,8.9-8.4,12.8
		c-8.7,9.7-19.2,17.1-30.2,23.8c-26.1,15.8-53.9,27.1-83.7,33.3c-12.7,2.7-25.5,4.4-38.5,5c-4.9,0.2-9.7,0.5-14.6,0.4
		c-9-0.2-17.6-2.3-25.9-5.4c-2.8-1-5.3-2.6-7.5-4.6c-1.8-1.7-3.4-3.6-4.2-6.1c0.5-0.6,1-1.3,1.5-1.9c3-3.7,6-7.3,8.9-11
		c7.6-9.6,16.8-17.3,27.1-23.8c29.1-18.3,60.6-30.8,94.3-37.5c12.4-2.5,24.9-4.2,37.5-4.9c7.8-0.4,15.5,0,23.2,1.3
		c0.3,0.1,0.6,0.1,1.2,0.2c0.5-1.8,1-3.6,1.6-5.6c-3.2-1.4-6.3-2.3-9.5-2.9c-9.2-1.6-18.5-2-27.7-1.1
		c-37.4,3.8-72.8,14.2-106.1,31.8c-8.7,4.6-16.9,10-24.9,15.8c-5.8,4.2-10.7,9.3-15.4,14.7c-7,8.1-7,8.1-10.6,18.2
		C285.9,105.6,285.4,106.9,284.9,108.3z M448.2,72.2c5.7,2.8,11.1,5.4,16.5,8.1c0.9,0.5,1.5,0.1,2.2-0.4c3.4-2.5,6.7-4.9,10.1-7.3
		c7.1-5.4,12.8-12,17.5-19.5c0.7-1.1,1.3-2.2,1.7-3.4c1.2-3.2,0.4-5.5-2.5-7.4c-0.5-0.3-1.1-0.7-1.7-0.9c-8.1-3.1-16.3-5.6-25.1-5.8
		c-13.6-0.3-27.2,0.5-40.6,2.7c-17.4,2.8-34.3,7.4-50.8,13.7c-10.6,4.1-20.9,8.7-31,13.9c-9.7,5-19.4,10.2-28.2,16.7
		c-8.1,6-15.2,13-20.7,21.4c-1.2,1.9-2.4,3.8-3.2,5.9c-1.3,3.1-0.5,5.5,2.4,7.2c1.9,1.1,4,2,6.1,2.8c10.1,3.6,20.5,4.9,31.1,4.5
		c3.1-0.1,6.2-0.4,9.1-0.5c3-5.7,5.9-11.1,8.9-16.9c-12.8,0-25,0-37.4,0c-0.6-1.9-1.2-3.7-1.8-5.6c1-0.5,1.7-0.9,2.4-1.2
		c15.7-7.7,31.4-15.4,47.2-22.9c3.1-1.5,5.4-3.4,7.3-6.3c4.1-6.2,8.3-12.3,12.5-18.4c0.4-0.6,0.9-1.1,1.5-1.9c9,2,18.1,3.8,27,6.2
		c5.9,1.6,11.4,1.4,17.2-0.4c14.2-4.5,28.5-8.8,42.8-13.3c3.7-1.2,6.6,0.4,9.8,2.1C468.2,54.2,458.3,63.1,448.2,72.2z M350.5,118.5
		c2.2-0.3,3.8-0.6,5.5-0.7c3-0.2,5.5-1.4,8-2.8c11.5-6.5,23-12.9,34.5-19.4c3.5-2,7.4-3,11.4-3.5c11.9-1.6,23.7-3.4,35.6-5
		c3.7-0.5,6.4-2.9,10-4.7c-6.2-3.1-11.9-5.9-17.9-8.8c8.3-7.5,16.3-14.7,24.3-21.9c-1-0.1-1.8,0.1-2.5,0.3
		c-11.1,3.5-22.3,6.9-33.4,10.4c-6,1.9-12,2-18.2,0.3c-6.8-1.8-13.7-3.1-20.5-4.8c-2.6-0.6-4.2,0.2-5.6,2.4
		c-3.4,5.2-6.9,10.4-10.4,15.5c-1.7,2.6-4,4.5-6.8,5.9c-12.4,5.9-24.7,12-37.1,18c-0.6,0.3-1.1,0.6-1.6,1c0.1,0.2,0.1,0.3,0.2,0.5
		c11.1,0,22.2,0,33.7,0C356.6,107,353.7,112.6,350.5,118.5z M446.3,93c-1.7,0.3-3.5,0.5-5.2,0.8c-9.7,1.4-19.4,2.8-29.2,4.2
		c-4.1,0.6-8,1.5-11.6,3.5c-10.6,6-21.3,11.9-32,17.8c-0.2,0.1-0.4,0.2-0.6,0.3c-0.2,0.1-0.5,0.2-0.7,0.3
		C394.8,114.5,421.1,105.6,446.3,93z"/>
</g>
</svg>
