<?xml version="1.0" encoding="utf-8"?>
<!-- Generator: Adobe Illustrator 25.0.1, SVG Export Plug-In . SVG Version: 6.00 Build 0)  -->
<svg version="1.1" id="Layer_1" xmlns="http://www.w3.org/2000/svg" xmlns:xlink="http://www.w3.org/1999/xlink" x="0px" y="0px"
	 viewBox="0 0 857.3 922.1" style="enable-background:new 0 0 857.3 922.1;" xml:space="preserve">
<style type="text/css">
	.st0{fill:#FFFFFF;}
</style>
<path d="M842.2,681.4c4.3-8.6,6.6-18,8.7-27.2c0.6-2.6,0.5-5.4,0.4-8.1c0-1.2-0.1-2.5-0.1-3.7l0-0.3c0-1.5,0-3,0-4.5
	c0-1.2,0-2.5,0-3.7c0.1-3.1,0.2-6-1-8.9l0-0.1c-2.3-15.1-8-29-16.8-41.4c-0.6-0.9-1.1-1.8-1.4-2.7c-1.5-4.8-3-9.5-4.5-14.3l-1.3-4.2
	c-1.5-4.9-3.4-10.5-6.3-15.6c-12.1-21-27.1-39.5-44.7-54.9c-8.8-7.7-16.8-12.6-25.3-15.4c-1.1-0.4-2-1.3-2.5-1.8
	c-1.8-2.2-3.6-4.3-5.3-6.5c-1.3-1.6-2.6-3.2-3.9-4.8c-26-31.7-54.8-56-87.9-74.1c-1-0.5-1.9-1.4-2.7-2.6c-2.6-3.7-5.1-7.4-7.6-11.1
	c-3.1-4.5-6.2-9.1-9.4-13.6c-1-1.4-1.3-2.8-1-4.8l0.5-3.1c1.1-6.5,2.2-13.2,3.1-19.9c1.3-10.2,2-20.8,2.1-32.5
	c0.2-16-0.9-31.6-3.2-46.3c-2.1-13.4-4.9-27.4-8.4-41.5c-8-32.4-18.7-61.3-32.7-88.5C571.8,87.5,545.8,53.8,514,25.1
	c-8.6-7.8-17.3-12.5-26.6-14.5c-8.3-1.8-16.8-2.9-25.3-3.3c-13.8-0.7-28.3,0.3-43.1,3c-18.5,3.3-37.4,8.6-57.5,16.1
	c-22.8,8.5-42.3,19-59.5,31.8c-6.9,5.2-15,11.6-21.8,19.6c-7.9,9.2-12.7,18.8-14.5,29.3c-0.3,1.8-0.5,3.7-0.7,5.5
	c-0.2,1.8-0.4,3.6-0.7,5.4c-2.7,15.9-4.3,32.2-4.9,50c-0.4,11.2-0.1,22.7,0.8,34c1,13.4,2.5,24.3,4.7,34.4c1.9,8.7,4,17.6,6,26.1
	c0.9,3.7,1.7,7.3,2.6,11c0.4,1.6,0.7,3.2,1.1,4.7l0.6,2.5l-0.3,0.2c-4.7,3.1-7.5,2.8-11.1-1.1c-0.2-0.2-0.4-0.4-0.6-0.7l-0.4-0.4
	c-5.5-6.1-11.8-10.9-18.8-14.4c-19.6-9.9-40.3-12.5-61.4-7.8c-31.9,7.1-58,23.4-77.5,48.5c-3.2,4.1-6.6,7.1-10.7,9.5
	c-16.1,9.3-26.7,21.4-32.3,36.8c-0.4,1.2-1.4,1.7-2.2,1.9c-2.1,0.7-4.2,1.4-6.3,2.1c-1.2,0.4-2.3,0.8-3.5,1.2c-3,1-5.9,2-8.9,3
	c-7.8,2.7-15.9,5.4-23.8,8.1c-4.8,1.6-7.7,4.7-8.8,9.5c-0.3,1.5-0.7,3.4-0.7,5.3c-0.2,11.4,3.2,22,10,31.3c1.4,1.9,3.2,3.7,5.7,5.6
	c3.2,2.5,7,3.1,11.3,1.6c4.6-1.6,9.3-3.1,13.9-4.5c1.7-0.5,3.4-1.1,5.1-1.6c0.4-0.1,0.8-0.2,1.3-0.3c0.2-0.1,0.5-0.1,0.8-0.2
	l0.6-0.1l0.2,1.9c0.1,0.9,0.2,1.7,0.2,2.5c0.2,2.7,0.3,5.4,0.4,8.1c0.3,5.7,0.6,11.7,1.1,17.5c0.6,7.9,3.2,15,7.8,21.3
	c0.9,1.3,1.9,2.6,2.8,4c1.7,2.3,3.3,4.7,5,7c0.6,0.9,1.1,1.9,0.4,3.3c-0.2,0.5-0.2,1.3,0,2.2c0.8,3.8,1.7,7.5,2.6,11.3l1.1,4.8
	c2.9,12.4,6.1,21.6,10.5,29.9c8.1,15.2,18.6,25.9,32.2,32.8c15.8,8,33,10.8,52.6,8.6c11-1.3,22-4.4,33.6-9.6c1.3-0.6,2.6-1.1,4-1.6
	c0.7-0.3,1.4-0.6,2.2-0.9l0.9-0.4l-0.5,2.3c-0.2,0.7-0.3,1.3-0.4,1.9c-2.6,11.4-5.4,22.9-8.1,34c-5.7,23.4-11.5,47.5-16.3,71.5
	c-0.3,1.7-1,3.6-1.9,5.5c-1.9,4.2-3.9,8.4-5.8,12.6c-1.6,3.5-3.2,7-4.8,10.5c-4.7,10.2-9.4,21.3-12,33.2
	c-2.8,12.7-3.9,24.4-3.2,35.8c0.6,10.5,2.6,21,5.9,31.1c1.1,3.4,0.7,6.4-1.3,9.6l-0.5,0.8c-0.5,0.8-1.1,1.6-1.5,2.5
	c-0.9,1.5-1.7,3.1-2.6,4.6c-2.2,3.8-4.4,7.8-6.3,11.8c-5.2,10.9-8,20.9-8.6,30.5c-0.8,12.4,3.2,23.1,11.7,31.9
	c3.5,3.6,7.7,6.9,12.7,10c8.1,5,17.2,8.9,27.8,11.9c7.1,2,14.5,3.4,21.7,4.7c2.1,0.4,4.3,0.8,6.4,1.2c6.1,1.1,12.2,1.3,16.8,1.2
	c3.8,0,7.5,0,11.1,0c3.7,0,7.2,0,10.8,0.1c5.2,0,10.2-0.3,15.2-1.1c20.5-3.3,38.7-7.3,55.6-12.1c24.9-7.1,46.6-16.2,66.4-27.8
	c14.7-8.6,26-18.4,34.5-29.8c1.2-1.6,2.8-2.5,4.7-2.8c1-0.2,2.2-0.3,3.4-0.3c15.6,0,31.2-0.1,46.8-0.1c1.8,0,3.7,0,6.2,0.1
	c2.8,0.1,4.9,1.1,6.5,3.3c3.7,5.2,8.3,10.2,14,15.2c9.9,8.9,21.4,16.2,35,22.6c36,16.7,70.9,27,106.5,31.3c1.6,0.2,3.3,0.5,4.9,0.7
	l1.3,0.2c0.5,0.1,0.9,0.2,1.3,0.3c0.8,0.2,1.5,0.4,2.3,0.4c10.4,0,21.4,0,34.8,0c1.6,0,3.2-0.1,4.7-0.4l0.7-0.1c6-1,12.1-2,18.2-3.1
	c12.8-2.4,23.1-5.6,32.3-9.9c9.4-4.4,16.8-9.4,22.6-15.3c7.9-8,11.9-17.7,11.9-29c0-7-1.4-14.5-4.5-23.5c-3.5-10-8.7-20.1-16-30.9
	c-1.5-2.3-1.9-4.5-1.1-7.1c0.1-0.4,0.2-0.7,0.4-1.1l0.1-0.3c4.3-13.2,6.2-26.9,5.8-40.7c-0.3-7.5-1.5-15-2.7-22.3l-0.5-3.1
	c-0.2-1.2-0.4-2.4-0.6-3.7l-0.4-2.4l1.5,0c0.6,0,1,0,1.5,0c0.9,0,1.8,0,2.8,0.1c1.8,0.1,3.8,0.1,5.6,0.1c7.2-0.1,13.1-2.2,18.1-6.3
	c2.1-1.7,4.6-3.1,6.7-4.3C825.1,705.3,835.5,694.8,842.2,681.4z M755.7,484l0.8,0.5c0.5,0.3,1,0.6,1.6,1
	c13.8,8.5,26.3,20.2,40.5,37.7c6.3,7.8,12.2,16.4,17.9,26.2c8.3,14.3,11.8,29.9,10.4,46.6c-0.8,9-2.9,17.9-6.6,27.3
	c-0.3,0.7-0.6,1.4-1,2l-2.5,4.1c-2.6,4.2-5.3,8.6-8,12.9c-6.1,9.6-14.5,17.9-25.7,25.4c-5.8,3.9-12.4,7.5-19.4,10.6
	c-1.8,0.8-3.1,1.2-4.2,1.2c-2,0-3.2-1.4-4.8-4.6c-1.9-3.8-2.5-7.8-3-11.7c-0.2-1.5-0.4-2.9-0.5-4.4c-0.6-5.1-1.3-10.4-2.2-15.6
	c-1.8-10.4-4-20.9-6.1-31.1l-0.1-0.4c-1.2-5.8-0.8-6.8,4-10.1c11.5-7.9,19.8-17,25.3-27.7c5.7-11.2,8.2-23.2,7.3-35.7
	c-0.6-8.9-3.1-17.1-7.3-24.6c-3.5-6.1-7.2-12.2-10.7-18.2c-1.6-2.6-3.1-5.2-4.7-7.8c-0.3-0.6-0.7-1.1-1-1.7l-0.7-1.1L755.7,484z
	 M653.6,396.8c0.2,0.1,0.4,0.1,0.5,0.2c0.2,0.1,0.3,0.1,0.5,0.2c4.2,3,8.5,6,12.7,9.1c9.6,6.8,19.5,13.9,29.1,21.1
	c13.9,10.4,27,23.9,41.2,42.2c9.4,12.1,17.7,25.1,25,36.7c5,7.9,8.5,16.2,10.3,24.6c4.3,19.9-0.5,38-14.5,53.6
	c-2.5,2.9-5.4,5.5-8.1,8.1c-1.2,1.1-2.4,2.2-3.5,3.4c-1,1-2.1,2-3.2,3l-2.2,2.1l-0.3-0.7c-0.1-0.3-0.2-0.5-0.3-0.7
	c-0.2-0.4-0.3-0.8-0.5-1.2l-6.8-21c-3.8-11.8-7.6-23.5-11.5-35.3c-0.4-1.2-0.8-2.3-1.3-3.3c-1.6-3.3-3.1-6.5-4.6-9.8
	c-4.6-9.8-9.4-19.9-14.3-29.8c-1.9-3.8-4.1-7.5-6.3-11.1c-0.8-1.3-1.5-2.5-2.3-3.8c-1-1.7-2.2-2.7-3.6-3.1c-0.4-0.1-0.9-0.2-1.2,0
	c-0.2,0.2-0.4,0.5-0.4,1.1c0,0.6,0.1,1.3,0.4,1.8l0.2,0.3c0.9,1.9,1.9,3.9,3,5.8c14.9,25.5,26.9,53,35.6,81.9
	c6.4,21.3,11,40.7,14.1,59.5c0.8,5,1.8,10.1,2.7,15c0.5,2.5,0.9,4.9,1.4,7.4c0.1,0.5,0.2,1.2-0.2,2.1l-0.3,0.9l-1.1-1.5
	c-0.4-0.6-0.8-1.1-1.2-1.7c-4.3-6.1-8.5-12.3-12.8-18.4c-9.8-14.1-19.9-28.7-30.1-42.9c-8.7-12-14-25.6-16.4-41.7
	c-2-13.7-4.2-27.8-6.1-41.7c-0.8-5.6-1.5-11.3-2.2-16.8c-0.6-4.6-1.2-9.2-1.8-13.8c-4.2-30.8-10.3-55.6-19.2-78.1
	c-0.2-0.5-0.4-1.1-0.6-1.7c-0.1-0.3-0.2-0.7-0.3-1l-0.3-1L653.6,396.8z M535.1,61.2c0.4-1.8,0.8-3.6,1.4-5.4l0.3-0.9l1.3,1.5
	c0.4,0.5,0.8,0.9,1.2,1.3c27.1,29.6,48.2,64.8,64.4,107.7c4.3,11.4,9.2,25,12.6,39l1.3,5.3c3.9,16.1,8,32.7,10.5,49.4
	c1.7,11.4,2.6,23,2.8,35.7c0.3,17.8-1.2,36.3-4.4,54.7c-0.3,1.5-0.5,3-0.8,4.6c-0.2,1-0.3,2-0.5,3c0,0.3-0.2,0.4-0.4,0.4
	c-0.1,0-0.1,0.1-0.2,0.1L624,358l-0.2-0.6c-0.1-0.2-0.2-0.5-0.3-0.7c-0.2-0.5-0.4-1-0.6-1.5c-0.5-1.4-0.9-2.9-1.3-4.3
	c-0.5-1.7-1-3.4-1.6-5.1c-2.1-6.5-6.1-11.5-12-14.8l-0.2-0.1c-0.5-0.3-1-0.6-1.5-0.9c-1.2-0.9-1.8-1.8-1.9-2.8c-0.1-1,0.3-2,1.3-3.1
	c0.6-0.8,1.4-1.4,2.2-2c7.8-6.4,11.6-14.6,11.7-25c0.1-8.9-2.1-17.6-6.4-25.8c-1.3-2.4-2.6-4.7-4-7c-0.9-1.5-1.8-3.1-2.7-4.6
	c-0.7-1.3-1.2-2.4-1.4-3.4c-5.2-26.6-13.8-53.6-25.4-80.1c-10.1-23.2-22.4-44.7-36.6-64.1c-3.6-4.9-7.6-9.6-11.5-14.2
	c-1.8-2.1-3.6-4.2-5.3-6.4c-0.6-0.8-1.3-1.5-1.9-2.3l-1.2-1.5l0.2-0.3c0.8-1.6,1.7-3.2,2.5-4.7c1.9-3.6,3.7-7,5.6-10.5
	C533.3,68.9,534.2,65.2,535.1,61.2z M679.8,751.6c-0.5-1.3-0.3-2.5-0.2-3.5c0-0.3,0.1-0.6,0.1-0.8c0.2-2,0.4-4.1,0.6-6.1
	c0.2-2.5,0.5-5.2,0.7-7.7c0.8-10.3,1-20.9,0.5-32.3c-0.1-2.1-0.2-4.2-0.2-6.3c-0.3-7.9-0.5-16.1-1.7-24c-0.1-0.6-0.1-1.2-0.1-1.8
	c0-0.3,0-0.5,0-0.8l0-0.4l1.2-0.3l0.7,0.8c0.3,0.4,0.7,0.9,1,1.3l5.8,7.7c5.5,7.3,11.2,14.9,16.8,22.4c0.8,1.1,1,2.1,0.6,3.5
	c-4.9,15.3-10.9,28.2-18.4,39.2c-1.4,2-2.8,4-4.2,6.2l-2.3,3.3c0.7-0.3,1.5-0.5,2.2-0.7l1.9-0.5l-1.9,1.8c-0.4,0.4-0.8,0.7-1.1,1.1
	c-1.2,1.1-2.5,2.2-3.7,3.3c-2.6,2.2-5.2,4.6-7.7,6.9c-9.6,9.1-21.3,16-35.6,21c-21.7,7.6-44.6,13.5-68,17.5
	c-16.4,2.8-33.4,4.8-51.9,6.3c-15.2,1.2-29.5,1.8-43.3,1.8c-4.3,0-8.6-0.1-12.8-0.2c-14.6-0.4-29.6-1.3-44.6-2.7
	c-34.5-3.3-64.4-8.9-91.3-17.2c-8.2-2.5-17.7-5.6-26.9-9.6c-7.8-3.4-15-8-21.3-13.5c-2.7-2.3-5.3-4.7-8-7c-1.8-1.6-3.7-3.2-5.5-4.8
	c-0.3-0.3-0.7-0.5-1-0.8l-0.9-0.7l1-1.2l1,0.5c0.5,0.2,1,0.4,1.4,0.6c2.8,1.3,5.6,2.6,8.4,4c6.1,2.9,12.4,5.9,18.8,8.5
	c16.1,6.6,32.6,10.9,45.2,13.9c16.2,3.9,33.2,6.9,51.8,9.2c14.8,1.8,30.5,3.3,48.2,4.3c16.7,1,29.4,1.3,41.2,1.1
	c13.9-0.3,26.2-0.8,37.6-1.6c11.2-0.8,23.1-1.9,36.3-3.5c32.3-3.8,60.7-9.9,86.9-18.6c12.9-4.3,26.2-10.1,40.5-17.7
	c0.8-0.4,1.8-0.9,2.8-1.3L679.8,751.6z M708.9,708.9l0.5,0.9c6.5,11,9.2,23,11.3,37.5l0.1,1l-22.8-13.8L708.9,708.9z M235.8,705.8
	c-0.8-2.8-0.6-4.9,0.9-7.3c5.8-9.4,12.6-18,20.1-27.5c0.5-0.6,1-1.2,1.5-1.9l1-1.2l1.1,0.7l0,0.3c-0.1,1.2-0.2,2.5-0.3,3.7
	c-0.2,2.7-0.4,5.5-0.7,8.3c-0.6,5.6-0.4,11.4-0.3,16.9l0,1.2c0.3,11.3,0.7,22.6,1.1,33.8l0.2,6.4c0.1,2.7,0.2,5.4,0.3,8.2l0.2,5
	l-0.8-0.7c-0.2-0.1-0.4-0.3-0.5-0.4c-0.3-0.2-0.5-0.3-0.7-0.6C248.2,736.2,240.6,721.4,235.8,705.8z M239.9,736
	c-0.4,0.3-0.8,0.6-1.2,0.8c-5.8,3.5-11.5,6.9-17.3,10.4c-0.2,0.1-0.5,0.3-0.8,0.4l-1.6,0.8l0.2-1c0.3-1.5,0.6-3,0.9-4.5
	c2.4-11.6,4.6-22.6,10.6-33.1l0.5-0.8l0.9,2c0.3,0.7,0.6,1.4,0.9,2.1c2.4,5.6,4.9,11.1,7.3,16.7l0.1,0.2c0.3,0.6,0.5,1.2,0.7,1.8
	C241.7,733.5,241.2,734.9,239.9,736z M466.8,516.1c-0.1,0.1-0.1,0.3-0.2,0.4c-0.1,0.3-0.2,0.6-0.4,0.9c-18.1,31.4-31.4,64.7-41,90.1
	c-15.3,40.6-28.1,83.6-37.9,127.5c-1.9,8.6-3.9,17.2-5.9,25.6c-0.8,3.3-1.5,6.6-2.3,9.9c-0.1,0.4-0.2,0.8-0.4,1.3
	c-0.1,0.2-0.2,0.5-0.3,0.8l-0.3,1l-0.6-0.9c-0.2-0.2-0.3-0.5-0.4-0.7c-0.2-0.4-0.4-0.7-0.6-1c-20.3-38.6-35.1-71.1-46.6-102
	c-9.2-24.8-16.4-47.3-22-68.7c-0.9-3.6-1.7-7.3-2.4-10.9l-0.5-2.7c-0.2-0.8,0-1.7,0.1-2.5c0.5-2.4,1-4.8,1.5-7.2
	c1-4.9,2.1-9.9,2.9-14.9c0.8-5.2,1.3-10.5,1.8-15.6c0.2-2.1,0.4-4.2,0.6-6.3c0.2-1.6,0.3-3.2,0.4-4.9c0.1-0.8,0.1-1.6,0.2-2.4
	l0.1-0.6l0.6,0.1c0.2,0.1,0.4,0.1,0.6,0.1c0.4,0.1,0.8,0.2,1.2,0.3c2.1,1,4.2,0.7,6.2,0.2l6-1.5c8.5-2.1,17.3-4.2,26-6.1
	c12.5-2.7,25.3-4.7,38.1-6.1l0.3,0c11.3-1.2,22.9-2.4,34.4-3.1c9.3-0.5,18.7-0.8,27.8-1c3.9-0.1,7.8-0.2,11.7-0.3
	c0.2,0,0.4,0,0.6,0.1c0.1,0,0.2,0.1,0.3,0.1l0.6,0.1L466.8,516.1z M468.5,525.5c0.2-0.4,0.4-0.7,0.7-1.2c0.1-0.2,0.3-0.5,0.5-0.7
	l0.4-0.7l0.4,0.7c0.1,0.2,0.3,0.4,0.4,0.6c0.3,0.4,0.5,0.7,0.7,1.1c30.5,58.4,54.5,122.8,71.4,191.4c3.4,13.9,6.8,29.1,10.5,48
	c0.6,3.1,1.2,6.2,1.7,9.3c0.4,2.5,0.9,5.1,1.4,7.6c0,0.2,0,0.5,0,0.7c0,0.1,0,0.2,0,0.3l0,0.4l-0.4,0.1c-27.8,4-56.3,5.9-85.3,5.9
	c-28.6,0-57.7-1.9-87.1-5.8l-0.5-0.1l0.1-0.5c0.2-1.1,0.5-2.2,0.7-3.2c0.5-2.3,0.9-4.4,1.3-6.6c3.5-19.2,8.3-40,14.9-65.6
	c15.6-60.5,34.8-113.9,58.6-163.1c2.1-4.3,4.4-8.7,6.7-12.9C466.5,529.2,467.5,527.4,468.5,525.5z M306.4,617.6
	c13.4,45.6,31,89.9,52.2,131.6c3,6,6.1,11.9,9.1,17.9l6,11.8c0.2,0.4,0.4,0.9,0.7,1.4l0.8,1.7l-3.2-0.5c-1.4-0.2-2.8-0.4-4.1-0.7
	c-28.2-4.6-52.5-10.9-74.2-19.2c-5.6-2.2-11.2-4.8-16.6-7.4c-2.8-1.3-5.7-2.7-8.5-4c-1.5-0.7-1.7-1.9-1.7-2.9
	c-0.1-2.6-0.2-5.2-0.3-7.7c-0.1-2.1-0.1-4.3-0.2-6.4c-0.1-3.9-0.3-7.8-0.4-11.7c-0.3-10.5-0.7-21.3-0.9-31.9
	c-0.1-3.5,0.2-7.1,0.5-10.6c0.1-1.6,0.3-3.2,0.4-4.8c0-0.4,0.1-0.8,0.1-1.2c0.1-0.9,0.1-1.8,0.1-2.6c0-3,1-5.6,3.1-8
	c12.1-13.9,22.4-30.3,30.6-48.6c0.7-1.7,1.5-3.4,2.3-5c0.1-0.2,0.2-0.3,0.3-0.4c0.1-0.1,0.2-0.2,0.3-0.4l0.6-0.7l1.1,3.9
	C305.2,613.4,305.8,615.5,306.4,617.6z M675.1,732c-0.2,2.7-0.5,5.5-0.8,8.2c-0.2,2-0.4,4.1-0.6,6.2c-0.2,1.8-1.3,2.6-2.4,3.2
	c-16,9.3-33.3,15.1-46.5,19.1c-17,5.1-34.7,9.1-54,12.1c-1,0.2-1.9,0.3-3,0.5l-2.6,0.4l0.4-0.8c0.1-0.3,0.2-0.6,0.3-0.8
	c0.2-0.5,0.4-0.9,0.5-1.2c0.4-0.8,0.8-1.7,1.3-2.5c1-2,2-4.1,3.2-6c3.9-6,7-12.2,10.7-19.6c21.8-43.8,39.7-90.1,53.2-137.4
	c0.3-1.2,0.7-2.4,1.1-3.7l0.9-3.2l0.6,1.1c0.2,0.4,0.4,0.7,0.5,1c0.3,0.6,0.5,1,0.7,1.5c8,18.9,18.8,36.6,33.1,54.1
	c0.9,1.1,1.3,2.2,1.5,3.5c0.2,1.7,0.4,3.4,0.6,5.1c0.3,2.5,0.6,5,0.8,7.6c0.2,2.3,0.3,4.6,0.3,6.8c0,1.1,0.1,2.3,0.1,3.4
	C675.7,702.8,676.1,717.4,675.1,732z M635.1,586.7c-3.5,18.2-8.8,35.1-15.4,55.4c-12,36.7-27,73.2-44.8,108.5
	c-0.4,0.8-0.7,1.5-1.1,2.3c-0.9,1.8-1.7,3.7-2.9,5.4c-2.1,3-3.8,6.1-5.5,9.5c-0.9,1.8-1.9,3.6-2.9,5.4l-0.6,1.1l-0.3-1.2
	c-0.1-0.4-0.2-0.7-0.3-1c-0.2-0.5-0.3-1-0.3-1.4c-12.5-67.1-31.9-131.9-57.5-192.6c-6.1-14.5-13.2-28.7-20-42.6l-2.7-5.5
	c-1.9-3.9-3.9-7.9-5.8-11.8c-0.2-0.4-0.4-0.9-0.6-1.4c-0.1-0.3-0.2-0.5-0.3-0.8l-0.3-0.7l1.7,0c0.6,0,1.1,0,1.6,0
	c4.3,0.2,8.6,0.3,13,0.4c9.9,0.3,20.1,0.5,30.2,1.2c12.7,0.9,25.6,2.5,38.1,4l0.8,0.1c15.2,1.9,31.1,4.9,48.8,9.2
	c1.7,0.4,3.4,0.9,5.1,1.3c1.7,0.4,3.4,0.9,5.1,1.3c0.6,0.1,1.1,0.3,1.7,0.5c2.4,0.7,4.8,1.3,7.5,0.5l0.6-0.2l0.6,8.4
	c0.5,8.2,2.1,16.3,3.6,24.2c0.4,2.1,0.8,4.2,1.2,6.3c0.3,1.5,0.6,3,0.9,4.6c0.4,2,0.8,4,1.1,6C635.4,584.3,635.3,585.4,635.1,586.7z
	 M626.3,521c0,0.2,0,0.5-0.1,0.7l0,0.6l-0.6-0.2c-0.3-0.1-0.6-0.1-0.8-0.2c-0.6-0.1-1.1-0.3-1.6-0.4c-18.5-5.9-38-10.4-59.4-13.9
	c-15.8-2.6-32.1-4.5-49.7-5.8c-19.7-1.5-38.9-2-57-1.6c-17.4,0.4-34.3,1.5-50.2,3.3c-23.1,2.6-43.4,6-62.3,10.5
	c-6.3,1.5-12.7,3.3-18.8,5c-2.9,0.8-5.8,1.6-8.7,2.4c-0.6,0.2-1.2,0.3-1.9,0.5l-1.9,0.5l0.1-0.7c0.1-0.5,0.1-1,0.2-1.4
	c0.1-0.8,0.2-1.6,0.2-2.3c0.1-1.7,0.2-3.4,0.3-5c0.2-3.3,0.3-6.7,0.7-10c2.7-24.3,9-47.6,18.5-69.4c4.5-10.3,9.8-18.7,16.2-25.5
	c2.8-3,3-3,7-2.2c1.1,0.2,2.2,0.5,3.3,0.7c2.7,0.6,5.5,1.2,8.2,1.9c4.9,1.3,8.7,3.6,11.7,7.1c7.2,8.3,14.6,16.7,22.3,25.1
	c9,9.8,18.4,17.2,28.8,22.4c13.9,7,28.4,10.2,43,9.5c19.1-1,36.6-7.8,52.2-20.4c8.2-6.6,15.2-14.5,21.9-22c2.4-2.7,4.8-5.4,7.2-8.1
	c2.8-3.1,5.6-6.3,8.4-9.5c1-1.1,2-1.8,3.4-2.1l1-0.3c5.8-1.5,11.7-3,17.5-4.7c1.5-0.4,2.5-0.1,3.6,1c7.7,7.9,14.1,17.6,19.3,29.7
	c2.6,6,4.3,12.4,5.9,18.6l0.1,0.4c0.6,2.5,1.3,4.9,2,7.4c2.4,9,4.8,18.2,7,27.4c1.1,4.8,1.6,9.9,2.1,14.7l0.1,1.5
	c0.3,3.2,0.4,6.5,0.6,9.7c0,1.2,0.1,2.5,0.1,3.8C626.4,520,626.4,520.5,626.3,521z M576.6,403.5c-7.2,1.2-13.3,4.4-18.2,9.3
	c-2.7,2.8-5.3,5.8-7.8,8.7l-1.8,2c-6.3,7.3-14,15.7-22.4,23.1c-12.4,11-26.3,17.9-41.3,20.6c-5.2,1-10.4,1.4-15.5,1.4
	c-16.3,0-31.8-4.9-46.3-14.6c-8.7-5.8-15.7-13-21.5-19.2c-3.9-4.2-7.8-8.6-11.5-12.8c-1.6-1.9-3.3-3.7-5-5.6c-0.4-0.5-0.9-1-1.3-1.5
	c-5.1-6.3-11.8-10-20.5-11.5c-19.5-3.4-33-14.7-39.9-33.6c-2.9-7.9-2.7-15.9,0.5-23.8c1.8-4.3,5-7.2,8.2-10.1l0.6-0.5
	c0.4-0.4,1-0.5,1.6-0.6c2.8-0.5,5.7-0.9,8.5-1.3c3.3-0.5,6.9-0.1,11.1,1.1l1.8,0.5c6.7,1.9,13.6,3.9,20.3,6.1
	c6.3,2,12.2,1.9,18.2-0.5l3.4-1.4c7.5-3,15.1-6.1,22.6-9.1c1.2-0.5,2.3-0.8,3.6-1.2c0.6-0.2,1.2-0.3,1.7-0.5l0.5-0.2l1.5,4.6
	c0.3-0.2,0.5-0.4,0.7-0.5c0.8-0.9,1.5-1.7,2.3-2.6c2-2.2,4-4.4,5.8-6.8c6.5-8.6,15.4-13.8,26.5-15.5c7.2-1.1,14.6-0.5,21.8,1.8
	c6.2,2,11.4,5.4,15.4,10.2c2.3,2.8,4.7,5.5,7.1,8.2c1.4,1.5,2.7,3.1,4,4.7c0.3,0.3,0.5,0.7,0.7,1c0,0,0.1,0.1,0.1,0.1l0,0l2.1-5.8
	l0.5,0.2c2.5,1,4.9,2,7.3,3c6,2.5,11.7,4.8,17.4,7.2c3.7,1.6,7.7,3.2,11.9,3.9c5.7,0.9,11.5,0.2,17.6-2.2c6.2-2.4,12.3-4.3,18.4-5.6
	c4.3-1,8.8-1,13.5-0.2c0.3,0.1,0.6,0.1,0.9,0.2c0.9,0.2,1.7,0.3,2.6,0.4c2.4,0.1,4.1,1.3,5.4,2.5c4.6,4,7.4,9.4,8.3,16.2
	c1.4,9.8-1.1,19.3-7.6,28.9C602.6,393.9,591.2,401,576.6,403.5z M300,332.5l10.6-4l0.6,1c0.3,0.5,0.5,0.9,0.8,1.4
	c0.8,1.5,1.5,3,2.3,4.5c1.5,3,3,6,4.5,8.9c0.7,1.4,1,2.6,0.8,4c-0.1,1.3-0.2,2.5-0.3,3.9l-0.2,2.1l-7.6,4.3L300,332.5z M307.9,363
	c-1.2,1.9-2.8,2.9-5.2,3.2c-3.1,0.4-6.2,1-9.3,1.7l-0.1,0c-0.3,0.1-0.5,0.1-0.8,0.1c-0.9,0-1.6-0.4-2.2-1.3c-0.4-0.5-0.7-1-1.1-1.6
	c-0.8-1.2-1.7-2.4-2.3-3.7c-2.6-5.2-5-10.5-7.3-15.6c-0.5-1.1-1-2.3-0.6-3.2l0.1-0.3c0.6-1.7,1.3-3.6,3.4-4.3c2.7-1,5.5-1.9,8.3-2.9
	l4-1.4l2.9,5.6c2,3.9,4,7.7,5.9,11.5c0.5,0.9,1,1.9,1.4,2.8c1,1.9,2,3.9,3,5.9C308.8,361,308.6,362,307.9,363z M319.2,336.3
	c-1.9-3.8-3.7-7.3-5.4-11c-0.4-0.9-0.2-2.2,0-3.3l0.1-0.5c1.3-7.3,1-14.6-1.1-21.6c-1.8-6-4.6-11.4-8.3-15.9
	c-1.6-1.9-3.6-3.6-5.6-5.1l-0.9-0.7c-1.7-1.4-2.7-2.8-3.2-4.7c-0.7-2.7-1.5-5.4-2.2-8c-1.2-4.4-2.5-9-3.5-13.5
	c-1-4.8-1.6-9.7-2.2-14.5c-0.2-1.6-0.4-3.2-0.6-4.8l-0.4-3c-1.1-8.3-2.2-16.9-3.2-25.3c-0.2-1.8-0.4-3.7-0.7-5.5
	c-1-8-2-16.2-1.5-24.4c0.2-3.5,0.5-7,0.7-10.5l0.4-5.5l0.6,0.1c0.2,0,0.4,0.1,0.6,0.1c0.4,0.1,0.8,0.1,1.2,0.3c13.1,5.4,28,8,45.5,8
	c3.4,0,6.9-0.1,10.2-0.1l1.5,0c4.8-0.1,7.3,2,8,6.7c0.4,2.9,0.8,5.9,1.1,8.8c0.3,2.1,0.5,4.3,0.8,6.4c1.2,9.3,2.2,16.9,3.2,23.8
	c0.2,1.6,0.1,2.9-0.5,4.2c-2.4,5.4-4.7,10.8-7,16.2c-3,6.8-5.9,13.7-8.9,20.5c-0.7,1.6-1.7,3.3-3,5c-6.7,9.2-11,18-13.2,27
	c-1.6,6.6-1.6,13.2-0.1,19.7c1.4,6.1,4.7,11.4,9.6,15.9c0.3,0.3,0.6,0.5,0.9,0.8c0.4,0.4,0.9,0.8,1.3,1.2c1.1,1.1,1.7,2.3,1.7,3.6
	c0,1.2-0.5,2.3-1.6,3.2c-2.6,2.5-5.3,4.8-8.1,7.3c-1.2,1-2.4,2.1-3.6,3.2l-0.5,0.4l-0.3-0.6C320.5,338.9,319.9,337.6,319.2,336.3z
	 M528,298.2c-0.3-6.3-1.4-11.9-3.5-17.1c-1.7-4.2-4.1-8-7.2-11.3c-3.2-3.4-6.5-5.2-10.2-5.6c-3.4-0.4-6.5,0.7-9.8,1.8l-0.7,0.2
	c-0.1,0-0.3,0.2-0.4,0.3c-5.9,5.8-8.9,11.3-9.5,17.4c-0.2,1.8-0.3,3.6-0.4,5.5l1.5,1.7c0.4,0.4,0.7,0.8,1.1,1.2
	c0.7,0.8,1.3,1.6,2,2.4c1.4,1.7,2.8,3.4,4.4,5c1.5,1.5,3.4,3.5,5.7,4.9c4.6,2.8,9.4,2.7,13.8-0.5c1.6-1.1,3-2.6,4.4-4.1l0.6-0.6
	c1-1.1,2-2.3,2.9-3.5c0.4-0.5,0.8-1,1.3-1.6l0.2-0.3l1.1,0.5l0,2.4c0,1.6,0,3.1,0,4.7c0,5.1-0.9,9.6-2.6,13.7
	c-0.7,1.6-1.4,3-2.1,4.1c-2.4,3.7-4.9,4.7-9.1,3.4c-1.5-0.5-3-1.2-4.2-2c-5.9-4.1-10.7-8.3-14.8-12.6c-1.1-1.2-2.2-2.5-2.6-3.9
	c-1.3-4.3-2.4-8.8-3.2-13.6l-0.2-1.1c-0.1,1.5-0.1,3-0.1,4.5c0,1.3-0.1,2.6-0.1,3.9c0,1.2,0,2.4,0,3.6c0,0.5,0,1.1,0,1.6v0.4
	l-0.4,0.1c-1.8,0.5-28.8,0.6-32.8,0.2l-0.4,0l-0.3-2.4c-0.2-1.5-0.4-3-0.6-4.5c-0.2-1.9-0.4-3.9-0.6-5.8c-0.4-4-0.8-8.2-1.4-12.3
	c-0.5-3.6-1.4-7.2-2.3-10.7l-0.2-0.9c-0.4-1.5-0.1-2.7,0.8-4c0.7-0.9,1.4-1.9,2.2-2.9c0.3-0.5,0.6-0.9,1-1.4l0.2-0.3l0.4,0.1
	c11.2,4.5,22.9,4.5,34.6,0l0.4-0.2l0.2,0.4c0.2,0.4,0.5,0.9,0.7,1.3c0.5,0.8,0.9,1.6,1.4,2.4c0.6,1,1.3,1.6,2,1.6
	c0.7,0.1,1.4-0.3,2.2-1.2l0.1-0.1c0.8-0.8,1.5-1.7,2.2-2.5c4.1-4.9,9.4-8.7,15.6-11.2c2.2-0.9,4.6-1.7,6.8-2.5
	c1.6-0.6,3.1-1.1,4.7-1.7c1.2-0.5,2.2-0.3,3.3,0.5c1.1,0.8,2.2,1.4,3.4,2.1c13.4,7.7,22.6,19.8,27.4,36c4.2,14.5,3.5,29.4-2.1,45.5
	c-0.7,2.1-1.4,3.8-2.1,5.4c-0.4,0.8-0.9,1.4-1.5,2.1l-0.3,0.3c-0.5,0.6-1.1,0.8-1.7,0.8c-0.6,0-1.1-0.2-1.3-0.3
	c-5.6-2.4-11.3-4.9-16.9-7.3l-9.5-4.1c-0.2-0.1-0.4-0.2-0.5-0.3c-0.1-0.1-0.2-0.1-0.3-0.2l-0.4-0.3l0.7-1.2c0.4-0.6,0.7-1.2,1.1-1.8
	C526.4,315.3,528.4,307.4,528,298.2z M406.5,242.2l3.1,0.5l-0.5,0.7c-0.2,0.2-0.3,0.4-0.5,0.6c-0.3,0.3-0.5,0.6-0.8,0.9
	c-3.1,2.8-6.2,5.6-9.2,8.4c-11.7,10.5-18.8,23.9-21,40c-1.4,10-0.5,20.4,2.7,31.8c0.8,2.8,1.6,5.6,2.4,8.6l1.4,5.1l-44.7-11.6
	l0.1-0.5c0.1-0.9,0.3-1.8,0.4-2.6c0.3-1.9,0.6-3.7,0.9-5.5c3.9-20.5,13.8-39.1,29.3-55.1c7.2-7.5,15.9-14.3,26.4-20.8
	c1.8-1.1,3.5-1.5,5.3-1.3C403.4,241.6,404.9,241.9,406.5,242.2z M403.3,238.7l0.8-0.6c0.2-0.1,0.3-0.2,0.4-0.3
	c0.3-0.2,0.5-0.4,0.7-0.5l2.8-1.1c3.6-1.5,7.3-3,11-4.4c2.8-1.1,4.7-0.5,6.3,2c1.7,2.7,3.4,5.4,5,8.1c0.7,1.2,1.4,2.3,2.1,3.5
	l0.2,0.4l-0.9,0.9L403.3,238.7z M378.8,309.3c-3.3-26.3,10-51.8,33.1-63.5c1.5-0.8,2.8-0.8,4.2-0.2c1.8,0.7,3.6,1.4,5.4,2.1
	c2.4,0.9,4.9,1.9,7.3,2.9c3.1,1.3,6.2,3.4,9.7,6.4c2.3,2,3.6,4.7,5,7.5c0.3,0.6,0.6,1.2,0.9,1.9l0.5,1l-1.1-0.3
	c-0.8-0.2-1.5-0.4-2.2-0.6c-1.5-0.4-2.8-0.8-4.2-1.2c-3.1-1-5.9-1.2-8.7-0.6c-2.8,0.6-5.3,2.1-7.7,4.5c-5,4.9-8.4,11.2-10.1,18.7
	c-3.1,13.5-1,25.8,6.2,36.5c0.2,0.3,0.5,0.7,0.7,1c0.1,0.1,0.1,0.3,0.2,0.4l0.2,0.4l-0.3,0.2c-1.3,1.2-25.2,11.1-30.3,12.7l-0.5,0.1
	l-0.1-0.5c-0.8-2.8-1.7-5.6-2.6-8.3C382,323.6,379.7,316.6,378.8,309.3z M416.7,319.1c-2.4-4.6-3.8-9.2-4.1-13.9
	c-0.1-2-0.2-4.1-0.3-6.3c0-1-0.1-2.1-0.1-3.3l-0.1-1.3l0.9,0.9c0.6,0.6,1.2,1.2,1.8,1.7c1.2,1.1,2.2,2.1,3.1,3.1
	c1.7,1.7,3.8,3.7,6.5,4.9c3.6,1.7,7.1,1.7,10.7,0c2.4-1.1,4.7-2.8,6.9-5.2c1-1.1,2-2.2,2.9-3.2c0.7-0.8,1.4-1.5,2-2.3
	c0.4-0.5,1-0.9,1.9-1.2l0.7-0.2l-0.1,0.8c-0.1,1.1-0.3,2.3-0.4,3.4c-0.3,2.6-0.6,5.3-1.1,7.9c-0.5,2.8-2.2,5.2-4.9,6.8
	c-2.7,1.6-4.9,3.9-6.9,6l-0.1,0.1c-1.4,1.5-2.8,3.1-4.5,4.3c-1.3,0.9-2.9,1.8-4.8,2.4c-0.8,0.3-1.6,0.4-2.4,0.4
	c-1.9,0-3.6-0.8-5.2-2.3C418.3,321.5,417.4,320.3,416.7,319.1z M506,245.1l0.2-0.3c0.7-1.1,1.5-2.3,2.2-3.4c1.8-2.8,3.6-5.6,5.5-8.4
	c1.2-1.8,3.3-2.5,5.3-1.7c3.9,1.5,7.8,3.1,11.6,4.6l3.5,1.4c0.2,0.1,0.4,0.3,0.4,0.5c0,0.1,0.1,0.1,0.1,0.2l0.4,0.6l-28.4,7.4
	L506,245.1z M553.2,338.6c0.1-0.3,0.1-0.6,0.2-0.8c0.1-0.5,0.2-0.9,0.3-1.3c0.5-1.8,1.1-3.7,1.7-5.5c1.2-3.8,2.5-7.7,3.3-11.7
	c4.2-19.5,1.3-37.5-8.6-53.3c-4.1-6.6-9.5-12.3-16.1-17c-2.1-1.5-3.6-3.4-5.2-5.7l-0.3-0.5l0.5-0.2c3.3-1.5,7.3-2.8,11.7-1
	c1.2,0.5,2.2,1,3,1.6c17,11.4,29.9,24.1,39.4,38.7c7.2,11.1,12.2,23.2,14.9,36c0.4,2,0.7,4,1,6.1c0.1,1,0.3,2,0.4,3l0.1,0.4
	l-46.5,12L553.2,338.6z M599.3,304.8c-3.3-7.4-6.7-14.8-10-22.1c-0.7-1.6-1.6-3.1-2.6-4.5c-13-18.7-28.2-32.5-46.3-42.3
	c-5.9-3.2-12.2-5.8-17.6-8.1c-3.7-1.5-5.4-3.8-5.4-7.4c0-1.6-0.3-3.1-0.9-4.7c-1.6,2.5-2.6,5-3.4,7.2c-4.4,12-11.9,21.5-22.5,28.3
	c-7.1,4.5-14.6,6.8-22.5,6.6c-7.2-0.1-14.1-2.3-20.6-6.5c-8.1-5.2-14.4-12.7-19-22.1c-1.2-2.4-2.1-5-3.1-7.4l-0.7-1.7
	c-0.6-1.6-1.2-2.9-2.1-4.2l-0.4,1.5c-0.5,1.8-1,3.4-1.4,5.1c-0.7,2.5-2.2,4.1-4.8,5.1c-26.4,10.3-48.2,28-64.9,52.5
	c-0.6,0.9-1,1.8-1.4,2.7c-3.1,6.8-6.1,13.6-9.2,20.4l-5,11.1c-0.2,0.5-0.5,1-0.7,1.5l-0.6,1.3l-0.5-0.4c-4.3-3.2-6.9-7.4-7.8-13
	c-1.5-9.1-0.2-17.9,3.8-26.2c0.7-1.5,1.3-2.9,1.9-4.1c3.8-8.7,8.8-15.5,15.2-20.7c14.4-11.8,27.3-25.2,38.3-36.8
	c0.3-0.4,0.7-0.7,1-1c0.7-0.7,1.3-1.4,1.9-2.1c6.8-7.8,15.2-15.2,25.7-22.4c1.4-1,3-1.7,4.6-2.6c0.8-0.4,1.6-0.8,2.4-1.2l0.5-0.3
	l2,6.8c0.8,0.1,1.5-0.3,2-1.3c0.2-0.4,0.4-0.7,0.6-1.1c0.9-1.6,1.8-3.2,2.3-4.8c3.6-11.6,8.1-20.6,14.1-28.3
	c3.8-4.9,7.4-8.4,11.4-11.1c4.1-2.8,8.2-4.5,12.5-5.2c5.9-1,11.7,0.1,17.4,3.2c4.8,2.6,9.2,6.4,13.4,11.7c5,6.3,9,13.9,12.7,24
	c0.4,1,0.8,2.1,1.2,3.1c0.6,1.6,1.3,3.3,1.8,5c0.5,1.6,1.4,2.3,2.8,2.6l3.4-5.6l0.4,0.2c0.1,0.1,0.2,0.1,0.3,0.1
	c0.3,0.1,0.5,0.2,0.8,0.4c1.5,1.1,3,2.1,4.5,3.2c3.9,2.8,8,5.6,11.8,8.6c3.5,2.7,6.8,5.8,9.2,8.1c8,7.9,16.2,15.9,24,23.7
	c4.3,4.3,8.7,8.6,13,12.9c1.7,1.7,3.5,3.4,5.3,5.1c2.8,2.7,5.7,5.5,8.4,8.3c6.3,6.4,11.4,14.5,15.4,24.6c3.2,8,4,15.7,2.4,23.3
	c-1.1,5.4-3.9,9.9-8.5,13.7l-0.5,0.4l-0.7-1.4c-0.3-0.6-0.6-1.1-0.8-1.7L599.3,304.8z M505.2,158.1l1.1,0.4
	c41.4,15.5,70.4,44.1,88.4,87.2l0.5,1.3l-1.2-0.7c-0.1,0-0.1-0.1-0.2-0.1c-0.2-0.1-0.4-0.2-0.5-0.3c-1.9-1.7-3.9-3.4-5.8-5
	c-6.9-5.9-14.1-12.1-20.3-19.1c-6.8-7.6-13.7-14.8-20.1-21.6c-8.2-8.6-17.5-15-27.6-19.1c-2.8-1.2-5-3.2-6.6-6.2
	c-1.3-2.4-2.4-4.9-3.5-7.3l-0.7-1.6c-0.7-1.5-1.3-3-2-4.6c-0.3-0.7-0.7-1.5-1-2.3L505.2,158.1z M598.1,238.9
	c-0.3-0.4-0.5-0.8-0.8-1.2c-1.1-1.9-2.2-3.7-3.3-5.6c-2.6-4.3-5.3-8.8-7.8-13.2c-12.8-22.3-31.4-40.7-55.4-54.5
	c-1.1-0.6-2.2-1.3-3.4-1.9l-1.8-1l0-0.2c0-0.1,0-0.2-0.1-0.2c-0.1-0.2-0.1-0.4-0.1-0.7c0.6-3.9-0.7-7.5-2.1-10.9
	c-4.9-11.6-13.3-20.6-25-26.5c-1.7-0.9-3.6-1.7-5.4-2.4c-0.8-0.4-1.7-0.7-2.5-1.1l-3.2-1.4l34.2-28.8l0.3,0.3
	c0.7,0.7,1.4,1.5,2.2,2.2c1.6,1.5,3.1,3,4.4,4.6c21.1,25.3,38.2,54,52.2,87.8c6.4,15.4,11.7,31.7,16.3,46.1c0.9,2.8,1.9,5.8,2.5,8.9
	l0.5,2.5L598.1,238.9z M494,125.8c8.9,4,16.2,10.4,22.2,19.6c2.6,4,3.8,8.6,5,13.1l0.2,0.9l-0.9-0.3c-1.6-0.6-3.2-1.2-4.8-1.8
	c-3.5-1.4-6.8-2.6-10.2-3.8c-4.6-1.5-8.7-3.9-12.5-7.2c-2.2-1.9-4.8-3.8-7.8-5.8c-4.9-3.2-10.3-4.7-16.1-4.6c-4,0.1-8,1.1-12.2,3.1
	c-4.4,2.1-8.4,4.9-12,8.3c-2.4,2.3-4.7,3.8-7.1,4.8c-4,1.6-8.1,3-12.3,4.6c-1.7,0.6-3.5,1.3-5.3,1.9l-0.7,0.3l0.1-0.8
	c0-0.5,0.1-1,0.1-1.5c0.3-3.2,0.5-6.2,2.7-8.9c1.6-1.9,3.1-3.9,4.6-5.9c1.5-2,3.1-4,4.7-6c1.2-1.5,2.8-2.7,4.2-3.7
	c7.8-6,17-9.7,27.3-10.8C474.1,120,484.5,121.5,494,125.8z M420,163.4c4-1.7,8.1-2.7,12.7-3.7l0.8-0.2l-0.2,0.8
	c0,0.2-0.1,0.4-0.1,0.5c0,0.3-0.1,0.5-0.2,0.7c-0.8,1.8-1.7,3.6-2.5,5.4c-1.4,3.1-2.8,6.1-4.2,9.2c-1.1,2.4-2.9,4.1-5.3,5.1
	c-13.8,5.7-24.3,15.4-32,23.2c-9.7,9.9-19.5,19.9-29.1,29.5c-3.9,3.9-7.8,7.8-11.6,11.8c-0.3,0.3-0.6,0.5-0.8,0.8l-1.7,1.5l0.5-1.7
	c2.2-8.1,4.5-16,8.6-23c4.1-6.9,8.9-13.6,14.5-20c10.5-12,21.9-22.4,34-30.7C409.1,168.7,414.5,165.7,420,163.4z M413.5,161.6
	l-0.3,0.1c-21.6,11.5-40.1,27.8-55.1,48.5l-0.6,0.8l-0.3-1c-2.7-9.4-3.8-18.9-4.8-28.1c-0.5-4.9-1.1-9.9-1.9-14.9l-0.1-0.5
	l63.1-13.4V161.6z M518.4,41.9c0.1-0.9,0.3-1.8,0.4-2.8l0.1-0.9l0.7,0.6c0.7,0.7,1.4,1.3,2.1,1.9c1.4,1.2,2.7,2.4,3.9,3.7
	c4.1,4.5,5.6,10.2,4.4,17c-1,5.7-3.2,11.1-6.9,16.7c-5.2,7.9-12,15.5-21,23.1c-5.4,4.6-11.5,9-19,13.9c-1.1,0.7-2.2,1-3.4,1
	c-3.1-0.1-6.3-0.1-9.6,0c-6.9,0.1-13.6,1.1-19.9,3.1c-0.4,0.1-0.7,0.2-1.1,0.3c-0.1,0-0.2,0-0.2,0c-0.1,0-0.2,0-0.3-0.1
	c-0.1,0-0.2-0.1-0.3-0.1l-0.2-0.1l-2.4-5.7l1.1-0.6c0.5-0.3,1-0.6,1.5-0.8c15.1-7.4,28-15.6,39.6-24.9c8.1-6.5,14.2-12.6,19.3-19.1
	c5.5-7.1,8.9-14,10.3-21.1C517.9,45.4,518.1,43.7,518.4,41.9z M271.9,101c1.7-5.5,4.7-11,9.4-17.1c6.3-8.1,14-14.5,20.8-19.6
	c20.1-15.4,42.8-27.3,69.2-36.4c17.2-5.9,34.6-10.4,51.8-13.3c13.7-2.3,26.5-3.1,39-2.5c13.9,0.7,25,3,34.7,7.2
	c3.5,1.5,6.2,3,8.5,4.6c8.4,6,11.7,15.5,8.8,25.5c-0.7,2.5-1.8,5-3.2,7.8c-4.7,9-11.4,17.2-21.1,25.8c-10.4,9.2-22.4,17.2-36.7,24.5
	c-25.1,12.7-51,22.1-76.8,27.7c-13.3,2.9-26.6,4.8-39.4,5.6c-1.1,0.1-2.2,0.2-3.3,0.2l-1.1,0.1l0,0.3l-0.5-0.1c-1-0.1-2-0.2-3-0.3
	c-2.2-0.2-4.5-0.5-6.7-0.8c-1.7-0.2-3.4-0.5-5.1-0.7c-5.7-0.8-11.6-1.6-17.4-2.6c-7.2-1.3-13.9-4.4-20-9.4
	C271.5,120.7,268.7,111.3,271.9,101z M268.4,126.1c0.1-0.9,0.2-1.8,0.3-2.8l0.1-0.8l0.7,0.4c0.3,0.2,0.5,0.3,0.7,0.4
	c0.4,0.3,0.7,0.4,1,0.7l0.7,0.6c1.2,0.9,2.4,1.9,3.6,2.9c7.8,6.7,17.2,10.9,28.9,12.9c9.8,1.7,20.3,2.2,33.1,1.7
	c26-1,52.4-6.8,83-18.2c2.3-0.9,4.8-1.8,7.6-2.9c1.7-0.7,3.4-1.4,5.2-2.1l2.9-1.2l0.5,0.9c0.2,0.3,0.4,0.6,0.5,0.9
	c0.4,0.9,0.9,1.7,1.3,2.6l0.7,1.4L439,124c-0.1,0.1-0.2,0.2-0.3,0.3c-0.2,0.2-0.4,0.4-0.7,0.5c-7.9,4.8-14.5,11.5-19.7,20
	c-0.9,1.5-2.1,2.4-3.7,2.8c-2.5,0.7-4.9,1.3-7.3,2c-9.9,2.7-20,5.5-30.3,7.6c-16.9,3.4-31.4,5-45.2,5c-1.9,0-3.7,0-5.6-0.1
	c-8.2-0.3-19-0.9-29.8-3.7c-7.1-1.9-13.5-4.9-18.9-8.9c-1.4-1-2.6-2.1-3.7-3.1c-4.2-4.1-6.2-9-5.9-14.6
	C267.9,129.9,268.1,128.1,268.4,126.1z M273.7,254.5c-2-8.6-4-17.4-5.6-26.2c-1.7-9.2-2.5-18.4-3.2-26.2c-0.7-8.1-1-16.9-1.2-27.1
	c-0.1-8.1-0.1-17.4,2.1-26.6c0-0.2,0.1-0.4,0.2-0.6l0.3-1.1l0.6,0.4c0.2,0.1,0.4,0.3,0.6,0.4c0.4,0.2,0.7,0.4,1,0.7
	c1,0.8,1.9,1.6,2.9,2.4c1.9,1.6,3.8,3.2,5.8,4.8c1.2,1,1.7,2,1.8,3.6c0.1,4.6,0.2,9.1,0.3,13.7c0.1,3.5,0.2,7,0.2,10.5
	c0.3,18.7,1.8,35.6,4.6,51.7c0.3,2,0.6,4,0.9,6c0.4,2.7,0.8,5.5,1.3,8.2c0.8,4.1,1.9,8.2,2.9,12.2c0.3,1.4,0.7,2.7,1,4.1
	c0.5,2.2,1.1,4.3,1.7,6.6l1,3.6l-0.4,0.1c-0.9,0.3-1.7,0.6-2.6,0.9c-1.9,0.7-3.8,1.4-5.7,1.9c-0.6,0.2-1.2,0.3-1.7,0.3
	c-1.9,0-3-1.1-3.6-3.5c-1.2-4.4-2.2-8.2-3-11.9C275,260.2,274.4,257.3,273.7,254.5z M271.7,287.7c0.1-0.1,0.2-0.2,0.3-0.2
	c0.2-0.2,0.4-0.3,0.6-0.4c2.4-0.7,4.7-1.5,7.1-2.2c3.6-1.1,7.3-2.3,10.9-3.4c1.8-0.6,3.5-0.4,5,0.7c1.3,0.9,2.6,1.7,3.6,2.9
	c5.9,6.3,9.4,14.2,10.3,23.3c0.3,3.3,0.4,6.6,0.4,9.4c0,3.9-1.9,6.8-5.5,8c-5.1,1.8-10.2,3.4-15.5,5.2c-2.2,0.7-4.5,1.5-6.8,2.2
	l-0.7,0.2l0.1-0.7c0.5-7-0.1-14.3-1.9-23c-1.1-5.5-3.4-10.7-5.7-15.6c-0.8-1.8-1.7-3.7-2.4-5.6l-0.1-0.4L271.7,287.7z M136.4,281.8
	c11.8-7.7,21.8-13,31.6-16.6c13.2-4.9,25.8-6.8,38.5-6c15.3,1,29.1,5.3,41.2,12.9c14.4,9,23.7,22.5,27.7,40
	c2.3,10.2,1.6,20.2-2,29.7c-0.4,1.1-0.8,2.2-1.2,3.3c-0.8,2.1-1.5,4.3-2.5,6.4c-3.6,7.9-9,14.5-16.1,19.6
	c-14.7,10.5-29.2,17.5-44.2,21.2c-7.1,1.8-13.6,2.8-20,3c-0.8,0-1.7,0.1-2.5,0.1c-14.8,0-26.8-6-35.6-17.8
	c-3.1-4.2-5.9-8.8-8.6-13.2c-0.6-0.9-1.1-1.8-1.7-2.8c-1.8-3-3.6-6.1-5.3-9c-1.2-2.1-2.4-4.2-3.7-6.3c-1-1.7-2.1-3.3-3.2-4.7
	c-4.4-5.6-10.1-7.5-17-5.4c-3.7,1.1-7.5,2.3-11.1,3.5c-1.8,0.6-3.7,1.2-5.5,1.8c-0.6,0.2-1.2,0.4-1.9,0.5c-0.4,0.1-0.7,0.2-1.1,0.3
	l-0.9,0.3l0.3-0.9C100.4,315.5,115,295.8,136.4,281.8z M253.4,376.7l-3.3,3.4c-16,16.9-48.6,30.9-66.7,35.4c-4.2,0.7-8.6,1-13.1,1
	c-8,0-16.5-1.1-25.7-3.2c-6.9-1.6-13-3.7-18.6-6.5c-5.6-2.8-10.2-6.4-14.2-11l-0.5-0.6l0.7-0.2c1.6-0.5,3.1-1,4.6-1.5
	c3.6-1.2,6.9-2.2,10.3-3.4c2.8-0.9,5.5-1.9,8.2-2.9c1.4-0.5,2.8-1,4.2-1.5l0.7-0.2c0.8-0.3,1.7-0.6,2.6-0.8
	c4.4-1.2,8.3-0.3,11.6,2.6c0.5,0.4,0.9,0.8,1.3,1.3c0.3,0.2,0.5,0.5,0.8,0.7c5.9,5.5,12.8,8.7,20.6,9.5c1.3,0.1,2.7,0.4,4.5,0.8
	c33.3-0.8,50.1-8,67.9-20.3L253.4,376.7z M67.9,349.6c4.3-11.6,12.3-20.7,25.9-29.5l1.1-0.7l-0.3,1.3c-0.1,0.2-0.1,0.5-0.2,0.7
	c-0.1,0.4-0.2,0.8-0.3,1.2c-0.8,2.2-1.7,4.5-2.5,6.7c-1.4,3.6-2.8,7.3-4.1,11c-1.2,3.4-3.3,5.4-6.3,6.3c-2.3,0.7-4.6,1.4-6.9,2.1
	c-1.4,0.4-2.9,0.9-4.3,1.3c-0.3,0.1-0.6,0.2-1,0.2c-0.1,0-0.3,0.1-0.5,0.1l-0.9,0.2L67.9,349.6z M37.3,406c-0.2,0.5-0.4,1.1-0.5,1.6
	c-0.9,2.8-1.7,5.5-3.9,7.6c-1.1,1-2.4,1.6-3.8,1.6c-1.1,0-2.2-0.3-3.2-1c-0.9-0.6-1.8-1.4-2.4-2.2c-5.7-7.4-8.9-14.2-10.2-21.4
	c-0.9-4.9-1-8.6-0.3-12.1c0.3-1.3,0.9-2.8,1.8-4.5c1.1-2,3.1-2.7,5.5-2.2c2.1,0.5,3.9,1.5,5.4,3c4.3,4.5,7.3,9.9,8.9,16
	c0.8,3.1,1.4,6.2,1.9,9.2c0.3,1.4,0.5,2.7,0.8,4.1l0,0.1L37.3,406z M38.8,414.7V414c0-0.9,0-1.7,0-2.5c0-1.7-0.1-3.3,0.1-4.8
	c0.6-8.2-1.7-16.1-7.2-25.9c-1-1.8-2.3-3.5-3.5-5.1c-0.5-0.7-1.1-1.4-1.6-2.1c-0.3-0.5-0.7-0.9-1.1-1.4c-0.2-0.3-0.5-0.5-0.7-0.9
	l-0.4-0.5l0.6-0.2c0.9-0.3,1.7-0.7,2.5-1c1.7-0.7,3.4-1.3,5.1-1.9c12.5-4.2,25.1-8.4,37.6-12.6c7.5-2.5,14.9-5,22.4-7.5
	c3.5-1.2,6.9-2.3,10.4-3.5c3-1,5.9-2,8.9-3c1.2-0.4,2.2-0.7,3.1-0.8c4.3-0.9,7.7,0.6,9.9,4.3c0.6,1,1.2,1.9,1.8,2.9
	c1.5,2.4,3,4.9,4.4,7.4c4.8,8.7,9.1,15.7,13.5,22c0.2,0.3,0.3,0.5,0.6,0.9l0.7,1.2L38.8,414.7z M71.5,464.9
	c-4.9-7.2-7.5-14.4-8.1-22.3c-0.5-6.8-0.9-13.6-1.2-20.3c-0.1-2.7-0.3-5.5-0.5-8.2c0-0.2,0-0.5,0-0.8c0-0.2,0-0.3,0.1-0.6l0-0.3
	l4.7-1.6c3.2-1.1,6.5-2.3,9.7-3.4c1.4-0.5,2.8-1,4.2-1.5c4.1-1.4,8.4-2.9,12.4-4.6c7.1-2.9,13.6-2.3,20,2
	c7.6,5.1,15.6,9.3,23.6,12.4c11.8,4.6,23.8,6.6,35.5,6c11.1-0.6,22.1-3.5,32.7-8.8c42.5-18.1,54.5-34.3,63.1-49.3
	c1.8-3.2,3.7-6.3,5.7-9.6l2.8-4.6l0.4,0.7c0.2,0.3,0.3,0.6,0.5,0.8c0.3,0.4,0.5,0.8,0.6,1.1c5.5,11.4,8.1,24,7.8,38.6l0,0.9
	c0,0.7,0,1.3,0,2c0.1,5.1-0.9,10-3.2,15.1c-1.2,2.6-1.9,5.6-2.6,8.4c-0.2,0.8-0.4,1.5-0.6,2.3c-2.9,11.1-5.3,20.5-7.7,29.9
	c-0.5,2.2-0.8,4.5-1,6.7l-0.1,1.3c-0.5,4.7-2.3,8.8-5.3,12.4c-1.9,2.3-3.6,4-5.3,5.4c-16.2,13.3-32.9,22.1-51.1,27
	c-9.9,2.7-20.3,4-31.8,4c-0.9,0-1.8,0-2.8,0c-15.1-0.3-27.7-1.6-39.4-4.1c-13.9-3-26.1-7.4-37.1-13.5
	C86.6,482.3,78.1,474.6,71.5,464.9z M197.3,651.5c0.1-0.8,0.3-1.7,0.4-2.5c0.3-1.8,0.6-3.7,0.9-5.5c0.7-3.5,1.3-7.1,1.9-10.6
	c1.5-8.3,3-16.9,4.9-25.2c4.2-17.9,9-35.3,14.3-51.5c1.4-4.4,3.7-7.9,6.9-10.8c3.5-3.1,6.6-6.9,9.2-11.1c0.1-0.2,0.3-0.5,0.4-0.8
	c-0.2,0-0.3,0.1-0.5,0.2c-0.5,0.3-1.1,0.6-1.6,1c-1.6,1-3.3,2-4.9,3.1c-2.8,2-5.6,4.1-8.3,6.1c-2.5,1.9-5,3.7-7.6,5.6
	c-8.1,5.8-15.3,9.6-22.8,11.9c-6.3,1.9-12.9,3.1-19.6,3.5c-5.9,0.4-12.2,0.7-18.5,0.2c-22-1.6-40-11.4-53.7-29
	c-7.5-9.7-12.7-21.1-15.7-34.9c-0.8-3.8-1.6-7.7-2.4-11.5c-0.3-1.6-0.6-3.1-0.9-4.7c0-0.2-0.1-0.4-0.1-0.8c0-0.2,0-0.4,0-0.7l-0.1-1
	l0.8,0.5c0.3,0.2,0.6,0.4,0.9,0.6c0.5,0.3,1,0.6,1.4,0.9c16.5,12.1,35.4,19.7,57.7,23.3c6.7,1.1,14.7,2.3,22.8,3
	c3.7,0.3,7.5,0.2,11.1,0.1c1.6,0,3.3-0.1,4.9-0.1c23.8-0.1,46.9-7.1,68.6-20.6c4.9-3.1,9.8-6.9,15.8-12.3c0.5-0.5,1.1-1,1.8-1.5
	l2.1-1.8l-0.1,1.2c0,0.5-0.1,1-0.1,1.4c0,0.8-0.1,1.4-0.1,2.1c-2,19.6-5.2,39.4-8.4,58.5c-0.6,3.4-1.1,6.8-1.7,10.3
	c-1.2,7.2-2.3,12.9-3.5,18.1c-2.3,9.8-6.9,19.1-13.6,27.8c-9,11.7-17.6,24-25.8,35.9c-4.6,6.7-9.4,13.6-14.2,20.3
	c-0.5,0.7-1,1.3-1.9,1.9l-0.9,0.6L197.3,651.5z M171.6,720.4c2.8-9.1,5.9-17.2,9.7-24.8c1.6-3.2,3.1-6.4,4.7-9.6
	c2.6-5.3,5.2-10.7,8-16c5.3-10.1,11.9-19.7,18.3-29l1.1-1.7c10-14.5,19-27.4,27.7-39.4c10.8-14.9,17.8-31.6,20.7-49.8
	c1.6-10,3-20.3,4.4-30.2c0.5-3.8,1-7.6,1.5-11.3c0.7-5,1.3-10.1,2-15.1c1.6-12.5,3.3-25.4,5.6-38.1c3.9-21,8.8-38,15.4-53.4
	c1.5-3.6,3.5-7.3,5.8-11.1c2.5-4.1,5.1-8.2,7.6-12.2c2.2-3.5,4.5-7,6.6-10.6c1.5-2.5,3.6-4.1,6.2-6.3l0.7-0.5l0.2,0.8
	c3,17.5,12.3,30.5,28.6,39.7l0.5,0.3l-0.8,1.3c-0.4,0.6-0.7,1.1-1,1.6l-4.1,6.4c-3.5,5.4-7,10.8-10.5,16.2c-0.8,1.2-1.4,2.4-1.9,3.7
	c-8.6,21-14.4,42.6-17.3,64c-1.2,8.8-2,17.7-2.8,26.4l-0.1,0.8c-0.4,4.5-0.7,9-1.1,13.5c-0.5,7.3-1.1,14.8-2,22.2
	c-2.4,20.1-8.3,39.9-17.4,58.7c-8.7,17.9-19.7,34.1-32.9,48.3c-7,7.6-13.1,14.9-18.7,22.2c-8.5,11.3-14.2,24.2-17.3,39.4
	c-1.6,8-3.1,16.1-4.3,23.1c-0.3,1.7-1,3-2.4,4.1c-14.4,11.6-27.2,24.3-38,37.7c-0.3,0.4-0.6,0.7-1,1.1c-0.2,0.2-0.4,0.4-0.6,0.6
	l-0.5,0.5l-0.3-0.6c-2-3.8-3.1-6.9-3.8-10.1C163.9,762.8,165,742.3,171.6,720.4z M432.6,841.7c-0.2,0.3-0.4,0.6-0.6,0.9
	c-0.4,0.5-0.6,1-0.9,1.4c-6.5,8.7-15,16.3-26.7,24.1c-13.5,8.9-28.3,15.2-39.8,19.7c-19.9,7.8-41.3,14.1-63.5,18.6
	c-16.2,3.3-32.2,4.9-47.9,4.9c-4.8,0-9.7-0.2-14.4-0.5c-16.7-1.1-29.2-3.2-40.7-6.7c-12.8-3.9-23.7-9.4-33.1-16.8
	c-7.7-6-12.4-13.5-14-22.3c-1.1-5.8-0.7-11.9,1-19.2c3-12.3,8.3-24.2,16.2-36.3c18.3-28.2,42.1-50.8,70.8-67.3l0.4-0.2
	c0.8-0.4,1.6-0.9,2.4-1.3c2.3-1,4.3-0.5,5.9,1.5c0.3,0.3,0.5,0.7,0.7,1c14.6,22.1,33.7,40.4,58.3,55.8c13.3,8.3,27.9,15.6,46.2,23.1
	c4.9,2,10.1,3.3,15.1,4.5c1.2,0.3,2.4,0.6,3.7,0.9c14.3,3.6,29,7.4,43.9,10.9c3.3,0.8,6.8,1.2,10.2,1.7c1.6,0.2,3.1,0.4,4.7,0.6
	c0.3,0,0.6,0.1,1,0.1l1.7,0.2L432.6,841.7z M475.2,838.1c-1.8,0-3.5,0-5.3,0c-35.2,0-68.9-5.1-100.5-15.1
	c-16.8-5.3-32.6-12.2-47.1-20.4c-3.1-1.8-6.2-3.5-9.3-5.2c-1.9-1-3.7-2.1-5.6-3.1c-0.6-0.4-1.4-0.8-1.9-1.7l-0.7-1.1l5.6,1.4
	c3.3,0.8,6.5,1.6,9.8,2.5c19.6,5.1,37.9,9.1,56.2,12.1c14.4,2.4,29.1,4.2,43.7,5.6c23.6,2.1,45.1,2.8,65.8,2
	c13.7-0.5,26.1-1.2,37.8-2.3c29-2.6,59.1-7.8,89.4-15.4l20.8-5.2l0.5,1l-0.3,0.3c-0.1,0-0.1,0.1-0.2,0.1c-0.1,0.1-0.3,0.3-0.5,0.4
	c-2.7,1.4-5.3,2.9-8,4.3c-10.4,5.7-21.2,11.6-32.4,16.3c-19.3,8.2-39.9,14.2-61.3,18.1C513.3,836,494.2,837.8,475.2,838.1z
	 M784.4,832.8c3.6,8.3,5.4,16.3,5.6,24.6c0.3,11.4-4,20.8-12.9,28.7c-7.5,6.6-16.5,11.7-27.5,15.7c-8.8,3.2-18.2,5.4-29.9,7.2
	c-10.4,1.6-21,2.4-31.5,2.4c-1.5,0-3,0-4.4,0c-13.4-0.3-25.3-1.4-36.6-3.5c-4.6-0.8-9.2-2-13.6-3.2c-2.4-0.6-4.9-1.3-7.4-1.8
	c-13.4-3.1-27.7-6.7-41.6-11.5c-18.8-6.5-35-14.3-49.5-23.7c-10.6-6.9-19.2-14.7-26.2-23.6c-0.3-0.4-0.6-0.7-0.9-1.2l-1.1-1.5
	l4.9-0.7c2.5-0.4,4.9-0.7,7.3-1.1c22.1-3.2,41.8-7.9,60.2-14.4c32.9-11.6,59.8-26.9,82.5-46.9c11.9-10.5,22-22.1,30.1-34.5
	c0.4-0.6,0.8-1.2,1.3-1.8c1.5-1.7,3.4-2.1,5.5-1.3c0.5,0.2,1,0.5,1.5,0.8l0.1,0.1c21.6,12.6,39.2,26.8,53.8,43.4
	C766.6,799.1,776.8,815.2,784.4,832.8z M771.6,784.3c-0.5,2-1.2,4.1-1.8,6c-0.3,0.8-0.5,1.6-0.8,2.5c-0.1,0.2-0.2,0.4-0.4,0.5
	c-0.1,0.1-0.2,0.1-0.3,0.2l-0.4,0.4l-0.9-1c-0.4-0.5-0.8-0.9-1.2-1.4c-12.6-14.9-24.8-27-37.2-36.8c-2.3-1.8-3.3-3.7-3.5-6.5
	c-1-13.8-4.6-27.3-10.8-40.1c-2.3-4.8-5-9.5-7.6-14.1c-1-1.8-2.1-3.6-3.1-5.5c-0.3-0.6-0.8-1.2-1.3-1.8l-0.4-0.5
	c-2.9-3.6-5.8-7.3-8.7-10.9c-6.1-7.7-12.5-15.6-18.7-23.4c-9.3-11.8-16-21.9-21.1-31.8c-8.2-15.9-14-33.4-17.3-52
	c-1.9-10.9-2.7-22.5-3.4-31.7c-1.4-19.9-3.2-41.2-7.6-61.7c-2.5-11.6-6.2-23.7-12.1-39.3c-1.9-4.9-4.1-9.4-6.8-13.6
	c-2.8-4.4-5.6-8.8-8.4-13.4c-1.2-2-2.5-4-3.8-6l-0.3-0.4l0.4-0.3c15.8-9.4,24.8-21.7,27.6-37.6l0.1-0.6l0.6,0.2
	c2.8,0.9,4.9,2.1,6.4,4.5c2.3,3.8,4.8,7.6,7.1,11.3c2.8,4.4,5.7,8.9,8.4,13.5c3.5,5.8,5.9,12.1,8.6,19.1
	c4.8,12.7,8.2,26.2,10.6,41.1c2.5,15.6,4.7,30.9,6.6,43.9c0.7,4.7,1.4,9.6,2,14.2c1.1,7.8,2.2,15.8,3.5,23.7
	c1.4,8.8,3.3,18.3,6,30.1c1.7,7.6,4.8,15,9.6,22.7c4.3,7,8.5,13.2,12.8,19.1l2.2,2.9c11.4,15.6,23.2,31.7,33.3,48.6
	c5.4,9.1,10.4,18,14.7,26.7c2.1,4.1,3.8,8.4,5.5,12.6c1,2.5,2.1,5.2,3.2,7.7c4.2,9.7,7.4,19.7,9.3,29.8
	C775.6,752.2,775.4,768.8,771.6,784.3z M811.2,706.8c-0.2-0.6-0.4-1.1-0.6-1.6c-0.4-1.1-0.8-2.2-1.3-3.3c-2.1-5.1-6.1-8.4-11.9-9.7
	c-1.3-0.3-2.8-0.5-4,0.3c0.1,0.7,0.7,1.1,1.5,1.6c0.5,0.3,0.9,0.5,1.4,0.8c0.8,0.4,1.6,0.9,2.3,1.4l0.5,0.4c1.5,1.1,3,2.3,4.2,3.8
	c1.9,2.5,2.5,5.2,1.8,7.9c-0.7,2.6-2.6,4.6-5.3,5.8c-3,1.3-6.3,2-9.5,2.7c-3.2,0.7-6.4,1.2-9.3,1.4c-0.4,0-0.8,0-1.3,0
	c-1.3,0-2.5-0.1-3.8-0.2c-0.7-0.1-1.5-0.1-2.2-0.2l-0.4,0l-0.1-0.4c-1.5-8.6-4.7-16.6-7.8-24.4c-1-2.4-2-4.9-2.9-7.4l-0.2-0.4
	l0.4-0.2c0.3-0.2,0.6-0.4,1-0.6c0.7-0.4,1.3-0.8,2-1.1c10.6-5.2,19.9-12,27.6-17.9c13.7-10.6,24.1-24.1,30.6-40.1
	c2.2-5.5,3.5-11.3,4.7-17l0.4-1.9c0.7-3.4,1.5-6.9,2.3-10.3l0.7-2.8c0.1-0.3,0.2-0.5,0.4-0.9c0.1-0.2,0.2-0.4,0.3-0.7l0.4-1l0.5,1
	c0.7,1.5,1.4,2.9,2.1,4.3c1.5,3,2.8,5.9,4.1,8.8c6.1,14.5,8,30.2,5.8,46.6c-0.9,6.2-2.1,13.6-4.7,20.6c-5.2,14.1-14.6,25.6-28,34.4
	c-0.2,0.1-0.4,0.2-0.7,0.3c-0.1,0.1-0.3,0.1-0.5,0.2l-0.5,0.2L811.2,706.8z"/>
<path d="M214.3,823.5c2.7-4.3,4.1-8.9,4.1-13.8l-0.1-1.1c-0.1-0.9-0.1-1.7-0.2-2.6c-0.6-5.1-2.6-8.7-5.7-10.3
	c-1.2-0.6-2.5-0.9-3.9-0.9c-2.3,0-4.9,0.8-7.7,2.4c-10.8,6.1-16.2,15.6-16.1,28.4c0,4.5,1.8,8.2,5,10.1c3.1,1.9,7.3,1.8,11.3-0.2
	C206.6,832.5,211.1,828.5,214.3,823.5z"/>
<path d="M747.4,802.7c-2.9-1.7-6.8-3.4-10.7-1.1c-3.8,2.2-4.4,6-4.5,9.9c0.1,0.7,0.2,1.4,0.3,2.1c0.2,1.5,0.4,3.1,0.8,4.6
	c2.5,8.7,8.1,14.5,16.6,17.3c3.8,1.2,7.1-0.2,9-4c1.4-2.8,1.9-5.9,1.5-9.2C759.4,813.8,755,807.3,747.4,802.7z"/>
<path d="M508.8,426.1c1.1-2.6,2.4-5.3,3.8-7.8c8.1-14,18.6-25.3,31.2-33.6c3.2-2.1,6.6-3.2,10.4-3.3c2.2-0.1,4.6-0.3,7.3-0.7
	c9.7-1.5,19-5.3,28.4-11.6c2.3-1.6,4.1-3.7,5.9-6.1c-0.1,0-0.3,0.1-0.4,0.1c-0.6,0.3-1.2,0.6-1.8,0.9c-1.5,0.8-3.1,1.6-4.5,2.5
	c-9.8,6.2-20.4,9.8-31.4,10.7c-14.4,1.1-27.6-2.2-39.3-10c-1.9-1.3-3.3-2.8-4.2-4.9c-0.6-1.2-1.3-2.4-2.2-3.5
	c-1.1-1.3-1.4-1.2-3-0.6c-8.2,3.3-15.6,5.7-22.6,7.5c-11.5,2.9-21.9,2.8-31.8-0.2l-3.1-0.9c-7-2.1-14-4.3-21-6.4
	c-0.6-0.2-1.3-0.4-2-0.6l-0.6-0.2c0,0.1-0.1,0.2-0.1,0.4c-0.1,0.5-0.2,0.9-0.2,1.3c-0.1,2.7-1.3,4.9-3.7,6.6
	c-10.2,7.3-21.5,11.3-33.7,11.8c-13.1,0.5-25.9-2.9-37.9-10.2c-1.8-1.1-3.7-2.1-5.5-3.1l-1.6-0.9c-0.1-0.1-0.3-0.1-0.5-0.2
	c1.1,1.9,2.2,3.3,3.6,4.3c11.1,8.2,23.3,12.9,36.4,13.8c5.3,0.4,9.9,1.9,13.9,4.8c12.1,8.5,21.8,19.3,29.6,33.1
	c1.5,2.6,3.2,5.6,3.1,9.1c0,0,0,0,0,0.1c0,0,0.1,0.1,0.1,0.1c0.2,0,0.3,0,0.5,0c0.5,0,1.1,0.1,1.6,0c1.6-0.3,3.3-0.8,4.8-1.3
	c17.9-5.6,35.8-6.5,53.3-2.6c3,0.7,6,1.5,8.9,2.3c1.4,0.4,2.7,0.8,4.1,1.1C507.5,428.9,507.5,428.9,508.8,426.1z M415.3,396.5
	c-4.4-3.9-8.9-7.9-13.3-11.9l-2.8-2.5c-0.1-0.1-0.2-0.3-0.3-0.5c0-0.1-0.1-0.2-0.2-0.4l-0.3-0.6l2-0.5c0.9-0.2,1.8-0.5,2.7-0.7
	c9.8-2.5,18.8-6.9,26.9-12.9c2.3-1.7,4.6-2.2,7.1-1.5c0.5,0.1,1,0.3,1.5,0.4c1.1,0.3,2.3,0.6,3.4,1c17.7,6.7,35.7,6.8,55.1,0.5
	c1-0.3,2-0.7,2.9-1c3.4-1.4,6.8-1.1,10.3,0.7c6.5,3.4,12.9,6.8,19.4,10.2l8.6,4.5c0.2,0.1,0.5,0.3,0.7,0.4l1,0.6l-0.3,0.4
	c-0.1,0.1-0.1,0.2-0.2,0.3c-0.1,0.2-0.3,0.4-0.5,0.6c-1.5,1.3-2.9,2.6-4.4,3.8c-3.2,2.8-6.6,5.7-9.8,8.7c-1.7,1.6-3.6,1.9-5.8,1
	c-1.4-0.6-2.8-1.3-3.9-1.9c-9.4-5-18-8.4-26.3-10.3c-15.2-3.5-30.9-2.3-46.8,3.5c-5.2,1.9-10.4,4.4-15.8,7.7
	c-0.8,0.5-1.5,0.9-2.3,1.3c-1.3,0.7-2.5,1-3.7,1C418.5,398.5,416.8,397.8,415.3,396.5z M502.1,423.3c-1.8-0.1-3.8-0.3-6-0.7
	c-5.3-1-10.6-2.1-16-3.2c-7.2-1.5-14.8-1.4-23.4,0.3c-3.3,0.6-6.7,1.4-10,2.2c-1.5,0.3-3,0.7-4.5,1c-0.2,0-0.4,0.1-0.6,0.2
	c-0.4,0.1-0.8,0.2-1.3,0.3c-0.7,0.1-1.3,0.2-1.9,0.2c-2.4,0-4-1.1-5.5-3.5c-0.7-1.2-1.4-2.4-2.1-3.6c-0.8-1.4-1.7-2.8-2.5-4.2
	c-1.4-2.2-2.7-4.3-4.1-6.5l-2.1-3.2l0.3-0.3c0.2-0.2,0.3-0.3,0.4-0.5c0.3-0.3,0.6-0.7,0.9-0.9c6.1-5.6,13.5-9.4,22.7-11.8
	c18.9-4.9,37.4-4.4,55,1.6c5.9,2,11.2,5,15.8,8.8c0.4,0.3,0.7,0.6,1.1,1c0.2,0.2,0.3,0.3,0.5,0.5l0.3,0.3l-3.7,5.8
	c-2.9,4.6-5.8,9.2-8.7,13.8C505.6,422.5,504,423.4,502.1,423.3z"/>
<g>
	<path d="M456.8,163.8c0.1-3.3,1-5.8,2.8-8c2.1-2.4,5.1-3.5,7.5-2.5c2.9,1.2,3.9,3.8,3.9,6.6c0,3.6-1.4,6.7-4.3,8.9
		c-1,0.8-2.4,1.3-3.7,1.5c-2.8,0.4-4.8-1.1-5.6-3.8C457,165.5,456.9,164.4,456.8,163.8z"/>
	<path class="st0" d="M462.1,170.9c-2.5,0-4.4-1.5-5.3-4.2c-0.2-0.8-0.4-1.7-0.5-2.3c0-0.2-0.1-0.4-0.1-0.6l0-0.1l0-0.1
		c0.1-3.5,1.1-6.1,3-8.3c2.3-2.6,5.5-3.7,8-2.6c2.7,1.1,4.2,3.5,4.2,7.1c0,3.9-1.5,7.1-4.5,9.3c-1.1,0.8-2.6,1.4-3.9,1.6
		C462.7,170.9,462.4,170.9,462.1,170.9z M457.3,163.7c0,0.2,0.1,0.4,0.1,0.6c0.1,0.6,0.2,1.4,0.4,2.1c0.8,2.5,2.6,3.7,5.1,3.4
		c1.2-0.2,2.5-0.7,3.5-1.4c2.7-2,4.2-4.9,4.1-8.5c0-3.1-1.2-5.2-3.6-6.2c-2.1-0.9-4.9,0.1-6.9,2.3
		C458.3,158.1,457.4,160.6,457.3,163.7z"/>
</g>
<path d="M357.8,121.7c14.4-9.5,29.4-19.3,44.6-28c6.9-4,14.2-4.8,21.2-5.7l0.9-0.1c2-0.3,3.9-0.5,5.8-0.8c10.4-1.9,21-3.6,31.3-5.3
	l2.9-0.5c1.8-0.3,3.7-0.6,5.5-0.9c1.8-0.3,3.6-0.6,5.4-0.9l2.2-1.5l-25.5-14.2l26.6-27.2c-10.5,3.7-21.6,7.6-32.7,11.7
	c-11.2,4.1-20.4,4.4-30.1,1.2c-11.3-3.8-23.1-6.5-34.1-8.8c-3.3,5.1-6.5,10.7-9.6,16l-0.4,0.7c-2.1,3.7-4.7,8-7.2,12.2
	c-2,3.3-5.2,8-9.9,10.6c-11.4,6.5-23.5,13.1-33.2,18.4l-0.6,0.3c-3.1,1.7-6.2,3.4-9.3,5.1h39.7l-13.4,28.8l3.8-0.6
	c3.8-2.4,7.5-4.9,11.3-7.4L357.8,121.7z"/>
</svg>
