<?xml version="1.0" encoding="utf-8"?>
<!-- Generator: Adobe Illustrator 25.0.1, SVG Export Plug-In . SVG Version: 6.00 Build 0)  -->
<svg version="1.1" id="Layer_1" xmlns="http://www.w3.org/2000/svg" xmlns:xlink="http://www.w3.org/1999/xlink" x="0px" y="0px"
	 viewBox="0 0 966.89 895.79" style="enable-background:new 0 0 966.89 895.79;" xml:space="preserve">
<style type="text/css">
	.st0{fill:#595959;}
	.st1{fill:#4D4D4D;}
	.st2{fill:#231F20;}
	.st3{fill:#A4A4A4;}
</style>
<g>
	<path d="M947.1,773.36c0,6,0,12,0,18c-0.35,0.71-0.87,1.38-1.02,2.13c-2.43,12.3-8.54,22.62-18.52,29.89
		c-8.27,6.02-17.16,11.69-26.59,15.52c-34.46,13.98-70.94,17.29-107.67,18.64c-15-0.05-30.01-0.12-45.01-0.12
		c-0.73,0-1.45,0.62-2.18,0.95c-4,0-8,0-12,0c-0.84-0.35-1.66-0.94-2.53-1.01c-17.1-1.34-34.23-2.27-51.29-3.99
		c-39.14-3.94-77.98-9.91-115.76-21.14c-13.17-3.92-25.98-9.3-38.55-14.93c-8.72-3.9-16.32-9.76-19.84-19.42
		c-0.27-0.74-1.32-1.68-2.03-1.7c-4.32-0.16-8.66-0.15-12.99,0.01c-0.7,0.03-1.7,1.01-1.98,1.76c-3.25,8.91-10.1,14.55-18.12,18.44
		c-9.99,4.86-20.2,9.58-30.77,12.92c-52.91,16.68-107.54,23.45-162.64,27.23c-5.85,0.4-11.67,1.22-17.5,1.84c-4,0-8,0-12,0
		c-1.39-0.36-2.77-1.03-4.16-1.04c-11.23-0.09-22.46-0.09-33.69-0.01c-1.39,0.01-2.77,0.68-4.16,1.05c-2.33,0-4.67,0-7,0
		c-1.54-0.34-3.07-0.83-4.64-1c-18.69-2.05-37.49-3.36-56.05-6.24c-21.96-3.4-43.32-9.3-62.38-21.42
		c-13.08-8.32-23.68-19.06-26.23-34.85c-1.49-9.2-1.24-18.98-0.01-28.26c3.6-27.22,16.58-50.39,33.47-71.45
		c25.44-31.72,56.79-56.48,91.81-76.81c1.53-0.89,3.07-1.75,4.48-2.55c-0.22-0.87-0.24-1.21-0.39-1.49
		c-0.55-1.02-1.15-2.02-1.73-3.04c-34.87-61.09-50.99-126.82-48.99-197.09c0.06-2.04-1.38-4.69-2.96-6.14
		c-39.11-35.85-63.2-80.19-74.41-131.73c-2.22-10.19-3.35-20.62-4.98-30.94c0-11,0-22,0-33c0.39-1.19,0.98-2.35,1.13-3.57
		c2.16-17.29,6.34-34.01,13.74-49.87c18.98-40.73,55.55-63.66,98.87-61.32c25.83,1.39,48.95,10.96,69.91,25.68
		c9.88,6.94,19.03,14.93,28.64,22.55c0.12-0.07,0.57-0.3,0.94-0.61c56.33-47.07,120.85-75.31,193.76-84.26
		c6.35-0.78,12.68-1.74,19.02-2.62c16,0,32,0,48,0c1.05,0.32,2.07,0.8,3.14,0.94c13.04,1.67,26.19,2.74,39.12,5
		c142.81,24.98,259.72,135.35,292.79,276.39c1.65,7.06,4.64,12.37,10.07,17.43c37.91,35.28,58.8,79.31,64.68,130.47
		c3.21,27.96,0.07,55.24-12.23,80.95c-16.61,34.7-47.19,52.97-84.78,50.85c-2.97-0.17-5.92-0.57-8.88-0.86
		c1.25,1.6,2.62,2.49,4.02,3.34c24.09,14.8,46.38,31.92,66.18,52.14c20.84,21.28,38.39,44.79,47.28,73.71
		C943.97,756.75,945.27,765.14,947.1,773.36z M133.75,389.57c1.38-4.29,1.79-7.61,3.44-10.1c1.67-2.52,4.3-5.44,6.98-6.04
		c7.2-1.61,12.1,4.21,10.3,11.45c-2.01,8.07-5.41,16.01-5.98,24.16c-1.81,26.17,0.02,52.22,4.48,78.12
		c32,185.68,206.56,313.12,393.56,285.71c105.9-15.52,187.61-70.2,246.02-159.8c0.88-1.35,1.6-2.8,2.59-4.55
		c-7.09-3.73-13.86-7.26-20.59-10.85c-3.73-1.99-5.17-5.27-4.14-9.24c1.03-3.97,3.61-7.03,7.95-7.17c2.52-0.08,5.27,0.71,7.58,1.82
		c7.06,3.38,13.88,7.26,20.93,10.66c36.42,17.54,74.64,4.54,92.67-31.54c9.7-19.42,12.92-40.19,11.58-61.64
		c-3.4-54.41-25.18-99.78-67.03-135.22c-2.2-1.87-4.26-4.81-4.83-7.57c-12.66-60.88-38.74-115.29-80.53-161.31
		c-80.89-89.09-181.9-128.9-301.58-115.82c-83.19,9.09-155.61,42.43-211.27,107.3c-1.38,1.61-3.73,2.88-5.83,3.29
		c-3.92,0.76-7.32-0.81-9.21-4.47c-1.96-3.79-1.18-7.49,1.4-10.75c3.99-5.03,8.08-9.97,12.03-14.82
		c-15.16-18.52-46.49-36.93-71.31-42.2c-36.57-7.76-69.2,6.11-88.71,37.96c-14.5,23.67-19.38,49.9-18.59,77.14
		c1.47,50.66,18.97,95.63,50.18,135.35C121.14,376.17,127.24,382.29,133.75,389.57z M527.02,795.01
		c9.41,7.2,18.93,11.15,28.71,14.34c53.09,17.32,107.99,24.42,163.42,27.84c22.69,1.4,45.51,1.13,68.27,1.12
		c25.68-0.02,51.15-2.62,76.28-8.04c16.85-3.64,33.28-8.51,47.68-18.45c10.85-7.49,17.15-17.57,16.48-31.17
		c-1.03-20.83-8.04-39.73-19.28-57.05c-25.29-38.96-60.58-66.81-100.21-89.83c-3.94-2.29-5.71-1.11-7.93,2.14
		c-29.48,43.1-66.59,78.25-111.05,105.57c-40.62,24.96-84.43,41.6-131.58,49.13C548.01,792.15,538.17,793.42,527.02,795.01z
		 M467.28,796.21c-0.17-0.43-0.34-0.85-0.5-1.28c-10.32-1.44-20.69-2.62-30.96-4.35c-76.78-12.95-142.65-47.37-198.23-101.61
		c-16.35-15.96-30.94-33.53-43.79-52.47c-1.96-2.89-3.62-4.64-7.55-2.37c-36.01,20.78-68.13,46.14-92.96,79.81
		c-15.4,20.88-26.09,43.72-25.41,70.59c0.21,8.12,2.91,14.9,8.5,20.68c11.09,11.45,25.43,16.86,40.19,21.22
		c33.84,10.01,68.79,11.94,103.73,12.55c21.4,0.37,42.86-1.32,64.27-2.45c34.12-1.79,67.89-6.5,101.38-13.2
		c24.03-4.81,47.89-10.29,70.23-20.83C460,800.68,463.58,798.32,467.28,796.21z"/>
	<path class="st0" d="M793.3,857.53c-0.05,0.28-0.11,0.56-0.19,0.83c-15.67,0-31.33,0-47,0c0.73-0.33,1.45-0.95,2.18-0.95
		C763.29,857.41,778.29,857.48,793.3,857.53z"/>
	<path class="st1" d="M206.1,858.36c1.39-0.37,2.77-1.04,4.16-1.05c11.23-0.08,22.46-0.08,33.69,0.01c1.39,0.01,2.77,0.68,4.16,1.04
		C234.1,858.36,220.1,858.36,206.1,858.36z"/>
	<path d="M452.04,244.5c2.15,11.37,4.5,22.72,6.39,34.13c0.97,5.87,1.48,11.87,1.6,17.83c0.24,11.77,0.53,23.58-0.03,35.33
		c-1.06,22.36-4.24,44.4-13.1,65.2c-4.35,10.23-9.81,19.61-20.64,24.67c-6.8,3.18-12.55,1.28-17.93-2.7
		c-8.57-6.34-12.89-15.66-16.68-25.22c-5.71-14.37-9.4-29.28-10.29-44.71c-1.04-17.84-1.95-35.7-2.07-53.56
		c-0.05-8.27,1.91-16.55,2.96-24.83c2.31-9.51,4.28-19.13,7.03-28.51c3.1-10.58,7.39-20.72,15.16-28.89
		c9.63-10.12,21.88-10.71,30.77-0.04c5.83,6.99,9.49,15.81,13.95,23.91C450.43,239.39,451.1,242.02,452.04,244.5z M392.99,359.43
		c1.92,13.43,5.4,26.41,11.59,38.52c1.95,3.8,4.42,7.5,7.32,10.62c5.39,5.8,11.09,5.87,16.29-0.05c3.46-3.94,6.9-8.44,8.57-13.29
		c4.05-11.74,7.07-23.84,10.5-35.79c1.21-8.57,2.41-17.14,3.62-25.7c-0.46-0.09-0.92-0.19-1.38-0.28c-1.15,2.86-1.99,5.91-3.53,8.56
		c-3.57,6.14-6.68,12.82-11.42,17.95c-9.1,9.83-22.55,8.87-30.71-1.78c-3.89-5.08-6.78-10.97-9.82-16.65c-1.6-3-2.57-6.34-3.82-9.52
		c-0.44,0.1-0.88,0.21-1.31,0.31C390.25,341.35,391.62,350.39,392.99,359.43z M445.51,263.29c-0.1-9.16-3.37-20.4-9.11-30.58
		c-7.01-12.43-21.6-13.64-30.14-2.25c-4.52,6.03-7.52,13.72-9.37,21.12c-3.87,15.5-1.63,30.56,7.73,43.81
		c9,12.73,22.61,12.44,31.77-0.23C442.65,286.5,444.94,276.55,445.51,263.29z"/>
	<path d="M617.16,320.37c-1.31,19.85-2.7,39.7-8.1,58.99c-3.18,11.38-7.1,22.43-14.13,32.14c-4.17,5.75-9.71,9.79-16.42,11.46
		c-6.21,1.54-11.43-1.81-15.93-5.89c-7.36-6.68-11.57-15.39-14.9-24.48c-5.38-14.7-9.5-29.72-10.42-45.47
		c-0.29-4.93-0.86-9.85-1.3-14.77c-0.01-11.98-0.01-23.96-0.02-35.94c1.77-14.06,3.53-28.11,5.33-42.16
		c0.08-0.61,0.57-1.16,0.87-1.74c2.63-7.52,4.62-15.35,8.07-22.47c3.14-6.48,7.14-12.88,12.05-18.1c8.07-8.58,19.19-8.84,27.5-0.47
		c5.15,5.18,9.42,11.69,12.51,18.34c9.11,19.57,12.08,40.68,13.86,61.98c0.19,2.31,0.53,4.6,0.8,6.91c0.07,2.57,0.14,5.13,0.21,7.69
		C617.15,311.03,617.16,315.7,617.16,320.37z M548.98,358.43c3.2,11.67,5.89,23.51,9.81,34.94c1.88,5.49,5.52,10.66,9.36,15.12
		c5.2,6.03,10.81,5.86,16.24,0.03c2.9-3.12,5.93-6.67,7.28-10.58c4.26-12.36,7.75-24.98,11.53-37.5c1.36-9.1,2.72-18.2,4.09-27.3
		c-0.52-0.08-1.03-0.15-1.55-0.23c-0.48,1.38-0.89,2.79-1.45,4.14c-3.63,8.77-7.24,17.53-14.52,24.11
		c-7.19,6.51-16.88,7.54-24.61,1.68c-3.73-2.83-7.1-6.62-9.47-10.66c-3.79-6.44-6.62-13.44-10.36-21.25
		c1.01,8.96,1.88,16.82,2.8,24.68C548.25,356.56,548.69,357.48,548.98,358.43z M601.96,260.77c-1.59-5.42-3.89-14.41-6.91-23.14
		c-2.85-8.25-8.51-14.16-17.68-14.7c-9.12-0.53-14.95,5.26-18.7,12.68c-2.74,5.43-4.87,11.4-5.97,17.37
		c-2.79,15.06-1.06,29.65,8.13,42.4c9.17,12.71,22.58,12.47,31.79-0.2C599.23,286.07,601.26,275.54,601.96,260.77z"/>
	<g>
		<path class="st2" d="M723.43,383.46c-9.39-8.81-21.11-13.1-35.85-13.1c-3.28,0-6.81,0.22-10.49,0.64
			c-5.55,0.64-11.02,2.11-16.31,3.53c-2.35,0.63-4.78,1.28-7.16,1.85l-0.4,0.14c-11.87,5.7-20.09,12.48-25.86,21.37
			c-7.28,11.22-6.8,23.39,1.33,33.39c8.05,9.91,19.59,15.18,35.28,16.12l0.12,0.01l0.12-0.01c1.99-0.11,4.04-0.17,6.03-0.22
			c4.45-0.12,9.06-0.25,13.55-1c19.12-3.17,33.12-11.07,42.79-24.14C736.3,408.87,735.13,394.45,723.43,383.46z M715.9,391.48
			c7.67,7.2,8.28,15.28,1.82,24.01c-7.89,10.66-19.58,17.15-35.75,19.83c-3.75,0.62-7.78,0.73-12.06,0.85
			c-1.88,0.05-3.82,0.11-5.79,0.21c-12.34-0.82-20.89-4.65-26.9-12.04c-5.13-6.32-5.35-13.21-0.64-20.46
			c4.5-6.92,11.03-12.34,20.55-17.03c2.21-0.54,4.39-1.12,6.49-1.69c5.13-1.38,9.98-2.68,14.72-3.23c3.26-0.38,6.36-0.57,9.22-0.57
			h0C699.55,381.36,708.55,384.57,715.9,391.48z"/>
		<path class="st2" d="M317.44,370.35l-0.18-0.03l-0.18,0c-1.85,0.04-3.7,0.04-5.55,0.05c-9.08,0.03-18.46,0.05-27.62,3.99
			c-10.45,4.49-17.64,12.57-19.72,22.16c-2.05,9.47,1.08,19.63,8.58,27.88c10.3,11.31,23.12,18.46,39.2,21.86
			c2.46,0.52,4.96,0.98,7.38,1.43c1.13,0.21,2.25,0.42,3.38,0.63l0.31,0.06l0.31-0.04c2.49-0.31,5.06-0.54,7.55-0.76
			c5.56-0.5,11.31-1.01,16.79-2.48c12.52-3.35,21.34-11.25,24.2-21.67c2.92-10.66-0.75-22.25-10.09-31.8
			C350.57,380.12,336.47,373.36,317.44,370.35z M329.93,436.62c-2.12,0.19-4.31,0.38-6.52,0.64l-2.07-0.38
			c-2.35-0.43-4.78-0.88-7.1-1.37c-13.74-2.9-24.64-8.95-33.33-18.5c-5.16-5.67-7.28-12.11-5.97-18.15
			c1.34-6.16,6.06-11.27,13.31-14.38c7.1-3.05,14.98-3.07,23.32-3.1c1.6,0,3.25-0.01,4.91-0.04c16.19,2.68,28.09,8.39,37.46,17.98
			c6.53,6.68,9.21,14.41,7.35,21.21c-1.8,6.55-7.79,11.64-16.43,13.95C340.29,435.69,335.26,436.14,329.93,436.62z"/>
		<path class="st2" d="M895.63,727.41c-3.8-20.81-25.7-39.1-46.86-39.13h-0.05c-7.94,0-14.02,2.42-17.6,6.99
			c-3.49,4.46-4.37,10.72-2.55,18.1c1.4,5.67,4.4,11.56,8.44,16.58c10.85,13.48,23.89,20.32,38.75,20.32l0.43,0
			c6.37-0.06,11.91-2.54,15.59-6.99C895.34,738.95,896.71,733.32,895.63,727.41z M883.29,736.26c-1.58,1.91-4.13,2.97-7.19,3
			l-0.34,0c-11.53,0-21.4-5.3-30.18-16.21c-3.01-3.74-5.32-8.23-6.33-12.32c-0.97-3.92-0.78-7.01,0.53-8.68
			c1.38-1.76,4.64-2.77,8.94-2.77h0.04h0c16,0.02,33.18,14.38,36.06,30.11C885.3,732.04,884.76,734.48,883.29,736.26z"/>
		<path class="st2" d="M146.75,688.28L146.75,688.28c-18.58,0-38.49,14.46-45.34,32.92c-2.9,7.83-2.32,15.55,1.6,21.18
			c3.61,5.19,9.54,8.05,16.69,8.05c1.55,0,3.17-0.14,4.8-0.41c20.12-3.38,34.55-15.12,41.75-33.96c2.83-7.42,2.43-14.37-1.14-19.56
			C161.46,691.2,154.94,688.28,146.75,688.28z M126.15,706.78c6.65-4.84,13.97-7.5,20.6-7.5h0c4.46,0,7.76,1.23,9.3,3.46
			c1.46,2.12,1.43,5.46-0.07,9.4c-5.81,15.21-17.01,24.31-33.29,27.04c-4.78,0.8-8.73-0.33-10.64-3.07
			c-1.83-2.63-1.95-6.67-0.31-11.08C114.27,718.18,119.39,711.7,126.15,706.78z M146.74,690.28L146.74,690.28L146.74,690.28
			L146.74,690.28z"/>
		<path class="st2" d="M529.81,422.06c-9.81-6.21-20.18-9.14-31.75-9.02c-0.12,0-0.23,0-0.34,0c-14.98,0-28.07,5.43-38.92,16.13
			c-2.26,2.23-3.4,5.96-3.53,8.66c-0.13,2.68,0.19,5.33,0.49,7.9c0.21,1.76,0.4,3.41,0.47,5.08c0.42,10.34,3.41,20.42,9.16,30.82
			c7.09,12.84,17.84,19.6,31.14,19.6c0.33,0,0.66,0,0.99-0.01c14.08-0.35,25.16-7.08,32.03-19.44c7.62-13.71,9.14-28.38,9.65-42.19
			C539.47,431.96,536.4,426.23,529.81,422.06z M471.38,465.4c2.21-7.07,15.66-17.7,23.2-18.34c0.75-0.06,1.48-0.1,2.19-0.1
			c4.5,0,8.46,1.26,12.06,3.82c0.42,0.3,0.84,0.59,1.28,0.89c1.73,1.19,3.37,2.31,4.36,3.71c1.21,1.71,2.79,3.18,4.32,4.6
			c4.23,3.94,6.71,6.63,4.34,11.96c-5.17,11.69-11.5,19.51-25.56,19.65l-0.12,0c-8.54,0.62-22.54-10.99-26.17-24.88
			C471.19,466.39,471.23,465.86,471.38,465.4z M496.68,438.35c-12.84,0-20.93,8.22-28.53,16.67c-0.05-1.07-0.1-2.13-0.15-3.2
			c-0.27-5.55-0.55-11.29-0.5-16.89c0.03-0.3,0.44-1.09,2.79-3.09c13.87-11.75,37.27-12.8,52.17-2.34c3.93,2.76,5.8,6.03,5.72,10
			c-0.1,4.86-0.27,10.37-0.92,16.1c-0.43-0.42-0.86-0.85-1.29-1.27c-7.65-7.56-15.56-15.38-27.85-15.95
			C497.64,438.36,497.16,438.35,496.68,438.35z"/>
	</g>
	<path class="st3" d="M617.16,320.37c-0.01-4.67-0.02-9.33-0.02-14C622.66,310.46,622.67,316.71,617.16,320.37z"/>
	<path class="st3" d="M535.94,296.39c0.01,11.98,0.01,23.96,0.02,35.94c-0.31-5.58-0.86-11.15-0.85-16.73
		C535.12,309.2,535.64,302.8,535.94,296.39z"/>
</g>
</svg>
