<?xml version="1.0" encoding="utf-8"?>
<!-- Generator: Adobe Illustrator 25.0.1, SVG Export Plug-In . SVG Version: 6.00 Build 0)  -->
<svg version="1.1" id="Layer_1" xmlns="http://www.w3.org/2000/svg" xmlns:xlink="http://www.w3.org/1999/xlink" x="0px" y="0px"
	 viewBox="0 0 966.89 895.79" style="enable-background:new 0 0 966.89 895.79;" xml:space="preserve">
<g>
	<path d="M948.56,773.03c-0.57-2.54-1.09-5.15-1.6-7.67c-1.14-5.64-2.31-11.48-4.04-17.09c-7.85-25.53-22.99-49.14-47.64-74.32
		c-19.08-19.48-40.82-36.61-66.47-52.37c-0.02-0.01-0.05-0.03-0.07-0.04c1.34,0.14,2.71,0.27,4.07,0.34
		c1.96,0.11,3.89,0.17,5.81,0.17c35.42,0,64.51-18.67,80.41-51.87c11.64-24.33,15.8-51.85,12.37-81.77
		c-6.04-52.58-27.96-96.79-65.15-131.4c-5.14-4.79-8.02-9.78-9.63-16.68c-16.29-69.49-52.83-132.59-105.67-182.47
		c-52.84-49.88-117.96-82.75-188.32-95.06c-8.64-1.51-17.5-2.51-26.08-3.47c-4.3-0.48-8.75-0.98-13.11-1.54
		c-0.57-0.07-1.17-0.29-1.82-0.52c-0.36-0.13-0.72-0.26-1.08-0.37l-0.21-0.06H472.1l-0.21,0.01c-1.96,0.27-3.92,0.55-5.88,0.83
		c-4.3,0.61-8.74,1.25-13.12,1.79c-72.52,8.9-137.94,37.33-194.43,84.51c-2.7-2.16-5.4-4.36-8.02-6.5
		c-6.39-5.22-12.99-10.62-19.84-15.43c-22.98-16.14-46.1-24.63-70.69-25.95C116.35,93.76,78.84,117,59.6,158.3
		c-6.97,14.94-11.5,31.39-13.87,50.32c-0.08,0.66-0.35,1.36-0.64,2.1c-0.15,0.39-0.3,0.79-0.43,1.18l-0.07,0.23v33.24l0.02,0.23
		c0.51,3.23,0.98,6.54,1.44,9.73c1,7.01,2.03,14.25,3.56,21.29c11.52,52.95,36.71,97.54,74.86,132.52c1.41,1.29,2.52,3.53,2.47,4.99
		c-2.01,70.6,14.54,137.18,49.19,197.88l0.6,1.04c0.38,0.66,0.76,1.31,1.1,1.93c0.01,0.02,0.01,0.04,0.02,0.07l-0.21,0.12
		c-1.07,0.61-2.2,1.24-3.31,1.89c-38.2,22.17-68.37,47.42-92.23,77.17c-19.8,24.69-30.54,47.63-33.79,72.19
		c-1.38,10.44-1.38,20.09,0.02,28.7c2.3,14.27,10.85,25.67,26.91,35.88c16.86,10.72,36.87,17.6,62.96,21.64
		c12.66,1.96,25.62,3.22,38.16,4.43c5.89,0.57,11.98,1.16,17.96,1.82c0.76,0.08,1.54,0.26,2.34,0.46l-2,0.53h7.48l4.18,0.02
		l0.07-0.02h48.74l5.08,0.02l0.08-0.01c1.88-0.2,3.76-0.42,5.64-0.64c3.87-0.45,7.87-0.92,11.8-1.19
		c45.47-3.12,105.08-9.04,162.99-27.29c10.06-3.18,19.66-7.5,30.97-13c9.68-4.7,15.86-11,18.87-19.26c0.09-0.24,0.49-0.67,0.73-0.79
		c4.3-0.16,8.57-0.16,12.71-0.01c0.23,0.1,0.66,0.5,0.74,0.72c3.24,8.88,9.99,15.51,20.64,20.28c11.42,5.12,24.96,10.9,38.74,15
		c33.02,9.81,69.89,16.55,116.04,21.19c11.25,1.13,22.71,1.94,33.78,2.71c5.75,0.4,11.7,0.82,17.54,1.28
		c0.3,0.02,0.74,0.25,1.18,0.47c0.3,0.15,0.6,0.3,0.9,0.43l0.28,0.12h12.62l0.02-0.01h47.78l0.26-0.86
		c35.06-1.33,72.23-4.58,107.05-18.71c8.25-3.35,16.8-8.34,26.91-15.7c10.09-7.35,16.52-17.72,19.11-30.81
		c0.05-0.27,0.26-0.63,0.48-1.01c0.14-0.25,0.29-0.5,0.41-0.76l0.15-0.31v-18.35L948.56,773.03z M787.42,836.81
		c-3.07,0-6.13,0.01-9.2,0.01c-19.36,0.04-39.39,0.08-58.98-1.13c-66.47-4.1-116.75-12.67-163.05-27.77
		c-7.62-2.49-16.46-5.84-25.3-11.95c2.43-0.34,4.8-0.67,7.13-0.99c6.93-0.96,13.48-1.87,20.02-2.89
		c46.48-7.42,90.94-24.02,132.13-49.33c44.64-27.43,82.16-63.1,111.5-106c1.98-2.9,2.94-3.43,5.94-1.69
		c45.68,26.53,77.36,54.92,99.71,89.35c11.68,17.99,18.08,36.94,19.04,56.31c0.61,12.32-4.57,22.09-15.83,29.86
		c-14.93,10.3-32.21,14.99-47.14,18.22C838.85,834.1,813.29,836.79,787.42,836.81z M149.99,409.14c0.37-5.28,2.02-10.65,3.62-15.85
		c0.81-2.63,1.64-5.35,2.32-8.05c1.02-4.12,0.12-8.14-2.43-10.75c-1.81-1.85-4.26-2.83-6.98-2.83c-0.87,0-1.76,0.1-2.67,0.3
		c-3.69,0.83-6.75,4.94-7.9,6.68c-1.25,1.88-1.84,4.08-2.52,6.64c-0.11,0.43-0.23,0.86-0.35,1.3c-1.51-1.67-3-3.28-4.45-4.85
		c-4.15-4.49-8.07-8.73-11.6-13.21c-31.67-40.3-48.44-85.54-49.86-134.47c-0.86-29.76,5.15-54.73,18.37-76.31
		c19.21-31.36,50.97-44.95,87.12-37.28c24.24,5.15,54.55,22.92,69.68,40.74c-0.84,1.03-1.69,2.06-2.54,3.1
		c-2.87,3.51-5.84,7.13-8.73,10.78c-3.15,3.98-3.69,8.25-1.56,12.37c2.16,4.19,6.21,6.15,10.83,5.25c2.51-0.49,5.13-1.98,6.68-3.79
		c52.65-61.36,123.4-97.29,210.29-106.79c118.06-12.91,219.1,25.9,300.31,115.34c40.25,44.33,67.23,98.36,80.17,160.61
		c0.59,2.86,2.68,6.16,5.33,8.41c40.72,34.48,63.09,79.62,66.5,134.17c1.4,22.41-2.44,42.9-11.42,60.88
		c-17.67,35.37-54.96,48.06-90.68,30.86c-3.43-1.65-6.87-3.46-10.2-5.2c-3.49-1.83-7.11-3.72-10.73-5.46
		c-2.81-1.35-5.75-2.05-8.28-1.97c-4.62,0.15-8.02,3.17-9.35,8.29c-1.21,4.65,0.57,8.64,4.89,10.94c4.85,2.59,9.72,5.14,14.72,7.76
		l4.52,2.38c-0.06,0.1-0.11,0.21-0.17,0.31c-0.57,1.05-1.07,1.95-1.62,2.81c-58.94,90.41-141.36,143.95-244.98,159.13
		c-184.38,27.03-360.17-100.59-391.86-284.48C149.72,459.47,148.26,434.04,149.99,409.14z M189.37,634.58
		c1.18,0,1.96,0.96,3.19,2.76c13.02,19.19,27.82,36.92,43.98,52.7c56.26,54.91,123.23,89.23,199.03,102.02
		c7,1.18,14.16,2.12,21.07,3.03c2.6,0.34,5.21,0.68,7.81,1.04c-0.49,0.29-0.98,0.58-1.46,0.87c-2.42,1.45-4.92,2.94-7.45,4.15
		c-22.85,10.78-47.05,16.15-69.88,20.72c-35.86,7.17-68.95,11.48-101.17,13.17c-4.57,0.24-9.13,0.51-13.7,0.77
		c-16.56,0.96-33.68,1.97-50.46,1.67c-38.98-0.68-71.47-3.07-103.33-12.49c-16.28-4.81-29.24-10.19-39.54-20.82
		c-5.23-5.41-7.88-11.85-8.08-19.67c-0.59-23.49,7.39-45.62,25.12-69.66c22.48-30.48,52.73-56.45,92.5-79.4
		C187.99,634.86,188.74,634.58,189.37,634.58z"/>
	<path d="M390.26,394.29c3.74,9.42,8.14,19.18,17.18,25.87c4.17,3.08,8.12,4.61,12.06,4.61c2.45,0,4.9-0.59,7.39-1.76
		c11.59-5.41,17.13-15.43,21.39-25.44c7.76-18.21,11.96-39.09,13.22-65.72c0.53-11.15,0.3-22.51,0.07-33.49l-0.04-1.94
		c-0.13-6.23-0.67-12.3-1.62-18.04c-1.32-7.98-2.89-16.06-4.41-23.87c-0.67-3.43-1.33-6.86-1.98-10.29l-0.07-0.25
		c-0.28-0.75-0.54-1.51-0.8-2.27c-0.6-1.78-1.23-3.62-2.17-5.31c-1.21-2.19-2.38-4.49-3.52-6.71c-3.07-6.01-6.25-12.23-10.59-17.44
		c-4.37-5.25-9.7-8.12-15.42-8.31c-6.07-0.2-12.32,2.74-17.59,8.27c-6.87,7.22-11.65,16.32-15.51,29.5
		c-1.93,6.57-3.49,13.34-5.01,19.89c-0.67,2.9-1.34,5.8-2.04,8.69l-0.03,0.17c-0.32,2.56-0.74,5.17-1.15,7.7
		c-0.91,5.66-1.85,11.52-1.82,17.33c0.11,16.97,0.91,33.72,2.07,53.64C380.71,363.88,384.21,379.08,390.26,394.29z M435.17,294.28
		c-4.21,5.82-9.5,9.02-14.9,9.02c-0.02,0-0.05,0-0.07,0c-5.27-0.03-10.37-3.14-14.35-8.78c-8.89-12.58-11.41-26.91-7.5-42.58
		c2.07-8.27,5.22-15.39,9.11-20.58c3.49-4.65,8.26-7.25,13.23-7.25c0.31,0,0.61,0.01,0.92,0.03c5.43,0.35,10.34,3.75,13.48,9.31
		c5.56,9.86,8.81,20.73,8.92,29.82C443.4,277.46,440.83,286.45,435.17,294.28z M419.05,368.27c6.09,0.28,11.99-2.3,16.6-7.29
		c3.76-4.06,6.51-9.05,9.18-13.88c0.81-1.46,1.61-2.91,2.44-4.34c0.43-0.74,0.8-1.5,1.15-2.27l-2.62,18.62
		c-0.97,3.38-1.91,6.77-2.84,10.17c-2.32,8.41-4.72,17.1-7.6,25.45c-1.69,4.9-5.31,9.41-8.28,12.79c-2.25,2.56-4.56,3.88-6.85,3.91
		c-2.38,0.02-4.78-1.28-7.21-3.89c-2.64-2.84-5.09-6.4-7.08-10.28c-5.61-10.97-9.35-23.41-11.44-38.05l0-0.01
		c-0.98-6.47-1.96-12.94-2.94-19.41c0.35,0.83,0.74,1.65,1.16,2.45c0.47,0.88,0.93,1.76,1.4,2.64c2.55,4.83,5.19,9.82,8.55,14.22
		C406.96,364.72,412.78,367.98,419.05,368.27z"/>
	<path d="M627.53,432.23c8.33,10.25,20.22,15.7,36.32,16.67l0.25,0.02l0.2-0.02c1.98-0.11,4.05-0.17,5.99-0.22
		c4.28-0.12,9.12-0.25,13.75-1.02c19.52-3.24,33.83-11.33,43.75-24.73c10.22-13.84,8.97-29.01-3.33-40.56l0,0
		c-9.69-9.09-21.75-13.51-36.88-13.51c-3.29,0-6.88,0.22-10.66,0.65c-5.65,0.65-11.16,2.13-16.53,3.57c-2.2,0.59-4.7,1.26-7.12,1.84
		l-0.7,0.25c-12.14,5.83-20.55,12.79-26.47,21.91C618.44,408.88,618.96,421.69,627.53,432.23z M637.84,404.7
		c4.33-6.66,10.63-11.88,19.81-16.43c2.27-0.56,4.49-1.15,6.36-1.66c5.06-1.36,9.84-2.65,14.5-3.19c16.29-1.9,27.6,0.92,36.36,9.15
		l0,0c7.12,6.69,7.66,13.89,1.64,22.02c-7.65,10.34-19.03,16.63-34.79,19.24c-3.63,0.6-7.58,0.71-11.85,0.83
		c-1.8,0.05-3.74,0.11-5.74,0.21c-11.85-0.8-20.03-4.45-25.75-11.48C633.64,417.55,633.46,411.43,637.84,404.7z"/>
	<path d="M311.66,447.73c2.33,0.49,4.7,0.93,6.99,1.36l4.34,0.81l0.54-0.07c2.37-0.29,4.8-0.52,7.5-0.75l0.12-0.01
		c5.59-0.5,11.36-1.02,16.93-2.51c13.05-3.49,22.25-11.77,25.26-22.72c3.07-11.19-0.75-23.31-10.46-33.24
		c-11.46-11.75-25.82-18.65-45.19-21.71l-0.3-0.05l-0.34,0c-1.46,0.03-2.93,0.04-4.39,0.04l-1.2,0.01
		c-9.2,0.03-18.72,0.06-28.13,4.11c-10.9,4.68-18.41,13.15-20.59,23.22c-2.15,9.95,1.1,20.59,8.94,29.21
		C282.18,436.96,295.26,444.26,311.66,447.73z M276.41,399.18c1.24-5.68,5.65-10.41,12.44-13.32c6.8-2.92,14.5-2.95,22.73-2.98
		c1.56,0,3.18-0.01,4.8-0.04c15.79,2.63,27.39,8.21,36.5,17.53c6.15,6.29,8.69,13.49,6.98,19.76c-1.66,6.03-7.26,10.73-15.37,12.9
		c-4.43,1.17-9.38,1.62-14.62,2.09l-0.59,0.05c-1.89,0.17-3.83,0.34-5.8,0.57l-1.85-0.34c-2.31-0.42-4.75-0.87-7.06-1.36
		c-13.42-2.83-24.06-8.73-32.53-18.04C277.2,410.7,275.2,404.73,276.41,399.18z"/>
	<path d="M848.72,686.78c-8.41,0-14.9,2.62-18.78,7.57c-3.78,4.83-4.76,11.54-2.82,19.38c1.45,5.88,4.55,11.97,8.73,17.16
		c11.15,13.85,24.58,20.88,39.92,20.88h0.44c6.83-0.06,12.77-2.74,16.74-7.54c3.85-4.68,5.33-10.75,4.17-17.09
		C893.19,705.67,870.6,686.81,848.72,686.78z M882.13,735.3c-1.29,1.56-3.44,2.43-6.03,2.46h-0.34c-11.05,0-20.54-5.12-29.01-15.65
		c-2.88-3.58-5.08-7.86-6.04-11.74c-0.83-3.37-0.74-6.13,0.25-7.39c0.83-1.06,3.31-2.2,7.8-2.2c15.34,0.02,31.82,13.78,34.59,28.88
		C883.74,731.87,883.31,733.88,882.13,735.3z"/>
	<path d="M100,720.68c-3.07,8.3-2.43,16.52,1.77,22.56c3.9,5.61,10.26,8.69,17.92,8.69c1.63,0,3.32-0.14,5.05-0.43
		c20.67-3.47,35.5-15.54,42.9-34.91c3.01-7.9,2.55-15.34-1.31-20.94c-3.94-5.72-10.9-8.87-19.6-8.87
		C127.59,686.78,107.06,701.67,100,720.68z M127.03,707.99c6.39-4.65,13.39-7.21,19.72-7.21c3.89,0,6.83,1.03,8.06,2.81
		c1.15,1.67,1.07,4.59-0.24,8.01c-5.61,14.68-16.42,23.46-32.14,26.1c-4.18,0.7-7.6-0.21-9.16-2.45c-1.55-2.23-1.6-5.76-0.13-9.7
		C115.57,718.98,120.5,712.74,127.03,707.99z"/>
	<path d="M453.77,437.76c-0.13,2.74,0.18,5.4,0.48,7.97l0.02,0.18c0.22,1.85,0.4,3.4,0.46,4.96c0.43,10.59,3.49,20.89,9.35,31.48
		c7.36,13.33,18.58,20.38,32.45,20.38c0.35,0,0.69,0,1.03-0.01c14.64-0.36,26.16-7.35,33.3-20.21c7.77-13.98,9.32-28.86,9.84-42.87
		c0.29-8.21-3.01-14.37-10.09-18.85h0c-10.03-6.35-20.72-9.37-32.55-9.25h-0.34c-15.38,0-28.83,5.57-39.97,16.56
		C455.03,430.79,453.91,434.98,453.77,437.76z M469,435.22c0.16-0.23,0.69-0.89,2.26-2.23c13.38-11.34,35.96-12.35,50.34-2.26
		c3.54,2.48,5.15,5.26,5.08,8.74c-0.08,3.84-0.2,8.22-0.6,12.86c-7.56-7.46-15.54-14.88-27.9-15.45c-0.5-0.02-1-0.03-1.5-0.03
		c-11.81,0-19.79,6.58-27.2,14.5C469.22,446.03,468.96,440.55,469,435.22z M472.81,465.87l0.01-0.02
		c2.04-6.52,14.93-16.7,21.89-17.29c0.81-0.07,1.47-0.1,2.07-0.1c4.18,0,7.84,1.16,11.19,3.54c0.43,0.31,0.86,0.6,1.37,0.95
		c1.59,1.1,3.1,2.13,3.92,3.3c1.31,1.84,2.94,3.36,4.52,4.83c4.39,4.09,5.87,6.03,3.99,10.26c-5.08,11.48-10.9,18.62-24.19,18.76
		l-0.23,0c-7.9,0.56-21.24-10.85-24.61-23.75C472.73,466.28,472.74,466.07,472.81,465.87z"/>
	<path d="M534.46,332.41L534.46,332.41l0,0.07c0.14,1.55,0.29,3.11,0.44,4.66c0.32,3.3,0.66,6.71,0.85,10.06
		c0.81,13.95,4.15,28.53,10.51,45.9c3.04,8.29,7.23,17.75,15.3,25.08c3.54,3.21,8.18,6.66,13.84,6.66c1.12,0,2.27-0.13,3.46-0.43
		c6.82-1.7,12.79-5.86,17.27-12.04c7.53-10.4,11.48-22.32,14.36-32.62c5.48-19.56,6.9-40.26,8.11-58.6c2.62-1.96,4.1-4.56,4.17-7.4
		c0.08-3-1.41-5.85-4.16-8.11l-0.19-6.99l-0.01-0.13c-0.09-0.75-0.18-1.51-0.28-2.26c-0.19-1.51-0.39-3.08-0.52-4.61
		c-1.72-20.53-4.6-42.3-14-62.49c-3.36-7.23-7.79-13.72-12.81-18.77c-4.27-4.3-9.31-6.57-14.59-6.57c-0.08,0-0.17,0-0.25,0
		c-5.42,0.07-10.54,2.52-14.82,7.06c-4.59,4.88-8.73,11.1-12.31,18.47c-2.45,5.05-4.18,10.48-5.87,15.74
		c-0.71,2.23-1.45,4.54-2.23,6.78c-0.07,0.12-0.14,0.24-0.22,0.35c-0.3,0.47-0.67,1.06-0.77,1.8c-1.48,11.58-2.94,23.17-4.4,34.76
		l-0.94,7.5v0.04c-0.09,1.91-0.2,3.82-0.31,5.73c-0.25,4.42-0.51,9-0.52,13.51c-0.01,3.95,0.27,7.94,0.53,11.8
		C534.25,329.07,534.37,330.74,534.46,332.41z M591.41,294.3c-4.22,5.8-9.49,9-14.84,9c-0.01,0-0.02,0-0.02,0
		c-5.26-0.01-10.41-3.13-14.49-8.8c-8.19-11.36-10.84-25.24-7.87-41.25c1.03-5.57,3.04-11.44,5.83-16.96
		c3.99-7.89,9.45-11.89,16.24-11.89c0.34,0,0.69,0.01,1.04,0.03c9.8,0.58,14.3,7.76,16.35,13.69c2.2,6.37,4.01,12.84,5.47,18.05
		c0.5,1.77,0.95,3.39,1.35,4.78C599.8,274.4,597.99,285.22,591.41,294.3z M590.78,362.27c6.89-6.23,10.61-14.35,14-22.47
		c-1.02,6.77-2.03,13.54-3.04,20.31c-1.03,3.4-2.03,6.81-3.04,10.22c-2.64,8.94-5.36,18.19-8.44,27.12
		c-1.24,3.58-4.08,6.94-6.96,10.05c-2.48,2.67-4.93,4-7.27,3.95c-2.25-0.04-4.52-1.37-6.73-3.94c-4.55-5.28-7.52-10.06-9.08-14.63
		c-2.75-8.03-4.94-16.43-7.05-24.55c-0.88-3.38-1.79-6.87-2.73-10.3l-0.01-0.04c-0.1-0.33-0.22-0.67-0.34-1
		c-0.2-0.57-0.4-1.1-0.45-1.56c-0.59-5.07-1.17-10.14-1.77-15.51c2.09,4.57,4.13,8.9,6.55,13.01c2.47,4.21,5.97,8.15,9.86,11.1
		C572.38,370.2,582.79,369.5,590.78,362.27z"/>
</g>
</svg>
