<?xml version="1.0" encoding="utf-8"?>
<!-- Generator: Adobe Illustrator 25.0.1, SVG Export Plug-In . SVG Version: 6.00 Build 0)  -->
<svg version="1.1" id="Layer_1" xmlns="http://www.w3.org/2000/svg" xmlns:xlink="http://www.w3.org/1999/xlink" x="0px" y="0px"
	 viewBox="0 0 572.39 488.26" style="enable-background:new 0 0 572.39 488.26;" xml:space="preserve">
<g>
	<path d="M571.95,138.43c-2.31-21.55-13.53-37.21-33.36-46.54c-15.67-7.38-33.12-8.96-54.89-4.99c-4.89,0.89-7.5,0.84-10.38-3.48
		c-11.2-16.83-24.9-30.74-40.71-41.32C380.67,7.33,323.67,0.67,263.19,22.31c-6.77,2.42-10.74,2.64-16.32-2.52
		c-19.23-17.74-39.94-23.6-61.55-17.4c-22.67,6.49-37.54,22.95-45.46,50.31c-6.54,22.58-6.01,47.34,1.62,75.69
		c0.81,3.02,0.55,4.31,0.38,4.55c-5.02,7.13-10.16,13.95-15.6,21.17c-1.39,1.85-2.79,3.7-4.19,5.57
		c-18.47-9.67-35.86-14.88-53.12-15.9c-17.25-1.02-38.99,0.23-54.12,19.24c-8.96,11.25-13.87,25.6-14.61,42.66
		c-2.44,56.3,16.2,102.87,55.42,138.41c19.51,17.68,39.23,26.67,60.31,27.49c27.61,1.07,51.17-10.36,70.01-33.97l0.32,0.23
		c1.3,0.91,2.53,1.78,3.77,2.66c32.15,22.98,68.92,36.33,112.39,40.82c3.55,0.37,4.89,1.23,5.98,3.84
		c8.26,19.78,19.86,38.11,34.46,54.48c20.63,23.12,42.38,37.9,66.5,45.2c7.52,2.28,14.42,3.42,20.77,3.42
		c15.91,0,28.38-7.2,38.4-21.91c10.34-15.17,15.96-33.52,17.7-57.74c1.88-26.11-1.19-53.45-9.38-83.59
		c-0.69-2.53-0.2-6.18,1.07-7.96c14.57-20.42,23.64-43.68,27.74-71.11c0.44-2.92,2.44-6.38,4.48-7.73
		c12.68-8.4,27.18-18.95,38.57-33.47C561.16,188.92,575.02,167.08,571.95,138.43z M143.88,354.01c-0.08,0.17-0.08,0.36-0.06,0.57
		c-0.04,0.01-0.07,0.03-0.11,0.04l-0.04,0.02c-17.17,6.92-34.72,6.28-52.16-1.91c-31.66-14.87-54.05-40.25-68.46-77.59
		c-10.44-27.05-13.54-52.36-9.47-77.37c2.37-14.56,7.35-24.79,15.59-32.11c0.45-0.36,0.9-0.69,1.35-1.03
		c13.91,3.19,25.84,10.08,36.27,19.94c32.9,31.1,56.86,68.2,72.83,110.35C146.82,313.92,153.2,333.53,143.88,354.01z M155.83,348.73
		c5.97-22.01-1.9-42.81-7.34-57.17c-16.77-44.26-42.07-82.57-75.18-113.88c-9.29-8.79-19.58-15.24-30.69-19.32
		c5.79-1.91,11.83-2.6,17.9-2.6c4.75,0,9.53,0.42,14.24,0.98c62.21,7.49,117.01,71.34,114.97,133.97
		C188.95,314.85,176.02,336.44,155.83,348.73z M350.49,381.72l0.1-0.01c22.98-2.37,45.03-7.99,65.6-16.73
		c18.67-8.53,34.82-19.54,49.29-33.6c8.71,32.77,10.98,58.92,7.35,84.48c-1.56,15.69-5.73,29-12.75,40.69
		c-10.37,17.27-23.05,22.56-42.41,17.69c-25.04-6.3-46.66-20.78-68.05-45.56c-3.92-4.54-7.37-9.71-10.7-14.71
		c-1.53-2.3-3.12-4.67-4.74-6.97l-13.87-23.73L350.49,381.72z M476.72,243.27c-0.78,0.6-1.56,1.19-2.35,1.77l-1.33,0.97l2.51,5.61
		l17.05-3.99c-1.95,13.8-5.47,26.2-10.71,37.82c-15.44,34.25-42.52,58.34-80.48,71.6c-70.03,24.47-138.03,16.01-202.09-25.12
		c-3.35-2.15-5.28-4.66-5.58-7.25c-0.37-3.23,1.8-6.24,3.61-8.12c0.22-0.13,0.73-0.2,1.34-0.2c0.77,0,1.69,0.12,2.36,0.4
		c24.82,10.43,50.43,17.37,76.12,20.63c43.92,5.58,80.05-1.56,110.48-21.81c11.14-7.41,20.9-17.33,30.74-31.21l0.11-0.17
		c9.67-17.02,14.69-32.28,15.79-48.04c1.08-15.44-1.21-28.72-6.99-40.59c-2.4-4.94-2.84-9.42-1.53-15.49
		c8.94-41.18,2.38-77.61-19.5-108.27c-17.93-25.12-42.99-41.67-74.58-49.26c26.9-0.65,75.44,10.19,106.56,40.03l26.59,28.14
		l-12.35,4.61l-11.16,6.53l1.79,4.84h1.42c0.76,0,1.52,0.04,2.29,0.08c1.82,0.09,3.7,0.18,5.58-0.18c5.26-1,10.58-2.16,15.72-3.29
		c10.18-2.23,20.71-4.54,31.13-5.59c20.29-2.05,35.81,2.83,47.52,14.97c11.92,11.23,15.85,25.9,12.01,44.86
		c-4.78,23.58-18.74,43.62-42.67,61.27c-6.99,5.15-14.77,9.57-22.3,13.85c-3.83,2.18-7.8,4.43-11.63,6.76
		C480.25,240.57,478.45,241.94,476.72,243.27z M413.41,182.84c-1.26,4.96-0.78,9.01,1.59,13.54c10.6,20.2,11.13,42.29,1.56,65.65
		c-13.6,33.22-40.37,54.21-79.58,62.38c-32.48,6.77-67.28,3.56-109.51-10.1c-4.68-1.51-9.38-3.34-13.92-5.11
		c-3.09-1.2-6.28-2.45-9.46-3.59c-2.73-0.98-3.56-1.89-3.11-5.37c0.69-5.27,0.82-10.65,0.95-15.86c0.05-2.19,0.11-4.38,0.2-6.56
		l0.01-0.18l-0.02-0.18c-5.56-41.41-24.52-75.6-56.4-101.83c4.5,1.07,8.83,1.39,12.66,1.39c1.97,0,3.81-0.08,5.46-0.2
		c8.59-0.57,15.27-4.5,18.31-10.77c2.95-6.08,1.98-13.45-2.65-20.22c-2.64-3.86-6.3-6.61-9.83-9.27c-1.24-0.93-2.41-1.81-3.51-2.72
		c-1.01-0.83-2.04-1.57-3.07-2.27c7.97-5.64,12.04-14.04,16.29-22.85l0.98-2.03c20.76-42.74,53.59-68.12,97.56-75.44
		c30.29-5.04,58.86,0.5,84.99,16.52c24.93,13.68,41.91,35.43,50.46,64.62C419.83,134.43,419.84,157.47,413.41,182.84z
		 M156.83,138.77c1.19,0.79,2.31,1.55,3.31,2.38c1.27,1.04,2.58,2.03,3.85,2.99c3.06,2.3,5.95,4.47,7.71,7.04
		c2.7,3.94,3.39,7.75,1.95,10.72c-1.52,3.12-5.31,5.11-10.41,5.45c-9.95,0.66-17.23-0.61-23.61-4.12c-0.62-0.34-1.26-0.62-1.88-0.86
		C142.71,152.96,149.01,145.19,156.83,138.77z M177.7,86.88l-0.1,0.18c-1.18,2.36-2.45,4.75-3.68,7.06
		c-2.86,5.38-5.83,10.94-7.93,16.78c-2.22,6.15-6.56,9.03-13.3,12.29c-0.41-2.22-0.84-4.39-1.26-6.51
		c-1.25-6.33-2.43-12.31-3.02-18.34c-2.89-29.38,2.66-51.35,17.45-69.14c2.55-3.07,6.05-5.4,9.76-7.86c1.68-1.12,3.41-2.27,5.06-3.5
		c11.09-6.56,23.47-7.13,37.83-1.74c7.56,2.83,14.45,7.31,22.03,14.37C214.24,43.07,193.66,61.56,177.7,86.88z"/>
	<path d="M343.86,107.48c1.37-10.23-2.2-18.16-9.54-21.21c-9.48-3.94-16.53,1-22.17,6.34c-0.85,0.8-1.74,1.68-2.52,2.68
		c-14.14,18.05-23,40.01-26.35,65.25l-0.02,0.26c-0.07,15.19,3.79,23.14,12.51,25.79c1.78,0.54,3.45,0.78,4.99,0.78
		c8.38,0,13.41-7,16.33-11.05C331.41,156.42,340.42,133.25,343.86,107.48z M317.21,155.95c-3.76,7.89-7.41,14.64-14.2,19.11
		c-1.87,1.23-3.78,1.44-5.38,0.59c-1.94-1.04-3.11-3.5-3.14-6.59c-0.05-5.84,0.76-11.87,1.54-17.69c0.06-0.44,0.12-0.89,0.18-1.33
		C300.81,157.99,304.54,158.7,317.21,155.95z M313.75,130.5c-1.73-1.06-3.01-3.32-4.04-5.12c-0.28-0.5-0.56-0.99-0.83-1.42
		c1.23-11.35,4.16-18.78,9.73-24.78c4.86-5.24,8.53-4.22,10.86-2.99c4.94,2.59,4.12,7.26,3.19,9.8c-2.31,6.34-5.51,14.6-9.79,22.28
		c-0.85,1.53-2.24,2.61-3.92,3.05C317.19,131.77,315.35,131.48,313.75,130.5z"/>
	<path d="M264.1,67.14c-3.73-2.4-8.65-2.37-13.86,0.08c-4.98,2.34-9.96,6.05-14.03,10.46c-13.53,14.64-22.7,33.09-27.25,54.84
		c-1.24,5.95-1.26,12.42-0.04,18.2c1.35,6.39,5.43,11.09,10.93,12.58c1.14,0.31,2.3,0.46,3.46,0.46c4.06,0,8.08-1.87,11.23-5.33
		c20.82-22.92,30.4-50.95,36.42-72.81l0.07-0.52C271.16,74.02,267.33,69.22,264.1,67.14z M237.76,100.03
		c0.94-10.01,5.57-18.14,13.38-23.52c1.06-0.73,2.89-1.16,4.49-1.16c0.86,0,1.66,0.12,2.23,0.39c0.88,0.41,1.7,2.27,2.3,3.62
		c0.21,0.47,0.41,0.92,0.61,1.34c-2.49,11.95-6.43,19.27-13.08,24.39c-1.8,1.39-5.57,1.9-6.85,1.21
		C239.3,105.49,237.58,101.97,237.76,100.03z M240.4,132.51c-2.95,6.57-6.67,12.95-12.42,17.75c-2.28,1.9-4.76,2.51-6.64,1.62
		c-1.75-0.83-2.73-2.86-2.71-5.57c0.05-5.6,1.12-11.37,2.14-16.95c0.22-1.17,0.44-2.37,0.65-3.57c1.54,3.95,3.62,6.42,6.4,7.67
		C231.05,134.89,235.04,134.61,240.4,132.51z"/>
	<path d="M344.04,188.09l-0.67-0.04l-0.66,0.14c-1.52,0.33-3.07,0.6-4.72,0.87c-3.88,0.66-7.9,1.34-11.74,2.99
		c-5.67,2.44-9.83,7.02-11.41,12.57c-1.57,5.5-0.5,11.48,2.94,16.41c7.69,11.01,24.15,17.7,39.19,17.7c6.82,0,13.34-1.37,18.62-4.34
		c5.76-3.24,9.45-8.13,10.39-13.76c0.93-5.59-0.96-11.35-5.31-16.22C371.78,194.49,359.81,189.15,344.04,188.09z M376.61,219.09
		c-0.45,2.74-2.47,5.24-5.68,7.04c-12.51,7.03-37.1,1.33-45.37-10.52c-1.83-2.61-2.39-5.59-1.6-8.38c0.81-2.84,2.95-5.13,6.04-6.46
		c2.8-1.21,6.09-1.76,9.58-2.36c1.46-0.25,2.97-0.5,4.47-0.82c13.01,0.98,22.41,5.17,29.53,13.14
		C375.99,213.43,377.06,216.39,376.61,219.09z"/>
</g>
</svg>
