<?xml version="1.0" encoding="utf-8"?>
<!-- Generator: Adobe Illustrator 25.3.1, SVG Export Plug-In . SVG Version: 6.00 Build 0)  -->
<svg version="1.1" id="Layer_1" xmlns="http://www.w3.org/2000/svg" xmlns:xlink="http://www.w3.org/1999/xlink" x="0px" y="0px"
	 viewBox="0 0 3535.7 3477.5" style="enable-background:new 0 0 3535.7 3477.5;" xml:space="preserve">
<g>
	<path d="M1125,3326.4c-7.8,0-10.9,0-14,0c-0.1-0.4-0.2-0.7-0.3-1.1c1.7-0.2,3.3-0.7,5-0.7C1117.3,3324.6,1118.9,3325.2,1125,3326.4
		z"/>
	<polygon points="1200.4,3322.8 1201.2,3324.2 1199.6,3324.2 	"/>
	<polygon points="1179.8,3326 1178.5,3326.4 1178.7,3325.4 	"/>
	<polygon points="1155,3326.4 1154.7,3325.5 1155.9,3325.7 	"/>
	<g>
		<path d="M2250.8,1045.5c-8.6-6.5-14.3-10.9-20.1-15.1c-44.1-32-81.7-70.4-112.1-115.6c-28.7-42.6-47.3-89.7-56.1-140.1
			c-17.3-98.3-15.7-196.3,10.6-293.2c15-55.3,39.7-105.9,76.2-150.5c48.8-59.6,111.6-98.2,184.6-120.9
			c37.7-11.7,76.3-18.1,115.7-21.6c52.8-4.7,105.2-2.5,157.5,4.9c69.4,9.9,135,31,194.1,69.6c81.2,53.1,132.3,127.9,158.7,220.6
			c13.4,47.2,17.4,95.6,19,144.3c1.3,38.7,0.2,77.3-3.3,115.9c-8.2,90.4-45.1,166.3-114.7,225.6c-28,23.9-58.1,44.6-89.9,63.1
			c-5.6,3.3-11,6.9-17.6,11.1c6.9,8.1,16,8.9,23.3,12.7c7.7,4,15.7,7.4,23.4,11.2c7.7,3.8,15.3,7.9,22.5,11.6
			c15.4-6.5,89.3-56,107.6-72.2c-1.6-2.4-2.9-5.4-5.1-7.3c-8.5-7.5-8.2-16.3-4-25.5c2.5-5.4,5.3-10.8,8.9-15.5
			c8.5-10.8,16.7-12.2,29.9-5.8c2.9,1.4,5.7,3.1,9.6,5.2c8.7-6.4,17.6-12.3,25.7-19c75.8-63.2,151.4-126.5,227-189.8
			c13.9-16.5,31.1-17.2,50.8-12.5c47.6,11.3,76.8,47.6,76.3,96.5c-0.1,10.4-2.9,19.3-9.5,27.6c-19.5,24.7-42.3,46.2-65.4,67.4
			c-55.1,50.5-114,96.4-173.6,141.4c-5.8,4.4-11.6,8.9-17.4,13.5c-1,0.8-1.5,2.1-3.1,4.3c1.8,4.1,4.2,8.7,6,13.5
			c3.4,9.2,1,17.1-6.3,23.4c-7.8,6.8-17.2,10.1-27.2,11.5c-11,1.5-19.7-1.4-24.2-12.7c-1.4-3.6-3.9-6.8-6.3-10.9
			c-2.9,0.9-5.6,1.1-7.6,2.4c-23.2,15.7-46.2,31.6-69.3,47.4c-1.6,1.1-2.9,2.7-5.4,5.1c2.5,3.5,4.6,7.4,7.5,10.6
			c15,17,30.9,33.2,45.2,50.7c25.3,31,48,64,67.2,99.1c6.1,11.2,13.7,20.7,23.3,29.4c54.1,48.9,43.7,136.2-19.8,171.6
			c-20.8,11.6-43.1,12.9-66,11c-52.9-4.5-90-51.7-91.8-99.8c-0.1-3.3-0.8-6.9,0.2-9.9c5.6-17-3.1-29.6-12-42.3
			c-22.9-33.1-52.5-58.3-89.5-74.5c-6.6-2.9-13.6-4.9-21.9-7.8c-0.5,4.7-1.5,7.8-1,10.7c10.8,62.3,22.4,124.6,32.6,187
			c10.2,61.8,20.3,123.6,26.7,185.9c4.2,41.7,9.7,83.4,14.3,125.1c2.1,19.2,3.1,38.5,5.4,57.6c3.7,30.9,11.3,60.4,35.1,82.8
			c1.9,1.8,3.4,4.1,4.9,6.3c6.7,9.7,2.3,18.3-8.7,20.2c-58.5,10-116.7,9.4-175-1.2c-2.6-0.5-5.1-1.4-7.7-1.9
			c-13.2-2.5-21.4-10.6-24.7-23.3c-4-15.5-7.6-31-10.9-46.7c-8.4-40.4-16.7-80.8-28.7-120.3c-8.7-28.7-19.4-56.8-36.5-81.9
			c-7.4-11-15.7-21.7-25.1-31c-41.4-40.9-94.9-35.7-130.6-13.8c-16.8,10.3-29.9,24.4-40.9,40.5c-14,20.6-23.7,43.1-31.6,66.6
			c-11.3,33.6-18.2,68.2-24,103c-3.1,19.1-6.2,38.1-8.6,57.3c-4,32.2-22.5,51.5-52.7,61c-25.8,8.2-52.4,9.6-79.1,9.4
			c-23.3-0.2-46.6-2-69.9-3.3c-4.6-0.3-9.3-0.8-13.8-2.1c-11-3.1-14.5-11.1-9.4-21.5c1.4-3,3.4-5.8,5.4-8.4
			c4.1-5.2,8.1-10.7,12.8-15.3c10.2-9.9,14.5-21.9,15.8-35.7c5.6-57.7,11.3-115.3,17-173c1.9-19.1,4.1-38.2,6-56.4
			c-5.3-5-8.4-1.3-11.6,0.6c-36.6,21.8-73.6,43.1-109.7,65.9c-24.7,15.7-50.6,21.9-79.7,19.9c-30.7-2.1-61-6.1-91.1-11.5
			c-17-3-33.9-6.8-50.7-10.9c-6.4-1.6-12.4-4.7-18.3-7.9c-2.6-1.4-4.3-4.6-6-6.5c2.7-8.5,9.6-10.4,15.2-13.7
			c37.3-22,75.2-43.1,111.9-66c83.6-52.3,166.6-105.7,250-158.2c10-6.3,14.2-13.9,15.8-25.5c6.6-50.2,14.4-100.2,21.6-150.3
			c0.6-4.3,0.1-8.9,0.1-14c-3.7,0.4-6.4,0.2-8.9,1c-51.7,17.1-90.3,50-117.9,96.6c-4,6.8-4.4,13.6-3.4,21.1
			c2.7,19.7-0.7,38.5-8.8,56.5c-14.8,32.8-52.2,66.7-109.5,60.7c-42.6-4.5-79.7-36.7-90-79.6c-9.9-41.4,1.5-76.7,32.6-105
			c9.1-8.3,16-17.4,21.9-28c48.9-87.3,112.9-161.4,194.3-220c30.9-22.3,63.6-41.5,99-55.8
			C2240.4,1050.8,2243.9,1048.9,2250.8,1045.5z M2517.6,881.3c56.1,1,115.9-2.2,175.6-8.5c24.6-2.6,48.7-7.9,71.9-16.3
			c17.6-6.4,34.3-14.7,49.1-26.4c24.1-18.9,38.7-43.3,43.8-73.7c3.2-19.5,1.6-38.6-2-57.6c-5.7-30.4-20.7-55.8-42.7-77.3
			c-28.7-28-62.9-46.8-100-60.9c-37.5-14.3-76.3-23.3-115.9-29.6c-87.1-13.8-172.7-6.9-256.8,18.9c-41.1,12.6-79.2,31-112.6,58.8
			c-19.9,16.6-35.1,36.5-44.7,60.2c-24.3,59.9-14.9,125.6,49.9,168.1c2.8,1.8,5.6,3.6,8.5,5.3c29.9,17.3,62.1,27.8,96.4,30.7
			C2396.5,877.9,2455,881.3,2517.6,881.3z M2587.4,1494.9c0,0.3,0,0.7,0,1c49.3,0,98.5,0,147.8,0c6.6,0,13.4,0.3,19.9-0.6
			c13.3-1.8,20.9-10.4,19.1-23.3c-1.3-9.7-4.6-19.3-8.3-28.5c-3.5-8.7-10.8-13.3-20.5-13.2c-13.3,0.2-26.6,0.8-39.8,0.9
			c-9.2,0-18.8,0.8-27.7-1.2c-11.8-2.7-23.6-3.8-35.6-3.8c-64.6,0-129.1,0-193.7,0.1c-4.7,0-9.3-0.1-14,0.4
			c-11.1,1-14.8,4.5-17.4,15.7c-2,8.4-4,16.8-5.7,25.3c-0.8,3.9-1.1,7.9-1,11.9c0.3,9,4.4,13.7,13.1,14.8c5.9,0.7,12,0.6,17.9,0.6
			C2490.2,1494.9,2538.8,1494.9,2587.4,1494.9z M2197.3,1525.3c-6.5,3-9.5,4.1-12.2,5.7c-14.1,8.8-28.2,17.7-42.2,26.6
			c-58.9,37.5-117.7,75.2-176.8,112.4c-24.8,15.6-50.2,30.1-75.2,45.2c-3.1,1.9-7.7,3-6,8.5c28.6,8.5,76.6,14.3,112.4,14.3
			c10.3,0,19.6-2.4,28.7-7c51.2-25.7,100.1-55.3,148.4-85.9c7.5-4.8,10.7-10.7,11.4-19.4c1.7-19.1,4.5-38.2,6.7-57.2
			C2194,1555.4,2195.4,1542.3,2197.3,1525.3z M2914.1,1143.4c37.4-22.1,78.1-51.2,87.6-62.4c-10.1-19.7-30.4-43-47-53.6
			c-2.4,1.3-5.5,2.5-8.1,4.3c-30.3,20.3-60.6,40.7-90.8,61.2c-0.9,0.6-1,2.2-1.5,3.4C2861.3,1104,2898.1,1133.1,2914.1,1143.4z
			 M2346.2,1656.9c15,5.1,28.8,3.3,42.5,1.1c5.8-0.9,9.4-5.4,9.8-11.2c0.5-6.6,0.3-13.3-0.3-19.9c-0.7-7.9-1.9-15.9-3.5-23.7
			c-3.7-17.6-7.8-35-11.7-52.5c-1.1-4.7-3.1-8.8-7.7-11c-7.7-3.6-16.7,0.2-19.1,8.7c-2,7-2.8,14.3-3.9,21.5
			C2348,1598.3,2344.1,1626.5,2346.2,1656.9z M2318.3,1546.2c-0.4-9.8-8.3-14.8-15.6-11.5c-1.8,0.8-3.5,1.8-5.1,3
			c-21.2,16-41.4,33.2-57,55c-5.7,7.9-6.3,13.7-0.7,21.9c3.7,5.4,8.2,10.4,12.9,15.1c18.1,18.2,25.4,17.2,36.9-5
			c11.6-22.5,19.9-46.3,27-70.5C2317.5,1551.1,2317.9,1547.8,2318.3,1546.2z M2376.1,1457.4c-0.4,0-0.9,0-1.3-0.1
			c0-7.9,0.8-16-0.2-23.8c-1.4-11.1-9.1-17.6-20.1-18.4c-3.3-0.2-6.6,0.3-9.9,0.1c-10.6-0.6-17.9,4.7-20.2,15.3
			c-4,18.2-4,36.8-1.5,55.3c1.1,8.4,6.5,12.2,15.3,12.6c5.9,0.2,11.9,0,17.9-0.2c10.3-0.3,14.5-3.1,16.7-13.3
			C2374.7,1475.9,2375.1,1466.6,2376.1,1457.4z M2243.2,1439.5c-1.5,9.4-3.4,19.1-4.4,28.9c-2,20.2,5.5,27.8,26.3,27.4
			c1.3,0,2.7-0.1,4-0.2c8-0.7,11.3-3.3,11.4-10.9c0.2-13.3,1.3-26.3,5.1-39.2c2.8-9.7-2.3-14.8-12.9-14.8
			C2262.4,1430.6,2253.4,1434.4,2243.2,1439.5z M3069.9,942.2c1.7,10.3,3.3,22,5.9,33.4c1,4.1,3.7,9.3,7.2,11.2
			c9.8,5.2,20.3,9.4,30.9,13.2c5.2,1.9,11-3.6,9.9-9.1c-2.2-11-4.8-22-8-32.7c-1.1-3.4-4.3-6.9-7.5-8.9c-7.3-4.5-15-8.3-22.8-11.8
			C3080.2,935.3,3075,935.9,3069.9,942.2z M3310.9,827.2c-0.2-2.4,0.1-3.9-0.4-5c-3.9-10.5-7.5-21.1-12-31.4c-1.5-3.3-4.9-6.6-8.2-8
			c-8.5-3.6-17.3-6.5-26.2-8.8c-6.5-1.7-11.8,3.8-10.5,10.5c1.5,7.7,4.2,15.3,5.8,23c2.1,10.2,7.8,16.3,17.9,18.9
			c6.4,1.6,12.6,3.9,19,5.6c2.5,0.6,5.5,1.2,7.7,0.3C3306.7,831.3,3308.9,828.8,3310.9,827.2z M3033.7,973.2
			c-6.6-0.6-10.9,3.5-10.5,8.8c0.8,9.9,2.1,19.8,3.6,29.7c0.8,5.5,3.8,10.1,8.9,12.6c9,4.2,18.1,8.5,27.4,11.9
			c6.6,2.4,12.7-2.7,11.4-9.4c-2-10.4-4.6-20.8-7.3-31.1c-0.6-2.5-2-5.2-3.8-6.9C3054.3,980.6,3043,976.7,3033.7,973.2z
			 M3218.8,813.1c-6.9-0.2-10.9,3.7-10.2,9.3c1.5,10.5,3.2,21.1,6.1,31.3c1.1,3.9,5.1,8.2,8.9,10c8.3,4.1,17.2,7.2,26.1,9.9
			c9.3,2.8,14.7-2.2,12.4-11.3c-2.2-9-5.1-17.9-8.1-26.8c-1-3.1-2.5-6.6-4.8-8.5C3239.7,819.2,3228.2,815.8,3218.8,813.1z
			 M3164.1,867c1.3,6.6,2.7,16.5,5.4,26c1.2,4.1,4.5,8.8,8.2,10.6c9.5,4.7,19.5,8.3,29.6,11.6c5.5,1.8,11-3.1,10.1-8.9
			c-2-13.1-4.5-26.5-12.1-37.5c-5.9-8.5-17.1-9.5-26.1-13.7c-0.6-0.3-1.2-0.5-1.9-0.7C3169.1,851.9,3164,855.5,3164.1,867z
			 M3118.7,908.5c1.2,6.7,2.4,16,4.7,25c1.1,4.2,3.5,9.6,7,11.5c9.8,5.3,20.4,9.6,30.9,13.4c5.3,1.9,11.5-3.4,10.3-8.7
			c-2.7-11.6-5.9-23.1-9.5-34.5c-0.9-2.9-3.7-5.9-6.4-7.3c-8.2-4.2-16.7-8.2-25.4-11.2C3123.7,894.3,3118.5,899,3118.7,908.5z"/>
		<path d="M2296.1,678.1c-11-3.3-20.2-5.2-28.6-8.9c-16.1-7-20.8-30.8-9.2-44c5.1-5.8,11.5-9.1,19.3-8.9c5.3,0.1,10.6,0.7,15.8,1.8
			c31.8,6.9,63.6,14.1,95.4,21.2c3.2,0.7,6.6,1.3,9.7,2.3c18.6,5.9,24.8,28.9,11.7,43.5c-4.2,4.6-9.4,7.2-15.8,7.6
			c-4.5,0.3-8.9,0.9-14.1,1.5c1.9,8.8,3.8,16.5,5.2,24.3c3,16.4-0.1,31.9-8.2,46.2c-19.2,33.9-61.2,36.4-84,4.8
			c-16.5-23-17.5-48.2-6.7-73.9C2289,690,2292.4,685,2296.1,678.1z"/>
		<path d="M2733.3,677.7c4.1,7,7.1,11.4,9.4,16.2c10.2,21.8,10.5,44,0.1,65.6c-9.7,19.9-25.6,33.1-48.7,32
			c-23.1-1-37.5-15.4-45.7-36.2c-6.1-15.4-5.5-31.3-2-47.1c1-4.4,2.2-8.7,3.6-14.4c-4.3-0.4-7.4-0.6-10.6-1
			c-15.8-1.8-23.9-10-25.3-25.5c-1.2-13.1,6.2-22.6,21.5-26.7c8.3-2.2,16.9-3.4,25.4-5.3c26-5.7,51.9-11.6,77.8-17.3
			c4.5-1,9.1-2.3,13.7-2.6c11.7-0.8,20.5,5.6,23.8,17c1.1,3.8,1.8,7.8,2.2,11.8c1.4,13.7-4.5,23.1-18,27.3
			C2752.3,673.9,2743.8,675.3,2733.3,677.7z"/>
	</g>
	<g>
		<path d="M1069.8,2809.6c-5.2,0-9.1-0.4-13,0.1c-29.8,3.2-59.6,7.1-89.4,9.6c-44.5,3.6-89.1,7.1-133.8,4.8
			c-16.6-0.9-33.3-2.8-49.5-6.1c-43.8-8.9-73.5-35.8-91.9-75.8c-11.4-24.7-15.1-51-12.3-78.1c1.9-18.3,8.2-35,20.8-48.8
			c15.1-16.6,30.4-19.5,50-8.7c7.6,4.2,14.5,9.5,21.6,14.3c6.6,4.5,13.1,9.2,19.8,13.5c13.2,8.5,27.6,13.1,43.6,12
			c25.3-1.8,50.6-3,75.7-5.6c41.7-4.3,83.4-9.7,125.1-14.5c11.1-1.3,22.1-2.9,32.5-5c1.4-5.4-1.6-7.2-4.1-9.4
			c-5.5-4.8-11.2-9.4-16.6-14.4c-34.3-32-54.9-71.6-64.3-117.3c-4.7-22.9-7.2-45.9-7.9-69.4c-1.7-52.8,2.5-105.2,6.1-157.8
			c2.7-38.6,8-76.9,17.6-114.4c38.4-150.4,128-251.8,280.7-292.6c57.8-15.4,116.7-19.9,176.3-17.4c32.6,1.4,65.2,3.6,97.4,9.8
			c63.8,12.3,122.7,35.8,174.1,76.2c58.8,46.2,98.4,106.1,124,175.8c25.3,69,36.8,140.5,34,213.8c-5.2,136.8-60.5,248-171.5,330.1
			c-6.4,4.7-12.7,9.6-19,14.4c-0.5,0.3-0.5,1.2-1,2.4c3,6.3,10,7.7,15.5,10.5c37.2,18.7,70.8,42.6,100.7,71.5
			c49.6,47.7,85.3,103.6,101.5,171.3c8.8,36.9,8.2,74,5.1,111.3c-0.3,4-1.6,7.8-2.4,11.8c-7.7,37.7-41.3,71.2-95,59.8
			c-33.9-7.1-55.5-27.7-63.3-61.8c-2.2-9.7-3.1-19.7-4.7-29.6c-1.6-9.2-2.8-18.5-5.2-27.4c-4.3-16.4-12.5-30.7-25.2-42.4
			c-33.4-30.8-72.1-52-114.7-64.7c-1.8,1-2.4,1.3-2.9,1.7c-0.5,0.4-1.2,0.8-1.4,1.3c-25.1,71.6-50.2,143.2-75.2,214.9
			c-1.5,4.3-2.3,8.9-3.6,13.8c4.3,4.8,8.3,9.2,12.2,13.6c21.5,24.2,34,52.3,36.9,84.6c1.3,14.2-1.1,27.9-4.7,41.5
			c-9.4,35.4-29.4,63.9-57.7,86.7c-24.2,19.6-51.6,33-81.4,41.6c-69.6,20.1-140.1,24.7-211.6,11.8c-17.1-3.1-33.6-8.4-49.4-15.7
			c-14-6.5-26.9-14.7-38.1-25.4c-9.7-9.3-17.5-20-22.8-32.5c-14.8-34.8-3.3-68.6,29.7-87.1c13-7.2,27.2-10.8,41.6-13.7
			c9.1-1.9,18.4-3.4,27.3-6.1c17.4-5.4,22.2-13.7,18-31.8c-5.4-23.4-19.1-40.8-40.3-52c-22.5-11.9-46.7-15.1-71.7-13.2
			c-70.1,5.2-138.5,19.6-205.6,39.8c-58,17.5-115.3,37.2-172.9,56c-28.5,9.3-56.9,18.9-86.6,23.9c-12.6,2.1-25.1,2.2-37.7-0.6
			c-35.6-8-58-33.3-61.1-69.7c-1.8-21.7,2-42.5,10.5-62.4c15.1-35.5,39.7-63.1,71.9-83.6c16.8-10.7,34.7-19.8,52.7-28.5
			c57.8-27.9,118.6-47.8,180.8-63.3c53-13.2,106.4-24.4,159.7-36.5c4.5-1,9-2.6,13.6-3c9.8-0.8,15.6-5.6,18.5-15.1
			c3.2-10.2,7.6-19.9,11.2-30C1068.3,2818.6,1068.7,2814.8,1069.8,2809.6z M1385.6,2508.9c42.7,0.6,85.3-0.7,127.5-7.2
			c31-4.8,61.4-12,90.5-24.1c17.9-7.5,34.8-16.8,49.7-29.4c21.6-18.3,36.5-41,40.8-69.1c8.1-53.8-4.9-101.8-43.6-141.5
			c-16-16.4-34.7-29-55-39.4c-25-12.8-51.5-21.9-78.7-28.6c-64.5-15.7-130.2-20.1-196.4-18.6c-20.6,0.5-41.2,3.1-61.5,6.5
			c-43.1,7.2-84,21-120.5,45.7c-34.2,23.2-58.8,53.8-70.9,93.8c-8.4,27.8-10.9,56.2-8.1,85c1.3,14,5.3,27.3,12,39.9
			c12.7,23.9,32.3,40.3,56.3,51.9c28,13.5,57.8,20,88.3,23.8C1272.4,2504.7,1329,2506.8,1385.6,2508.9z M1166.2,2846
			c-7.2,1.6-15,2.8-22.5,5c-4.9,1.5-6.1,8.4-2,11.3c5.4,3.8,11.1,7.3,17,10c50.3,22.5,100.7,44.8,151,67.2c4.2,1.9,8.6,3.7,13,4.9
			c6.9,1.9,11.8,0,15-6.3c5.5-10.7,8.9-22.2,8.8-34.4c-0.1-8.1-3.6-14-11.5-16.9c-6.9-2.5-13.7-5.2-20.7-7.1
			c-30.1-8-60.2-16.4-90.5-23.5C1205.2,2851.9,1186.1,2849.4,1166.2,2846z M1375.2,3053.4c-1.8-8.5-2.6-17.1-5.5-25.1
			c-3.5-9.7-14.9-11.1-20.4-2.5c-15.4,24-30.1,48.4-40.9,75c-6,14.9,2.6,29.6,15.2,33.8c3.1,1.1,6.2,2.4,9.4,3.3
			c17,4.9,28-0.5,31.4-17.5C1368.9,3098.4,1371.7,3076,1375.2,3053.4z M1446.3,3147c11.9-0.1,21.5-6.3,30.8-12.5
			c12-8,13.3-13.4,7.8-26.8c-8-19.2-19.7-36.2-33-51.7c-6.6-7.7-16.8-12.4-25.8-17.9c-3.1-1.9-6.4,0.6-8,3.8
			c-0.8,1.7-1.3,3.8-1.3,5.8c-0.7,29.3,3,58.2,10.2,86.5C1429.7,3144.7,1434.4,3147.1,1446.3,3147z M1411.2,2908.5
			c-2.8,0-4.8,0.2-6.7,0c-10.2-1-16.5,3.9-19.6,13.1c-3.5,10.7-6.7,21.5-9.6,32.3c-1.3,5.1-1.9,10.4-2.1,15.7
			c-0.4,9.8,4.8,16.4,13.6,19.9c10.3,4.2,20.8,9.8,32.1,2.9c2.7-1.6,5.2-4.4,6.6-7.2c7.2-14.3,12.2-29.5,12.3-45.6
			c0-5.7-2.2-11.6-4.4-17.1C1429.4,2912.3,1422.6,2905.9,1411.2,2908.5z M1527.2,2969.9c-9.2-9.8-20.9-14.2-32.9-17.7
			c-7.5-2.2-14.9,1.4-18.5,8.3c-2.4,4.6-4,9.8-5.5,14.8c-5.9,20.3-9.4,28.3,19.7,38c1.3,0.4,2.5,0.9,3.8,1.3c10,2.5,17,0,21.8-8.9
			C1521.5,2994.6,1526.1,2982.9,1527.2,2969.9z"/>
		<path d="M1475,2314.6c-7.1-0.3-11.7-0.2-16.2-0.8c-12.8-1.7-20.3-10.3-21.8-24.6c-1.1-11.1,4.8-20.9,15.7-25.2
			c3.1-1.2,6.4-1.7,9.7-2.4c33.9-7.2,67.8-14.4,101.7-21.5c3.3-0.7,6.5-1.6,9.8-1.6c3.3-0.1,6.7,0.3,9.8,1.3
			c11,3.6,17.4,15.2,17.7,30.9c0.2,11.3-6.3,19.9-17.8,23.5c-3.8,1.2-7.8,1.8-11.7,2.6c-3.9,0.8-7.7,1.4-13.2,2.4
			c1.6,4.4,2.3,8.1,4.2,11.1c8.4,13.4,12.4,27.9,11.9,43.7c-0.5,18.3-8.2,34.2-20.7,46.3c-20.8,20-47.6,17.9-64.9,1.5
			c-19.1-18-24.3-40.6-19.8-65.9C1470.4,2329.4,1472.7,2323.1,1475,2314.6z"/>
		<path d="M1137.3,2310.6c-8.1-1.8-15.1-3.4-22.2-4.8c-7-1.4-12.2-5.5-15.1-11.8c-5.7-12.6-3-24.8,3.7-36c3.2-5.4,8.9-7.9,15.3-7.9
			c3.3,0,6.7,0.1,9.9,0.7c32,5.9,64,11.8,96,17.8c1.3,0.2,2.6,0.5,3.9,0.8c17.6,4.4,25.3,17.1,20.7,34.2
			c-2.9,10.9-9.9,16.8-21.3,17.7c-5.1,0.4-10.3,0.4-17,0.6c1.9,6.2,3.2,11.1,4.9,15.9c5,14.1,5.8,28.6,3.1,43.2
			c-2.1,11.4-6.8,21.5-14.8,30c-15.6,16.7-37.4,18.9-55.7,5.3c-14-10.4-22.2-24.6-24.9-41.7c-2.9-18.8-1.6-37.1,8.8-53.9
			C1134.4,2317.8,1135.5,2314.7,1137.3,2310.6z"/>
	</g>
	<g>
		<path d="M523.4,1175.9c-21.8,8.6-38.6,20.2-52.7,35.6c-7.3,7.9-12.7,17.1-15.6,27.6c-1.9,6.8-1.4,13,4.6,18.1
			c4,3.4,7.6,7.4,11,11.5c47.9,58,21.8,146.4-49.8,169.1c-69,21.9-139.3-30.6-138.1-101.5c0-0.7-0.1-1.4,0-2
			c5.4-23.6-1.2-45.9-6.3-68.6c-9.4-41.9-6.6-83.4,7.2-124c10.4-30.7,27.1-57.9,48.5-82c10.6-11.9,22.5-22.7,33.8-34
			c3.2-3.2,6.1-6.6,10.1-11c-6.8-4.1-12.3-7.6-17.9-10.9c-118.9-69.6-186.2-173.9-207-309.2c-12.1-78.8-8.2-156.8,12.6-233.8
			c12.4-46,31.9-89,59.7-127.9c44.4-62.1,103.5-104.7,174.2-132.1c38.7-15,78.9-24.3,119.7-30.9c44.2-7.1,88.6-10.7,133.4-8.5
			c44.1,2.1,87.4,9.2,129.1,24.1c79.5,28.3,141.3,78.9,186.7,149.7c32.4,50.4,53.8,105.5,67.7,163.5
			c13.1,55.1,23.3,110.8,30.9,166.9c5,37,7.3,74.2,1.8,111.6c-5.7,38.4-19.1,73.3-42.5,104.3c-3.9,5.2-9.8,9.2-10.5,17.5
			c3.4,1.5,6.8,3.4,10.5,4.7c50.7,18.1,77.4,56.4,89.7,106.7c5.6,22.9,6.4,46.1,0.7,69.3c-0.6,2.6-0.7,5.3-0.9,7.9
			c0,0.6,0.5,1.2,0.7,1.9c3.3,3.1,6.2,0.4,8.8-1c57.6-29.7,117.5-53.7,179.2-73c25.2-7.9,44.5-23.5,60.3-44.1
			c4.9-6.3,9-13.3,14-19.4c6.8-8.3,15.2-8.2,21.8,0.4c4,5.2,6.9,11.4,9.5,17.5c10.6,24.6,16.5,50.7,20.8,77
			c5.3,32.2,8.5,64.8,8.2,97.5c-0.1,11.9-1.7,23.9-2.8,35.8c-1.5,14.8-9.7,24.3-23.6,29.3c-16.9,6.1-33.7,12.2-50.5,18.5
			c-109.1,41.6-214.9,90.2-316.2,148.4c-6.9,4-13.7,8.2-20.7,12.2c-42.5,24-73.6,58.9-96.6,101.4c-18.9,34.8-31.5,71.8-40.5,110.2
			c-10.8,46.2-16.6,93-20.5,140.2c-2.1,25.9-4.8,51.7-8.4,77.4c-1.4,9.7-5.2,19.3-9.4,28.2c-8.3,17.3-21.9,28.4-41.7,29.8
			c-21.9,1.6-43.8,3.7-65.8,4c-38.6,0.4-77.3-0.4-116-0.9c-5.9-0.1-12.1-0.7-17.7-2.4c-12.2-3.8-16.7-16.7-9.5-27.3
			c5.3-7.6,11.4-14.9,17.9-21.5c15.5-15.7,21.7-34.3,21.4-56.2c-0.4-30.7-2.9-61.2-6.4-91.7c-4.8-41.7-9.3-83.4-15.1-124.9
			c-12.1-86.4-25.8-172.6-51.2-256.3c-10.5-34.4-21.8-68.5-32.9-102.7C529.4,1189.9,526.6,1183.9,523.4,1175.9z M735.4,475.2
			c-34.6-0.8-66.9,3.8-99.1,9.1c-50.8,8.3-100.5,20.3-148.1,40.2c-29,12.1-56.4,27.1-80.7,47.4c-18.6,15.5-34.4,33.4-45.7,54.9
			c-16.4,31.2-20.2,64.4-15.5,98.9c5.2,38,23.9,67.2,56.3,87.8c17.6,11.2,36.9,18.5,57.1,23.4c45.7,11,92.2,14,138.9,10.5
			c76.5-5.7,152-18.9,226.8-35.7c27.3-6.2,54.1-14.1,79.4-26.6c17.5-8.6,33.6-19.1,47-33.4c16-17,25.5-37.1,28.5-60.4
			c2.7-20.9-0.5-41.1-4.6-61.4c-12-58.2-45-100-98.4-125.6c-13.7-6.6-28.3-11.8-42.9-16.2C801.5,478.2,767.8,474.5,735.4,475.2z
			 M768.8,1220.2c2.1,12.8,7.1,26.5,13,40c2,4.6,6.9,5.9,12,4c2.5-0.9,4.8-2.2,7.2-3.4c26.6-13.7,53.2-27.3,79.8-41.1
			c1.8-0.9,3.4-2.1,5.1-3.1c10.3-6.1,20.5-12.4,31-18.2c24.6-13.4,49.3-26.4,73.9-39.7c5.3-2.8,10.5-5.9,15.3-9.4
			c1.8-1.3,4-5.6,3.4-6.3c-1.9-2.2-5-4.6-7.8-4.7c-5.2-0.3-10.6,0.8-15.8,1.7c-60.7,9.9-119.2,27.8-176.4,50.3
			c-5.5,2.2-11,4.9-15.7,8.4c-5.4,4-10.6,7.9-17.3,9.4C771.2,1209.2,768.8,1213.1,768.8,1220.2z M752.4,1366.2
			c1.4,7.8,3.5,20.9,6.4,33.9c3.1,13.6,6.6,27.2,10.9,40.4c4,12.1,13.2,17.1,25,13.2c9.3-3.1,18.3-7.9,26.7-13.1
			c6.2-3.8,8-10.5,5.4-17.6c-1.1-3.1-2.8-6-4.1-9.1c-10.6-24-25.5-45.1-43.7-63.9c-5.1-5.2-9.5-11.8-18.3-9.4
			C754.2,1342.3,751.6,1348.6,752.4,1366.2z M706.4,1383.3c0.4,0,0.7-0.1,1.1-0.1c0.5-6.6,1.3-13.3,1.3-19.9c0-6.1-6-9.3-11.4-6.2
			c-2.9,1.6-5.7,3.5-8.1,5.8c-22.4,21.4-34.1,48.8-43.3,77.5c-2,6.2,0.7,12,6.2,15.7c10.6,7.1,21.9,12.7,34.7,14.7
			c10.5,1.6,16.7-2,19.6-12.4c3.8-13.5,5.9-27.1,3.4-41.4C707.8,1405.9,707.5,1394.5,706.4,1383.3z M707.7,1226
			c-20.7,0-35.1,19-28.8,36.1c3.7,9.9,6.4,20.2,10.3,30.1c1.9,4.8,5.1,9.4,8.7,13.1c12.3,12.8,28.2,11.9,39.7-1.7
			c5.7-6.9,9.2-14.8,8-23.8c-2.1-16-7.5-30.9-17.6-43.7C722.8,1229.5,716,1225.6,707.7,1226z M659.8,1326c-0.3-2.4-0.2-3.8-0.6-5
			c-5-13-9.9-26.2-15.3-39c-2.7-6.4-8.1-8.5-14.9-7c-3.9,0.9-7.6,2.3-11.3,3.9c-21.9,9-24.1,14-15.4,36.4
			c3.6,9.3,7.6,18.5,11.7,27.5c1.8,3.9,5.8,6.6,9.8,4.8c10.9-4.8,21.5-10.3,32.1-15.9C657.9,1330.5,658.9,1327.5,659.8,1326z"/>
		<path d="M477.3,653c-7.8-0.6-14.3-1.1-20.8-1.5c-10.7-0.6-20.4-4.1-23.8-14.8c-3.7-11.5-4.2-23.8,4-34.2
			c5.8-7.4,14.2-9.4,23.3-8.6c11.2,1,22.5,2,33.7,3c24.5,2.2,49,4.5,73.4,6.7c2.6,0.2,5.3,0.4,7.9,0.9c12.7,2.4,20.8,11.1,21.3,22.7
			c0.5,12.4-7.4,23.7-19.2,27.1c-4.9,1.4-10,2.3-15.9,3.6c2.7,6.6,5.1,12,7.2,17.6c5.7,15.4,7.2,31.2,1.8,46.9
			c-2.8,8-6.7,16.1-12,22.7c-16.2,20.2-43.1,23.4-64.2,8.4c-15.4-11-24.1-26.4-26.8-45c-2.1-14.7-1-29.2,5.4-42.9
			C474.4,662.1,475.4,658.3,477.3,653z"/>
		<path d="M824.9,631.8c-8.1,0.9-13.3,1.9-18.5,2.1c-13.6,0.6-20.1-5.3-24.3-21.2c-3-11.3,1.2-21.9,11-27.2
			c3.5-1.9,7.3-3.1,11.1-4.3c29.8-9.4,59.6-18.7,89.4-28c0.6-0.2,1.3-0.3,1.9-0.5c10.8-4.2,21.4-4.7,28.9,5.4
			c7.8,10.7,10.1,23.2,5.3,35.9c-2.5,6.6-8.4,10.1-14.9,12.3c-6.2,2-12.4,4-20.2,6.4c3.2,4.4,5.4,7.4,7.5,10.4
			c17.6,25.1,19.4,51.9,7.1,79.3c-7.6,16.8-20.9,28.2-40.1,28.4c-19.1,0.3-32.3-10.8-41.2-27c-9.7-17.7-11.4-36.5-6.3-56
			C822.7,643.5,823.4,639.1,824.9,631.8z"/>
	</g>
</g>
</svg>
