<?xml version="1.0" encoding="utf-8"?>
<!-- Generator: Adobe Illustrator 25.3.1, SVG Export Plug-In . SVG Version: 6.00 Build 0)  -->
<svg version="1.1" id="Layer_1" xmlns="http://www.w3.org/2000/svg" xmlns:xlink="http://www.w3.org/1999/xlink" x="0px" y="0px"
	 viewBox="0 0 810 86.1" style="enable-background:new 0 0 810 86.1;" xml:space="preserve">
<g>
	<path d="M71.1,36.9c0.1,4.8,0.2,9.5,0.2,14c0,4.7-0.1,7.4-0.3,8c-0.2,0.5-0.5,1-1,1.5c-0.5,0.5-1,0.9-1.4,1c-0.3,0.1-0.6,0.2-1,0.2
		c-0.7,0-1.6-0.2-2.5-0.6c-1-0.4-2.2-1.1-3.6-2.1c-1.1-0.7-2.4-1.8-3.9-3.4c-1.6-1.6-2.8-3-3.7-4.2l-1.4-1.9l-0.2,0.8L52,52.9
		c-0.2,1.3-0.4,2.7-0.6,4.1c-0.3,1.4-0.5,2.4-0.7,2.9c-0.2,0.6-0.3,0.9-0.4,0.9c0,0-0.1,0-0.1-0.1c0-0.2,0.1-0.5,0.2-0.9
		c0.2-0.7,0.3-1.2,0.3-1.4v-0.1c-0.1,0-0.2,0.3-0.4,0.8c-0.3,1.2-0.9,2.2-1.8,3.2c-0.4,0.4-0.7,0.5-0.7,0.3c0-0.2-0.1-0.4-0.4-0.5
		c-0.3-0.1-0.5-0.1-0.6,0c-0.1,0.2-0.3,0.2-0.5,0c-0.2-0.1-0.4-0.1-0.4,0.1c0,0.1,0,0.1-0.1,0.1c-0.1,0-0.1-0.1-0.1-0.2
		c0-0.1-0.1-0.2-0.2-0.3c-0.1-0.1-0.1-0.1-0.2-0.1c-0.1,0-0.2-0.2-0.2-0.5c0-0.2,0-0.4-0.1-0.4c-0.1,0-0.2,0.1-0.3,0.2
		c-0.1,0.1-0.3,0.2-0.4,0.2c-0.2,0-0.4-0.4-0.4-1.1V60c0.2-1,0.3-2.1,0.3-3.6c0-0.1,0-0.1-0.1-0.2c0.1-0.6,0.2-1.7,0.3-3.4
		c0.2-2.1,0.3-4.6,0.3-7.4c0-3.8-0.2-6.7-0.6-8.9c-0.1-0.8-0.2-2.4-0.3-4.7c0-0.8-0.1-1.7-0.1-2.6c0-0.5,0-0.8,0.1-0.9
		c0.1-0.1,0.1-0.1,0.3-0.1h0.2c0.1,0,0.3-0.1,0.4-0.2c0.1-0.1,0.1-0.2,0.1-0.2c0,0,0.1,0.1,0.1,0.2c0.1,0.2,0.1,0.3,0.2,0.3
		c0,0,0.1-0.1,0.1-0.2c0-0.1,0-0.2,0.1-0.3c0.1-0.4,0.2-0.6,0.3-0.7c0.3-0.2,0.8-0.3,1.5-0.4s1.5-0.2,2.2-0.2c1.1,0,1.8,0.1,2.1,0.1
		c0.3,0.1,0.4,0.1,0.4,0.3c0,0.2,0.2,0.3,0.6,0.3c0.3,0,0.7,0,1.1,0.1c0.3,0.1,0.5,0.2,0.5,0.3c0.1,0.1,0.1,0.5,0.2,1.2
		c0.1,0.8,0.2,1.9,0.5,3.4c0.2,1.4,0.5,2.6,0.7,3.5c0.4,1.6,1,3.4,1.7,5.3c0.8,2,1.5,3.5,2.2,4.6c0.5,0.8,1.1,1.7,1.9,2.7
		c0.8,1,1.4,1.8,1.8,2.2l0.7,0.6l0.1-1.8c0.1-2.4,0.2-5,0.3-8c0.1-4.2,0.2-7,0.4-8.4l0.3-2.2l-0.1,2.8c-0.1,1.7-0.1,2.8,0.1,3.3
		c0.1,0.2,0.1,0.1,0.2-0.4c0.1-0.5,0.1-1.1,0.1-2c0.1-1.9,0.2-3.5,0.4-4.7c0.2-1.2,0.5-2.3,0.9-3.4c0.1-0.3,0.2-0.5,0.2-0.6
		c0.1-0.1,0.1,0,0.1,0.3c0,0.3,0.2,0.5,0.4,0.7c0.2,0.2,0.4,0.2,0.5,0.1c0.1,0,0.2-0.3,0.3-0.9c0.1-0.4,0.1-0.5,0.1-0.2
		c0.1,0.4,0.2,0.7,0.3,0.7l0.1,0.1c0.1,0,0.2-0.2,0.2-0.7c0-0.4,0.1-0.5,0.1-0.3c0,0.4,0.1,0.7,0.3,1.1c0.2,0.3,0.3,0.5,0.4,0.5
		s0.2,0.3,0.2,0.9c0,0.3,0,0.6,0,0.6c0,0.1,0.1,0,0.2-0.2c0.2-0.3,0.3-0.6,0.3-0.9c0-0.2,0-0.3,0.1-0.3c0.1,0,0.2,0.1,0.3,0.3
		c0.1,0.2,0.2,0.4,0.2,0.7C70.8,29.1,71,32.1,71.1,36.9z M45.2,28.9C45.1,29,45,29.3,45,29.8c0,0.5,0,0.6,0.1,0.5c0,0,0-0.1,0.1-0.3
		c0-0.1,0.1-0.3,0.1-0.6C45.2,28.9,45.2,28.7,45.2,28.9z"/>
	<path d="M73.7,37.4c0-0.1,0-0.1-0.1-0.2c-0.1,0-0.1,0-0.2,0c-0.2,0.1-0.4-2.7-0.5-8.2l-0.1-2.8l0.7-0.1c0.6-0.1,2-0.1,4.1-0.2
		l3.4-0.2v4.6c0,1.6,0,2.7,0,3.4c0,0.7-0.1,1.1-0.2,1.1c-0.2,0-0.3-0.2-0.4-0.7c0-0.2,0-0.3,0-0.4c0-0.1,0-0.1,0-0.2l-0.1,0.6
		c0,0.5-0.1,1-0.2,1.2c0,0.1-0.1,0.2-0.1,0.2l-0.1-0.6c0-0.4,0-0.6-0.1-0.6c0,0-0.1,0.7-0.3,2c-0.1,0.5-0.1,1-0.2,1.3
		c-0.1,0.3-0.2,0.6-0.3,0.7c-0.1,0.1-0.2,0.1-0.3,0.1c-0.1,0-0.2,0-0.2,0h-0.1c0,0-0.2,0.1-0.4,0.3c-0.1,0.2-0.3,0.4-0.6,0.4
		c-0.1,0-0.3-0.1-0.4-0.2c-0.1-0.1-0.3-0.2-0.6-0.1h-0.2c-0.2,0-0.5-0.1-0.7-0.2c-0.1-0.1-0.3-0.2-0.4-0.2c-0.1,0-0.2,0-0.3,0.1
		c0,0-0.1,0.1-0.2,0.1c-0.1,0-0.3-0.2-0.7-0.5C73.9,37.9,73.7,37.6,73.7,37.4z M81.9,57.3c0,1-0.1,1.8-0.2,2.6
		c-0.1,0.7-0.2,1.1-0.4,1.1c-0.2,0-0.3-0.1-0.3-0.3c0-0.1,0-0.1-0.1,0c-0.1,0.1-0.1,0.2-0.1,0.3c-0.1,0.2-0.1,0.3-0.2,0.3
		c0,0-0.1-0.1-0.2-0.2c0-0.1-0.1-0.2-0.2-0.2c0,0-0.1,0.2-0.2,0.5c-0.2,0.5-0.5,0.7-0.8,0.8c-0.5,0.1-1.4,0.2-2.6,0.2
		c-0.5,0-0.8,0-1-0.1c-0.2,0-0.7-0.1-1.5-0.3l-0.8-0.2l0.1-5.2c0.1-4.1,0.2-7,0.3-8.9c0.1-1.9,0.2-2.9,0.3-3.1l0.1-0.2
		c0,0,0.1,0.2,0.1,0.6c0,0.4,0,0.7,0.1,0.7c0,0,0.1-0.3,0.2-0.9c0-0.2,0.2-0.5,0.4-0.9c0.2-0.4,0.4-0.7,0.7-0.9
		c0.2-0.2,0.3-0.2,0.3-0.1c0,0.1,0.3,0.2,0.9,0.2c0.2,0,0.5,0,0.7-0.1c0.2,0,0.3-0.1,0.3-0.2c0,0,0-0.1,0.1-0.1
		c0.1,0,0.2,0.1,0.4,0.2c0.2,0.1,0.4,0.2,0.5,0.4c0,0,0.1,0.1,0.2,0.1c0.2,0,0.4,0,0.5-0.1c0.2-0.1,0.3-0.2,0.4-0.2
		c0.1,0,0.2,0.1,0.2,0.3c0.3,0.6,0.6,1.4,0.8,2.4c0.2,1,0.3,2.4,0.4,4.2c0.1,1.4,0.2,2.7,0.3,3.9C81.8,54.9,81.9,55.9,81.9,57.3z
		 M79.9,32.1c0,0.2,0,0.1,0.1-0.2c0.1-0.8,0.2-1.3,0.2-1.5c0-0.4,0-0.7-0.1-0.7c0,0-0.1,0.5-0.2,1.5C79.9,31.7,79.9,31.9,79.9,32.1z
		 M80.1,36.8c0,0,0.1,0.2,0.1,0.5c0,0.3-0.1,0.5-0.2,0.5s-0.1-0.2-0.1-0.5C80,37,80.1,36.8,80.1,36.8z M80,28v0.6
		c0,0.5,0,0.6,0.1,0.5c0-0.1,0.1-0.3,0.1-0.5c0-0.2,0-0.4-0.1-0.5C80.1,28.2,80.1,28.1,80,28z M80.6,59.5
		C80.6,59.4,80.6,59.4,80.6,59.5c-0.1,0.1-0.1,0.2-0.1,0.3c0,0.1,0,0.2,0,0.3c0,0.1,0,0.1,0.1,0C80.7,59.9,80.7,59.7,80.6,59.5z
		 M80.8,58.5c0-0.1-0.1,0-0.1,0.2c0,0.2,0,0.3,0.1,0.3C80.9,58.8,80.9,58.6,80.8,58.5z"/>
	<path d="M109.3,36.1c0,2.7-0.2,5.4-0.5,8.1l-0.5,4.9c-0.1,1-0.3,2.4-0.5,4.2c-0.3,1.8-0.5,3.2-0.7,4.2c-0.1,0.5-0.2,1.1-0.4,1.8
		c-0.2,0.7-0.3,1-0.4,0.9v-0.1l0.1-0.7c0.1-0.3,0.2-0.7,0.2-1.3v-0.5c0,0-0.1,0.1-0.1,0.2c0,0.1,0,0.2-0.1,0.4
		c-0.1,0.5-0.3,1.1-0.6,1.8c-0.3,0.6-0.6,1.2-1,1.7c-0.2,0.2-0.4,0.4-0.5,0.5c-0.1,0.1-0.2,0-0.2-0.2c0-0.2-0.1-0.4-0.2-0.5
		c-0.1-0.1-0.3-0.2-0.5-0.2c-0.3,0-0.5,0.1-0.5,0.4c0,0.1,0,0.2,0,0.2c0,0-0.1-0.1-0.1-0.2c-0.1-0.1-0.1-0.2-0.2-0.2
		c-0.1-0.1-0.1-0.1-0.2-0.1c-0.1,0-0.2,0.1-0.3,0.3c0,0.1,0,0.1-0.1,0.1c0,0-0.1-0.1-0.1-0.2c0-0.2-0.1-0.4-0.3-0.6
		c-0.1,0-0.2-0.2-0.3-0.6l-0.1-0.4l-0.8,0.9l-0.3-0.7c-0.1-0.3-0.2-0.8-0.2-1.6c0-1.6,0.2-4.7,0.6-9.2c0.2-2.7,0.4-5.1,0.5-7.2
		l0.2-3.2l-0.7,0.5c-0.5,0.4-1.5,1.1-2.7,2c-1.3,0.9-2.4,1.7-3.4,2.4L93,45.2l-0.3,2.8c-0.2,2.4-0.6,4.7-1.1,7.1
		c-0.5,2.3-1.1,3.9-1.6,4.8c-0.1,0.2-0.2,0.3-0.3,0.4c-0.1,0.1-0.1,0.1-0.1,0c0.6-1.5,0.9-2.3,0.8-2.4c0,0-0.1,0-0.1,0
		c0,0.1-0.1,0.1-0.1,0.2c-0.5,1.6-1.4,2.9-2.8,3.9C87.3,62,87.3,62,87.2,62c0,0-0.1-0.1-0.1-0.2c0-0.2-0.1-0.4-0.4-0.6
		c-0.3-0.1-0.5-0.1-0.6,0.1c-0.1,0.1-0.2,0.2-0.2,0.2c-0.1,0-0.1-0.1-0.2-0.2c-0.1-0.1-0.2-0.2-0.2-0.2c-0.1,0-0.1,0-0.2,0.2
		c-0.1,0.2-0.2,0.2-0.2-0.1c0-0.3-0.1-0.4-0.2-0.5c-0.1-0.1-0.1-0.3-0.1-0.6l0.1-0.4c0,0,0-0.1-0.1-0.1c-0.1,0-0.2,0.1-0.4,0.2
		c-0.2,0.1-0.3,0.2-0.4,0.2c-0.3,0-0.4-0.3-0.4-0.8c0-0.4,0.1-1.2,0.4-2.3c0.3-1.2,0.5-2.3,0.6-3.4c0.2-1.1,0.3-2.3,0.4-3.8
		c0.2-1.6,0.3-2.6,0.3-2.8c0-0.4-0.1-0.6-0.2-0.8c-0.2-0.2-0.2-0.3,0-0.4c0.1-0.1,0.1-0.1,0.1-0.1c0,0-0.1,0-0.2,0
		c-0.2,0-0.3-0.1-0.3-0.2c0-0.1,0-0.2,0.2-0.3c0,0,0.1,0,0.1-0.1c0-0.1-0.2-0.2-0.5-0.3c-0.5-0.1-0.7-0.4-0.8-0.7
		c-0.1-0.2-0.2-0.5-0.3-0.9c-0.1-0.2-0.1-0.6-0.1-1.1c0-0.6,0-1.2,0.1-1.8c0.1-0.6,0.1-1,0.2-1.2c0.1-0.4,0.2-0.6,0.2-0.6
		c0-0.1,0.1-0.2,0.4-0.2c0.2,0,0.5,0,0.8-0.1c0.1,0,0.2-0.1,0.3-0.3c0.1-0.2,0.1-0.7,0.1-1.4c0-0.8,0-1.8,0-3.1c0-2.2,0-3.8,0.1-4.5
		c0.1-0.8,0.2-1.2,0.5-1.2c0,0,0.1,0,0.2,0c0.1,0,0.2,0,0.3-0.1c0.1-0.1,0.2-0.1,0.3,0.1l0.1,0.1c0.1,0,0.1-0.1,0.2-0.4
		c0.1-0.4,0.3-0.7,0.7-0.8s1.2-0.2,2.3-0.2c0.6,0,1.1,0,1.5,0.1c0.4,0,0.7,0.1,0.9,0.1l0.7,0.2l0.4,0.2v8.8l0.6-0.3
		c0.6-0.3,1.3-0.8,2.2-1.5c0.9-0.7,1.8-1.5,2.6-2.4c0.7-0.7,1.2-1.2,1.3-1.5c0.2-0.3,0.3-0.6,0.3-0.9c0-0.3,0-0.4,0.1-0.5
		c0.1-0.1,0.1-0.1,0.3-0.1h0.1c0.3,0,0.6-0.3,0.9-0.9c0.4-0.6,0.7-0.9,0.7-0.9c0.4,0,1-0.2,1.8-0.6c0.7-0.4,1-0.4,1-0.2
		c0,0.1,0.1,0.2,0.3,0.2c0.2,0,0.5,0.1,0.8,0.1c0.6,0,1.1,0,1.3,0.1c0.2,0.1,0.4,0.2,0.5,0.3c0.1,0.2,0.2,0.5,0.3,1
		C109.1,30,109.3,32.9,109.3,36.1z M86.6,29.3C86.6,29.3,86.5,29.3,86.6,29.3c-0.1,0-0.1,0-0.1,0.1c0,0.1,0,0.2,0,0.3
		c0,0.1,0,0.2,0,0.3c0,0.1,0,0.1,0.1,0C86.6,29.7,86.6,29.5,86.6,29.3z M86.8,28C86.7,27.9,86.7,27.9,86.8,28
		c-0.1,0.1-0.1,0.2-0.1,0.3c0,0.1,0,0.2,0,0.3c0,0.1,0,0.1,0.1,0C86.8,28.5,86.8,28.3,86.8,28z"/>
	<path d="M125,37c0.1,0.1,0.1,0.5,0.2,1.1c0,0.3,0.1,1,0.1,1.9c0,1.3,0,2.7-0.1,4.2c-0.1,1.5-0.2,2.7-0.3,3.4
		c-0.3,1.7-0.8,3.4-1.5,5.2c-0.7,1.8-1.6,3.2-2.5,4.4c-0.5,0.7-1.3,1.5-2.5,2.6c-1.1,1-1.9,1.7-2.4,1.9l-0.7,0.4l0.7-0.6
		c0.5-0.4,0.7-0.7,0.7-0.8c0,0,0-0.1-0.1-0.1c-0.1,0-0.3,0.1-0.7,0.4c-0.4,0.4-1,0.6-1.5,0.7l-1.2,0.2c-0.2,0-0.3,0-0.3-0.2v-0.3
		c0-0.3-0.1-0.5-0.3-0.6c-0.2-0.1-0.4-0.1-0.4-0.1l-0.2-0.3c-0.1-0.3-0.3-0.4-0.4-0.3c-0.1,0.1-0.1-0.2-0.1-0.7v-0.3
		c0-0.2,0-0.3-0.1-0.3c0-0.1-0.1-0.1-0.3-0.1c-0.1,0-0.2-0.1-0.3-0.2c-0.1-0.1-0.1-0.2,0-0.4c0-0.3,0.2-0.7,0.6-1.1
		c0.3-0.5,0.9-1.2,1.7-2.1c0.6-0.7,1.3-1.6,2-2.7c0.7-1.1,1.1-1.9,1.4-2.6c0.2-0.5,0.3-1.1,0.4-1.8c0.1-0.6,0.1-2.1,0.2-4.2
		c0.1-2.7,0.2-4.4,0.2-5.4c0-0.3,0.1-0.4,0.3-0.5c0.2-0.1,0.3,0,0.3,0.3c0,0.1,0,0.1,0.1,0c0.1-0.1,0.1-0.2,0.1-0.3
		c0.1-0.2,0.1-0.3,0.2-0.3c0.1,0,0.1,0.1,0.1,0.2c0.1,0.1,0.1,0.2,0.2,0.2c0,0,0.1-0.2,0.2-0.6c0.2-0.6,0.4-0.9,0.6-0.9
		c0.1-0.1,0.5-0.1,1.2-0.2c0.7-0.1,1.5-0.1,2.2-0.1c0.8,0,1.4,0.1,1.8,0.3C124.7,36.7,125,36.9,125,37z M125.2,33.4l-3.7,0.6
		c-2.1,0.3-3.3,0.5-3.7,0.5c-0.2,0-0.3,0-0.4-0.1c-0.1-0.1-0.1-0.2-0.1-0.3c-0.1-0.3-0.2-1.3-0.3-3c0-0.7-0.1-1-0.2-1
		c-0.1,0-0.1,0-0.1,0c-0.1-0.3,0-0.4,0.2-0.4c0.1,0,0.1,0,0.2,0.1c0.1,0,0.1,0.1,0.1,0.2c0,0.1,0.1,0,0.3-0.4l0.3-0.6l0.1,0.6
		c0,0.2,0,0.4,0.1,0.4l0.1-0.5c0.1-0.3,0.1-0.6,0.1-0.8l-0.1-0.5c0-0.3,0-0.6,0.2-0.9c0.2-0.3,0.4-0.5,0.6-0.5
		c0.2,0,0.4-0.1,0.5-0.3c0.1-0.2,0.6-0.3,1.5-0.3c0.5,0,1,0,1.6,0.1c0.5,0.1,0.9,0.2,1,0.3c0.1,0.1,0.2,0.2,0.3,0.3s0.1,0.2,0.2,0.3
		c0,0,0,0.1,0.1,0.1c0.1,0,0.1,0.1,0.2,0.1c0.2,0,0.3,0.1,0.3,0.2l0.5,3.2C125.4,32.4,125.5,33.4,125.2,33.4z M117.6,28.3
		c0,0,0-0.1,0-0.2c0-0.1,0-0.2,0-0.3c0-0.1,0-0.2,0-0.3c0-0.1,0-0.1,0.1,0L117.6,28.3C117.7,28.3,117.7,28.3,117.6,28.3z
		 M118.2,32.5c0-0.6,0-1-0.1-1.4c0-0.2-0.1-0.6-0.2-1.2c-0.1-0.6-0.1-0.7-0.1-0.3c0,0.7,0,1.3,0.1,1.7l0.2,1.8
		C118.2,33.1,118.2,32.9,118.2,32.5z M118.2,39.6l-0.1-0.1c0,0-0.1,0.1-0.1,0.4c0,0.2,0,0.3,0,0.4c0,0.1,0,0.1,0,0
		C118.2,40.2,118.2,39.9,118.2,39.6z M118.3,37.3c0-0.1,0-0.1,0-0.2c0-0.2,0-0.3,0.1-0.2C118.5,37.1,118.5,37.3,118.3,37.3
		C118.4,37.4,118.3,37.4,118.3,37.3z"/>
	<path d="M147.4,59c-0.1,0-0.1-0.2-0.2-0.6c0-0.3-0.1-0.6-0.2-0.8c-0.1-0.2-0.1-0.3-0.2-0.4c0,0,0,0.1,0,0.3l0.1,0.9
		c0,0.9-0.1,1.8-0.2,2.5c-0.1,0.7-0.3,1-0.4,0.8c0-0.1-0.1-0.1-0.2-0.2c-0.1-0.1-0.2-0.1-0.4-0.1c-0.2,0-0.3,0-0.4,0.1
		c-0.1,0-0.1,0.1-0.2,0.3c0,0.2-0.1,0.3-0.1,0.3c-0.1,0-0.1,0-0.3-0.1c-0.1,0-0.2,0-0.3,0c-0.1,0-0.1,0.1,0,0.3c0,0.2,0,0.2-0.1,0.1
		c-0.1-0.2-0.3-0.3-0.5-0.3c-0.2-0.1-0.4-0.2-0.6-0.5l-0.2-0.5l-0.3,0.6c-0.1,0.3-0.2,0.4-0.2,0.5c0,0-0.1,0-0.3-0.2l-0.6-0.5
		c-0.2-0.2-0.5-1.5-0.8-3.9c-0.3-2.4-0.5-4-0.6-4.8h-5.6l-0.2,3c-0.1,1.9-0.2,3.1-0.3,3.7l-0.2,0.8v-0.9c0.1-1.1,0.1-1.6-0.1-1.6
		c-0.1,0-0.1,0.3-0.2,0.8c0,0.5-0.2,1.1-0.4,1.7c-0.2,0.6-0.4,1.1-0.7,1.5c-0.2,0.4-0.4,0.5-0.5,0.3c-0.1-0.2-0.3-0.4-0.6-0.4
		c-0.2,0-0.4,0.1-0.6,0.4c-0.1,0.1-0.1,0.2-0.2,0.3c-0.1,0-0.1,0-0.1-0.2c0-0.2-0.1-0.3-0.3-0.3h-0.2c-0.3,0-0.7-0.3-1-0.9
		c-0.1-0.2-0.2-0.3-0.2-0.3l-0.3,0.4c-0.1,0.2-0.2,0.4-0.3,0.4c-0.1,0-0.3-0.2-0.5-0.7c-0.3-0.7-0.6-2.3-0.7-4.8
		c-0.2-2.5-0.3-5.6-0.3-9.2c0-2.4-0.1-5-0.2-7.8C127,37,127,35,127,33.4c0-1.5,0.1-2.8,0.2-3.8c0.2-1.3,0.3-1.9,0.5-1.9
		s0.3,0.1,0.3,0.4c0,0.2,0.1,0.1,0.2-0.2c0.1-0.3,0.3-0.4,0.4-0.2c0.1,0.1,0.1,0.1,0.2,0.1s0.1-0.1,0.1-0.3c0.1-0.3,0.2-0.6,0.4-0.7
		c0.2-0.1,0.5-0.2,0.9-0.3c0.6-0.1,3.2-0.1,7.9-0.2l5-0.1c1.4,0,2.2,0.1,2.3,0.3c0.2,0.2,0.5,0.3,0.8,0.4l0.6,0.1l-0.1,2.9
		c-0.1,1.6-0.2,4.9-0.2,9.9c0,3.2,0.3,8,0.8,14.2c0.2,2,0.3,3.2,0.3,3.7C147.5,58.5,147.5,59,147.4,59z M128.5,27
		c0-0.1,0-0.1,0.1-0.2c0,0,0.1,0,0.1,0.1c0.1,0.2,0.1,0.3-0.1,0.4C128.5,27.4,128.5,27.3,128.5,27z M134.9,51.6c0,0,0.1,0.1,0.2,0.1
		c0.2,0,0.3,0,0.3-0.1c-0.1-0.1-0.3-0.1-0.4-0.1C134.9,51.5,134.9,51.5,134.9,51.6z M136.9,44.6l1.9-0.1l-0.1-0.5
		c-0.1-0.5-0.1-1.4-0.2-2.9c0-1.1-0.1-2.6-0.3-4.5l-0.2-2.3h-1.4c-0.9,0-1.4,0.1-1.4,0.2c-0.1,0.1-0.1,1.8-0.2,5.2l-0.2,5
		L136.9,44.6z M135.6,52.1C135.6,52.1,135.6,52.1,135.6,52.1c-0.1-0.1-0.3-0.1-0.6-0.1c-0.1,0-0.1,0.1,0,0.1c0.1,0,0.1,0,0.3,0
		C135.4,52.1,135.5,52.1,135.6,52.1z M136,33.4c0,0,0.1,0,0.3,0c0.2,0,0.3,0,0.6,0c0.3,0,0.5,0,0.7,0c0.2,0,0.2,0-0.1-0.1
		c-0.1,0-0.3-0.1-0.7-0.1c-0.3,0-0.6,0-0.7,0.1C136.1,33.3,136,33.3,136,33.4z M138,51.5C138,51.5,138,51.5,138,51.5l-0.5-0.1
		c-0.1,0-0.1,0.1,0,0.1c0.1,0,0.2,0,0.3,0C137.9,51.6,137.9,51.6,138,51.5z M139.7,51.7C139.8,51.7,139.8,51.7,139.7,51.7
		c-0.1-0.1-0.3-0.1-0.5-0.1s-0.3,0-0.4,0.1l-0.1,0.1c0,0,0.2,0.1,0.5,0.1C139.4,51.8,139.6,51.8,139.7,51.7z"/>
	<path d="M194.1,27.6l-0.1,2.6c-0.1,3-0.2,8.3-0.2,16.1c0,9-0.1,13.7-0.2,14.1c0,0.2-0.1,0.4-0.1,0.4c0,0-0.1-0.4-0.1-1.1
		c-0.1-0.9-0.1-1.2-0.2-0.8c-0.2,1.7-0.4,2.9-0.8,3.6c-0.2,0.4-0.3,0.6-0.4,0.6c-0.1,0.1-0.2,0-0.4-0.1c-0.2-0.1-0.4-0.2-0.6-0.2
		c-0.2,0-0.4,0.2-0.5,0.5c-0.1,0.3-0.2,0.3-0.2,0.2c0-0.2-0.1-0.3-0.3-0.3c-0.2-0.1-0.3,0-0.3,0.2c0,0,0,0.1-0.1,0.1l-0.4-0.3
		c-0.3-0.3-0.5-0.6-0.5-0.7c0-0.1-0.1-0.2-0.2-0.2c-0.1,0-0.2,0.1-0.3,0.3c-0.2,0.4-0.4,0.4-0.7-0.1c-0.3-0.4-0.5-1.1-0.6-2
		c-0.2-1-0.3-2.6-0.5-5c-0.2-2.4-0.3-4.9-0.4-7.7c-0.1-2.1-0.1-3.6-0.2-4.3c-0.1-0.7-0.1-1.1-0.1-1.1c-0.1,0-0.3,0.4-0.7,1.2
		c-0.3,0.7-0.6,1.2-0.8,1.4c-0.1,0.1-0.4,0.5-0.8,1.2c-0.6,1-1.1,1.8-1.6,2.4c-0.1,0.2-0.3,0.4-0.4,0.5c-0.1,0.1-0.2,0.2-0.3,0.1
		v-0.1c0-0.1,0.1-0.2,0.2-0.4c0.2-0.3,0.4-0.6,0.5-0.9c0.1-0.4,0.1-0.4-0.1-0.2c-0.2,0.3-0.6,0.7-1,1.1c-0.5,0.4-0.9,0.7-1.1,0.8
		c-0.1,0-0.3,0.1-0.5,0.1c-0.1,0-0.3-0.1-0.4-0.3c-0.1-0.2-0.4-0.4-0.8-0.6c-0.5-0.2-0.7-0.2-0.8,0c-0.1,0.1-0.1,0.1-0.1-0.2
		c0-0.1-0.1-0.3-0.2-0.5c-0.1-0.1-0.2-0.2-0.2-0.4c0-0.1,0-0.1-0.1-0.2c-0.1,0-0.2-0.1-0.3-0.1c-0.4,0-0.6-0.3-0.6-0.8
		c0-0.4,0.1-1,0.4-1.6l0.5-1.3l-1.3-1.4c-0.5-0.5-0.9-1-1.2-1.3c-0.3-0.3-0.5-0.5-0.6-0.5c-0.1,0-0.2,0.1-0.2,0.4
		c-0.1,0.2-0.1,0.5-0.1,0.8c0,0.3,0,0.6-0.1,0.8c-0.2,2.8-0.3,4.6-0.4,5.5c-0.2,3.9-0.7,7.4-1.5,10.4c-0.2,0.7-0.4,1.4-0.7,2
		c-0.3,0.7-0.5,1-0.5,1c0-0.2,0.1-0.6,0.3-1.1c0.2-0.6,0.4-1.1,0.4-1.5v-0.1c0,0-0.2,0.3-0.4,0.9c-0.5,1.4-1.1,2.4-2,3.3
		c-0.4,0.4-0.6,0.4-0.6,0.2c0-0.2-0.1-0.4-0.4-0.5c-0.3-0.1-0.5-0.1-0.6,0c-0.2,0.1-0.3,0.1-0.5-0.1c-0.1-0.1-0.2-0.1-0.2-0.1
		c-0.1,0-0.1,0.1-0.2,0.2c-0.1,0.2-0.2,0.2-0.2,0c0-0.2-0.1-0.4-0.3-0.6c-0.2-0.1-0.2-0.3-0.2-0.6v-0.2c0-0.1-0.1-0.2-0.2-0.2
		c-0.1,0-0.2,0.1-0.4,0.3c-0.2,0.2-0.4,0.2-0.5,0c-0.1-0.2-0.2-0.6-0.2-1.2c0-0.2,0-0.7,0.1-1.5c0.4-2.8,0.7-5.7,0.9-8.8
		s0.3-5.8,0.3-8.1c0-1.7,0-2.8-0.1-3.4c-0.2-2.2-0.3-4.6-0.3-7.3c0-1.2,0-2,0.1-2.3c0.1-0.7,0.1-1.1,0.2-1.2s0.1-0.1,0.3,0
		c0.2,0.1,0.3,0.2,0.3,0.2c0,0,0.1-0.1,0.1-0.3c0-0.1,0.1-0.2,0.2-0.2c0.1-0.1,0.1-0.1,0.2,0h0.1c0.1,0,0.2-0.1,0.3-0.4
		c0.1-0.4,0.4-0.6,0.8-0.7c0.4-0.1,1.2-0.2,2.4-0.2c2.2,0,3.3,0.3,3.3,1c0,0.5,0.1,1,0.4,1.5c0.3,0.5,0.8,1.2,1.5,2
		c1.1,1.2,2,2.3,2.8,3.4c1,1.2,1.6,1.9,1.8,2.1l0.6,0.6l0.5-0.9c0.3-0.5,0.8-1.4,1.4-2.8c0.5-1.4,1-2.3,1.3-2.9
		c0.3-0.6,0.8-1.4,1.6-2.5c1.2-1.7,1.8-2.3,1.8-1.7c0,0.1,0.1,0.1,0.4,0c0.1-0.1,0.2-0.1,0.2-0.1c0,0,0,0.1,0,0.2c0,0.1,0,0.2,0,0.2
		c0.1,0,0.1-0.1,0.2-0.2c0.3-0.2,0.5-0.4,0.5-0.5c0.1-0.1,0.3-0.2,0.7-0.2c0.2,0,0.4,0.1,0.5,0.2c0,0.1,0.1,0.1,0.2,0.2
		c0.1,0,0.2,0.1,0.3,0.1c0.3,0,0.6,0.1,0.9,0.4c0.2,0.2,0.8,0.5,1.8,0.9L194.1,27.6z M187,27c-0.2,0.2-0.4,0.4-0.6,0.7
		c-0.2,0.3-0.3,0.5-0.3,0.5c0.1,0,0.3-0.2,0.6-0.7C187.1,27.1,187.2,27,187,27z"/>
	<path d="M216.1,59c-0.1,0-0.1-0.2-0.2-0.6c0-0.3-0.1-0.6-0.2-0.8c-0.1-0.2-0.1-0.3-0.2-0.4c0,0,0,0.1,0,0.3l0.1,0.9
		c0,0.9-0.1,1.8-0.2,2.5c-0.1,0.7-0.3,1-0.4,0.8c0-0.1-0.1-0.1-0.2-0.2c-0.1-0.1-0.2-0.1-0.4-0.1c-0.2,0-0.3,0-0.4,0.1
		c-0.1,0-0.1,0.1-0.2,0.3c0,0.2-0.1,0.3-0.1,0.3c-0.1,0-0.1,0-0.3-0.1c-0.1,0-0.2,0-0.3,0c-0.1,0-0.1,0.1,0,0.3c0,0.2,0,0.2-0.1,0.1
		c-0.1-0.2-0.3-0.3-0.5-0.3c-0.2-0.1-0.4-0.2-0.6-0.5l-0.2-0.5l-0.3,0.6c-0.1,0.3-0.2,0.4-0.2,0.5c0,0-0.1,0-0.3-0.2l-0.6-0.5
		c-0.2-0.2-0.5-1.5-0.8-3.9c-0.3-2.4-0.5-4-0.6-4.8h-5.6l-0.2,3c-0.1,1.9-0.2,3.1-0.3,3.7l-0.2,0.8v-0.9c0.1-1.1,0.1-1.6-0.1-1.6
		c-0.1,0-0.1,0.3-0.2,0.8c0,0.5-0.2,1.1-0.4,1.7c-0.2,0.6-0.4,1.1-0.7,1.5c-0.2,0.4-0.4,0.5-0.5,0.3c-0.1-0.2-0.3-0.4-0.6-0.4
		c-0.2,0-0.4,0.1-0.6,0.4c-0.1,0.1-0.1,0.2-0.2,0.3c-0.1,0-0.1,0-0.1-0.2c0-0.2-0.1-0.3-0.3-0.3h-0.2c-0.3,0-0.7-0.3-1-0.9
		c-0.1-0.2-0.2-0.3-0.2-0.3l-0.3,0.4c-0.1,0.2-0.2,0.4-0.3,0.4c-0.1,0-0.3-0.2-0.5-0.7c-0.3-0.7-0.6-2.3-0.7-4.8
		c-0.2-2.5-0.3-5.6-0.3-9.2c0-2.4-0.1-5-0.2-7.8c-0.1-2.2-0.2-4.1-0.2-5.8c0-1.5,0.1-2.8,0.2-3.8c0.2-1.3,0.3-1.9,0.5-1.9
		s0.3,0.1,0.3,0.4c0,0.2,0.1,0.1,0.2-0.2c0.1-0.3,0.3-0.4,0.4-0.2c0.1,0.1,0.1,0.1,0.2,0.1s0.1-0.1,0.1-0.3c0.1-0.3,0.2-0.6,0.4-0.7
		c0.2-0.1,0.5-0.2,0.9-0.3c0.6-0.1,3.2-0.1,7.9-0.2l5-0.1c1.4,0,2.2,0.1,2.3,0.3c0.2,0.2,0.5,0.3,0.8,0.4l0.6,0.1l-0.1,2.9
		c-0.1,1.6-0.2,4.9-0.2,9.9c0,3.2,0.3,8,0.8,14.2c0.2,2,0.3,3.2,0.3,3.7C216.2,58.5,216.2,59,216.1,59z M197.2,27
		c0-0.1,0-0.1,0.1-0.2c0,0,0.1,0,0.1,0.1c0.1,0.2,0.1,0.3-0.1,0.4C197.2,27.4,197.2,27.3,197.2,27z M203.6,51.6c0,0,0.1,0.1,0.2,0.1
		c0.2,0,0.3,0,0.3-0.1c-0.1-0.1-0.3-0.1-0.4-0.1C203.6,51.5,203.6,51.5,203.6,51.6z M205.6,44.6l1.9-0.1l-0.1-0.5
		c-0.1-0.5-0.1-1.4-0.2-2.9c0-1.1-0.1-2.6-0.3-4.5l-0.2-2.3h-1.4c-0.9,0-1.4,0.1-1.4,0.2c-0.1,0.1-0.1,1.8-0.2,5.2l-0.2,5
		L205.6,44.6z M204.3,52.1C204.3,52.1,204.3,52.1,204.3,52.1c-0.1-0.1-0.3-0.1-0.6-0.1c-0.1,0-0.1,0.1,0,0.1c0.1,0,0.1,0,0.3,0
		C204.1,52.1,204.2,52.1,204.3,52.1z M204.7,33.4c0,0,0.1,0,0.3,0c0.2,0,0.3,0,0.6,0c0.3,0,0.5,0,0.7,0c0.2,0,0.2,0-0.1-0.1
		c-0.1,0-0.3-0.1-0.7-0.1c-0.3,0-0.6,0-0.7,0.1C204.8,33.3,204.7,33.3,204.7,33.4z M206.7,51.5C206.7,51.5,206.7,51.5,206.7,51.5
		l-0.5-0.1c-0.1,0-0.1,0.1,0,0.1c0.1,0,0.2,0,0.3,0C206.6,51.6,206.6,51.6,206.7,51.5z M208.4,51.7
		C208.5,51.7,208.5,51.7,208.4,51.7c-0.1-0.1-0.3-0.1-0.5-0.1s-0.3,0-0.4,0.1l-0.1,0.1c0,0,0.2,0.1,0.5,0.1
		C208.1,51.8,208.3,51.8,208.4,51.7z"/>
	<path d="M242.4,45.1c-0.2,0-0.2,0.1-0.2,0.4l0.1,0.2c0,0.1-0.1,0.3-0.3,0.7c-0.1,0.2-0.2,0.3-0.2,0.4c0,0.1,0,0.2,0.1,0.4
		c0.1,0.1,0.2,0.2,0.2,0.3s-0.1,0.3-0.3,0.5c-0.4,0.3-0.9,0.5-1.3,0.6c-0.4,0.1-0.7,0.2-0.7,0.3c-0.1,0.1-0.2,0.4-0.3,0.8
		c-0.2,0.8-0.6,1.8-1.3,3c-0.7,1.2-1.3,2.2-1.9,2.9c-1,1.2-2.2,2.2-3.5,3.2c-1.3,1-2.6,1.7-3.6,2.1c-0.9,0.3-1.9,0.6-3.1,0.8
		c-1.2,0.2-2.3,0.3-3.4,0.3c-1,0-1.8-0.1-2.3-0.3l-0.5-0.2c0,0,0.1-0.1,0.3-0.1c0.8,0,1.5,0,1.9,0.1c-0.3,0-0.9-0.1-1.8-0.4
		c-0.9-0.3-1.4-0.5-1.5-0.6l-0.6-0.5c-0.1-0.1-0.2-0.2-0.3-0.3c-0.1-0.1-0.1-0.1,0.1-0.1c0.2,0,0.3-0.1,0.4-0.4
		c0.1-0.3,0.1-0.5-0.1-0.6c-0.1-0.2-0.2-0.4-0.1-0.6c0.1-0.1,0.1-0.1,0.1-0.2c0-0.1-0.1-0.1-0.2-0.1c0,0-0.1,0-0.1-0.1
		c0-0.1,0.1-0.2,0.3-0.4c0.4-0.3,0.6-0.5,0.7-0.5c0.1,0,0.2-0.1,0.2-0.2c0-0.1-0.1-0.2-0.2-0.3c-0.1-0.1-0.2-0.2-0.2-0.3
		c0-0.2,0.2-0.4,0.5-0.5c0.2-0.1,1-0.3,2.4-0.5c1.7-0.2,3.1-0.5,4.2-0.9c1.1-0.4,2.1-1.1,3-1.9c0.5-0.4,0.9-1,1.4-1.6s0.7-1,0.7-1.2
		c0-0.1-0.2-0.2-0.7-0.2c-0.6,0-1.6,0.1-2.8,0.3c-0.8,0.1-1.5,0.2-2.2,0.2c-0.2,0-1,0-2.3-0.1c-2.6-0.1-3.6-0.4-3-0.8
		c0.1-0.1,0.1-0.1,0.1-0.2c-0.1-0.1-0.1-0.1-0.3-0.1c-0.2,0-0.3-0.1-0.3-0.1c0-0.1,0.1-0.1,0.2-0.1c0.1-0.1,0.2-0.1,0.2-0.2
		c0,0-0.2-0.1-0.6-0.2c-0.4-0.1-0.7-0.2-0.8-0.5c-0.2-0.2-0.3-0.7-0.3-1.4c-0.1-0.7,0-1.9,0.2-3.5s0.4-2.9,0.7-3.6
		c1.3-4.3,4.6-8,9.8-11c1.1-0.6,2.1-1.1,3.1-1.3c1-0.3,2.1-0.4,3.4-0.4c1.2,0,2,0,2.4,0.1c0.4,0.1,0.6,0.2,0.6,0.4
		c0,0.2,0.1,0.3,0.2,0.3s0.1,0.1,0,0.3c-0.1,0.1-0.1,0.2-0.1,0.3c0,0.1,0.1,0.1,0.3,0.2c0.3,0.1,0.5,0.2,0.7,0.2
		c0.2,0,0.3,0.1,0.4,0.2c0.2,0.4,0.4,1.3,0.4,2.9c0,1.3-0.1,2.1-0.3,2.4c-0.2,0.4-0.3,0.6-0.3,0.7c0.1,0.1-0.2,0.1-0.7,0.2
		c-0.6,0.1-1.4,0.1-2.4,0.2c-2.2,0.1-4.1,0.6-5.9,1.6c-1.7,1-3.1,2.3-4.1,4.1c-0.2,0.3-0.4,0.6-0.5,0.8c-0.1,0.2-0.2,0.4-0.2,0.5
		l3.1,0.2c0.7,0,1.4,0.1,2.1,0.1c0.4,0,0.7,0,0.7-0.1c0.1,0,0.1-0.1,0.1-0.3c0-0.2,0.1-0.4,0.2-0.5c0.1-0.1,0.3-0.1,0.4,0.1
		c0.1,0.2,0.2,0.1,0.3-0.2c0-0.2,0.1-0.3,0.1-0.3s0.1,0.1,0.2,0.3c0,0,0.1,0.1,0.1,0.1c0,0.1,0,0.1,0.1,0.1c0.1,0,0.1-0.2,0.2-0.6
		c0.1-0.4,0.2-0.6,0.3-0.7s0.4-0.3,0.9-0.4c0.7-0.3,1.1-0.4,1.1-0.3h0.2c0.5,0,0.9,0,1.2-0.1c0.5-0.1,0.8-0.1,1.1-0.1
		c0.3,0,0.6,0,0.9,0.1l0.8,0.2l0.3,1.4c0.1,0.6,0.2,1,0.3,1.2c0.1,0.2,0.2,0.3,0.4,0.4c0.2,0,0.2,0.1,0.2,0.1c0,0-0.1,0.1-0.3,0.1
		c-0.1,0-0.2,0-0.3,0c-0.1,0-0.1,0-0.2,0c0,0,0.2,0.2,0.7,0.4c1.2,0.5,1.7,1,1.5,1.5c-0.1,0.2-0.2,0.4-0.2,0.5
		c0,0.2,0.1,0.3,0.3,0.5C242.5,45,242.5,45.1,242.4,45.1z M221.2,48.3c-0.2-0.1-0.4-0.1-0.7,0c-0.1,0,0,0.1,0.3,0.1
		C221.2,48.4,221.3,48.4,221.2,48.3z M222.8,48.6C222.9,48.6,223,48.5,222.8,48.6c0-0.1-0.1-0.1-0.3-0.1c-0.2,0-0.3,0-0.4,0
		l-0.1,0.1c0,0,0.1,0.1,0.4,0.1C222.6,48.6,222.7,48.6,222.8,48.6z M232.9,39.7c0,0.1,0,0.1,0,0.2c0,0.1,0,0.1-0.1,0.2
		c-0.1,0.1-0.1,0-0.1-0.3C232.7,39.6,232.8,39.6,232.9,39.7z M235.2,27.2l0.9,0.1c1.4,0.2,1.8,0.2,1.2,0c-0.3-0.1-0.7-0.2-1.3-0.2
		L235.2,27.2z"/>
	<path d="M266.2,37.1c0,0.1-0.2,0.3-0.5,0.5c-0.3,0.2-0.7,0.5-1.4,0.9c-0.9,0.5-2,1-3.4,1.7c-1.4,0.6-2.2,0.9-2.4,0.9
		c-0.1,0-0.2,0.7-0.2,2.1c0,1.4,0,3.9,0,7.5c0,5.3-0.1,8-0.3,8.3c0,0.1-0.1,0.2-0.2,0.2c0-0.1-0.1-0.1-0.1-0.2l0.1-0.6l0.1-0.7
		c0-0.3,0-0.6-0.1-0.8c-0.1-0.1-0.1-0.2-0.2-0.2s-0.1,0.3-0.1,0.9c0,0.6-0.1,1.1-0.2,1.6c-0.1,0.5-0.3,1-0.6,1.6
		c-0.2,0.4-0.3,0.6-0.4,0.6c-0.1,0.1-0.2,0-0.3-0.1c-0.2-0.2-0.4-0.3-0.6-0.3c-0.2,0-0.4,0.1-0.5,0.4c0,0.1-0.1,0.2-0.1,0.3
		c0,0-0.1,0-0.2-0.2c-0.1-0.2-0.2-0.3-0.3-0.3s-0.2,0.1-0.3,0.3c0,0.1,0,0.2-0.1,0.2c0,0-0.1,0-0.1-0.1c0-0.1-0.1-0.3-0.4-0.5
		c-0.2-0.1-0.4-0.3-0.4-0.6c0-0.1,0-0.2-0.1-0.2c0,0-0.1,0.1-0.3,0.3c-0.2,0.3-0.4,0.4-0.5,0.4c-0.1,0-0.2-0.2-0.4-0.6
		c-0.6-1.1-1.1-5.2-1.3-12.1c0-2.3-0.1-3.5-0.3-3.5c-0.1,0-0.9,0.2-2.1,0.6l-1.9,0.6l-0.4-0.5c-0.3-0.3-0.4-0.5-0.2-0.5
		c0.1-0.1-0.1-0.1-0.6-0.1h-0.2c-0.3,0-0.6-0.1-0.8-0.2c-0.2-0.1-0.3-0.3-0.3-0.5c0-0.2-0.1-0.3-0.3-0.5c-0.2-0.2-0.4-0.6-0.6-1.3
		c-0.1-0.3-0.2-0.6-0.3-0.9c-0.1-0.3-0.1-0.5-0.2-0.6c-0.1-0.3-0.2-0.7-0.2-1.3l0.1-0.8l1.7-0.7l1.4-0.5c1.5-0.5,2.3-0.8,2.4-0.9
		l2.1-0.8l-0.1-2.1c0-1.4,0-2.8,0.2-4.3s0.3-2.2,0.5-2.2s0.3,0.1,0.4,0.3c0,0.1,0,0.1,0.1,0.1c0,0,0.1-0.1,0.1-0.2
		c0-0.2,0.1-0.3,0.2-0.4c0.1-0.1,0.2,0,0.2,0.2c0,0.1,0.1,0,0.3-0.4c0.2-0.4,0.4-0.6,0.7-0.8c0.2-0.1,1-0.2,2.1-0.2
		c1.5,0,2.5,0.1,2.9,0.3c0.3,0.1,0.5,0.2,0.7,0.2c0.1,0,0.2,1.1,0.2,3.2c0,2.2,0.1,3.3,0.2,3.3c0.1,0,0.7-0.2,2-0.7
		c1.3-0.4,2.1-0.7,2.5-0.7l0.7,0.1l-0.7,0.3c-0.2,0-0.5,0.2-0.9,0.4c0,0.1,0.1,0.1,0.3,0.1c0.4-0.2,0.7-0.3,1.1-0.3
		c0.3,0,0.7,0.1,1.1,0.2c0.5,0.1,0.8,0.2,0.9,0.3c0.1,0.1,0.1,0.2,0.1,0.5v0.2c0,0.2,0.1,0.4,0.2,0.6c0.2,0.1,0.3,0.3,0.3,0.6
		c0,0.2,0.1,0.3,0.2,0.3c0.1-0.1,0.1,0,0.1,0.2c0,0.2-0.1,0.5-0.3,0.9c-0.2,0.2-0.1,0.3,0.1,0.5C266.3,36.5,266.3,36.7,266.2,37.1z
		 M248.2,44.5L248.2,44.5l-0.5,0.1c-0.5,0.1-0.8,0.2-1,0.3l-0.1,0.1l0.1,0.1c0.2,0,0.6-0.1,1.2-0.4L248.2,44.5z M251.5,29.1
		c0-0.2,0-0.3-0.1-0.3l-0.1,0.4c-0.1,0.2-0.2,0.5-0.2,0.9c0,0.3,0.1,0.2,0.2-0.1C251.4,29.5,251.5,29.2,251.5,29.1z M251.6,27.1
		c0,0,0-0.1,0-0.2c0-0.2,0-0.3,0.1-0.2C251.7,26.9,251.7,27.1,251.6,27.1C251.6,27.2,251.6,27.2,251.6,27.1z"/>
	<path d="M276.7,53.1l-0.1,0.9l1.9,0.2l7.2,0.3c4.2,0.1,6.3,0.3,6.3,0.6c-0.1,0-0.2,0.1-0.3,0.1l-0.7-0.1c-0.5,0-0.7,0-0.5,0.1
		c0.8,0.2,1.5,0.5,2.2,0.8c0.6,0.4,0.8,0.7,0.6,0.9c-0.1,0.1-0.2,0.3-0.2,0.5c0,0.3,0.1,0.5,0.3,0.6c0.1,0,0.1,0.1,0.2,0.1
		c0,0.1,0,0.1-0.1,0.1c-0.2,0-0.3,0.1-0.3,0.3c0,0.2,0.1,0.3,0.3,0.3c0.1,0,0.1,0,0.1,0.1c0,0.1-0.1,0.1-0.2,0.1
		c-0.2,0.1-0.3,0.3-0.3,0.5c0,0.2-0.1,0.3-0.3,0.3c-0.2,0-0.3,0-0.3,0.1c0,0.1,0.1,0.2,0.3,0.5c0.1,0.1,0.2,0.2,0.2,0.3
		c0,0.3-0.3,0.5-0.8,0.7c-0.5,0.2-1.5,0.3-2.9,0.4s-3.5,0.2-6.3,0.3c-2.5,0.1-4.5,0.1-5.9,0.2c-1.5,0.1-2.4,0.1-2.8,0.2
		c-0.4,0.1-0.7,0.3-0.9,0.5c-0.2,0.2-0.3,0.3-0.4,0.4c-0.1,0.1-0.1,0-0.1-0.1c0-0.2-0.2-0.3-0.4-0.5c-0.2-0.1-0.4-0.2-0.5-0.1
		c-0.1,0.1-0.2,0.2-0.3,0.4c0,0.1-0.1,0.2-0.1,0.2c0,0-0.1-0.1-0.1-0.2c0-0.2-0.1-0.4-0.3-0.4s-0.3,0.1-0.4,0.4c0,0.1,0,0.1-0.1,0.1
		c0,0-0.1-0.1-0.1-0.2c0-0.2-0.2-0.5-0.4-0.7c-0.2-0.2-0.5-0.3-0.8-0.4c-0.3,0-0.5,0-0.7-0.1c-0.2-0.1-0.3-0.2-0.3-0.4
		c-0.1-0.2,0-0.3,0.2-0.3c0.1,0,0.1,0,0.1-0.1c0-0.1-0.1-0.1-0.2-0.1c-0.2-0.1-0.3-0.3-0.1-0.4l0.1-0.1c0-0.1-0.2-0.2-0.5-0.3
		c-0.4-0.1-0.6-0.3-0.7-0.6c-0.1-0.3-0.2-0.9-0.2-1.8c0-1.7,0.1-2.8,0.4-3.3c0.3-0.4,0.4-0.7,0.3-0.8c0-0.1,0.2-0.1,0.6-0.1h0.6
		l0.1-1.8l0.1-2.6v-0.8h-0.8l-1.3-0.2l-0.2-0.1c0,0,0.2-0.1,0.7-0.1c0.7-0.1,1-0.1,1.1-0.2c0.1-0.1-0.1-0.1-0.6-0.1
		c-0.3,0-0.8-0.1-1.3-0.3s-1-0.4-1.3-0.7c-0.3-0.2-0.4-0.4-0.3-0.5c0.1-0.1,0.2-0.3,0.3-0.5c0.1-0.2,0.1-0.3,0.1-0.4
		c0-0.1-0.1-0.1-0.3-0.2c-0.2,0-0.3-0.1-0.3-0.1c0,0,0-0.1,0.2-0.3c0.1-0.2,0.2-0.3,0.2-0.3c0,0-0.1-0.1-0.2-0.1
		c-0.1-0.1-0.2-0.1-0.2-0.2c0,0,0.1-0.1,0.2-0.1c0.1,0,0.1-0.1,0.2-0.2c0.1-0.1,0.1-0.2,0.1-0.3c0-0.2,0.1-0.3,0.3-0.3
		c0.2,0,0.3-0.1,0.3-0.2c0-0.1-0.1-0.3-0.3-0.4c-0.1-0.2-0.2-0.3-0.2-0.3c0-0.1,0.1-0.2,0.3-0.4c0.3-0.3,0.9-0.5,1.7-0.7l1.3-0.3
		l0.1-0.8c0.1-0.5,0-1.3-0.2-2.4c-0.2-1.2-0.3-2-0.3-2.3c0-1.2-0.2-1.8-0.6-1.8c-0.2,0-0.3-0.1-0.4-0.3c0-0.2,0-0.3,0.2-0.3
		c0.1,0,0.1,0,0-0.1c-0.1-0.1-0.1-0.1-0.2-0.1c-0.2-0.1-0.3-0.1-0.3-0.2c0-0.1,0-0.1,0.2-0.1l0.2-0.1c0-0.1-0.2-0.2-0.5-0.3
		c-0.3-0.1-0.6-0.2-0.7-0.3c-0.1-0.1-0.2-0.4-0.3-0.8c-0.1-0.2-0.1-0.7-0.1-1.4c0-1.5,0.1-2.6,0.4-3.3l0.3-0.8l9.6,0.1
		c7.2,0,11.3,0,12.3-0.1c1.7-0.1,2.6-0.1,2.5-0.1c-0.2,0.1-0.6,0.1-1,0.2c-0.3,0-0.5,0.1-0.5,0.2l1,0.1c0.7,0.1,1.3,0.2,1.9,0.5
		c0.6,0.3,0.8,0.4,0.5,0.5c-0.1,0.1-0.2,0.2-0.2,0.4c0,0.1,0.1,0.3,0.2,0.7c0.1,0.2,0.2,0.4,0.2,0.6c0,0.2,0.1,0.3,0.2,0.3h0.1
		c0,0,0.1,0,0.1,0.1c0,0.1-0.1,0.3-0.2,0.5c-0.2,0.3-0.4,0.5-0.5,0.5c-0.1,0-0.2,0.1-0.2,0.2c0,0.2,0.1,0.3,0.4,0.4
		c0.2,0,0.3,0.1,0.3,0.2c0,0.1-0.2,0.3-0.5,0.6l-0.6,0.7v7.2c0,3.2,0,5.3-0.1,6.1c0,0.9-0.1,1.5-0.3,1.8c-0.2,0.5-0.5,0.7-0.8,0.8
		c-0.3,0.1-2.8,0.1-7.4,0.1l-6.9-0.1l-0.2,1.8L276.7,53.1z M277,35.6c0,1.1,0,2.2,0.1,3.5c0.1,1.2,0.1,1.8,0.2,1.8l2.6-0.2
		c1.7-0.1,2.9-0.3,3.5-0.4l1.1-0.2l0.1-3.1v-3.2c-0.1-0.1-1.3,0-3.8,0.2c-2.4,0.2-3.7,0.3-3.7,0.4C277.1,34.5,277,34.9,277,35.6z
		 M285.1,34.2c0,0.2,0,0.4,0.1,0.5c0,0.2,0.1,0.2,0.1,0.3c0,0,0.1-0.2,0.1-0.6c0-0.4-0.1-0.6-0.2-0.6
		C285.1,33.9,285.1,34,285.1,34.2z M285.6,36.3c0,0,0,0.1,0,0.2c0,0.1,0,0.2,0,0.4c0,0.2,0,0.4,0,0.5c0,0.1,0,0.1,0.1,0v-1
		L285.6,36.3z M285.6,38.7c0,0,0,0.1,0,0.2c0,0.1,0,0.2,0,0.4c0,0.2,0,0.4,0,0.5c0,0.1,0,0.1,0.1,0v-1L285.6,38.7z M285.7,34
		c0,0.1,0,0.1,0,0.2s0,0.2,0,0.3c0,0.1,0,0.1,0.1,0C285.8,34.4,285.8,34.2,285.7,34C285.7,34,285.7,34,285.7,34z"/>
	<path d="M320.3,31.3c0,2.6-0.3,4.9-0.8,7c-0.2,0.6-0.4,1.3-0.8,2.2c-0.3,0.9-0.7,1.6-1,2.1c-0.2,0.5-0.7,1.1-1.5,2
		c-0.7,0.9-1.3,1.4-1.6,1.6c-0.1,0.1-0.2,0.1-0.2,0.1c0,0,0-0.1,0.1-0.2c0.3-0.4,0.5-0.6,0.5-0.7c0-0.1-0.1,0-0.4,0.2
		c-0.4,0.3-0.9,0.4-1.4,0.5c-0.1,0-0.3,0.1-0.5,0.1c-0.1,0-0.2,0-0.3-0.1c-0.1-0.1-0.1-0.2-0.2-0.3c-0.1-0.3-0.3-0.4-0.6-0.5
		c-0.2,0-0.4-0.1-0.6-0.3c0-0.1-0.1-0.1-0.1-0.2c-0.1,0-0.1,0-0.1,0h-0.1c-0.1,0-0.2-0.1-0.3-0.4c-0.1-0.2-0.1-0.4-0.1-0.6
		c0-0.2-0.1-0.3-0.4-0.3c-0.4,0-0.6-0.2-0.6-0.6c0-0.4,0.2-0.8,0.5-1.4l1.2-2.2c0.3-0.6,0.5-1.3,0.8-2.1c0.2-0.8,0.3-1.3,0.2-1.4
		c-0.1-0.1-0.9,0.3-2.4,1c-1.6,0.7-2.6,1.2-3.1,1.6c-0.5,0.3-0.8,0.6-0.8,0.8l-0.3,5.8c-0.3,6.3-0.9,10.9-1.7,14
		c-0.2,0.7-0.3,1.1-0.4,1.1c0-0.1-0.1-0.1-0.1-0.2c0-0.2,0.1-0.5,0.2-1c0.1-0.7,0.2-1.2,0.2-1.3v-0.1c-0.1,0-0.2,0.3-0.3,0.8
		c-0.2,1.2-0.8,2.3-1.7,3.5c-0.2,0.2-0.4,0.4-0.5,0.5c-0.1,0.1-0.2,0-0.2-0.2c0-0.3-0.1-0.5-0.4-0.6l-0.3-0.1
		c-0.1,0-0.3,0.1-0.4,0.3c-0.2,0.3-0.3,0.4-0.4,0.1c-0.1-0.2-0.2-0.3-0.3-0.3c-0.1,0-0.2,0.1-0.3,0.3c0,0.1,0,0.1-0.1,0.1
		c0,0-0.1-0.1-0.1-0.2c0-0.1,0-0.2-0.1-0.3c-0.1-0.1-0.1-0.2-0.2-0.2c-0.2-0.1-0.3-0.3-0.3-0.6v-0.5l-0.5,0.4
		c-0.2,0.2-0.3,0.3-0.4,0.3c-0.1,0-0.1-0.1-0.2-0.2c-0.1-0.3-0.2-0.5-0.3-0.7c0-0.1-0.1-0.3-0.1-0.6c0-0.9,0.2-3.7,0.5-8.5
		c0.2-3,0.3-5.5,0.3-7.7l-0.1-2.9l-0.6,0.1h-0.2c-0.2,0-0.3-0.1-0.4-0.2c-0.1-0.1-0.3-0.3-0.5-0.7c-0.4-0.7-0.6-1.1-0.6-1.2
		c0-0.2-0.1-0.3-0.2-0.4c-0.1-0.1-0.2-0.5-0.4-1.1s-0.2-1.2-0.2-1.6V35c0-0.2,0.1-0.4,0.2-0.5c0.1-0.1,0.4-0.3,0.9-0.5l1.2-0.6v-3.1
		c0-1.3,0-2.2,0-2.6c0-0.4,0.1-0.6,0.3-0.6s0.2,0.1,0.3,0.3c0,0.1,0,0.1,0.1,0c0.1-0.1,0.1-0.2,0.1-0.3c0.1-0.2,0.1-0.3,0.2-0.3
		c0,0,0.1,0.1,0.2,0.3c0,0,0,0.1,0.1,0.2c0,0,0.1-0.2,0.3-0.6c0.1-0.3,0.2-0.5,0.3-0.6s0.3-0.2,0.6-0.3c0.8-0.2,1.8-0.4,3.2-0.4
		c0.7,0,1.3,0.1,1.6,0.2l0.8,0.2l0.1,1.2l0.1,2.2c0,0.7,0.1,1,0.3,1c0.3,0,2-0.7,5.1-2c1-0.4,1.8-0.7,2.2-0.9
		c0.5-0.2,0.8-0.4,0.9-0.6c0.1-0.1,0.3-0.2,0.6-0.2c0.2,0,0.4-0.1,0.5-0.2c0.2-0.2,0.9-0.3,2.2-0.3c1,0,1.7,0.1,2.1,0.3
		c0.3,0.2,0.5,0.3,0.6,0.5c0.1,0.1,0.2,0.6,0.3,1.3C320.2,29,320.3,30.1,320.3,31.3z M298.2,28.7l-0.1-0.1v0.5c0,0.4,0,0.5,0.1,0.4
		C298.2,29.2,298.2,28.9,298.2,28.7z"/>
	<path d="M364.6,29.9c0,0.1,0.1,0.2,0.3,0.2c0.1,0,0.1,0,0.1,0.1c0,0.1-0.1,0.2-0.3,0.4c-0.3,0.3-0.5,0.7-0.4,1v0.2
		c0,0.2,0,0.4-0.1,0.5c0,0.1-0.3,0.8-0.7,2.3c-0.6,2.8-1.5,5.3-2.6,7.4c-1.1,2.1-2.5,4.1-4.3,6c-1.3,1.4-2.6,2.5-4,3.3
		c-1.4,0.9-2.9,1.5-4.5,2l-1.3,0.4l-0.4,1.8c-0.2,1.2-0.4,1.9-0.6,2c-0.1,0.2-0.2,0.5-0.3,0.8c-0.1,0.3-0.3,0.9-0.7,1.8
		c-0.4,0.8-0.6,1.2-0.6,1.2V61c0-0.2,0.1-0.5,0.3-0.9c0.4-1,0.6-1.6,0.6-1.8c0-0.1,0-0.1-0.1-0.1c-0.1,0-0.2,0.3-0.4,0.9
		c-0.2,0.5-0.5,1.2-1,1.9c-0.5,0.7-0.9,1.2-1.3,1.5l-0.6,0.4l-0.1-0.4c0-0.1-0.1-0.3-0.2-0.4c-0.1-0.1-0.2-0.2-0.4-0.2
		c-0.2,0-0.4,0.1-0.5,0.3c-0.1,0.1-0.2,0.2-0.2,0.2c0,0-0.1-0.1-0.1-0.3c-0.1-0.3-0.2-0.4-0.3-0.3c0,0,0,0.1-0.1,0.1
		c-0.1,0-0.2-0.1-0.4-0.4c-0.1-0.3-0.2-0.5-0.2-0.7c0-0.2,0-0.3-0.1-0.4c0,0-0.1,0-0.3,0.1c-0.1,0.1-0.2,0.1-0.3,0.2
		c-0.1,0.1-0.1,0.1-0.1,0.2c0,0.1-0.1,0.1-0.2,0.1c-0.1-0.1-0.1-0.2-0.2-0.5c-0.1-0.3-0.1-0.5-0.1-0.8c0-0.2,0-0.5,0.1-0.9
		c1.2-5.5,1.8-10.3,1.8-14.4c0-1.4-0.1-2.9-0.2-4.4c-0.2-1.5-0.3-2.7-0.6-3.5c-0.1-0.2-0.2-0.7-0.3-1.6c0-0.2,0-0.4-0.1-0.5
		c0-0.1-0.1-0.2-0.2-0.2c-0.2,0-0.3-0.1-0.2-0.4v-0.1c0-0.2-0.1-0.3-0.3-0.4c-0.1-0.1-0.2-0.1-0.2-0.1c0,0,0.1-0.1,0.3-0.1l0.2-0.1
		c0-0.1-0.2-0.1-0.5-0.2c-0.5-0.1-0.8-0.3-0.9-0.6c-0.2-0.3-0.2-0.9-0.3-1.9c0-0.6,0-1.3,0.1-2.2c0.1-0.8,0.2-1.3,0.4-1.4
		c0.1-0.1,0.2-0.3,0.1-0.4v-0.1c0-0.1,0.4-0.2,1.3-0.2c0.8,0,2-0.1,3.5-0.3c1-0.1,1.8-0.2,2.5-0.2c0.6,0,1,0.1,1,0.3
		c0,0.1,1.5,0.2,4.4,0.2h3.8c2.3,0,4.1,0,5.4,0c1.3,0,2.2,0.1,2.5,0.1c0.4,0.1,0.7,0.1,1.1,0.3c0.2,0.1,0.5,0.2,0.6,0.3
		c0.2,0.1,0.3,0.2,0.3,0.3c0,0.1,0.1,0.2,0.3,0.2c0.1,0,0.2,0.1,0.2,0.2c0,0.1,0,0.4,0,0.8c0,0.2-0.1,0.4-0.1,0.7
		c0,0.1,0,0.2,0.1,0.2c0,0.1,0.1,0.1,0.2,0.1c0.1,0,0.2,0,0.2,0c0,0-0.1,0.1-0.2,0.1C364.8,29.6,364.7,29.7,364.6,29.9z M355.2,33.5
		l-1.7,0.1l-3.6,0.3c-1.3,0.1-2,0.2-2.1,0.3c-0.1,0-0.2,0.3-0.2,0.7l0.1,1.8c0.1,1.1,0.2,3,0.2,5.6v3.3l0.6-0.4
		c0.2-0.1,0.8-0.5,1.8-1.3c1.2-1,2.2-2.4,3.2-4.2c0.9-1.8,1.5-3.4,1.6-5.1L355.2,33.5z"/>
	<path d="M388.1,38.1c0.2,1.6,0.3,3.6,0.3,5.8c0,3-0.2,5.6-0.5,7.8c-0.4,2.3-0.8,4-1.4,5.1c-0.5,1.1-1.4,2.1-2.5,2.9
		c-1,0.7-2.2,1.3-3.6,1.7c-1.4,0.4-2.9,0.6-4.3,0.6c-0.9,0-1.8-0.1-2.7-0.3c-2.2-0.4-3.9-1.3-5.1-2.5c-1.2-1.2-2-3-2.5-5.3
		c-0.4-2-0.7-5.3-0.7-9.9c0-2.7,0.1-5.2,0.3-7.6c0.2-2.4,0.4-4.1,0.7-5.3c0.7-2.3,1.8-3.7,3.3-4.4c0.6-0.2,1.4-0.4,2.6-0.6
		c1.2-0.1,2.4-0.2,3.8-0.2c2.9,0,4.9,0.2,6.3,0.7c0.6,0.2,0.9,0.4,1,0.5c0.1,0.1,0.1,0.3,0,0.6l-0.1,0.4c0,0.1,0.1,0.3,0.4,0.5
		c0.2,0.2,0.3,0.4,0.4,0.5s0.1,0.3,0,0.6c-0.2,0.7-0.3,1.1-0.4,1.3c0,0-0.2,0.5-0.5,1.4c-0.6,1.5-1,2.3-1.1,2.4h-0.1
		c-0.1,0-0.6-0.1-1.5-0.2c-0.9-0.2-2.2-0.3-3.9-0.3h-2.4l-0.2,1c-0.3,1.4-0.5,3.1-0.7,5.1c-0.2,2.1-0.2,4.1-0.2,6.2
		c0,3.2,0.2,5.4,0.5,6.6c0.1,0.5,0.4,0.8,0.7,0.9c0.3,0.2,1,0.2,2.1,0.2c0.9,0,1.7-0.1,2.4-0.3c0.7-0.2,1.2-0.4,1.4-0.7
		c0.3-0.3,0.6-1.7,0.9-4c0.4-2.3,0.6-4.8,0.8-7.6l0.3-3.3l0.1,5.6l0.2-2.5c0.1-1.5,0.2-2.9,0.4-4.2c0.2-1.4,0.4-2.3,0.4-2.9
		c0-0.4,0.1-0.7,0.1-0.8c0.1-0.1,0.1,0,0.2,0.2c0.1,0.4,0.3,0.6,0.5,0.8c0.3,0.2,0.5,0.2,0.6-0.1c0.1-0.3,0.2-0.5,0.2-0.7v-0.4
		l0.4,0.4l0.4,0.5v-0.5c0-0.2,0-0.3,0.1-0.3c0,0,0.1,0.2,0.3,0.5c0.2,0.4,0.4,0.6,0.5,0.6c0.1,0,0.2,0.2,0.3,0.7
		c0.1,0.5,0.2,0.8,0.3,0.8c0.1,0,0.2-0.1,0.3-0.3c0.1-0.2,0.1-0.5,0.1-0.7c0-0.2,0-0.3,0.1-0.3s0.1,0,0.2,0
		C387.6,35.5,387.9,36.5,388.1,38.1z M381.4,27.6l0.4,0.2c0.3,0.1,0.5,0.2,0.7,0.2c0.2,0.1,0.2,0-0.1-0.1c-0.2-0.1-0.4-0.2-0.7-0.3
		L381.4,27.6z M385.2,33.4c0-0.1,0-0.1,0.1-0.2c0,0,0.1,0,0.1,0.1c0.1,0.2,0.1,0.3,0,0.4C385.2,33.7,385.2,33.6,385.2,33.4z"/>
	<path d="M414.2,29.8c0,0.9-0.2,1.9-0.7,3c-1.7,4.5-3.7,8.3-6,11.3c-2.3,3-5.1,5.4-8.3,7.2l-1.5,0.8v4.5c0,1.1-0.1,1.9-0.3,2.3
		c-0.2,0.4-0.3,0.6-0.3,0.7l-0.1,0.1c-0.1,0-0.1-0.4-0.1-1.2l0.1-1.6l-0.3,1.3l-0.5,2c-0.2,0.5-0.5,1-0.8,1.5
		c-0.3,0.5-0.5,0.7-0.5,0.5c0-0.1-0.1-0.3-0.4-0.4s-0.5-0.2-0.6-0.1s-0.2,0.2-0.3,0.5c-0.1,0.3-0.2,0.3-0.2,0.1
		c0-0.2-0.1-0.3-0.3-0.3h-0.1c-0.2,0-0.5-0.1-0.7-0.3c-0.2-0.2-0.3-0.5-0.3-0.7v-0.4l-0.9,0.9l-0.3-0.5c-0.2-0.3-0.4-1.4-0.6-3.2
		c-0.2-1.6-0.4-2.8-0.6-3.6c-0.2-0.8-0.4-1.2-0.7-1.2c-0.2,0-0.6-0.1-1.1-0.2c-0.5-0.1-0.9-0.3-1.3-0.4c-0.3-0.2-0.4-0.2-0.2-0.2
		c0.3,0,0.5-0.2,0.6-0.4c0.2-0.3,0.1-0.4,0-0.5l-0.5-0.3c-0.1,0-0.1-0.1,0.1-0.4l0.1-0.2c0-0.1-0.2-0.1-0.5-0.1l-0.6-0.1l0.6-0.2
		c0.4-0.1,0.6-0.2,0.7-0.4c0-0.1,0.3-0.3,0.7-0.4c0.4-0.1,0.6-0.1,0.6-0.2c0-0.1-0.2-0.3-0.7-0.4c-0.2,0-0.3-0.1-0.4-0.1
		c-0.1-0.1-0.1-0.1,0-0.2c0.1-0.1,0.4-0.3,0.8-0.5c0.4-0.2,0.9-0.3,1.3-0.4l0.6-0.2l-0.1-4.2c-0.1-3.4-0.2-5.7-0.3-6.9
		c-0.1-1.6-0.2-3.5-0.2-5.7c0-1.7,0.1-3.1,0.2-4.2c0.1-1.1,0.2-1.7,0.4-1.7c0.2,0,0.3,0.1,0.3,0.2c0,0.1,0,0.1,0.1,0
		c0.1-0.1,0.1-0.1,0.2-0.2c0.1-0.2,0.1-0.3,0.2-0.3c0.1,0,0.1,0,0.1,0.2c0,0,0,0.1,0.1,0.2c0.1,0,0.2-0.1,0.3-0.4
		c0.1-0.3,0.3-0.6,0.4-0.7c0.2-0.1,0.4-0.2,0.7-0.3c0.2,0,0.6-0.1,1.4-0.1c1.8,0,2.8,0.1,3.1,0.2l0.6,0.1c0.1,0,0.2,0.5,0.3,1.4
		l0.1,1.4l2.3-0.1l3.7-0.1l2.5-0.1l2.2-0.1c1.2,0,2.1,0.1,2.6,0.2c0.5,0.1,1,0.3,1.5,0.7C413.7,27.7,414.2,28.7,414.2,29.8z
		 M390.7,26.7C390.7,26.6,390.7,26.6,390.7,26.7c-0.1,0-0.1,0.1-0.1,0.2s0,0.2,0,0.3c0,0.1,0,0.1,0.1,0
		C390.8,27,390.8,26.8,390.7,26.7z M390.9,25.4C390.9,25.4,390.9,25.4,390.9,25.4c-0.1,0.1-0.1,0.2-0.1,0.3c0,0.1,0,0.2,0,0.3
		c0,0.1,0,0.1,0.1,0C391,25.9,391,25.6,390.9,25.4z M404.7,34.5l-1.7,0.1l-3.4,0.2l-1.7,0.1v1.5l-0.1,2.5l-0.1,1.8
		c0,0.5-0.1,1.1-0.1,1.7c0,0.7,0.1,1.1,0.2,1.1c0.1,0,0.3-0.1,0.6-0.4s0.6-0.6,1-0.9c0.8-0.8,1.7-1.8,2.5-2.9c0.8-1.1,1.5-2.1,2-3.2
		L404.7,34.5z M404.6,49.8C404.6,49.8,404.6,49.8,404.6,49.8c0.1,0.2,0.1,0.4,0.1,0.6c0,0.1-0.1,0.1-0.1,0c0-0.1,0-0.2,0-0.3
		C404.5,50,404.6,49.9,404.6,49.8z"/>
	<path d="M439.9,29.8c0,0.9-0.2,1.9-0.7,3c-1.7,4.5-3.7,8.3-6,11.3c-2.3,3-5.1,5.4-8.3,7.2l-1.5,0.8v4.5c0,1.1-0.1,1.9-0.3,2.3
		c-0.2,0.4-0.3,0.6-0.3,0.7l-0.1,0.1c-0.1,0-0.1-0.4-0.1-1.2l0.1-1.6l-0.3,1.3l-0.5,2c-0.2,0.5-0.5,1-0.8,1.5
		c-0.3,0.5-0.5,0.7-0.5,0.5c0-0.1-0.1-0.3-0.4-0.4s-0.5-0.2-0.6-0.1s-0.2,0.2-0.3,0.5c-0.1,0.3-0.2,0.3-0.2,0.1
		c0-0.2-0.1-0.3-0.3-0.3H419c-0.2,0-0.5-0.1-0.7-0.3c-0.2-0.2-0.3-0.5-0.3-0.7v-0.4l-0.9,0.9l-0.3-0.5c-0.2-0.3-0.4-1.4-0.6-3.2
		c-0.2-1.6-0.4-2.8-0.6-3.6c-0.2-0.8-0.4-1.2-0.7-1.2c-0.2,0-0.6-0.1-1.1-0.2c-0.5-0.1-0.9-0.3-1.3-0.4c-0.3-0.2-0.4-0.2-0.2-0.2
		c0.3,0,0.5-0.2,0.6-0.4c0.2-0.3,0.1-0.4,0-0.5l-0.5-0.3c-0.1,0-0.1-0.1,0.1-0.4l0.1-0.2c0-0.1-0.2-0.1-0.5-0.1l-0.6-0.1l0.6-0.2
		c0.4-0.1,0.6-0.2,0.7-0.4c0-0.1,0.3-0.3,0.7-0.4c0.4-0.1,0.6-0.1,0.6-0.2c0-0.1-0.2-0.3-0.7-0.4c-0.2,0-0.3-0.1-0.4-0.1
		c-0.1-0.1-0.1-0.1,0-0.2c0.1-0.1,0.4-0.3,0.8-0.5c0.4-0.2,0.9-0.3,1.3-0.4l0.6-0.2l-0.1-4.2c-0.1-3.4-0.2-5.7-0.3-6.9
		c-0.1-1.6-0.2-3.5-0.2-5.7c0-1.7,0.1-3.1,0.2-4.2c0.1-1.1,0.2-1.7,0.4-1.7c0.2,0,0.3,0.1,0.3,0.2c0,0.1,0,0.1,0.1,0
		c0.1-0.1,0.1-0.1,0.2-0.2c0.1-0.2,0.1-0.3,0.2-0.3c0.1,0,0.1,0,0.1,0.2c0,0,0,0.1,0.1,0.2c0.1,0,0.2-0.1,0.3-0.4
		c0.1-0.3,0.3-0.6,0.4-0.7c0.2-0.1,0.4-0.2,0.7-0.3c0.2,0,0.6-0.1,1.4-0.1c1.8,0,2.8,0.1,3.1,0.2l0.6,0.1c0.1,0,0.2,0.5,0.3,1.4
		l0.1,1.4l2.3-0.1l3.7-0.1l2.5-0.1l2.2-0.1c1.2,0,2.1,0.1,2.6,0.2c0.5,0.1,1,0.3,1.5,0.7C439.5,27.7,439.9,28.7,439.9,29.8z
		 M416.5,26.7C416.4,26.6,416.4,26.6,416.5,26.7c-0.1,0-0.1,0.1-0.1,0.2s0,0.2,0,0.3c0,0.1,0,0.1,0.1,0
		C416.5,27,416.5,26.8,416.5,26.7z M416.7,25.4C416.6,25.4,416.6,25.4,416.7,25.4c-0.1,0.1-0.1,0.2-0.1,0.3c0,0.1,0,0.2,0,0.3
		c0,0.1,0,0.1,0.1,0C416.7,25.9,416.7,25.6,416.7,25.4z M430.5,34.5l-1.7,0.1l-3.4,0.2l-1.7,0.1v1.5l-0.1,2.5l-0.1,1.8
		c0,0.5-0.1,1.1-0.1,1.7c0,0.7,0.1,1.1,0.2,1.1c0.1,0,0.3-0.1,0.6-0.4s0.6-0.6,1-0.9c0.8-0.8,1.7-1.8,2.5-2.9c0.8-1.1,1.5-2.1,2-3.2
		L430.5,34.5z M430.3,49.8C430.3,49.8,430.4,49.8,430.3,49.8c0.1,0.2,0.1,0.4,0.1,0.6c0,0.1-0.1,0.1-0.1,0c0-0.1,0-0.2,0-0.3
		C430.3,50,430.3,49.9,430.3,49.8z"/>
	<path d="M464.7,30.9c-0.3,2.3-0.5,3.9-0.6,4.8c-0.2,1.3-0.6,2.8-1,4.4c-0.4,1.6-0.9,3-1.4,4.2c-0.4,1-1,2.3-1.8,4
		c-0.8,1.7-1.5,3-2,3.9c-0.8,1.4-1.9,2.9-3.2,4.6c-1.3,1.7-2.3,2.8-2.9,3.3c-0.5,0.4-0.6,0.4-0.3,0.1l0.6-0.7
		c0.1-0.1,0.3-0.4,0.5-0.7s0.3-0.5,0.3-0.6c0,0-0.1,0-0.2,0.1c-0.1,0.1-0.2,0.2-0.3,0.4c-0.9,1.1-2,1.9-3.4,2.4
		c-0.3,0.1-0.5,0.2-0.6,0.2s-0.1-0.1-0.1-0.2V61c0-0.2-0.1-0.4-0.2-0.6c-0.1-0.1-0.2-0.2-0.3-0.2c-0.1,0-0.2,0-0.4,0.1
		c-0.1,0.1-0.2,0.1-0.3,0.1c-0.1,0-0.1,0,0-0.1c0,0,0.1-0.1,0.1-0.2s0-0.2-0.1-0.2c-0.1-0.1-0.2,0-0.3,0l-0.1,0.1
		c-0.1,0-0.1-0.2-0.1-0.6c0-0.5,0.1-0.8,0.2-1c0,0,0.1-0.1,0.1-0.2c0-0.1-0.2-0.1-0.5-0.1l-0.4,0.1c-0.1,0-0.2-0.1-0.2-0.2l0.1-0.5
		c0-0.3,0.1-0.6,0.3-0.9c0.2-0.3,0.4-0.7,0.7-1.1c0.3-0.4,0.5-0.8,0.7-1l0.6-0.9c0.9-1.3,1.5-2.2,1.6-2.5c0.4-0.6,0.6-1,0.7-1.2
		l0.4-0.6l-0.8-0.7c-1.4-1.1-2.7-2.5-3.9-4.1c-1.1-1.6-2-3.2-2.6-4.8c-0.9-2.4-1.5-4.2-1.7-5.2c-0.2-1-0.3-2.3-0.3-4
		c0-0.8,0-1.4,0.1-1.9c0-0.4,0.1-0.7,0.2-0.7c0.2-0.1,0.3,0,0.4,0.1c0.1,0.1,0.1,0.1,0.1-0.1c0-0.2,0.1-0.3,0.2-0.3
		c0.1,0,0.2,0,0.3,0.2c0,0,0,0.1,0.1,0.1s0.1-0.2,0.3-0.6c0.1-0.4,0.2-0.6,0.3-0.7c0.1-0.1,0.4-0.2,0.7-0.4c0.6-0.2,1.4-0.3,2.5-0.3
		c1.4,0,2.2,0.1,2.3,0.3c0.1,0.2,0.2,0.2,0.4,0.2c0.1-0.1,0.2,0.2,0.3,0.9c0.1,0.7,0.2,1.8,0.3,3.3c0.2,3.4,0.8,6.1,1.7,8.2
		c0.2,0.4,0.6,1.1,1.2,2.1c0.7,0.9,1.1,1.4,1.2,1.5c0.2,0.1,0.4-0.5,0.8-1.8c0.4-1.3,0.6-2.5,0.8-3.6l0.4-2.7
		c0.1-0.7,0.2-1.3,0.2-1.9c0-0.4,0.1-1.3,0.4-2.7c0.3-1.4,0.5-2.2,0.6-2.3c0.1-0.1,0.2-0.1,0.4,0.1c0.1,0.1,0.1,0.1,0.1,0.1
		c0,0,0-0.1,0-0.2c0-0.2,0.1-0.3,0.2-0.3c0.1,0,0.2,0,0.3,0.2c0,0,0,0.1,0.1,0.1c0.1,0,0.2-0.1,0.3-0.4l0.3-0.6
		c0.1-0.2,0.7-0.3,1.9-0.3c0.6,0,1.1,0,1.4,0.1c0.7,0.1,1.3,0.2,1.7,0.3c0.4,0.1,0.8,0.3,1.3,0.5C465,27.4,465,28.5,464.7,30.9z
		 M442.5,30.5C442.5,30.4,442.5,30.4,442.5,30.5c-0.1,0-0.1,0.1-0.1,0.2s0,0.2,0,0.3c0,0.1,0,0.1,0.1,0
		C442.6,30.8,442.6,30.6,442.5,30.5z M442.6,27.5c0,0,0-0.1,0-0.2c0-0.1,0-0.1,0.1-0.2c0,0,0.1,0,0.1,0.1
		C442.8,27.3,442.8,27.4,442.6,27.5C442.7,27.5,442.6,27.5,442.6,27.5z M442.7,29c0-0.1-0.1,0-0.1,0.2c0,0.2,0,0.3,0.1,0.3
		C442.8,29.3,442.8,29.2,442.7,29z M457.7,29.2C457.7,29.1,457.7,29.1,457.7,29.2c-0.1,0.1-0.1,0.2-0.1,0.3c0,0.1,0,0.2,0,0.2
		c0,0.1,0,0,0.1,0C457.8,29.5,457.8,29.3,457.7,29.2z"/>
	<path d="M506.6,52.6c-0.3,1-0.6,1.9-1,2.8c-0.6,1.4-1.6,2.6-2.8,3.7c-1.2,1.1-2.6,1.9-4,2.3c-0.4,0.1-1,0.2-1.7,0.3
		c-0.7,0.1-1.3,0.1-1.9,0.1c-0.4,0-0.6,0-0.8-0.1c-2.9-0.4-5.4-1.8-7.4-4.1c-2-2.3-3.4-5.3-4-8.9c-0.2-1.1-0.4-2.3-0.5-3.5
		c-0.1-1.2-0.3-2.9-0.5-5.2c-0.1-1.4-0.2-2.9-0.2-4.4c0-3,0.2-5.3,0.6-6.9l0.4-1.8c0.1-0.3,0.2-0.5,0.3-0.6c0.1-0.1,0.3-0.1,0.7-0.2
		c0.4,0,0.7-0.2,0.9-0.5c0.1-0.2,0.3-0.3,0.4-0.3c0.1-0.1,0.4-0.1,0.7-0.1c0.7,0,1.5,0.1,2.4,0.2c0.9,0.2,1.6,0.3,1.9,0.4
		c0.1,0,0.2,0.1,0.4,0.2s0.7,0.2,1.5,0.2c0.8,0,1.8,0,3.1,0c1.8,0,2.9,0,3.3,0.1c0.4,0,0.7,0.1,0.7,0.3c0,0.1,0,0.2,0.1,0.2
		s0.1-0.1,0.2-0.2c0.2-0.3,0.3-0.5,0.5-0.6c0.2-0.1,0.3-0.2,0.5-0.1c0.1,0,0.1,0,0.2,0c0.1-0.1,0.1-0.1,0.1-0.2c0-0.1,0.4-0.2,1-0.2
		c0.7,0,1.2,0.1,1.5,0.3c0.3,0.2,0.5,0.2,0.7,0.2c0.1-0.1,0.4,0.1,0.8,0.4c0.4,0.4,0.6,0.6,0.6,0.8c0,0.1,0,0.1,0.1,0.2
		c0.1,0.1,0.1,0.1,0.1,0c0.3-0.1,0.5,2.5,0.6,7.8l0.1,2.6l-1.9,0.1c-1.8,0.1-3.1,0.2-4.1,0.3l-2.2,0.1v-4l-3.6,0.2
		c-2.4,0.1-3.7,0.1-3.8,0.2c-0.1,0-0.2,0.4-0.2,1.2c0,0.8-0.1,1.9-0.1,3.3c0,3.3,0.1,5.9,0.4,7.9s0.7,3.4,1.2,4.5
		c0.6,1.1,1.4,1.9,2.5,2.4c0.6,0.3,1.2,0.5,1.7,0.5c0.5,0,1-0.1,1.5-0.4c0.5-0.2,1-0.6,1.4-1c0.4-0.4,0.8-1.1,1.3-2
		c0.5-0.9,0.8-1.3,0.9-1.3c0.1,0-0.1,0.5-0.5,1.4c-0.4,0.9-0.5,1.4-0.5,1.4c0,0,0.2-0.2,0.4-0.6c0.2-0.4,0.5-0.9,0.7-1.5
		c0.4-0.8,0.7-1.5,1-2c0.3-0.5,0.5-0.9,0.6-1.1c0.3-0.5,0.4-0.7,0.5-0.7c0.1,0,0.1,0.1,0.1,0.4c0,0.2,0.1,0.4,0.2,0.6
		c0.1,0.1,0.2,0.2,0.4,0.2c0.1,0,0.3-0.1,0.4-0.2c0.1-0.1,0.2-0.3,0.2-0.6c0-0.1,0-0.2,0.1-0.2c0,0,0.1,0.1,0.1,0.2
		c0.1,0.3,0.2,0.5,0.4,0.5c0.1,0,0.2-0.1,0.2-0.4c0-0.2,0-0.3,0.1-0.3l0.1,0.5c0.1,0.5,0.3,0.7,0.4,0.8c0.1,0.1,0.2,0.2,0.1,0.5
		l-0.1,0.2c0,0.2,0.1,0.3,0.2,0.3c0.1,0,0.3-0.1,0.4-0.3c0.1-0.3,0.2-0.4,0.4-0.4c0.1,0,0.2,0.1,0.3,0.4c0.1,0.3,0.1,0.6,0.1,1.1
		C506.9,50.7,506.8,51.6,506.6,52.6z M483.9,27.2L483.9,27.2c-0.1-0.1-0.2,0.1-0.3,0.4c-0.2,0.4-0.3,0.7-0.3,0.9v0.1
		c0.1,0,0.2-0.1,0.3-0.4C483.8,27.7,483.9,27.4,483.9,27.2z M491.6,27.5c0,0,0.4,0.1,1.1,0.1c0.3,0,0.6,0,0.8,0s0.3,0,0.3,0
		c0,0,0,0-0.1,0c-0.1,0-0.4-0.1-0.9-0.1c-0.4,0-0.7,0-0.9,0.1H491.6z M495.2,27.5c0,0,0.1,0,0.2,0c0.1,0,0.3,0,0.5,0
		c0.3,0,0.5,0,0.7,0c0.2,0,0.2,0-0.1,0c-0.1,0-0.3-0.1-0.6-0.1c-0.3,0-0.5,0-0.6,0.1H495.2z M498.6,34.8v0.8c0,0.6,0,0.8,0.1,0.6
		c0-0.1,0.1-0.3,0.1-0.6c0-0.3,0-0.5-0.1-0.6C498.7,34.9,498.7,34.9,498.6,34.8z"/>
	<path d="M529,59c-0.1,0-0.1-0.2-0.2-0.6c0-0.3-0.1-0.6-0.2-0.8c-0.1-0.2-0.1-0.3-0.2-0.4c0,0,0,0.1,0,0.3l0.1,0.9
		c0,0.9-0.1,1.8-0.2,2.5c-0.1,0.7-0.3,1-0.4,0.8c0-0.1-0.1-0.1-0.2-0.2c-0.1-0.1-0.2-0.1-0.4-0.1c-0.2,0-0.3,0-0.4,0.1
		c-0.1,0-0.1,0.1-0.2,0.3c0,0.2-0.1,0.3-0.1,0.3c-0.1,0-0.1,0-0.3-0.1c-0.1,0-0.2,0-0.3,0c-0.1,0-0.1,0.1,0,0.3c0,0.2,0,0.2-0.1,0.1
		c-0.1-0.2-0.3-0.3-0.5-0.3c-0.2-0.1-0.4-0.2-0.6-0.5l-0.2-0.5l-0.3,0.6c-0.1,0.3-0.2,0.4-0.2,0.5c0,0-0.1,0-0.3-0.2l-0.6-0.5
		c-0.2-0.2-0.5-1.5-0.8-3.9c-0.3-2.4-0.5-4-0.6-4.8h-5.6l-0.2,3c-0.1,1.9-0.2,3.1-0.3,3.7l-0.2,0.8v-0.9c0.1-1.1,0.1-1.6-0.1-1.6
		c-0.1,0-0.1,0.3-0.2,0.8c0,0.5-0.2,1.1-0.4,1.7c-0.2,0.6-0.4,1.1-0.7,1.5c-0.2,0.4-0.4,0.5-0.5,0.3c-0.1-0.2-0.3-0.4-0.6-0.4
		c-0.2,0-0.4,0.1-0.6,0.4c-0.1,0.1-0.1,0.2-0.2,0.3c-0.1,0-0.1,0-0.1-0.2c0-0.2-0.1-0.3-0.3-0.3h-0.2c-0.3,0-0.7-0.3-1-0.9
		c-0.1-0.2-0.2-0.3-0.2-0.3l-0.3,0.4c-0.1,0.2-0.2,0.4-0.3,0.4c-0.1,0-0.3-0.2-0.5-0.7c-0.3-0.7-0.6-2.3-0.7-4.8
		c-0.2-2.5-0.3-5.6-0.3-9.2c0-2.4-0.1-5-0.2-7.8c-0.1-2.2-0.2-4.1-0.2-5.8c0-1.5,0.1-2.8,0.2-3.8c0.2-1.3,0.3-1.9,0.5-1.9
		s0.3,0.1,0.3,0.4c0,0.2,0.1,0.1,0.2-0.2c0.1-0.3,0.3-0.4,0.4-0.2c0.1,0.1,0.1,0.1,0.2,0.1s0.1-0.1,0.1-0.3c0.1-0.3,0.2-0.6,0.4-0.7
		c0.2-0.1,0.5-0.2,0.9-0.3c0.6-0.1,3.2-0.1,7.9-0.2l5-0.1c1.4,0,2.2,0.1,2.3,0.3c0.2,0.2,0.5,0.3,0.8,0.4l0.6,0.1l-0.1,2.9
		c-0.1,1.6-0.2,4.9-0.2,9.9c0,3.2,0.3,8,0.8,14.2c0.2,2,0.3,3.2,0.3,3.7C529.1,58.5,529.1,59,529,59z M510.1,27c0-0.1,0-0.1,0.1-0.2
		c0,0,0.1,0,0.1,0.1c0.1,0.2,0.1,0.3-0.1,0.4C510.1,27.4,510.1,27.3,510.1,27z M516.5,51.6c0,0,0.1,0.1,0.2,0.1c0.2,0,0.3,0,0.3-0.1
		c-0.1-0.1-0.3-0.1-0.4-0.1C516.5,51.5,516.5,51.5,516.5,51.6z M518.5,44.6l1.9-0.1l-0.1-0.5c-0.1-0.5-0.1-1.4-0.2-2.9
		c0-1.1-0.1-2.6-0.3-4.5l-0.2-2.3h-1.4c-0.9,0-1.4,0.1-1.4,0.2c-0.1,0.1-0.1,1.8-0.2,5.2l-0.2,5L518.5,44.6z M517.1,52.1
		C517.2,52.1,517.2,52.1,517.1,52.1c-0.1-0.1-0.3-0.1-0.6-0.1c-0.1,0-0.1,0.1,0,0.1c0.1,0,0.1,0,0.3,0
		C517,52.1,517.1,52.1,517.1,52.1z M517.6,33.4c0,0,0.1,0,0.3,0c0.2,0,0.3,0,0.6,0c0.3,0,0.5,0,0.7,0c0.2,0,0.2,0-0.1-0.1
		c-0.1,0-0.3-0.1-0.7-0.1c-0.3,0-0.6,0-0.7,0.1C517.7,33.3,517.6,33.3,517.6,33.4z M519.6,51.5C519.6,51.5,519.6,51.5,519.6,51.5
		l-0.5-0.1c-0.1,0-0.1,0.1,0,0.1c0.1,0,0.2,0,0.3,0C519.4,51.6,519.5,51.6,519.6,51.5z M521.3,51.7
		C521.4,51.7,521.4,51.7,521.3,51.7c-0.1-0.1-0.3-0.1-0.5-0.1s-0.3,0-0.4,0.1l-0.1,0.1c0,0,0.2,0.1,0.5,0.1
		C521,51.8,521.2,51.8,521.3,51.7z"/>
	<path d="M565.8,38.1c0,3.9-0.3,8.2-0.8,12.8c-0.5,4.6-1.1,7.5-1.7,8.8c-0.1,0.2-0.1,0.3-0.2,0.3c-0.1,0.1,0,0,0-0.1
		c0.1-0.5,0.2-1,0.2-1.4l0.1-0.9l-0.2,0.8c-0.1,0.5-0.3,1.1-0.6,1.6c-0.3,0.6-0.6,1.1-0.9,1.5c-0.3,0.3-0.4,0.4-0.5,0.5
		c-0.1,0-0.2,0-0.3-0.2c-0.1-0.1-0.2-0.2-0.5-0.3c-0.3-0.1-0.5-0.1-0.7-0.1c-0.1,0-0.3,0-0.4,0.1c-0.1,0-0.2,0.1-0.2,0.2
		c0,0,0,0.1-0.1,0.1c-0.1,0-0.2-0.2-0.4-0.5c-0.2-0.3-0.3-0.5-0.3-0.7c0-0.2-0.1-0.3-0.2-0.3s-0.3,0.1-0.4,0.4
		c-0.1,0.2-0.2,0.3-0.3,0.3s-0.2-0.2-0.3-0.5c-0.1-0.2-0.2-0.7-0.2-1.4c0-1.1,0.1-2.8,0.4-5.4c0.4-4.8,0.6-8.1,0.6-10l-0.1-1.9
		c-0.1-2.2-0.1-3.3-0.2-3.4h-0.1c-0.1,0-0.6,0.1-1.4,0.4c-1,0.3-1.7,0.5-2.1,0.5c-0.4,0.1-0.5,0-0.5-0.1c0-0.2,0.1-0.3,0.3-0.4
		c0.1,0,0.1-0.1,0-0.1c-0.1,0-0.2,0-0.3,0h-0.3c-0.2,0-0.5,0-0.8-0.1l-0.4-0.1l0.5-0.1c0.7-0.1,1.1-0.1,1.1-0.2c0,0-0.2-0.1-0.7-0.1
		h-1.2l-0.1,6.8c-0.1,4.6-0.2,7.2-0.3,7.9c-0.2,1-0.3,1.7-0.3,2.1c-0.1,0.8-0.3,1.4-0.5,1.8c0,0.1-0.1,0.2-0.1,0.3
		c-0.1,0.1-0.1,0.1-0.1,0.1c0,0,0,0,0-0.1c0-0.1,0.1-0.6,0.2-1.4l0.1-1l-0.3,1c-0.2,1.1-0.7,2-1.4,2.8c-0.2,0.2-0.3,0.4-0.4,0.4
		c-0.1,0-0.2,0-0.3-0.2c-0.2-0.2-0.4-0.3-0.6-0.3c-0.2,0-0.4,0.1-0.5,0.3c0,0.1-0.1,0.2-0.1,0.2c0,0-0.1-0.1-0.2-0.2
		c-0.1-0.2-0.2-0.3-0.3-0.3c-0.1,0-0.2,0.1-0.3,0.3c0,0.1,0,0.1-0.1,0.1c0,0-0.1-0.1-0.1-0.2c0-0.2-0.1-0.4-0.3-0.6
		c-0.2-0.1-0.3-0.2-0.4-0.5c0-0.2-0.1-0.2-0.1-0.2c-0.1,0-0.1,0.1-0.2,0.2c-0.2,0.2-0.4,0.3-0.5,0.3c-0.3,0-0.5-1-0.5-3.1
		c0-1.2,0-2.2,0.1-3v-2.3c0-2.3,0-4.6-0.1-6.7c-0.1-2.1-0.2-3.3-0.3-3.4c0-0.1-0.7,0-1.9,0.4c-1.2,0.4-1.9,0.5-2,0.4
		c-0.1-0.1-0.1-0.3,0.3-0.4c0.1,0,0.2-0.1,0.2-0.2l-0.5,0.1c-0.3,0.1-0.6,0.1-1,0.1c-0.1,0-0.2,0.2-0.2,0.5s-0.1,1.3-0.1,2.8
		c0,1.5,0,3.5,0,5.9c0,2.4,0,4.6-0.1,6.3c0,1.8-0.1,3-0.1,3.6c-0.1,0.2-0.1,0.4-0.2,0.4c0,0-0.1-0.4-0.1-1.1l-0.1-1.4L538,58
		c-0.1,0.7-0.2,1.4-0.5,2c-0.2,0.7-0.5,1.2-0.7,1.5c-0.2,0.3-0.4,0.3-0.5,0c-0.1-0.1-0.2-0.2-0.5-0.2h-0.2c-0.2,0-0.4,0.1-0.5,0.4
		c0,0.3-0.1,0.3-0.2,0.2c0-0.1,0-0.2-0.1-0.3c-0.1-0.1-0.1-0.1-0.2-0.1c-0.1,0-0.2,0.1-0.3,0.3l-0.1,0.4v-0.4c0-0.1,0-0.2-0.1-0.3
		s-0.2-0.2-0.3-0.2c-0.2-0.1-0.4-0.3-0.4-0.5c0-0.2-0.1-0.3-0.2-0.3c-0.1,0-0.2,0.1-0.3,0.3c-0.1,0.2-0.2,0.3-0.3,0.3
		c-0.2,0-0.4-0.2-0.6-0.7c-0.5-1.2-0.9-6.8-1.3-16.9l-0.3-6.2c-0.1-0.6-0.2-1.5-0.2-2.6c0-1.6,0.1-3.2,0.2-4.7
		c0.2-1.6,0.3-2.3,0.5-2.3c0.1,0,0.2,0.1,0.3,0.2c0,0.1,0,0.1,0.1,0.1c0,0,0.1-0.1,0.1-0.2c0-0.2,0.1-0.3,0.2-0.3
		c0.1,0,0.2,0,0.3,0.2v0.1c0.1,0,0.3-0.2,0.4-0.5c0.2-0.4,0.5-0.7,0.9-0.8c0.2-0.1,0.7-0.1,1.7-0.1c0.6,0,1.3,0,1.9,0.1
		c0.6,0,0.9,0.1,1,0.2c0.1,0.1,0.3,0.2,0.4,0.2c0.3,0.1,0.6,0.2,0.6,0.3c0.1,0.1,0.1,0.4,0.1,0.9c0,0.6,0,1.3-0.1,1.8l-0.1,2.8
		l0.5-0.2c1.3-0.4,2.3-0.8,3-1.3c0.3-0.2,0.5-0.3,0.5-0.5c0.1-0.2,0.1-0.4,0.2-0.8c0-0.4,0.1-0.6,0.1-0.7c0.1-0.1,0.1-0.1,0.3-0.1
		h0.2c0.1,0,0.2-0.1,0.3-0.3c0-0.1,0.1-0.2,0.1-0.3c0.1,0,0.1,0,0.1,0.1l0.1,0.1c0.1,0,0.2-0.2,0.2-0.5c0.1-0.3,0.2-0.5,0.3-0.6
		c0.1-0.1,0.4-0.2,0.7-0.4c0.7-0.3,1.8-0.4,3.3-0.4c0.7,0,1.2,0.1,1.5,0.2c0.3,0.1,0.5,0.2,0.6,0.3c0.1,0.1,0.2,0.3,0.2,0.7
		c0.1,0.4,0.2,1,0.2,1.7c0,0.6,0.1,1.1,0.3,1.4c0.2,0.3,0.5,0.4,0.9,0.4c0.2,0,0.6-0.1,1.1-0.3c0.9-0.3,1.6-0.6,2.2-0.9
		c0.5-0.3,1.4-1,2.6-2l2.2-1.8l0.4,0.4c0.2,0.2,0.4,0.3,0.6,0.4c0.2,0,0.7,0.1,1.5,0.1c0.6,0,1.1,0.1,1.6,0.2
		c0.5,0.1,0.8,0.2,0.8,0.4c0.1,0.2,0.2,1.2,0.3,3c0.1,1.8,0.2,3.7,0.3,5.7V38.1z M531.9,28.9c-0.1,0.5-0.2,0.8-0.2,0.9
		c0,0.2,0,0.3,0.1,0.3l0.1-0.4c0.1-0.3,0.2-0.6,0.2-0.9S532,28.5,531.9,28.9z M540.5,38.9l-0.7,0.1c-0.6,0.1-0.9,0.1-1.1,0.2
		c-0.1,0.1-0.1,0.2,0.1,0.3c0.2,0.1,0.3,0.1,0.4,0l0.7-0.4L540.5,38.9z M554.8,38.4c0,0-0.1-0.1-0.2-0.1c-0.1,0-0.1,0-0.2,0.1
		c-0.1,0-0.1,0-0.1,0.1c0,0,0.1,0.1,0.2,0.1C554.8,38.6,554.9,38.5,554.8,38.4z"/>
	<path d="M577.7,53.1l-0.1,0.9l1.9,0.2l7.2,0.3c4.2,0.1,6.3,0.3,6.3,0.6c-0.1,0-0.2,0.1-0.3,0.1l-0.7-0.1c-0.5,0-0.7,0-0.5,0.1
		c0.8,0.2,1.5,0.5,2.2,0.8c0.6,0.4,0.8,0.7,0.6,0.9c-0.1,0.1-0.2,0.3-0.2,0.5c0,0.3,0.1,0.5,0.3,0.6c0.1,0,0.1,0.1,0.2,0.1
		c0,0.1,0,0.1-0.1,0.1c-0.2,0-0.3,0.1-0.3,0.3c0,0.2,0.1,0.3,0.3,0.3c0.1,0,0.1,0,0.1,0.1c0,0.1-0.1,0.1-0.2,0.1
		c-0.2,0.1-0.3,0.3-0.3,0.5c0,0.2-0.1,0.3-0.3,0.3c-0.2,0-0.3,0-0.3,0.1c0,0.1,0.1,0.2,0.3,0.5c0.1,0.1,0.2,0.2,0.2,0.3
		c0,0.3-0.3,0.5-0.8,0.7c-0.5,0.2-1.5,0.3-2.9,0.4s-3.5,0.2-6.3,0.3c-2.5,0.1-4.5,0.1-5.9,0.2c-1.5,0.1-2.4,0.1-2.8,0.2
		c-0.4,0.1-0.7,0.3-0.9,0.5c-0.2,0.2-0.3,0.3-0.4,0.4c-0.1,0.1-0.1,0-0.1-0.1c0-0.2-0.2-0.3-0.4-0.5c-0.2-0.1-0.4-0.2-0.5-0.1
		c-0.1,0.1-0.2,0.2-0.3,0.4c0,0.1-0.1,0.2-0.1,0.2c0,0-0.1-0.1-0.1-0.2c0-0.2-0.1-0.4-0.3-0.4s-0.3,0.1-0.4,0.4c0,0.1,0,0.1-0.1,0.1
		c0,0-0.1-0.1-0.1-0.2c0-0.2-0.2-0.5-0.4-0.7c-0.2-0.2-0.5-0.3-0.8-0.4c-0.3,0-0.5,0-0.7-0.1c-0.2-0.1-0.3-0.2-0.3-0.4
		c-0.1-0.2,0-0.3,0.2-0.3c0.1,0,0.1,0,0.1-0.1c0-0.1-0.1-0.1-0.2-0.1c-0.2-0.1-0.3-0.3-0.1-0.4l0.1-0.1c0-0.1-0.2-0.2-0.5-0.3
		c-0.4-0.1-0.6-0.3-0.7-0.6c-0.1-0.3-0.2-0.9-0.2-1.8c0-1.7,0.1-2.8,0.4-3.3c0.3-0.4,0.4-0.7,0.3-0.8c0-0.1,0.2-0.1,0.6-0.1h0.6
		l0.1-1.8l0.1-2.6v-0.8h-0.8l-1.3-0.2l-0.2-0.1c0,0,0.2-0.1,0.7-0.1c0.7-0.1,1-0.1,1.1-0.2c0.1-0.1-0.1-0.1-0.6-0.1
		c-0.3,0-0.8-0.1-1.3-0.3s-1-0.4-1.3-0.7c-0.3-0.2-0.4-0.4-0.3-0.5c0.1-0.1,0.2-0.3,0.3-0.5c0.1-0.2,0.1-0.3,0.1-0.4
		c0-0.1-0.1-0.1-0.3-0.2c-0.2,0-0.3-0.1-0.3-0.1c0,0,0-0.1,0.2-0.3c0.1-0.2,0.2-0.3,0.2-0.3c0,0-0.1-0.1-0.2-0.1
		c-0.1-0.1-0.2-0.1-0.2-0.2c0,0,0.1-0.1,0.2-0.1c0.1,0,0.1-0.1,0.2-0.2c0.1-0.1,0.1-0.2,0.1-0.3c0-0.2,0.1-0.3,0.3-0.3
		c0.2,0,0.3-0.1,0.3-0.2c0-0.1-0.1-0.3-0.3-0.4c-0.1-0.2-0.2-0.3-0.2-0.3c0-0.1,0.1-0.2,0.3-0.4c0.3-0.3,0.9-0.5,1.7-0.7l1.3-0.3
		l0.1-0.8c0.1-0.5,0-1.3-0.2-2.4c-0.2-1.2-0.3-2-0.3-2.3c0-1.2-0.2-1.8-0.6-1.8c-0.2,0-0.3-0.1-0.4-0.3c0-0.2,0-0.3,0.2-0.3
		c0.1,0,0.1,0,0-0.1c-0.1-0.1-0.1-0.1-0.2-0.1c-0.2-0.1-0.3-0.1-0.3-0.2c0-0.1,0-0.1,0.2-0.1l0.2-0.1c0-0.1-0.2-0.2-0.5-0.3
		c-0.3-0.1-0.6-0.2-0.7-0.3c-0.1-0.1-0.2-0.4-0.3-0.8c-0.1-0.2-0.1-0.7-0.1-1.4c0-1.5,0.1-2.6,0.4-3.3l0.3-0.8l9.6,0.1
		c7.2,0,11.3,0,12.3-0.1c1.7-0.1,2.6-0.1,2.5-0.1c-0.2,0.1-0.6,0.1-1,0.2c-0.3,0-0.5,0.1-0.5,0.2l1,0.1c0.7,0.1,1.3,0.2,1.9,0.5
		c0.6,0.3,0.8,0.4,0.5,0.5c-0.1,0.1-0.2,0.2-0.2,0.4c0,0.1,0.1,0.3,0.2,0.7c0.1,0.2,0.2,0.4,0.2,0.6c0,0.2,0.1,0.3,0.2,0.3h0.1
		c0,0,0.1,0,0.1,0.1c0,0.1-0.1,0.3-0.2,0.5c-0.2,0.3-0.4,0.5-0.5,0.5c-0.1,0-0.2,0.1-0.2,0.2c0,0.2,0.1,0.3,0.4,0.4
		c0.2,0,0.3,0.1,0.3,0.2c0,0.1-0.2,0.3-0.5,0.6l-0.6,0.7v7.2c0,3.2,0,5.3-0.1,6.1c0,0.9-0.1,1.5-0.3,1.8c-0.2,0.5-0.5,0.7-0.8,0.8
		c-0.3,0.1-2.8,0.1-7.4,0.1l-6.9-0.1l-0.2,1.8L577.7,53.1z M578,35.6c0,1.1,0,2.2,0.1,3.5c0.1,1.2,0.1,1.8,0.2,1.8l2.6-0.2
		c1.7-0.1,2.9-0.3,3.5-0.4l1.1-0.2l0.1-3.1v-3.2c-0.1-0.1-1.3,0-3.8,0.2c-2.4,0.2-3.7,0.3-3.7,0.4C578.1,34.5,578,34.9,578,35.6z
		 M586.1,34.2c0,0.2,0,0.4,0.1,0.5c0,0.2,0.1,0.2,0.1,0.3c0,0,0.1-0.2,0.1-0.6c0-0.4-0.1-0.6-0.2-0.6
		C586.1,33.9,586.1,34,586.1,34.2z M586.6,36.3c0,0,0,0.1,0,0.2c0,0.1,0,0.2,0,0.4c0,0.2,0,0.4,0,0.5c0,0.1,0,0.1,0.1,0v-1
		L586.6,36.3z M586.6,38.7c0,0,0,0.1,0,0.2c0,0.1,0,0.2,0,0.4c0,0.2,0,0.4,0,0.5c0,0.1,0,0.1,0.1,0v-1L586.6,38.7z M586.7,34
		c0,0.1,0,0.1,0,0.2s0,0.2,0,0.3c0,0.1,0,0.1,0.1,0C586.8,34.4,586.8,34.2,586.7,34C586.7,34,586.7,34,586.7,34z"/>
	<path d="M621.3,31.3c0,2.6-0.3,4.9-0.8,7c-0.2,0.6-0.4,1.3-0.8,2.2c-0.3,0.9-0.7,1.6-1,2.1c-0.2,0.5-0.7,1.1-1.5,2
		c-0.7,0.9-1.3,1.4-1.6,1.6c-0.1,0.1-0.2,0.1-0.2,0.1c0,0,0-0.1,0.1-0.2c0.3-0.4,0.5-0.6,0.5-0.7c0-0.1-0.1,0-0.4,0.2
		c-0.4,0.3-0.9,0.4-1.4,0.5c-0.1,0-0.3,0.1-0.5,0.1c-0.1,0-0.2,0-0.3-0.1c-0.1-0.1-0.1-0.2-0.2-0.3c-0.1-0.3-0.3-0.4-0.6-0.5
		c-0.2,0-0.4-0.1-0.6-0.3c0-0.1-0.1-0.1-0.1-0.2c-0.1,0-0.1,0-0.1,0h-0.1c-0.1,0-0.2-0.1-0.3-0.4c-0.1-0.2-0.1-0.4-0.1-0.6
		c0-0.2-0.1-0.3-0.4-0.3c-0.4,0-0.6-0.2-0.6-0.6c0-0.4,0.2-0.8,0.5-1.4l1.2-2.2c0.3-0.6,0.5-1.3,0.8-2.1c0.2-0.8,0.3-1.3,0.2-1.4
		c-0.1-0.1-0.9,0.3-2.4,1c-1.6,0.7-2.6,1.2-3.1,1.6c-0.5,0.3-0.8,0.6-0.8,0.8l-0.3,5.8c-0.3,6.3-0.9,10.9-1.7,14
		c-0.2,0.7-0.3,1.1-0.4,1.1c0-0.1-0.1-0.1-0.1-0.2c0-0.2,0.1-0.5,0.2-1c0.1-0.7,0.2-1.2,0.2-1.3v-0.1c-0.1,0-0.2,0.3-0.3,0.8
		c-0.2,1.2-0.8,2.3-1.7,3.5c-0.2,0.2-0.4,0.4-0.5,0.5c-0.1,0.1-0.2,0-0.2-0.2c0-0.3-0.1-0.5-0.4-0.6l-0.3-0.1
		c-0.1,0-0.3,0.1-0.4,0.3c-0.2,0.3-0.3,0.4-0.4,0.1c-0.1-0.2-0.2-0.3-0.3-0.3c-0.1,0-0.2,0.1-0.3,0.3c0,0.1,0,0.1-0.1,0.1
		c0,0-0.1-0.1-0.1-0.2c0-0.1,0-0.2-0.1-0.3c-0.1-0.1-0.1-0.2-0.2-0.2c-0.2-0.1-0.3-0.3-0.3-0.6v-0.5l-0.5,0.4
		c-0.2,0.2-0.3,0.3-0.4,0.3c-0.1,0-0.1-0.1-0.2-0.2c-0.1-0.3-0.2-0.5-0.3-0.7c0-0.1-0.1-0.3-0.1-0.6c0-0.9,0.2-3.7,0.5-8.5
		c0.2-3,0.3-5.5,0.3-7.7l-0.1-2.9l-0.6,0.1h-0.2c-0.2,0-0.3-0.1-0.4-0.2c-0.1-0.1-0.3-0.3-0.5-0.7c-0.4-0.7-0.6-1.1-0.6-1.2
		c0-0.2-0.1-0.3-0.2-0.4c-0.1-0.1-0.2-0.5-0.4-1.1s-0.2-1.2-0.2-1.6V35c0-0.2,0.1-0.4,0.2-0.5c0.1-0.1,0.4-0.3,0.9-0.5l1.2-0.6v-3.1
		c0-1.3,0-2.2,0-2.6c0-0.4,0.1-0.6,0.3-0.6s0.2,0.1,0.3,0.3c0,0.1,0,0.1,0.1,0c0.1-0.1,0.1-0.2,0.1-0.3c0.1-0.2,0.1-0.3,0.2-0.3
		c0,0,0.1,0.1,0.2,0.3c0,0,0,0.1,0.1,0.2c0,0,0.1-0.2,0.3-0.6c0.1-0.3,0.2-0.5,0.3-0.6s0.3-0.2,0.6-0.3c0.8-0.2,1.8-0.4,3.2-0.4
		c0.7,0,1.3,0.1,1.6,0.2l0.8,0.2l0.1,1.2l0.1,2.2c0,0.7,0.1,1,0.3,1c0.3,0,2-0.7,5.1-2c1-0.4,1.8-0.7,2.2-0.9
		c0.5-0.2,0.8-0.4,0.9-0.6c0.1-0.1,0.3-0.2,0.6-0.2c0.2,0,0.4-0.1,0.5-0.2c0.2-0.2,0.9-0.3,2.2-0.3c1,0,1.7,0.1,2.1,0.3
		c0.3,0.2,0.5,0.3,0.6,0.5c0.1,0.1,0.2,0.6,0.3,1.3C621.2,29,621.3,30.1,621.3,31.3z M599.2,28.7l-0.1-0.1v0.5c0,0.4,0,0.5,0.1,0.4
		C599.2,29.2,599.2,28.9,599.2,28.7z"/>
	<path d="M645.8,38.1c0.2,1.6,0.3,3.6,0.3,5.8c0,3-0.2,5.6-0.5,7.8c-0.4,2.3-0.8,4-1.4,5.1c-0.5,1.1-1.4,2.1-2.5,2.9
		c-1,0.7-2.2,1.3-3.6,1.7c-1.4,0.4-2.9,0.6-4.3,0.6c-0.9,0-1.8-0.1-2.7-0.3c-2.2-0.4-3.9-1.3-5.1-2.5c-1.2-1.2-2-3-2.5-5.3
		c-0.4-2-0.7-5.3-0.7-9.9c0-2.7,0.1-5.2,0.3-7.6c0.2-2.4,0.4-4.1,0.7-5.3c0.7-2.3,1.8-3.7,3.3-4.4c0.6-0.2,1.4-0.4,2.6-0.6
		c1.2-0.1,2.4-0.2,3.8-0.2c2.9,0,4.9,0.2,6.3,0.7c0.6,0.2,0.9,0.4,1,0.5c0.1,0.1,0.1,0.3,0,0.6l-0.1,0.4c0,0.1,0.1,0.3,0.4,0.5
		c0.2,0.2,0.3,0.4,0.4,0.5s0.1,0.3,0,0.6c-0.2,0.7-0.3,1.1-0.4,1.3c0,0-0.2,0.5-0.5,1.4c-0.6,1.5-1,2.3-1.1,2.4h-0.1
		c-0.1,0-0.6-0.1-1.5-0.2c-0.9-0.2-2.2-0.3-3.9-0.3h-2.4l-0.2,1c-0.3,1.4-0.5,3.1-0.7,5.1c-0.2,2.1-0.2,4.1-0.2,6.2
		c0,3.2,0.2,5.4,0.5,6.6c0.1,0.5,0.4,0.8,0.7,0.9c0.3,0.2,1,0.2,2.1,0.2c0.9,0,1.7-0.1,2.4-0.3c0.7-0.2,1.2-0.4,1.4-0.7
		c0.3-0.3,0.6-1.7,0.9-4c0.4-2.3,0.6-4.8,0.8-7.6l0.3-3.3l0.1,5.6l0.2-2.5c0.1-1.5,0.2-2.9,0.4-4.2c0.2-1.4,0.4-2.3,0.4-2.9
		c0-0.4,0.1-0.7,0.1-0.8c0.1-0.1,0.1,0,0.2,0.2c0.1,0.4,0.3,0.6,0.5,0.8c0.3,0.2,0.5,0.2,0.6-0.1c0.1-0.3,0.2-0.5,0.2-0.7v-0.4
		l0.4,0.4l0.4,0.5v-0.5c0-0.2,0-0.3,0.1-0.3c0,0,0.1,0.2,0.3,0.5c0.2,0.4,0.4,0.6,0.5,0.6c0.1,0,0.2,0.2,0.3,0.7
		c0.1,0.5,0.2,0.8,0.3,0.8c0.1,0,0.2-0.1,0.3-0.3c0.1-0.2,0.1-0.5,0.1-0.7c0-0.2,0-0.3,0.1-0.3s0.1,0,0.2,0
		C645.3,35.5,645.6,36.5,645.8,38.1z M639,27.6l0.4,0.2c0.3,0.1,0.5,0.2,0.7,0.2c0.2,0.1,0.2,0-0.1-0.1c-0.2-0.1-0.4-0.2-0.7-0.3
		L639,27.6z M642.9,33.4c0-0.1,0-0.1,0.1-0.2c0,0,0.1,0,0.1,0.1c0.1,0.2,0.1,0.3,0,0.4C642.9,33.7,642.9,33.6,642.9,33.4z"/>
	<path d="M673.5,36.1c0,2.7-0.2,5.4-0.5,8.1l-0.5,4.9c-0.1,1-0.3,2.4-0.5,4.2c-0.3,1.8-0.5,3.2-0.7,4.2c-0.1,0.5-0.2,1.1-0.4,1.8
		c-0.2,0.7-0.3,1-0.4,0.9v-0.1l0.1-0.7c0.1-0.3,0.2-0.7,0.2-1.3v-0.5c0,0-0.1,0.1-0.1,0.2c0,0.1,0,0.2-0.1,0.4
		c-0.1,0.5-0.3,1.1-0.6,1.8c-0.3,0.6-0.6,1.2-1,1.7c-0.2,0.2-0.4,0.4-0.5,0.5c-0.1,0.1-0.2,0-0.2-0.2c0-0.2-0.1-0.4-0.2-0.5
		c-0.1-0.1-0.3-0.2-0.5-0.2c-0.3,0-0.5,0.1-0.5,0.4c0,0.1,0,0.2,0,0.2c0,0-0.1-0.1-0.1-0.2c-0.1-0.1-0.1-0.2-0.2-0.2
		c-0.1-0.1-0.1-0.1-0.2-0.1c-0.1,0-0.2,0.1-0.3,0.3c0,0.1,0,0.1-0.1,0.1c0,0-0.1-0.1-0.1-0.2c0-0.2-0.1-0.4-0.3-0.6
		c-0.1,0-0.2-0.2-0.3-0.6l-0.1-0.4l-0.8,0.9l-0.3-0.7c-0.1-0.3-0.2-0.8-0.2-1.6c0-1.6,0.2-4.7,0.6-9.2c0.2-2.7,0.4-5.1,0.5-7.2
		l0.2-3.2l-0.7,0.5c-0.5,0.4-1.5,1.1-2.7,2c-1.3,0.9-2.4,1.7-3.4,2.4l-1.7,1.1l-0.3,2.8c-0.2,2.4-0.6,4.7-1.1,7.1
		c-0.5,2.3-1.1,3.9-1.6,4.8c-0.1,0.2-0.2,0.3-0.3,0.4c-0.1,0.1-0.1,0.1-0.1,0c0.6-1.5,0.9-2.3,0.8-2.4c0,0-0.1,0-0.1,0
		c0,0.1-0.1,0.1-0.1,0.2c-0.5,1.6-1.4,2.9-2.8,3.9c-0.1,0.1-0.2,0.1-0.3,0.1c0,0-0.1-0.1-0.1-0.2c0-0.2-0.1-0.4-0.4-0.6
		c-0.3-0.1-0.5-0.1-0.6,0.1c-0.1,0.1-0.2,0.2-0.2,0.2c-0.1,0-0.1-0.1-0.2-0.2c-0.1-0.1-0.2-0.2-0.2-0.2c-0.1,0-0.1,0-0.2,0.2
		c-0.1,0.2-0.2,0.2-0.2-0.1c0-0.3-0.1-0.4-0.2-0.5c-0.1-0.1-0.1-0.3-0.1-0.6l0.1-0.4c0,0,0-0.1-0.1-0.1c-0.1,0-0.2,0.1-0.4,0.2
		c-0.2,0.1-0.3,0.2-0.4,0.2c-0.3,0-0.4-0.3-0.4-0.8c0-0.4,0.1-1.2,0.4-2.3c0.3-1.2,0.5-2.3,0.6-3.4c0.2-1.1,0.3-2.3,0.4-3.8
		c0.2-1.6,0.3-2.6,0.3-2.8c0-0.4-0.1-0.6-0.2-0.8c-0.2-0.2-0.2-0.3,0-0.4c0.1-0.1,0.1-0.1,0.1-0.1c0,0-0.1,0-0.2,0
		c-0.2,0-0.3-0.1-0.3-0.2c0-0.1,0-0.2,0.2-0.3c0,0,0.1,0,0.1-0.1c0-0.1-0.2-0.2-0.5-0.3c-0.5-0.1-0.7-0.4-0.8-0.7
		c-0.1-0.2-0.2-0.5-0.3-0.9c-0.1-0.2-0.1-0.6-0.1-1.1c0-0.6,0-1.2,0.1-1.8s0.1-1,0.2-1.2c0.1-0.4,0.2-0.6,0.2-0.6
		c0-0.1,0.1-0.2,0.4-0.2c0.2,0,0.5,0,0.8-0.1c0.1,0,0.2-0.1,0.3-0.3c0.1-0.2,0.1-0.7,0.1-1.4c0-0.8,0-1.8,0-3.1c0-2.2,0-3.8,0.1-4.5
		c0.1-0.8,0.2-1.2,0.5-1.2c0,0,0.1,0,0.2,0c0.1,0,0.2,0,0.3-0.1c0.1-0.1,0.2-0.1,0.3,0.1l0.1,0.1c0.1,0,0.1-0.1,0.2-0.4
		c0.1-0.4,0.3-0.7,0.7-0.8s1.2-0.2,2.3-0.2c0.6,0,1.1,0,1.5,0.1c0.4,0,0.7,0.1,0.9,0.1l0.7,0.2l0.4,0.2v8.8l0.6-0.3
		c0.6-0.3,1.3-0.8,2.2-1.5c0.9-0.7,1.8-1.5,2.6-2.4c0.7-0.7,1.2-1.2,1.3-1.5c0.2-0.3,0.3-0.6,0.3-0.9c0-0.3,0-0.4,0.1-0.5
		c0.1-0.1,0.1-0.1,0.3-0.1h0.1c0.3,0,0.6-0.3,0.9-0.9c0.4-0.6,0.7-0.9,0.7-0.9c0.4,0,1-0.2,1.8-0.6c0.7-0.4,1-0.4,1-0.2
		c0,0.1,0.1,0.2,0.3,0.2c0.2,0,0.5,0.1,0.8,0.1c0.6,0,1.1,0,1.3,0.1c0.2,0.1,0.4,0.2,0.5,0.3c0.1,0.2,0.2,0.5,0.3,1
		C673.3,30,673.5,32.9,673.5,36.1z M650.8,29.3C650.8,29.3,650.8,29.3,650.8,29.3c-0.1,0-0.1,0-0.1,0.1c0,0.1,0,0.2,0,0.3
		c0,0.1,0,0.2,0,0.3c0,0.1,0,0.1,0.1,0C650.8,29.7,650.8,29.5,650.8,29.3z M651,28C650.9,27.9,650.9,27.9,651,28
		c-0.1,0.1-0.1,0.2-0.1,0.3c0,0.1,0,0.2,0,0.3c0,0.1,0,0.1,0.1,0C651,28.5,651,28.3,651,28z"/>
	<path d="M714.4,58.5c0,0.1-0.1,0.2-0.3,0.5c-0.2,0.2-0.3,0.4-0.3,0.6c0,0.1,0,0.2,0,0.3c0,0.1,0,0.2-0.1,0.3
		c-0.1,0.1-0.2,0.2-0.1,0.4c0,0.1,0,0.1-0.1,0.2c-0.1,0.1-0.3,0.2-0.5,0.2c-0.2,0.1-0.3,0.1-0.4,0.2c-0.1,0.1-0.2,0.1-0.2,0.2
		c0,0.1,0.1,0.2,0.2,0.4c0.1,0.1,0.1,0.2,0.1,0.3c0,0.1-0.2,0.2-0.5,0.3c-0.2,0.1-0.4,0.1-0.5,0.1c-0.2,0-1.1-0.1-2.5-0.4
		c-1.8-0.3-3-0.5-3.5-0.6c-0.5-0.1-1.4-0.1-2.7-0.1c-1.5,0-2.9,0.1-4.1,0.4c-1.3,0.3-2,0.4-2.2,0.4c-0.3,0-0.6,0.1-0.9,0.4
		c-0.2,0.2-0.4,0.3-0.5,0.4c-0.1,0-0.2,0-0.3-0.1c0,0,0-0.1,0-0.2c0-0.1,0.1-0.2,0.1-0.2c0.1-0.2,0.1-0.2-0.2,0
		c-0.2,0.2-0.4,0.2-0.5,0.2c-0.1,0-0.1-0.2,0.1-0.4s0.1-0.3-0.2-0.2l-0.8,0.4c-0.3,0.1-0.5,0.2-0.7,0.1l-0.9-0.5
		c-0.4-0.3-0.6-0.5-0.7-0.7c-0.4-0.6-0.8-1.2-1.3-1.6c-0.2-0.2-0.4-0.6-0.6-1.2l-0.3-0.8l1.5-1.4c0.7-0.7,1.2-1.3,1.5-1.7
		c0.2-0.4,0.5-1.2,0.8-2.4c0.4-1.5,0.8-3.2,1-5c0.2-1.8,0.4-3.5,0.4-5.2c0-1.4-0.1-2.4-0.2-3.3c-0.1-0.8-0.3-1.7-0.5-2.5
		c-0.2-0.9-0.5-2.1-0.8-3.7c-0.5-2.1-0.6-3.1-0.4-3.1c0.1,0,0.2-0.1,0.4-0.3c0.1-0.1,0.1-0.2,0.2-0.2c0.1,0,0.1,0,0.1,0.1l0.1,0.1
		c0.1,0,0.1-0.1,0.1-0.3c0-0.2,0-0.3,0-0.4c0-0.3,0-0.6,0.1-0.7c0.1-0.1,0.3-0.3,0.6-0.5c0.5-0.3,1.3-0.6,2.4-0.9
		c1.1-0.3,1.8-0.5,2.2-0.4c0.3,0,0.5,0.1,0.6,0.2c0.1,0.1,0.3,0.4,0.5,1c0.2,0.5,0.5,1.3,0.8,2.2c1.1,3.3,1.6,6.9,1.6,10.8
		c0,1.3-0.1,2.5-0.2,3.8c-0.4,3.5-0.8,6.1-1.2,7.9l-0.4,1.5c0,0.1,0.3,0.2,0.9,0.2c0.5,0,1.6,0.1,3.3,0.2s2.8,0.3,3.4,0.4
		c0.9,0.2,2,0.5,3.3,1c1.3,0.5,2.1,0.9,2.3,1.2l0.2,0.2c0,0-0.2,0-0.5-0.2c-0.3-0.2-0.6-0.3-0.8-0.3c-0.2,0-0.2,0.1,0.1,0.2
		c0.3,0.2,0.7,0.5,1,0.8c0.3,0.3,0.5,0.6,0.6,0.9C714.4,58.3,714.4,58.4,714.4,58.5z M693.6,30C693.5,29.9,693.5,29.9,693.6,30
		c-0.1,0.1-0.1,0.2-0.1,0.3s0,0.2,0,0.2c0,0.1,0,0,0.1,0C693.6,30.3,693.6,30.2,693.6,30z M693.9,31.2c0-0.1-0.1-0.2-0.1-0.3
		c0-0.1-0.1-0.1-0.1,0v0.2c0,0.2,0,0.3,0.1,0.5c0.1,0.1,0.1,0.2,0.1,0.2C693.9,31.7,693.9,31.5,693.9,31.2z M696.2,61
		c0-0.1-0.1,0-0.4,0.1c-0.3,0.2-0.4,0.3-0.4,0.4l-0.1,0.1l0.4-0.2C696.1,61.2,696.2,61.1,696.2,61z"/>
	<path d="M735.2,56.8c0,1.2,0,1.9-0.1,2.1l-0.2,0.8l-0.1-1.1c-0.1-1-0.2-1.5-0.3-1.5c0,0-0.1,0.3-0.1,0.9c0,0.6-0.1,1.3-0.3,2
		c-0.2,0.7-0.4,1.2-0.7,1.6c-0.2,0.3-0.3,0.4-0.4,0.2c0-0.2-0.2-0.3-0.5-0.3c-0.3,0-0.5,0.1-0.6,0.4c0,0.1-0.1,0.2-0.1,0.2
		c0,0-0.1,0-0.3-0.2c-0.1-0.1-0.2-0.2-0.3-0.2c-0.1,0-0.1,0.1-0.2,0.3c0,0.3-0.1,0.3-0.2,0.2c0-0.2-0.2-0.5-0.5-0.7
		c-0.3-0.2-0.6-0.3-0.8-0.2c-0.2,0-0.5,0.1-1,0.2c-0.4,0.1-1,0.1-1.5,0.2c-0.9,0.1-1.5,0.1-2,0.1c-3.4,0-6.3-0.9-8.6-2.6
		c-0.9-0.6-1.7-1.4-2.3-2.2c-0.6-0.8-1.2-2-1.8-3.3c-0.6-1.6-1.1-3.4-1.5-5.3c-0.4-1.9-0.8-4.9-1.2-9c-0.2-1.8-0.3-3.7-0.3-5.5
		c0-2.3,0.2-4.2,0.5-5.7c0.1-0.7,0.2-1.1,0.3-1.3c0.1-0.1,0.2-0.1,0.3,0.1c0.1,0.1,0.2,0.2,0.3,0.2c0.1,0,0.1,0,0.1-0.2
		c0-0.2,0.1-0.3,0.2-0.3c0.1,0,0.2,0.1,0.2,0.2l0.1,0.1c0.1,0,0.2-0.1,0.3-0.4c0.1-0.2,0.2-0.3,0.3-0.5c0.1-0.1,0.2-0.2,0.3-0.3
		c0.3-0.1,0.7-0.1,1.3-0.1c1,0,1.7,0.1,2,0.2c0.4,0.1,0.6,0.2,0.8,0.1h0.1c0.2,0,0.4,0.1,0.8,0.3c0.4,0.2,0.7,0.3,0.8,0.3
		c0.1,0,0.2,0.2,0.2,0.7c0,0.6-0.1,1.7-0.2,3.2c-0.1,1.9-0.2,3.7-0.2,5.3c0,2.3,0.1,4.6,0.3,6.9c0.2,2.3,0.4,4.1,0.6,5.4
		c0.2,1.1,0.5,2,0.8,2.9c0.3,0.9,0.7,1.5,1,1.9c0.4,0.4,1,0.9,1.7,1.2c0.5,0.2,1.3,0.4,2.3,0.6c1,0.2,1.8,0.3,2.4,0.3
		c0.5,0,0.7-0.1,0.8-0.2c0.1-0.1,0-0.6-0.1-1.7l-0.3-4.8c-0.3-6.1-0.6-9.8-0.9-11.4c-0.2-1.1-0.3-2.6-0.3-4.7c0-1.3,0-2.3,0.1-3.2
		c0.1-0.9,0.2-1.3,0.3-1.3c0.2,0,0.3,0.1,0.3,0.2c0,0.1,0.1,0,0.2-0.2c0.1-0.2,0.2-0.4,0.2-0.4c0,0,0.1,0.1,0.2,0.3l0.1,0.2
		c0.1,0,0.1-0.1,0.2-0.4c0.1-0.3,0.2-0.6,0.3-0.7c0.2-0.2,0.4-0.3,0.8-0.4c0.2-0.1,0.8-0.1,1.7-0.1c1.3,0,2.3,0.1,3,0.2
		c0.4,0.1,0.6,0.2,0.7,0.3c0.1,0.1,0.1,0.3,0.1,0.7l0.1,3.4c0.1,2.3,0.1,5.5,0.2,9.5c0.1,4.3,0.1,7.2,0.2,9
		C735.2,51.8,735.2,54.3,735.2,56.8z M711.5,27.6c0,0-0.1,0.4-0.3,1c0,0.4,0,0.5,0.1,0.3c0,0,0.1-0.4,0.3-1
		C711.5,27.5,711.5,27.4,711.5,27.6z M727.9,55.3c0.1,0,0.1-0.1,0.2-0.1c0-0.1-0.1-0.1-0.3-0.1c-0.2,0-0.3,0-0.4,0.1
		c-0.1,0-0.2,0.1-0.2,0.1c0,0.1,0.2,0.1,0.5,0.1C727.8,55.4,727.9,55.4,727.9,55.3z M727.7,29.1c0-0.2,0-0.4-0.1-0.4
		s-0.1,0.2-0.2,0.7c0,0.2-0.1,0.3-0.1,0.4c0,0.1,0,0.1,0.1,0C727.7,29.6,727.7,29.3,727.7,29.1z"/>
	<path d="M760.7,52.6c0.1,0,0.2,0.1,0.2,0.3l-0.2,1.1c-0.3,1.4-1.2,2.8-2.7,4.2c-1.1,1.1-2.3,1.9-3.6,2.4c-1.3,0.5-2.8,0.8-4.4,0.8
		c-0.7,0-1.5-0.1-2.4-0.2c-1.3-0.3-2.5-0.7-3.5-1.3c-1-0.5-2-1.3-2.9-2.2c-1.1-1.1-1.9-2.4-2.5-3.9s-1.1-3.5-1.5-6.1
		c-0.2-1.3-0.3-2.5-0.3-3.6c-0.1-1.1-0.1-3.4-0.1-6.9c0-3.1,0-5.2,0.1-6.2c0-1,0.1-1.7,0.3-2.1c0.1-0.4,0.4-0.8,0.8-1.3
		c0.4-0.4,0.8-0.8,1.1-0.9c0.4-0.2,1-0.3,1.9-0.4c0.8-0.1,2.3-0.1,4.4-0.2c0.9,0,2.2-0.1,4-0.1c4,0,6.4,0.1,7.1,0.4
		c0.3,0.1,0.4,0.2,0.5,0.4c0.1,0.1,0,0.2-0.2,0.3c-0.1,0-0.1,0.1,0.1,0.2c0.1,0.1,0.2,0.1,0.2,0.2c0,0,0,0.1-0.1,0.2l-0.1,0.1
		c0,0.1,0.1,0.2,0.4,0.3c0.3,0.1,0.5,0.2,0.6,0.5c0.1,0.3,0.2,0.8,0.2,1.7c0,1.8-0.1,3-0.3,3.6l-0.3,0.8l-12.8-0.2l-0.2,2.5
		c-0.1,1.4-0.1,2.5-0.1,3.3c0,1.7,0.1,3.3,0.2,4.8c0.1,1.5,0.2,2.6,0.4,3.3c0.3,1.4,0.5,2.4,0.8,3c0.2,0.6,0.6,1.1,1,1.5
		c0.6,0.5,1.2,0.9,1.7,1.2c0.6,0.2,1.3,0.4,2,0.4c1.3,0,2.6-0.5,3.8-1.5c0.2-0.2,0.4-0.3,0.5-0.4c0.1-0.1,0.1,0,0,0.2
		c-0.1,0.1-0.2,0.3-0.5,0.5c-0.3,0.2-0.5,0.5-0.8,0.7c-0.7,0.5-1.1,0.8-1,0.9c0,0,0.2,0,0.4-0.1c0.2-0.1,0.5-0.3,0.7-0.4
		c0.8-0.6,2.1-1.8,3.8-3.7c0.4-0.4,0.6-0.6,0.7-0.6c0.1,0,0.1,0.1,0,0.4l-0.1,0.3c0,0.2,0,0.3,0.1,0.5c0.1,0.1,0.2,0.2,0.3,0.2
		c0.1,0,0.3-0.1,0.4-0.2c0.2-0.1,0.3-0.2,0.3-0.2s0.1,0.1,0.2,0.3l0.1,0.3c0.1,0,0.2-0.2,0.4-0.5c0.1-0.2,0.2-0.3,0.2-0.3
		c0.1,0,0.1,0,0,0.2c-0.1,0.1-0.1,0.4-0.1,0.7c0,0.3,0,0.6,0.1,0.8l-0.2,0.9l-0.2,0.6l0.6-0.6C760.4,52.8,760.6,52.6,760.7,52.6z
		 M754.9,27.3c0,0,0.1,0.1,0.2,0.1c0.1,0,0.2,0,0.3,0.1c0.4,0.1,0.7,0.2,0.8,0.2c0.2,0,0.2-0.1-0.1-0.2c-0.2-0.1-0.5-0.2-0.9-0.2
		H754.9z"/>
	<path d="M783.5,30.9c-0.3,2.3-0.5,3.9-0.6,4.8c-0.2,1.3-0.6,2.8-1,4.4c-0.4,1.6-0.9,3-1.4,4.2c-0.4,1-1,2.3-1.8,4
		c-0.8,1.7-1.5,3-2,3.9c-0.8,1.4-1.9,2.9-3.2,4.6c-1.3,1.7-2.3,2.8-2.9,3.3c-0.5,0.4-0.6,0.4-0.3,0.1l0.6-0.7
		c0.1-0.1,0.3-0.4,0.5-0.7s0.3-0.5,0.3-0.6c0,0-0.1,0-0.2,0.1c-0.1,0.1-0.2,0.2-0.3,0.4c-0.9,1.1-2,1.9-3.4,2.4
		c-0.3,0.1-0.5,0.2-0.6,0.2s-0.1-0.1-0.1-0.2V61c0-0.2-0.1-0.4-0.2-0.6c-0.1-0.1-0.2-0.2-0.3-0.2c-0.1,0-0.2,0-0.4,0.1
		c-0.1,0.1-0.2,0.1-0.3,0.1c-0.1,0-0.1,0,0-0.1c0,0,0.1-0.1,0.1-0.2s0-0.2-0.1-0.2c-0.1-0.1-0.2,0-0.3,0l-0.1,0.1
		c-0.1,0-0.1-0.2-0.1-0.6c0-0.5,0.1-0.8,0.2-1c0,0,0.1-0.1,0.1-0.2c0-0.1-0.2-0.1-0.5-0.1l-0.4,0.1c-0.1,0-0.2-0.1-0.2-0.2l0.1-0.5
		c0-0.3,0.1-0.6,0.3-0.9c0.2-0.3,0.4-0.7,0.7-1.1c0.3-0.4,0.5-0.8,0.7-1l0.6-0.9c0.9-1.3,1.5-2.2,1.6-2.5c0.4-0.6,0.6-1,0.7-1.2
		l0.4-0.6l-0.8-0.7c-1.4-1.1-2.7-2.5-3.9-4.1c-1.1-1.6-2-3.2-2.6-4.8c-0.9-2.4-1.5-4.2-1.7-5.2c-0.2-1-0.3-2.3-0.3-4
		c0-0.8,0-1.4,0.1-1.9c0-0.4,0.1-0.7,0.2-0.7c0.2-0.1,0.3,0,0.4,0.1c0.1,0.1,0.1,0.1,0.1-0.1c0-0.2,0.1-0.3,0.2-0.3
		c0.1,0,0.2,0,0.3,0.2c0,0,0,0.1,0.1,0.1s0.1-0.2,0.3-0.6c0.1-0.4,0.2-0.6,0.3-0.7c0.1-0.1,0.4-0.2,0.7-0.4c0.6-0.2,1.4-0.3,2.5-0.3
		c1.4,0,2.2,0.1,2.3,0.3c0.1,0.2,0.2,0.2,0.4,0.2c0.1-0.1,0.2,0.2,0.3,0.9c0.1,0.7,0.2,1.8,0.3,3.3c0.2,3.4,0.8,6.1,1.7,8.2
		c0.2,0.4,0.6,1.1,1.2,2.1c0.7,0.9,1.1,1.4,1.2,1.5c0.2,0.1,0.4-0.5,0.8-1.8c0.4-1.3,0.6-2.5,0.8-3.6l0.4-2.7
		c0.1-0.7,0.2-1.3,0.2-1.9c0-0.4,0.1-1.3,0.4-2.7c0.3-1.4,0.5-2.2,0.6-2.3c0.1-0.1,0.2-0.1,0.4,0.1c0.1,0.1,0.1,0.1,0.1,0.1
		c0,0,0-0.1,0-0.2c0-0.2,0.1-0.3,0.2-0.3c0.1,0,0.2,0,0.3,0.2c0,0,0,0.1,0.1,0.1c0.1,0,0.2-0.1,0.3-0.4l0.3-0.6
		c0.1-0.2,0.7-0.3,1.9-0.3c0.6,0,1.1,0,1.4,0.1c0.7,0.1,1.3,0.2,1.7,0.3c0.4,0.1,0.8,0.3,1.3,0.5C783.9,27.4,783.8,28.5,783.5,30.9z
		 M761.4,30.5C761.4,30.4,761.3,30.4,761.4,30.5c-0.1,0-0.1,0.1-0.1,0.2s0,0.2,0,0.3c0,0.1,0,0.1,0.1,0
		C761.5,30.8,761.5,30.6,761.4,30.5z M761.5,27.5c0,0,0-0.1,0-0.2c0-0.1,0-0.1,0.1-0.2c0,0,0.1,0,0.1,0.1
		C761.6,27.3,761.6,27.4,761.5,27.5C761.5,27.5,761.5,27.5,761.5,27.5z M761.5,29c0-0.1-0.1,0-0.1,0.2c0,0.2,0,0.3,0.1,0.3
		C761.6,29.3,761.6,29.2,761.5,29z M776.6,29.2C776.6,29.1,776.5,29.1,776.6,29.2c-0.1,0.1-0.1,0.2-0.1,0.3c0,0.1,0,0.2,0,0.2
		c0,0.1,0,0,0.1,0C776.7,29.5,776.7,29.3,776.6,29.2z"/>
</g>
<text transform="matrix(1 0 0 1 -112.486 224.0894)" style="font-family:'Midorima-PersonalUse-Regular'; font-size:51px;">Ninja Master Poppy Cameron Lucy</text>
</svg>
