<?xml version="1.0" encoding="utf-8"?>
<!-- Generator: Adobe Illustrator 25.0.1, SVG Export Plug-In . SVG Version: 6.00 Build 0)  -->
<svg version="1.1" id="Layer_1" xmlns="http://www.w3.org/2000/svg" xmlns:xlink="http://www.w3.org/1999/xlink" x="0px" y="0px"
	 viewBox="0 0 288 560" style="enable-background:new 0 0 288 560;" xml:space="preserve">
<ellipse cx="145.2" cy="134.9" rx="61.7" ry="58.6"/>
<g>
	<path d="M280.5,178.4L280.5,178.4c-0.6-9-2.4-18.3-5.6-28.5c-4.1-12.9-10.1-24.9-17.8-35.5c-7.1-9.8-15.6-18.4-25.1-25.5
		c-9-6.7-19-12.2-29.7-16.3c-12-4.6-22.8-7.4-33-8.4c-18.5-1.8-32.1-2.5-47.2-0.4c-7,1-13.9,2.7-20.6,4.4l-2.5,0.6
		c-6.9,1.7-13.4,4.6-19.8,7.4L79,76.4c-7.8,3.4-15.6,8.1-23.9,14.2c-5.8,4.3-11.5,9.3-16.8,15.1c-6.2,6.7-11.2,13.1-15.3,19.8
		c-6.4,10.4-11.2,21.8-14.2,33.9c-1.8,7.2-2.8,15-3.1,25.3c-0.2,4.5,0.4,9,0.9,13.4c0.1,0.9,0.2,1.9,0.3,2.8c1,9,3.3,18.2,6.9,27.2
		c3.2,7.9,7.7,15.7,13.9,23.8c5,6.5,11.1,12.4,19.5,18.5c6,4.4,11.7,7.7,17.5,10c0.8,0.3,1.2,0.7,1.4,2c0.9,6.6,2.6,12.5,5.1,17.9
		c5.1,11.2,13.2,20.1,24,26.4c0.3,0.1,0.5,0.3,0.8,0.5c-0.1,0-0.1,0.1-0.2,0.1c-0.8,0.6-1.6,1.1-2.4,1.8c-1.3,1.1-2.6,2.1-3.9,3.2
		c-1.2,1-2.4,2-3.6,3c-1.8,1.4-3.6,2.9-5.4,4.3c-3.8,3-7.7,6-11.2,9.4c-4.8,4.6-9.5,9.6-14,14.4c-2.3,2.5-4.6,4.9-7,7.3
		c-0.6,0.7-1.4,1.2-2,1.3c-2,0.4-4.1,0.8-6.1,1.1c-1.3,0.2-2.6,0.4-3.9,0.7c-6.2,1.2-10.6,1.5-14.5,4.1c-2.6,1.7-4.1,5-4.2,6.8
		c-0.2,1.7,0.6,3.4,2.4,5.2c-0.1,0.4-0.3,0.9-0.4,1.3c-0.4,1.4-1.5,2.4-1.7,3.8c-0.2,1.8,0.9,3.7,2.3,5.1c0.5,0.5-0.4,4.6-0.1,5.2
		c1.8,3.7,4.3,3,6.2,3.3c1.9,0.3-2.2,2.6,2.6,4.5c0.9,0.4,5,2.1,9.9,0.5c2.3-0.7,6.4-2.5,8-3.7c0.6-0.5,0,0,0.7-0.2
		c0.1,0.2,0.2,0.3,0.4,0.5c0.6,0.8,0.2,0.6,0.9,1.3c0.9,0.9,2.2,2,3.6,2.7c2.3,1.2,4.6,1.4,6.3,0.6c1-0.5,3.3-1.6,3.8-4.2
		c0.4-2.4,0.6-4.9,0.7-7.3l0.1-1.7c0.1-1.3,0.4-1.4,0.2-1.7c0,0.2,0,0.4,0,0.6c-0.1,1.1-0.2,2.2-0.4,3.3c-0.3,2.4-0.6,4.9-0.6,7.4
		c0.1,7.2,1.6,13.9,4.6,19.9c0.4,0.7,0.3,0.9,0.3,0.9c0,0-0.1,0.2-0.8,0.5c-9.2,4.5-16.9,10.7-22.8,18.4c-6.4,8.4-9.3,16.2-9,24.4
		c0.2,7.7,3.5,13.8,9.6,18.2c4.9,3.5,11,5.4,18.6,5.7c7.1,0.3,13.4,0,19.3-1.1c12.7-2.3,23.1-6.7,31.6-13.2
		c6.4-4.9,13.9-11.9,15.9-23c0.1-0.5,0.2-0.6,0.9-0.7c2.6-0.1,5.3-0.2,8-0.4l1.8-0.1c0,0.3,0,0.5,0,0.8c0,0.8,0,1.7,0,2.5
		c0,1.9,0,3.8,0.2,5.7c1.2,10.1,6.3,18.1,15.1,24c4.5,3,9.5,5.1,15.3,6.6c1.3,0.3,2.5,0.8,3.8,1.3c0.6,0.2,1.2,0.5,1.7,0.7l0.2,0.1
		h31l0.3-0.2c0.1-0.1,0.2-0.2,0.4-0.3c0.1-0.1,0.2-0.2,0.2-0.2c5.3-1.2,9.8-2.9,13.7-5.2c8.9-5,13.8-12.6,14.6-22.4
		c1-11.2-2.8-21.2-11.1-29.7c-5.1-5.2-11.6-9.1-19.2-11.6c-1.5-0.5-3.1-1-4.7-1.4c-0.4-0.1-0.7-0.2-1.1-0.3c0.1-0.3,0.3-0.5,0.4-0.8
		c0.7-1.3,1.3-2.5,1.9-3.7c2.3-5.1,3.2-10.6,3.7-15.2c0.9-7.8,0.2-15.7-2.2-24.3c-0.2-0.8-0.2-1-0.2-1c0,0,0.2-0.2,1.2-0.2
		c2.4-0.1,4-0.8,4.8-2.1c0.9-1.3,0.9-3.2,0-5.7c-1.8-5.1-2.6-7.6-3.7-12.8c-0.7-3.1-2.5-8.3-3.7-11.3c-0.3-0.9-0.4-1.9-0.2-2.6
		c0.5-1.2,1.2-2.4,1.9-3.6c0.3-0.6,0.7-1.2,1-1.7c0.7-1.3,2.2-3.7,2.9-5c1.7-3.1,3-4.7,4.5-8c2.4-5,4.5-8.8,6.7-13.8
		c1.5-3.4,3-6.7,4.6-10.1c0.2-0.4,0.7-0.9,1.1-1c7.4-2.3,12.5-6.2,18.6-10.4c4.2-2.8,6.5-7.9,7.3-12.2c0.6-3.1,0.2-5.4-2.7-6.3
		c-0.9-0.3-1.3-0.4-2.1-0.5c0,0,0,0,0,0l0.4-1.3c1.4-2.3,1.4-4.5,0.4-7c-0.1-0.3,0.6-0.7,1-1c7.4-6.5,13.6-14.5,19-24.3
		c5.2-9.6,8.8-20.2,11.2-32.4C280.9,202.9,281.4,191.9,280.5,178.4z M84.5,303.4L84.5,303.4c-9.9-14.9-12.8-32-8.7-50.7
		c1.4-6.1,3.3-12.3,5.2-18.2c0.6-2,1.3-3.9,1.9-5.9c0.2-0.6,0.9-1.3,1.5-1.6c6.9-3.1,14.1-5.4,21.4-6.9c10.3-2.1,20.5-2.7,30.3-1.8
		c13.3,1.2,25.8,4.3,37.1,9.2c6.6,2.8,12.9,6.3,18.9,10.3c1.4,0.9,2,1.8,2.1,3l1.9,19.9l-0.4,0l0,0.9c0,8.1-1,16.9-3.2,27.6
		c-1,4.9-2.9,8.6-6,11.6c-4.3,4.2-8.6,8.6-12.7,12.9c-2.3,2.4-4.6,4.7-6.9,7.1c-0.5,0.5-1.4,0.9-2.2,1.2c-8.2,3.2-17.5,4.6-29.1,4.6
		c-10.6-0.1-19.8-1.7-28.2-5.1C97.5,317.5,89.9,311.4,84.5,303.4z M183.2,349.2c1.7,1.2,3.7,2.1,5.7,2.8c0.9,0.4,1.9,0.8,2.8,1.2
		c0.2,0.1,0.3,0.2,0.5,0.2c0.4,0.2,1.1,0.5,1.2,0.7c1.9,3.7,2.2,6.5,3.6,11c-0.3,0-0.6,0-0.7,0c-7.6-0.9-29.7-1-30.1-1
		c-0.1-0.4-7.5-28.2-8-30.1c3.2-1.2,5.5-2.7,8.9-4.3c0.7-0.3,0.9-0.3,0.9-0.3c0,0,0.1,0.1,0.3,0.7
		C170.7,337.5,175.6,343.7,183.2,349.2z M142.8,357.3c-17.4-0.6-31.8,0.7-44.9,4.2l0.1-0.3c3-7.9,6.2-16.2,10.9-23.4l0.3-0.4
		c1-1.5,1.6-2.4,2.1-2.6c0.1-0.1,0.3-0.1,0.5-0.1c0.6,0,1.5,0.2,2.7,0.5c8.3,1.9,16,2.5,23.6,1.9l0.2,0c1.2-0.1,1.2-0.1,1.3,0.6
		c0.6,4,1.3,8.1,1.9,12.1c0.4,2.5,0.8,4.9,1.2,7.5C142.8,357.2,142.8,357.2,142.8,357.3z M84.4,347.5c-2.9,5.6-4.7,11.8-7.6,18.8
		c-0.5,1.1-0.8,2.3-1.1,3.3c-0.3,0.9-0.5,1.8-0.9,2.7c-0.2,0.5-0.4,0.7-0.5,0.9L71,374C72.7,367.7,78,356.4,84.4,347.5z M61.3,378.1
		c-0.9,2.1-1.4,4.3-1.9,6.4l-0.1,0.4c-0.5,2.2-0.4,3.6,0.4,4.6c0.8,1.1,2.2,1.5,3.6,1.7c-0.2,0.1-0.4,0.3-0.6,0.4
		c-1.1,0.6-2.2,1.1-3.2,1.5c-1.7,0.6-3.4,1.8-3.3,3.6c0.1,2.3,0.2,4.5,0.1,6.6c-0.1,1.6-0.3,2.8-0.6,3.9c-0.2,0.6,0.2,0.5-0.2,0.6
		c-0.4,0.1-0.4,0.2-0.6,0c-1.8-1.8-3.3-3.8-4.5-5.8c-0.8-1.3-1.8-1.8-3.2-1.4c-0.3,0.1-5.6,4.3-10,6.6c-1.1,0.6-2.7-0.7-2-1.7
		l2.9-3.5c0.9-1.2,0.1-2.3-1.3-1.9l-6.8,2.3c-1.9,0.3-2.4-2.1-1.6-2.8l7.1-5.1c0.9-0.7,0.5-2-0.6-1.9l-8.1,2.1
		c-1.5,0.2-2.6-1.7-1.2-2.7l8.7-5c1.2-0.8,1.4-2.5-0.2-2.6l-6.7,0.6c-1.4-0.1-1.2-2.3,0.1-2.8l10-2.2c2.1-0.2,2.2-0.5,3.2-0.6
		c5.5-0.6,10.3-1.3,13.7-4.7c3.8-4,8.5-8.7,12.4-12.5c1.3-1.2,2.5-2.5,3.8-3.7c-0.8,1.7-1.6,3.4-2.4,5.1
		C65.8,368.5,63.5,373.3,61.3,378.1z M67.8,384.2c-0.2-3,0.7-3.8,3.4-4.3c2.1-0.4,4.2-0.8,6.3-1.2c1.5-0.2,2.4-1,2.8-2.6
		c3.6-12.1,9.3-24.3,17.5-37.4c1-1.6,2.3-3.1,3.5-4.6c0.3-0.4,0.7-0.8,1-1.2c0.5-0.6,1-1.3,1.2-1.3c0,0,0,0,0,0
		c0.2,0,0.6,0.2,1.2,0.5c-0.2,0.2-0.4,0.5-0.6,0.7c-0.9,1.1-1.7,2.1-2.4,3.3c-5.7,8.5-9.3,17.8-12,25.7c-1.2,3.4-2.3,7-3.4,10.4
		c-0.8,2.7-1.7,5.3-2.6,8c-0.1,0.5-0.6,1-0.8,1c-4.1,0.9-8.4,1.7-12.5,2.5L67.8,384.2z M195.1,423.5c-0.7,2.1-2,4-3.3,5.8
		c-0.2,0.3-1.2,0.7-1.9,0.7c-7.5,0-14.8,1.2-21.7,3.6c-10.4,3.6-17.9,9.2-23,17c-0.5,0.8-1.1,1.2-2.1,1.3
		c-15.1,1.4-29.3-0.3-42.4-4.9c-8.6-3-14.8-6.7-19.4-11.5c-6.6-6.9-10.3-15.6-10.8-25.7c-0.3-6.1,0.2-12.1,1.7-17.8
		c0.3-1.2,0.7-1.6,2.1-1.7c2.1-0.3,4.2-0.7,6.2-1c1.8-0.3,3.6-0.7,5.4-0.9c3.1-0.4,4.9-2.1,5.7-5.3c0.5-2.1,1.1-4.1,1.6-6.1
		c0.5-1.9,1.1-3.8,1.5-5.7c0.3-1,0.8-1.5,1.7-1.7c1.3-0.3,2.5-0.5,3.8-0.8c3.1-0.7,6.2-1.4,9.3-1.7c5.3-0.6,10.6-1.1,15.8-1.5
		c1.9-0.2,3.8-0.3,5.8-0.5l0.1,0.5h0.9c1.1,0,2.1,0,3.2,0c2.5,0,5.1,0,7.6,0c1.3,0,1.7,0.3,2,1.6c0.6,3.5,1.4,7,2.2,10.4l0.6,2.8
		c0.8,3.5,1.8,4.1,5.2,4.2c6,0.2,11.9,0.4,17.9,0.6c7.9,0.3,15.7,0.5,23.6,0.8c1,0,1.3,0.3,1.8,1.4c1.9,4.6,2.3,9.3,2.5,13.3
		C198.9,408,197.8,415.5,195.1,423.5z M201.2,377.5C201.2,377.5,201.2,377.5,201.2,377.5c-1,0-2-0.1-3-0.2c-3.2-0.3-6.2-0.5-9.2-0.6
		c-10.4-0.3-21-0.4-31.2-0.5l-0.3,0c-0.9,0-1.6,0-1.8-0.2c-0.2-0.2-0.5-1.3-0.6-1.8c-1.7-7.5-3.3-15-5.2-23.9
		c-0.5-2.2-0.9-4.5-1.3-6.6c-0.4-2.1-0.8-4.2-1.2-6.4c-0.2-0.8,0-1,0-1.1c0.1-0.1,0.3-0.3,1-0.3c0.7-0.1,1.3-0.2,1.8-0.2
		c0.4-0.1,0.8-0.1,1-0.1c0.1,0.2,0.2,0.8,0.4,1.3c0.1,0.4,0.2,0.9,0.3,1.4c1.4,5.3,2.8,10.6,4.1,15.9c1.3,4.9,2.6,9.9,3.9,14.8
		c0.6,2.3,2.4,2.3,3.6,2.3c1.6,0,3.2,0,4.8,0c2.7,0,5.5,0,8.2,0l17.9,0.8l0.1,0l0.2,0l2.9,0.2c2.4,0.2,2.4,0.2,3,2.5l0,0
		C200.8,375.6,201,376.5,201.2,377.5z M243.3,284.8L243.3,284.8c0.5,1-0.7,3.1-0.7,3.1c-1.7,3.2-4.4,4.9-7.3,6.6
		c-3.7,2.2-7.9,3.7-12.5,4.3c-2.6,0.4-3.5,2-4.3,3.6c-3.5,7.4-7.3,15.3-11.4,23c-2.9,5.6-6.2,11.1-9.4,16.4l-1.4,2.3
		c-1.2,2-1.9,2.2-4.1,1.5c-9-3-13-9.4-15.9-18.1c-0.6-1.8,0.1-3.1,1.4-4.8c3.3-4.7,6.7-8,11.1-12.3c5.6-5.4,11.2-10.8,16.8-16.1
		c1.6-1.5,2-2.9,1.3-4.9c-1.4-4.5-2.8-9.1-4-13.8l-0.1-0.3c-0.5-1.7-0.7-2.8,0.3-3.5c0.2-0.2,0.4-0.3,0.7-0.3c0.4,0,0.9,0.3,1.8,1
		c0.3,0.2,0.6,0.4,0.8,0.6c1.1,0.7,2.2,1.7,3.3,2.6c0.5,0.5,1.1,1,1.7,1.5l0.8,0.7l0.6-0.9c0.5-0.7,0.9-1.4,1.4-2
		c0.9-1.4,1.8-2.7,2.7-4l5.7-7c1-1,2.7-0.3,2.6,1.1l-1.6,7.2c-0.1,1.4,1.5,2.4,2.6,1.5l6.7-6.4c0.9-0.6,2,0.2,1.7,1.2l-2.9,7.8
		c-0.3,1.1,0.9,1.9,1.8,1.2l6.4-4.6c0.7-0.6,1.7,0.2,1.4,1c-1,2.3-2.4,5.5-4.3,8.6c-0.6,0.9-1.9,2.1-0.8,2.1c2,0,4.3-0.8,4.6-0.8
		C242.1,284,243,284.2,243.3,284.8z M260.6,149.6c-1.3,1.2-2.5,2.5-3.7,3.8c-2.3,2.7-3.9,5.2-5,8c-0.6,1.5-1.4,2.9-2.3,4.3
		c-0.8,1.3-1.6,2.6-2.2,4.1c-1.3,3-2.2,6.2-3.1,9.3c-0.9,3.3-1.8,6.6-3.3,9.7c-0.2,0.4-0.2,0.8-0.3,1.2c0,0.1,0,0.2,0,0.3
		c-0.2,1-0.3,2-0.5,3.1c-0.4,2.3-0.7,4.6-1,6.9l-0.1,1.2c-0.5,4.7-1.1,9.6-1.3,14.5c-0.2,3.6,0.2,7.3,0.5,10.6
		c0.3,3.4,0.8,7.4,1.6,11.4c0.8,3.7,1.7,7.2,2.9,10.4c0.9,2.4,2,4.7,3.2,7c0.4,0.8,0.8,1.6,1.2,2.4c-1.3,1.4-2.6,2.8-3.9,4.3
		c-3.8-3.8-7.6-2.7-10.8-0.6c0-0.8,0-1.6-0.1-2.4c-0.2-1.9-1.1-3.5-2.5-4.4c-1.2-0.8-2.7-0.9-4.3-0.4c-2.6,0.9-5.1,2.4-7.1,4.2
		c-2.2,2-4.1,4.3-6,6.5c-0.6,0.7-1.2,1.4-1.9,2.1c-0.4-0.2-0.8-0.4-1.2-0.6c-1.6-0.7-3.3-1.5-4.9-2.4c-0.1-0.1-0.4-0.5-0.4-0.7
		c-0.5-5.2-0.9-10.5-1.3-15.7l-0.1-1.2l3.3,2.9l0.6-0.3c0.2-0.1,0.4-0.2,0.6-0.3l0.7-0.3l-0.1-0.8c0-0.2-0.1-0.5-0.1-0.7
		c-0.1-0.6-0.1-1.3-0.4-1.9c-1.5-3.9-4-7.6-7.9-11.6c-7.5-7.8-17.3-13.7-30.9-18.6c-12.2-4.4-24.5-6.6-36.5-6.8
		c-13.8-0.1-26,1.6-37.3,5.3c-10.2,3.3-18.1,8-24.1,14.2c-1.4,1.4-2.6,3-3.7,4.6l-0.7,0.9c-0.4,0.5-0.5,1-0.6,1.5
		c0,0.2-0.1,0.3-0.1,0.5l-0.2,0.6l1.5,1.5l6.3-4c-4.6,12.4-7.2,24.5-7.7,36.9c-0.2-0.1-0.4-0.2-0.6-0.3c-1.3-0.8-2.6-1.5-3.8-2.2
		c-9.1-5.8-17.4-13.5-24.7-22.9c-1.8-2.3-3.4-5-4.9-7.5c-0.6-1-1.2-2-1.8-2.9c0.1-0.1,0.2-0.3,0.3-0.4c0.5-0.7,1.1-1.4,1.7-1.9
		c3.5-3.1,5.1-7.2,6.8-11.1l0.2-0.5c1-2.5,1.9-5.1,2.7-7.7c0.3-1,0.6-2,1-2.9c0.4-1.3,0.8-2.6,1-3.7c0.4-1.4,0.8-3.1,1.2-4.9
		c0.3-1.3,0.6-2.7,0.9-4c0.8-3.4,1.6-6.9,2.2-10.4c0.6-3.5,0.9-7.1,1.2-10.6l0-0.4c0.1-1,0.2-2.1,0.3-3.1c0.3-3.7,0.7-7.6,0.7-11.4
		c0-2.8-0.4-5.7-0.7-8.4c-0.2-1.7-0.4-3.5-0.5-5.2c-0.5-7.1-1.9-14-4-20.2c-0.7-2.2-1.8-4.2-2.9-6.2c-0.4-0.7-0.7-1.4-1.1-2.1
		c0.3-0.4,0.6-0.8,1-1.2c0.9-1.2,1.9-2.5,3-3.6c12.1-13,26.9-23,43.8-29.9c22.7-9.1,46.6-12.4,73.1-9.9c14.2,1.3,28,5,41,10.8
		c17.1,7.7,31.5,18.5,42.8,32c7.5,9,13.3,18.7,17.2,28.8C262.2,147.6,261.7,148.5,260.6,149.6z"/>
	<path d="M133.4,308.5L133.4,308.5c0.2,0,0.4,0,0.6,0c10.7,0,19.2-6.1,23.4-16.9c0.9,0,1.6-0.1,2.2-0.7c0.6-0.7,0.6-1.7,0.5-2.7
		c-0.2-2.4-1.2-4.6-3.2-7c-0.4-0.5-1-0.7-1.5-0.9c-0.2-0.1-0.3-0.1-0.5-0.2l-1-0.6l-0.4,1.1c-0.1,0.2-0.1,0.4-0.2,0.6
		c-11.7-3.1-24.3-4.6-40.5-4.8l0.2-2.1l-1.4,0.4c-3.2,0.9-5.8,3.4-6.8,6.6c-0.2,0.7-0.2,1.3-0.1,1.9c0,0.2,0,0.5,0,0.7l0,1.1
		l2.4-0.1C110.8,300.5,119.4,308.3,133.4,308.5z"/>
	<path d="M160.6,265.7L160.6,265.7c0.4,0.1,0.8,0.1,1.2,0.1c3.1,0,4.8-2.5,5.9-4.1c0.3-0.4,0.4-0.8,0.6-1.1c0.1-0.1,0.1-0.2,0.2-0.4
		c1.6-3.6,2.5-7.7,2.7-13.3l0-0.1l0-0.1c0-0.3-0.1-0.7-0.1-1.1c-0.1-1-0.2-2.2-0.4-3.4c-0.1-0.6-0.3-1.2-0.5-1.8l-0.2-0.5
		c-0.9-2.7-2.8-4.3-5.3-4.5c-2.5-0.2-4.7,1.1-6.2,3.8c-3.4,6.1-4.4,13-3,20.3C155.9,261.8,156.9,265,160.6,265.7z M162.3,245.3
		c0.2-1.7,1.1-3,2-2.9c0.9,0.1,1.4,1.6,1.2,3.3c-0.2,1.7-1.1,3-2,2.9C162.6,248.4,162.1,247,162.3,245.3z"/>
	<path d="M108.3,260c0.1,0,0.3,0,0.4,0c1.3,0,2.6-0.6,3.7-1.6c1.1-1.1,2.2-2.5,2.9-4c2-3.9,2.7-11.1,2.7-13.6c0-1.7-0.2-4.5-0.6-6.3
		c-0.6-2.9-2.9-4.7-5.5-5c-2.4-0.3-4.5,1-6.2,3.7c-3.8,6.1-4.7,13.2-2.7,21.7c0.2,0.9,0.8,1.7,1.3,2.5
		C105.3,259,106.7,259.9,108.3,260z M109.7,239.4c0.2-1.7,1.1-3,2-2.9c0.9,0.1,1.4,1.6,1.2,3.3c-0.2,1.7-1.1,3-2,2.9
		S109.5,241.1,109.7,239.4z"/>
</g>
</svg>
