<?xml version="1.0" encoding="utf-8"?>
<!-- Generator: Adobe Illustrator 25.0.1, SVG Export Plug-In . SVG Version: 6.00 Build 0)  -->
<svg version="1.1" id="Layer_1" xmlns="http://www.w3.org/2000/svg" xmlns:xlink="http://www.w3.org/1999/xlink" x="0px" y="0px"
	 viewBox="0 0 288 560" style="enable-background:new 0 0 288 560;" xml:space="preserve">
<style type="text/css">
	.st0{fill:#303030;}
</style>
<g>
	<path class="st0" d="M280.83,176.23c-0.62-9.68-2.66-19.03-5.57-28.26c-4.01-12.72-9.84-24.47-17.7-35.26
		c-7.05-9.69-15.31-18.12-24.93-25.27c-9.07-6.74-18.91-12.1-29.42-16.15c-10.57-4.07-21.46-7.2-32.76-8.31
		c-18.12-1.79-31.95-2.47-46.94-0.38c-7.79,1.09-15.43,3.09-23.06,4.97c-6.86,1.7-13.32,4.58-19.79,7.45
		c-8.5,3.76-16.31,8.63-23.75,14.09c-6.03,4.42-11.56,9.46-16.68,14.97c-5.68,6.1-10.84,12.59-15.18,19.67
		c-6.43,10.47-11.09,21.69-14.12,33.66c-2.09,8.28-2.82,16.67-3.1,25.1c-0.18,5.34,0.61,10.73,1.19,16.07
		c1.02,9.29,3.4,18.26,6.86,26.93c3.41,8.54,8.21,16.28,13.79,23.58c5.46,7.14,12.1,13.03,19.27,18.33
		c5.36,3.96,11.05,7.41,17.28,9.89c1.2,0.48,1.84,1.32,2.04,2.81c0.83,6.09,2.38,11.98,4.97,17.63
		c5.13,11.2,13.01,19.78,23.57,25.99c0.61,0.36,1.16,0.83,1.96,1.42c-1.4,1.01-2.57,1.77-3.64,2.64c-2.51,2.04-4.97,4.15-7.47,6.19
		c-5.51,4.52-11.36,8.69-16.49,13.6c-7.25,6.94-13.96,14.43-20.95,21.65c-0.66,0.69-1.57,1.37-2.46,1.56
		c-3.31,0.72-6.67,1.19-10.01,1.82c-5.1,0.96-10.01,2.47-14.35,5.43c-4.48,3.06-4.75,5.97-1.13,9.53c-0.57,2.07-1.37,4.03-1.6,6.04
		c-0.28,2.44-0.08,4.93-0.07,7.4c0,1.82,1.14,3.4,2.55,3.64c2.2,0.37,3.75,1.42,5.35,2.73c0.6,0.49,1.53,0.8,2.31,0.81
		c2.48,0.04,5.01,0.18,7.44-0.22c3.32-0.55,6.56-1.55,9.78-2.35c0.9,1.1,1.66,2.21,2.61,3.12c1.02,0.96,2.14,1.9,3.38,2.54
		c2.92,1.53,6.85,1.78,7.68-2.93c0.51-2.93,0.63-5.92,0.84-8.9c0.16-2.22,0.71-2.76,3.19-2.65c-0.03,0.56-0.03,1.13-0.08,1.69
		c-0.33,3.55-0.97,7.09-0.94,10.64c0.06,6.79,1.48,13.37,4.54,19.48c0.77,1.54,0.51,2.09-0.96,2.81
		c-8.87,4.31-16.45,10.27-22.46,18.15c-5.36,7.03-9.12,14.66-8.83,23.79c0.23,7.29,3.23,13.18,9.19,17.38
		c5.39,3.8,11.66,5.23,18.08,5.54c6.38,0.31,12.75,0.07,19.1-1.1c11.37-2.09,21.96-5.95,31.19-13c7.55-5.76,13.79-12.55,15.52-22.38
		c0.2-1.12,0.8-1.46,1.89-1.5c3.54-0.12,7.09-0.34,10.87-0.54c0.03,0.58,0.07,1.21,0.09,1.84c0.05,2.72-0.13,5.47,0.19,8.15
		c1.19,10.04,6.3,17.74,14.63,23.28c4.59,3.05,9.66,5.09,15.03,6.42c1.94,0.48,3.79,1.35,5.68,2.05c10.17,0,20.33,0,30.5,0
		c0.32-0.23,0.6-0.58,0.95-0.66c4.71-1.1,9.24-2.64,13.48-5.05c8.45-4.79,13.31-12.08,14.14-21.62c0.97-11.21-2.98-20.9-10.82-28.92
		c-5.27-5.39-11.66-9.04-18.82-11.34c-2.26-0.73-4.56-1.37-6.9-2.07c1.01-1.93,2.06-3.71,2.92-5.58c2.16-4.73,3.05-9.76,3.63-14.91
		c0.92-8.14-0.01-16.05-2.17-23.88c-0.49-1.77-0.19-2.35,1.89-2.45c4.53-0.22,5.35-2.62,3.98-6.48c-2.88-8.12-6.3-16.05-9.4-24.1
		c-0.38-0.99-0.55-2.33-0.19-3.27c0.74-1.92,1.92-3.66,2.9-5.49c2.43-4.54,5.03-9,7.22-13.65c3.93-8.34,7.59-16.81,11.43-25.19
		c0.3-0.65,1.01-1.35,1.67-1.56c7.21-2.21,13.97-5.39,20.17-9.64c3.57-2.44,6.23-5.72,7.06-10.2c0.47-2.55-0.49-4.42-2.98-5.2
		c-1.3-0.4-2.65-0.64-3.73-0.9c0.95-3.17,1.81-6.19,2.79-9.17c0.19-0.57,0.76-1.06,1.25-1.48c7.79-6.81,13.86-15,18.73-24.04
		c5.43-10.08,8.9-20.94,11.05-32.15C281.44,199.19,281.57,187.72,280.83,176.23z M85,301.67c-10.49-15.82-12.86-33.2-8.85-51.45
		c1.8-8.19,4.61-16.16,7.09-24.19c0.27-0.88,1.2-1.82,2.06-2.21c6.93-3.13,14.11-5.47,21.58-6.97c10.12-2.03,20.32-2.72,30.58-1.77
		c12.94,1.19,25.46,4.13,37.42,9.31c6.66,2.88,13.01,6.34,19.04,10.38c1.42,0.95,2.39,2.04,2.56,3.75
		c0.68,6.95,1.36,13.9,2.04,20.85c-0.18,0.02-0.36,0.03-0.54,0.05c0.01,9.38-1.32,18.59-3.17,27.76c-0.95,4.69-2.78,8.69-6.33,12.13
		c-6.7,6.47-13.05,13.3-19.59,19.93c-0.67,0.67-1.65,1.11-2.56,1.46c-9.48,3.67-19.42,4.7-29.45,4.65
		c-9.79-0.05-19.42-1.49-28.6-5.19C98.71,316.28,90.74,310.32,85,301.67z M199.75,364.89c-0.55,0.05-0.95,0.08-1.25,0.05
		c-8.69-1.01-17.5-1-26.04-0.98c-1.44,0-2.87,0.01-4.31,0H168c-0.97,0-1.98,0-2.19-0.12c-0.2-0.2-0.52-1.39-0.69-2.02
		c-1.53-5.75-3.04-11.62-4.49-17.3c-0.96-3.74-2.33-9.53-3.31-13.27c0,0-0.79,0.27,0.63-0.27c3.4-1.3,6.75-2.76,10.04-4.33
		c1.43-0.69,2.13-0.5,2.61,0.97c2.59,7.93,7.97,13.77,14.54,18.51c2.43,1.76,5.51,2.62,8.27,3.93c0.79,0.38,1.85,0.73,2.2,1.39
		c2.15,4.16,3.61,8.57,5.02,13.37C200.31,364.84,200.01,364.87,199.75,364.89z M145.09,356.03c-15.83-0.65-31.45,0.15-46.88,4.45
		c0-0.57-0.13-1.08,0.02-1.48c3.18-8.31,6.32-16.63,11.17-24.17c0.09-0.14,0.18-0.28,0.27-0.42c2.36-3.5,2.36-3.52,6.39-2.61
		c7.68,1.74,15.43,2.49,23.29,1.87c1.18-0.09,2.31-0.27,2.57,1.48c1,6.49,2.1,12.97,3.14,19.46
		C145.15,355,145.09,355.4,145.09,356.03z M97.78,332.17c-0.1,0.15-0.2,0.3-0.29,0.45l-0.25-0.16
		C97.42,332.36,97.6,332.25,97.78,332.17z M93.44,335.52c-0.19,0.3-0.39,0.6-0.58,0.9c-4.94,7.93-9.35,16.84-13.88,28.04
		c-0.43,1.05-0.75,2.14-1.06,3.2c-0.28,0.95-0.55,1.86-0.89,2.74c-0.33,0.87-0.76,1.36-0.93,1.45l-5.08,1.19
		C72.43,364.42,84.9,343.96,93.44,335.52z M64.55,390.19c-1.08,0.61-2.22,1.15-3.39,1.57c-1.31,0.47-1.75,1.27-1.67,2.65
		c0.13,2.24,0.16,4.5,0.07,6.74c-0.06,1.4-0.23,2.85-0.67,4.16c-0.6,1.79-2.16,2.33-3.48,1.01c-1.79-1.79-3.4-3.85-4.65-6.04
		c-0.88-1.54-1.41-1.99-3.2-1.31c-4.35,1.64-8.8,3.03-13.25,4.39c-1.4,0.43-3.25,0.9-4.09-0.67c-0.84-1.57,0.55-2.75,1.72-3.74
		c1.89-1.6,3.79-3.2,5.98-5.04c-0.7,0-1.28-0.17-1.66,0.03c-2.26,1.19-4.49,2.45-6.7,3.74c-0.56,0.33-0.97,0.9-1.48,1.33
		c-1.05,0.88-2.26,0.85-3.19,0c-0.98-0.89-0.64-2.14,0.2-2.89c1.84-1.66,3.82-3.15,5.77-4.69c0.44-0.35,0.96-0.59,1.36-1.1
		c-2.68-0.58-4.55,1.32-7,2.55c0.27-2.43,1.61-3.84,3.08-5.09c1.42-1.21,2.97-2.26,4.47-3.38c-0.06-0.15-0.12-0.31-0.19-0.46
		c-1.09,0.19-2.18,0.54-3.28,0.54c-1.42,0-3.4,0.46-3.78-1.4c-0.14-0.66,1.47-2.06,2.54-2.54c6.12-2.74,12.61-4.31,19.25-4.99
		c3.44-0.35,5.86-1.6,8.23-4.19c5.33-5.83,11.09-11.26,16.67-16.86c0.45-0.45,0.85-0.95,1.27-1.42c0.21,0.08,0.43,0.16,0.64,0.25
		c-0.32,0.78-0.61,1.58-0.97,2.34c-3.21,6.85-6.51,13.66-9.6,20.55c-0.94,2.1-1.44,4.43-1.96,6.7c-0.84,3.65,0.11,4.81,3.91,5.11
		c0.33,0.03,0.65,0.07,1.61,0.18C66.01,389.09,65.34,389.74,64.55,390.19z M68.2,383.1c-0.56-4.27,0.41-5.73,4.12-6.51
		c2.12-0.45,4.24-0.85,6.38-1.2c1.13-0.18,1.68-0.72,2.01-1.85c3.96-13.43,10.2-25.81,17.66-37.61c1.33-2.1,2.98-4,4.54-5.95
		c1.7-2.12,1.74-2.1,4.69-0.54c-1.32,1.73-2.61,3.24-3.71,4.87c-5.32,7.86-8.85,16.57-11.9,25.49c-2.08,6.06-3.9,12.21-5.92,18.29
		c-0.22,0.67-0.9,1.56-1.51,1.69C79.13,380.97,73.67,382.01,68.2,383.1z M144.59,450.6c-14.63,1.35-28.98-0.03-42.85-4.95
		c-7.33-2.59-14.27-6.04-19.76-11.79c-7.03-7.36-10.53-16.27-11.1-26.34c-0.34-6.1,0.21-12.14,1.74-18.09
		c0.42-1.63,1.23-2.25,2.89-2.48c3.88-0.52,7.71-1.38,11.58-1.94c2.79-0.4,4.19-1.96,4.85-4.6c0.98-3.96,2.18-7.86,3.18-11.82
		c0.35-1.4,1.13-2.19,2.47-2.46c4.4-0.9,8.77-2.05,13.22-2.58c7.52-0.89,15.08-1.38,22.62-2.04c0.01,0.2,0.02,0.4,0.04,0.59
		c3.58,0,7.16,0.05,10.74-0.02c1.79-0.04,2.64,0.54,2.97,2.45c0.78,4.42,1.82,8.8,2.79,13.19c0.66,2.97,1.22,3.29,4.26,3.39
		c13.82,0.44,27.63,0.97,41.45,1.38c1.55,0.05,2.12,0.74,2.66,2.04c1.83,4.39,2.38,8.99,2.58,13.67c0.34,8.02-1.05,15.78-3.58,23.34
		c-0.73,2.17-2.04,4.19-3.38,6.08c-0.49,0.7-1.82,1.14-2.76,1.14c-7.32,0-14.46,1.17-21.35,3.57c-9.15,3.2-17.05,8.22-22.45,16.55
		C146.71,449.98,145.88,450.48,144.59,450.6z M202.8,372.24c0.36,1.27,0.61,2.56,0.97,4.11c-4.81-0.34-9.2-0.81-13.59-0.92
		c-10.4-0.27-20.8-0.4-31.2-0.53c-2.87-0.04-3.05,0.08-3.71-2.78c-1.83-7.95-3.53-15.92-5.21-23.9c-0.91-4.32-1.64-8.67-2.54-12.99
		c-0.35-1.7,0.18-2.45,1.91-2.62c4.32-0.43,3.51-1.23,4.64,3.16c2.62,10.23,5.38,20.43,8.01,30.66c0.41,1.58,1.43,1.54,2.64,1.54
		c4.33,0.01,8.66-0.02,12.99,0.02l17.89,0.8l0.21-0.04c1.02,0.07,2.05,0.15,3.07,0.22C201.83,369.18,201.99,369.37,202.8,372.24z
		 M247.8,282.69c0.69,1.58-0.54,2.79-1.59,3.64c-2.96,2.4-5.91,4.87-9.16,6.83c-3.93,2.37-8.33,3.81-12.9,4.46
		c-1.9,0.27-2.71,1.31-3.5,2.99c-3.67,7.74-7.38,15.47-11.39,23.04c-3.38,6.38-7.13,12.57-10.83,18.79
		c-1.42,2.38-2.59,2.82-5.25,1.95c-9.18-3.03-15.56-9-18.69-18.25c-0.78-2.3-0.15-4.17,1.61-5.86c10.03-9.6,19.99-19.28,30.04-28.86
		c1.27-1.21,1.6-2.26,1.08-3.92c-1.45-4.6-2.8-9.23-4.06-13.88c-0.44-1.64-1.14-3.64,0.61-4.87c1.76-1.24,3.14,0.49,4.44,1.35
		c1.71,1.13,3.2,2.61,5.07,4.17c1.51-2.22,2.74-4.19,4.13-6.03c2.15-2.85,4.41-5.62,6.64-8.41c0.36-0.45,0.74-1.02,1.24-1.2
		c0.87-0.32,2.08-0.8,2.68-0.43c0.55,0.34,0.85,1.81,0.6,2.58c-0.94,2.91-2.12,5.75-3.27,8.59c-0.34,0.83-0.89,1.57-1.29,2.25
		c3.48,3.04,6.8,5.93,10.26,8.94c0.05-0.44,0.18-0.74,0.09-0.88c-2.19-3.08-1.96-3.26,0.83-6.04c1.76-1.76,3.56-3.52,5.54-5.01
		c0.78-0.58,2.11-0.44,3.18-0.62c0.12,1.01,0.64,2.2,0.28,3c-1.22,2.81-2.73,5.49-4.15,8.2c-0.4,0.77-0.87,1.5-1.54,2.63
		c1.08,0.08,1.7,0.19,2.31,0.15c1.08-0.07,2.15-0.29,3.23-0.33C245.39,281.6,247.07,280.99,247.8,282.69z M244.45,261.23
		c-3.85-4.62-7.77-3.24-11.88-0.16c0-1.67,0.12-2.98-0.02-4.27c-0.32-3.01-2.58-4.88-5.39-3.91c-2.43,0.84-4.85,2.28-6.74,4.03
		c-3.02,2.81-5.6,6.09-8.3,9.1c-2.14-1.01-4.54-2.07-6.86-3.27c-0.46-0.24-0.89-0.98-0.94-1.52c-0.58-6.44-1.08-12.89-1.6-19.36
		c1.42,1.25,3.02,2.65,4.62,4.06c0.2-0.1,0.4-0.2,0.61-0.29c-0.13-0.8-0.13-1.65-0.42-2.39c-1.71-4.33-4.52-7.94-7.71-11.25
		c-8.53-8.84-19.13-14.22-30.54-18.31c-11.71-4.19-23.75-6.58-36.18-6.72c-12.57-0.14-24.97,1.31-36.95,5.24
		c-8.86,2.91-17.06,7.11-23.67,13.9c-1.61,1.66-2.95,3.58-4.34,5.44c-0.34,0.46-0.4,1.13-0.59,1.71c0.17,0.16,0.34,0.33,0.51,0.49
		c2.5-1.59,5-3.19,7.5-4.78c0.13,0.11,0.26,0.22,0.39,0.33c-5,12.8-8.07,26.01-8.46,40.25c-2.17-1.26-4.04-2.27-5.83-3.4
		c-9.73-6.17-17.94-14.04-24.98-23.09c-2.69-3.46-4.77-7.38-7.13-11.1c0.84-1.03,1.57-2.18,2.55-3.06c3.41-3.05,5.03-7.17,6.7-11.2
		c1.42-3.42,2.45-7,3.63-10.52c0.39-1.18,0.72-2.39,1.03-3.59c0.41-1.6,0.81-3.2,1.17-4.82c1.05-4.79,2.22-9.55,3.08-14.38
		c0.63-3.57,0.92-7.21,1.22-10.83c0.4-4.79,0.97-9.6,0.93-14.39c-0.04-4.52-0.85-9.03-1.18-13.55c-0.5-6.83-1.75-13.52-3.93-19.98
		c-1.02-3.02-2.79-5.79-4.22-8.67c1.45-1.81,2.79-3.72,4.37-5.41c12.45-13.36,27.23-23.3,44.18-30.12
		c23.69-9.53,48.29-12.31,73.55-9.95c14.36,1.34,28.19,4.98,41.36,10.91c16.78,7.56,31.37,18.13,43.2,32.31
		c7.35,8.8,13.3,18.47,17.39,29.23c0.01,1.71-0.82,2.96-2.05,4.08c-1.28,1.17-2.5,2.43-3.64,3.74c-2,2.31-3.67,4.77-4.82,7.69
		c-1.16,2.94-3.24,5.51-4.51,8.42c-2.69,6.14-3.5,12.92-6.34,19.03c-0.17,0.36-0.17,0.81-0.24,1.22c-0.49,3.31-1.08,6.62-1.45,9.95
		c-0.58,5.19-1.19,10.38-1.43,15.59c-0.16,3.47,0.16,6.97,0.49,10.44c0.36,3.79,0.8,7.59,1.55,11.32c0.7,3.47,1.64,6.94,2.88,10.26
		c1.27,3.39,3.02,6.6,4.56,9.89C247.88,257.41,246.22,259.25,244.45,261.23z"/>
	<path class="st0" d="M209.18,126.75c-1.48-7.55-3.99-14.63-8.44-21.05c-3.12-4.51-6.51-8.68-10.72-12.18
		c-0.44-0.37-0.74-0.92-1.19-1.26c-2.62-2.02-5.14-4.19-7.94-5.93c-2.57-1.6-5.38-2.9-8.21-3.99c-3.36-1.3-6.81-2.44-10.31-3.29
		c-3.03-0.73-6.17-1-9.27-1.39c-1.71-0.22-3.44-0.41-5.16-0.34c-1.98,0.07-3.95,0.39-5.91,0.69c-3.99,0.61-8.04,1.02-11.93,2.02
		c-4.13,1.06-8.14,2.64-11.57,5.38c-0.63,0.51-1.49,0.74-2.22,1.14c-1.3,0.71-2.73,1.27-3.83,2.2c-3.14,2.67-6.29,5.36-9.14,8.32
		c-2.52,2.62-5.18,5.36-6.81,8.53c-1.55,3.02-3.76,5.76-4.34,9.4c-0.62,3.88-2.59,7.55-3.16,11.43c-0.86,5.83-1.4,11.79,0.91,17.53
		c0.24,0.61,0.48,1.31,0.41,1.94c-0.47,4.28,2.32,7.64,3.32,11.52c0.66,2.57,2.86,4.74,4.37,7.09c0.76,1.18,1.43,2.42,2.27,3.53
		c3.54,4.65,7.62,8.61,12.56,11.93c5.2,3.49,10.48,6.7,16.39,8.64c4.39,1.44,8.99,2.37,13.56,3.08c1.9,0.29,3.92-0.07,5.8,0.76
		c0.34,0.15,0.82-0.01,1.23-0.06c2.11-0.28,4.23-0.6,6.34-0.87c2.06-0.27,4.17-0.3,6.17-0.78c3.12-0.75,6.26-1.57,9.24-2.75
		c3.66-1.46,7.27-3.12,10.68-5.08c3.6-2.07,6.6-4.99,9.77-7.68c4.01-3.41,6.95-7.64,9.86-11.76c2.65-3.76,4.36-8.37,5.66-12.84
		c1.31-4.5,1.76-9.27,2.27-13.96c0.26-2.35-0.18-4.78-0.31-7.27C209.42,128.55,209.35,127.64,209.18,126.75z"/>
	<path class="st0" d="M133.66,307.27c9.9,0.2,18.88-4.91,23.29-16.87c2.27,0.09,2.56-0.21,2.37-2.28c-0.23-2.51-1.42-4.59-2.97-6.47
		c-0.38-0.45-1.1-0.62-1.66-0.92c-0.2,0.59-0.4,1.17-0.53,1.53c-13.84-3.81-27.95-4.92-42.26-5.02c0.06-0.56,0.11-1.13,0.18-1.78
		c-2.89,0.8-5.22,3.05-6.11,5.94c-0.22,0.72-0.03,1.56-0.04,2.35c0.67-0.04,1.34-0.07,2.18-0.12
		C111.14,297.38,118.33,306.95,133.66,307.27z"/>
	<path class="st0" d="M161.01,264.45c2.95,0.57,4.57-1.46,6.01-3.59c0.28-0.41,0.45-0.89,0.66-1.34c1.75-3.94,2.41-8.12,2.64-12.9
		c-0.14-1.15-0.3-2.81-0.55-4.45c-0.11-0.73-0.4-1.44-0.63-2.15c-0.7-2.18-2.17-3.66-4.45-3.83c-2.39-0.18-4.1,1.26-5.21,3.25
		c-3.42,6.15-4.23,12.72-2.88,19.58C157.1,261.59,158.14,263.89,161.01,264.45z M162.23,241.71c0.96-1.38,2.88-1.24,3.67,0.25
		c0.45,0.85,0.59,1.86,0.9,2.91c-0.39,1.25-0.6,2.61-1.25,3.71c-0.43,0.71-1.54,1.46-2.29,1.41c-0.73-0.05-1.71-0.95-2.04-1.72
		C160.22,245.95,160.84,243.7,162.23,241.71z"/>
	<path class="st0" d="M111.93,257.39c1.1-1.09,2.05-2.42,2.76-3.79c1.88-3.62,2.44-7.56,2.75-11.64c-0.38-2.45-0.64-4.93-1.17-7.35
		c-0.49-2.26-1.84-4.04-4.27-4.32c-2.44-0.28-4.09,1.38-5.23,3.23c-4.05,6.56-4.27,13.66-2.57,20.95c0.18,0.78,0.69,1.5,1.16,2.18
		C107.03,259.09,109.85,259.47,111.93,257.39z M109.47,235.39c1.19-1.23,2.92-1.11,3.77,0.39c0.47,0.83,0.63,1.85,0.99,2.98
		c-0.47,1.33-0.76,2.82-1.48,4.08c-1.09,1.9-3.33,1.71-4.32-0.22C107.36,240.54,107.86,237.05,109.47,235.39z"/>
</g>
</svg>
