<?xml version="1.0" encoding="utf-8"?>
<!-- Generator: Adobe Illustrator 25.0.1, SVG Export Plug-In . SVG Version: 6.00 Build 0)  -->
<svg version="1.1" id="Layer_1" xmlns="http://www.w3.org/2000/svg" xmlns:xlink="http://www.w3.org/1999/xlink" x="0px" y="0px"
	 viewBox="0 0 823.65 951.12" style="enable-background:new 0 0 823.65 951.12;" xml:space="preserve">
<g>
	<path d="M33.76,583.21c0-4.48,0-8.96,0-13.44c0.14-0.53,0.34-1.05,0.4-1.59c1.49-13.54,5.07-26.57,10.75-38.86
		c15.05-32.6,39.2-53.92,75.64-59.44c7.58-1.15,15.16-2.27,22.76-3.31c1.92-0.26,3.01-0.97,3.69-2.95
		c2.89-8.46,5.97-16.86,9.04-25.25c0.49-1.35,0.4-2.29-0.61-3.39c-2.37-2.6-4.52-5.4-6.89-7.99
		c-10.56-11.57-21.17-23.09-31.76-34.64c-20.41-22.24-37.2-46.97-50.45-74.07c-7.77-15.88-11.41-32.52-8.06-50.21
		c2.77-14.6,9.25-27.2,20.81-36.8c12.77-10.61,27.32-17.83,43.63-20.89c9.4-1.76,18.99-2.62,28.54-3.38
		c8.91-0.7,17.87-0.88,26.81-0.99c3.88-0.05,7.77,0.62,11.69,0.97c0.21-0.77,0.38-1.3,0.48-1.84c2.29-12.71,6.07-24.96,11.36-36.75
		c9.07-20.23,22.03-37.78,37.38-53.62c17.77-18.34,37.61-33.92,60.94-44.73c15.92-7.38,32.46-12.47,50.03-13.95
		c4.85-0.41,9.7-0.91,14.55-1.37c8,0,16,0,24,0c0.36,0.13,0.71,0.36,1.08,0.38c12.02,0.79,23.68,3.39,35.19,6.82
		c16.01,4.77,31.75,10.21,46.83,17.52c18.6,9.02,35.4,20.6,51.28,33.83c19.27,16.06,37.61,32.97,53.87,52.11
		c11.57,13.62,21.69,28.26,31.84,42.93c15.16,21.89,29.92,44,42.73,67.39c24.79,45.23,39.51,93.5,44.54,144.78
		c0.4,4.05,0.49,8.14,0.81,12.2c0.23,2.87,1.46,4.52,3.68,4.87c16.12,2.49,30.5,9.12,43.8,18.36
		c21.76,15.12,36.63,35.15,43.44,60.91c1.14,4.31,1.8,8.74,2.68,13.11c0,9.44,0,18.88,0,28.32c-0.13,0.37-0.35,0.73-0.38,1.1
		c-1.06,13.24-5.58,25.45-11.92,36.88c-12.32,22.21-30.63,38.02-53.7,48.42c-2.76,1.24-3.38,2.19-2.9,4.97
		c1.43,8.45,1.11,16.88-0.33,25.28c-5.56,32.34-21.04,59.44-43.5,82.98c-14.2,14.88-31.22,25.32-50.14,32.82
		c-12.08,4.79-24.67,7.45-37.71,6.02c-5.34-0.59-10.57-2.33-15.79-3.76c-10.29-2.84-20.83-4.92-30.32-10.22
		c-3.01-1.68-4.5-0.97-6.89,2.12c-4.11,5.31-8.14,10.69-12.42,15.86c-5.45,6.57-10.54,13.55-17.51,18.67
		c-12.69,9.32-26.48,16.71-41.26,22.13c-9.52,3.49-19.16,6.82-29.45,7.01c-4.01,0.08-7.02,1.54-9.57,4.52
		c-10.9,12.73-23.78,22.75-38.94,30.14c-15.77,7.69-32.04,13.05-49.56,14.5c-3.81,0.31-7.59,0.89-11.38,1.35
		c-5.44,0-10.88,0-16.32,0c-0.61-0.14-1.22-0.35-1.84-0.4c-13.3-1.08-26.2-3.96-38.63-8.77c-32.77-12.69-57.29-34.07-70.21-67.43
		c-1.57-4.06-4.53-6.2-8.53-7.31c-27.92-7.72-50.42-24.02-70.04-44.69c-12.23-12.88-20.68-27.91-24.56-45.39
		c-0.83-3.76-2-7.49-5.34-9.9c-8.3-5.98-13.73-13.93-16.54-23.71c-0.85-2.98-2.59-5-5.52-6.14c-4.81-1.88-8.79-4.98-11.71-9.22
		c-7.52-10.91-10.82-23.08-9.84-36.27c0.62-8.37-0.61-16.26-4.68-23.61c-3.33-6-5.52-12.38-6.72-19.11
		C35.26,592.49,34.53,587.84,33.76,583.21z M179.13,476.25c0.05-0.31,0.13-0.62,0.14-0.92c0.28-16.11,3.8-31.49,10.23-46.24
		c4.93-11.32,11.46-21.4,21.72-28.69c13.13-9.33,28.46-9.08,41.13,0.79c7.13,5.56,12.08,12.8,15.1,21.23
		c6.47,18.06,6.63,36.62,2.5,55.06c-2.43,10.86-6.44,21.38-9.93,31.99c-1.07,3.24-0.53,5.73,1.88,8.01c1.74,1.65,3.5,3.3,5.04,5.13
		c2.5,2.95,2.59,5.84,0.6,8.53c-4.17,5.63-15.46,7.93-21.43,2.08c-3.38-3.32-7.33-6.29-11.49-8.55
		c-12.01-6.51-24.15-12.78-36.43-18.77c-14.01-6.83-28.29-13.02-43.56-16.58c-21.95-5.11-41.9-0.88-59.64,12.99
		c-11.89,9.29-20.08,21.47-25.48,35.41c-6.33,16.37-10.77,33.17-7.89,51c2.3,14.26,6.98,27.49,16.58,38.69
		c20.84,24.3,47.61,36.32,79.13,38.83c22.47,1.79,44.31-1.28,65.7-8.1c19.16-6.11,34.47-17.31,44.85-34.71
		c3.87-6.49,9.51-8.73,16.59-8c8.17,0.85,11.9,5.83,9.92,12.85c-0.04,0.13,0.06,0.3,0.21,0.89c1.03,0,2.21,0.19,3.3-0.03
		c6.73-1.35,13.47-2.68,20.15-4.23c25.76-5.96,50.73-14.21,74.49-25.92c8.27-4.07,16.1-8.59,20.32-17.45
		c0.56-1.18,2.22-2.23,3.56-2.58c5.68-1.48,12.68,1.6,15.79,6.65c1.13,1.84,2.31,3.65,3.47,5.47c3.84,6.02,7.97,12.05,8.27,19.4
		c0.26,6.35,0.03,12.82-0.9,19.1c-2.04,13.71-8.71,24.89-19.89,33.26c-7.7,5.77-16.45,8.73-25.94,9.67
		c-5.36,0.53-5.99,0.96-7.22,6.16c-2.52,10.66-7.37,20.03-16.14,26.77c-4.13,3.17-5.84,6.74-5.08,11.72
		c0.14,0.95,0.22,1.91,0.28,2.86c0.54,7.96,1.74,15.95,1.45,23.88c-0.65,17.94-5.14,35.15-11.45,51.93
		c-3.51,9.33-7.03,18.57-14.48,25.62c-6.08,5.75-11.81,11.81-21.07,12.65c-10.66,0.97-21.21,1.5-31.62-1.55
		c-21.87-6.42-35.65-21.68-44.99-41.6c-4.4-9.39-6.33-19.57-8.16-29.71c-0.49-2.72-1.7-4.34-4.48-4.77
		c-1.5-0.23-3.01-0.52-4.43-1.01c-5.94-2.05-12.05-3.76-17.7-6.43c-4.87-2.3-5.38-6.59-2.27-11.05c0.67-0.96,1.39-1.88,2.14-2.89
		c-2.85-1.99-5.56-3.81-8.18-5.75c-2.36-1.75-3.17-1.82-5.45,0.01c-1.31,1.05-2.63,2.09-3.89,3.19
		c-8.88,7.76-19.05,11.2-30.94,10.14c-11.64-1.03-22.32-4.07-30.91-12.4c-2.29-2.22-4.23-4.78-6.37-7.16
		c-2.73-3.03-5.22-3.5-8.78-1.42c1.65,4.14,2.98,8.52,5.05,12.51c8.29,15.99,19.7,29.47,33.85,40.59
		c15.3,12.03,32.05,20.95,51.56,24.03c5.69,0.9,9.58,4.07,10.78,10.07c0.48,2.41,1.29,4.77,2.1,7.11
		c6.63,19.14,19.43,33.39,35.8,44.71c15.17,10.49,32.06,16.35,50.38,18.26c17.05,1.78,33.86,0.88,50.24-4.49
		c21.24-6.96,39.65-17.99,52.64-36.86c4.08-5.92,10.02-8.62,17.36-8.34c3.57,0.14,7.33,0.19,10.7-0.77
		c8.5-2.41,16.91-5.22,25.22-8.24c21.28-7.73,38.3-20.89,50.43-40.17c3.79-6.02,7.77-11.92,11.76-17.81
		c2.6-3.84,6.28-5.64,10.94-4.81c1.79,0.32,3.59,0.89,5.22,1.68c6.12,2.95,12.2,5.97,18.24,9.07c10.23,5.27,20.98,8.6,32.56,8.78
		c16.51,0.26,31.52-4.84,45.25-13.6c22.44-14.3,38.87-34.04,50.31-57.9c8.91-18.57,13.51-38.07,10.7-58.81
		c-3.79-28.01-18.65-47.54-45.39-57.14c-9.03-3.24-18.66-4.84-28.06-7.01c-6.55-1.52-12.14,0.37-16.67,5.38
		c-13.57,15-27.16,29.99-40.73,44.99c-6.85,7.56-12.34,15.83-14.64,26.02c-0.85,3.75-2.2,7.62-4.24,10.85
		c-13.42,21.23-46.31,32.17-72.42,6.4c-12.67-12.51-17.97-37.04-2.93-56.75c3.09-4.05,3.02-4.11-0.55-7.65
		c-6.77-6.72-11.58-14.46-12.43-24.21c-2.74-31.49,30.23-49.13,51.45-42.21c3.98,1.3,8.51,1.6,12.73,1.35
		c6.27-0.37,11.71-3.58,16.91-6.9c11.92-7.58,19.92-18.55,25.98-31.04c0.62-1.28,0.26-3.56-0.5-4.9
		c-4.07-7.15-8.32-14.2-12.68-21.18c-3.45-5.53-6.14-6.42-12.5-4.8c-12.21,3.12-24.24,2.49-36.03-1.96
		c-13.13-4.95-23.46-13.82-32.99-23.77c-3.96-4.14-7.8-8.4-11.92-12.86c-3.2,8.35-3.75,17.53-10.39,24.57
		c-0.59-5.14-1.18-9.74-1.63-14.34c-1.54-15.78-7.12-29.72-18.35-41.19c-9.43-9.63-20.63-15.52-34.22-16.29
		c-16.83-0.95-32.03,3.89-45.84,13.37c-3.42,2.35-6.71,4.91-10.14,7.25c-0.73,0.5-1.79,0.5-2.7,0.73c0.1-0.92-0.05-1.96,0.33-2.75
		c5.55-11.54,12.93-21.85,21.3-31.49c1.45-1.66,2.9-3.32,4.58-5.25c-11.27-1.83-22.14-3.58-33.01-5.35
		c-21.35-3.47-42.77-1.28-64.17-0.91c-2.63,0.05-3.5,1.44-2.99,4.01c0.73,3.67,1.65,7.33,2.07,11.04
		c0.75,6.67,1.29,13.37,1.73,20.06c0.19,2.87-1.11,4.16-4.11,4.66c-0.56-1.7-1.15-3.43-1.7-5.17c-3.1-9.88-7.58-18.98-14.85-26.52
		c-1.6-1.66-3.44-2.85-5.74-2.14c-11.43,3.54-22.45,8.07-32.02,15.39c-2.86,2.19-5.4,5.06-7.36,8.09
		c-9.59,14.79-17.47,30.51-23.85,46.93c-3.09,7.96-5.75,16.08-8.47,24.18c-0.99,2.94-0.42,3.89,2.35,5.06
		C174.2,474.34,176.64,475.26,179.13,476.25z M718.97,631.95c4.59-2.8,9.04-5.32,13.27-8.17c2.9-1.96,5.63-4.24,8.19-6.63
		c27.97-26.17,37.93-58.6,29.14-95.29c-8.8-36.73-33.22-59.91-69.8-69.93c-3.22-0.88-4.66,0.32-5.17,3.72
		c-1.32,8.67-2.65,17.34-4.15,25.98c-0.98,5.65-6.17,9.42-11.87,8.93c-4.08-0.35-6.09-2.37-6.13-6.47
		c-0.02-1.98,0.14-4.01,0.58-5.93c5-21.98,5.77-44.17,3.28-66.51c-2.03-18.22-5.83-36.07-11.47-53.54
		c-2.45-7.59-3.76-15.6-6.77-22.93c-6.84-16.61-13.88-33.18-21.8-49.29c-14.26-29-32.37-55.67-51.75-81.46
		c-14.7-19.57-29.93-38.71-46.87-56.44c-10.65-11.15-22.99-20.31-34.9-29.99c-22.58-18.35-47.52-32.29-75.35-40.93
		c-21.95-6.81-44.27-10.39-67.34-8.51c-29.17,2.38-55.56,12.04-79.18,29.32c-14.51,10.62-26.33,23.91-38.08,37.38
		c-17.63,20.2-28.56,43.52-34.11,69.57c-0.62,2.92,0.19,4.25,3,4.91c7.15,1.68,14.3,3.36,21.44,5.04c3.14,0.74,4.38,0.15,5.61-2.82
		c1.88-4.57,3.53-9.26,5.59-13.75c8.9-19.41,22.76-34.86,40.14-46.76c21.32-14.6,45.31-20.15,71.11-17.62
		c15.78,1.55,30.7,5.91,44.66,13.45c17.17,9.28,30.2,22.92,40.89,39.01c10.37,15.61,16.72,32.68,17.98,51.43
		c0.51,7.65,0.18,15.35,0.44,23.02c0.29,8.61-1.21,16.91-4.35,24.84c-4.19,10.62-8.74,21.1-13.24,31.59
		c-0.77,1.79-0.8,2.92,0.83,4.26c3.64,2.99,7.02,6.3,10.63,9.34c25.48,21.48,47.86,45.96,68.45,72.04
		c11.68,14.8,22.63,30.2,33.61,45.54c9.53,13.32,19.3,26.54,27.79,40.52c12.65,20.82,20.84,43.6,26.25,67.35
		c0.84,3.69,3.15,5.7,6.63,6.33c5.34,0.96,10.72,1.73,16.11,2.44c11.76,1.55,23.29,3.9,34.27,8.57
		c20.66,8.79,36.58,22.62,46.05,43.28C714.81,621.67,716.75,626.65,718.97,631.95z M538.69,466.48c-0.63-1.13-0.93-1.85-1.38-2.46
		c-15.85-21.59-31.32-43.47-48.67-63.91c-13.19-15.54-25.95-31.55-41.06-45.26c-14.43-13.09-29.63-25.36-44.82-37.59
		c-12.82-10.33-25.94-20.39-40.41-28.34c-17.92-9.84-36.07-19.27-54.27-28.6c-15-7.68-30.26-14.84-46.29-20.22
		c-21.56-7.24-42.88-15.35-65.67-18.11c-15-1.81-29.97-3.99-45.14-3.58c-12.24,0.33-24.14,2.36-35.47,7.23
		c-17.5,7.51-28.24,20.44-31.45,39.32c-2.47,14.53-0.35,28.58,5.59,41.94c9.64,21.65,22.56,41.38,36.59,60.38
		c10.4,14.08,23.47,25.74,35.7,38.15c1.64,1.66,3.58,1.52,5.24-0.24c4.06-4.3,8.19-8.55,12.08-13c1.14-1.3,1.95-3.13,2.32-4.84
		c1.73-7.95,3.06-16,4.88-23.93c2.9-12.64,7.93-24.24,17-33.85c12.74-13.51,28.84-13.7,41.75-0.34c6.02,6.23,9.78,13.75,12.58,21.83
		c1.87,5.37,2.95,5.92,8.67,5.39c10.74-1,21.49-2.15,32.26-2.63c7.24-0.32,14.54,0.62,21.81,0.62c17.91,0,35.54,2.28,52.98,6.18
		c3.72,0.83,7.06,0.31,10.33-1.66c9.33-5.62,19.35-9.05,30.36-9.2c11.35-0.16,21.5,3.05,29.77,11.01
		c10.83,10.42,16.44,23.39,17.91,38.22c0.44,4.42,1.8,8.17,5.46,11c1.88,1.45,3.52,3.26,5.04,5.1c6.94,8.37,13.61,16.97,20.72,25.18
		c7.09,8.18,15.02,15.52,24.43,21.04C523.86,465.03,530.7,466.89,538.69,466.48z M508.26,672.97c1.76,0,3.52,0.05,5.27-0.01
		c10.85-0.39,22.55-10.82,24.34-21.49c0.43-2.55,1.07-5.17,2.18-7.49c1.69-3.51,3.74-6.89,5.9-10.14c3-4.5,6.16-8.9,9.44-13.19
		c1.64-2.14,3.8-3.88,5.56-5.94c5.43-6.4,10.61-13.02,16.21-19.26c6.4-7.14,13.13-13.98,19.76-20.92c1.83-1.91,2.31-3.9,1.02-6.29
		c-0.99-1.83-1.88-3.7-2.77-5.58c-3.62-7.64-7.32-15.23-10.78-22.94c-1.5-3.34-2.34-6.96-3.8-10.32c-0.49-1.13-1.92-2.42-3.02-2.53
		c-0.84-0.08-2.03,1.46-2.76,2.5c-0.95,1.36-1.5,3.01-2.39,4.41c-4.98,7.79-11.9,13.76-18.91,19.59
		c-5.39,4.48-11.43,7.84-18.26,9.73c-8.17,2.26-16.15,0.88-24.18-0.75c-2.57-0.52-5.38-1.65-7.74-1.08
		c-5.24,1.26-10.63,2.74-15.3,5.33c-13,7.2-15.29,23.52-5.09,33.25c0.75,0.72,1.56,1.38,2.39,2.01c3.18,2.42,6.57,4.6,9.54,7.25
		c6.77,6.03,6.01,11.03-1.63,15.74c-3.05,1.88-6.08,4.35-8.08,7.26c-4.18,6.08-7.12,12.88-5.08,20.51
		C482.8,662.84,490.84,674.17,508.26,672.97z M335.4,197.02c1.33-0.87,2.53-1.47,3.51-2.31c12.23-10.55,24.41-21.14,36.63-31.69
		c4.12-3.55,7.34-2.89,9.67,2c1.34,2.81,2.57,5.67,3.72,8.57c9.95,25.17,19.83,50.36,29.82,75.51c3.18,8.01,6.64,15.92,9.91,23.89
		c2.05,4.99,1.2,7.08-3.57,9.43c-5.3,2.61-10.65,5.15-15.85,7.95c-2.31,1.24-4.17,0.93-6.25-0.32c-5.13-3.09-10.29-6.15-15.51-9.1
		c-0.89-0.5-2.11-0.43-3.18-0.62c-0.13,0.4-0.26,0.81-0.39,1.21c3.68,2.18,7.26,4.55,11.05,6.49c9.04,4.63,18.02,9.34,25.96,15.78
		c4.59,3.73,5.08,3.63,7.79-1.59c12.03-23.16,16.44-47.2,10.78-73.22c-6.5-29.9-21.48-53.14-48.59-68.03
		c-9.4-5.16-19.22-9.25-30-9.96c-7.96-0.53-15.99-0.37-23.98-0.23c-3.73,0.06-7.55,0.37-11.14,1.3c-28.34,7.4-49.09,24.54-63,50.07
		c-3.03,5.56-5.16,11.6-7.79,17.6c11.11,4.76,21.65,9.28,32.36,13.87c0.32-0.78,0.58-1.39,0.85-2.06c-0.67-0.31-1.17-0.56-1.68-0.78
		c-6.96-3.02-13.94-5.97-20.86-9.08c-3.83-1.72-4.12-3.72-1.25-6.75c3.24-3.42,6.48-6.85,9.75-10.24
		c11.15-11.57,22.31-23.13,33.49-34.67c2.72-2.81,5.34-5.75,8.33-8.25c2.82-2.35,5.57-1.69,7.42,1.49c1.08,1.84,1.86,3.89,2.56,5.92
		C329.08,178.25,332.12,187.33,335.4,197.02z M330.27,229.39c0.81-0.66,1.55-1.25,2.28-1.86c9.08-7.59,18.12-15.22,27.25-22.74
		c1.25-1.03,2.84-1.91,4.4-2.21c3.15-0.61,5.14,1.37,6.52,5.94c5.73,18.94,11.54,37.86,17.12,56.85c1.82,6.2,5.44,10.41,11.27,13.13
		c5.09,2.38,9.74,3.58,15.1,0.34c4.1-2.48,4.72-2.96,2.89-7.36c-8.32-20.06-16.64-40.12-24.88-60.21
		c-4.61-11.23-9.06-22.52-13.6-33.78c-1.34-3.33-2.48-3.56-5.24-1.18c-0.3,0.26-0.59,0.54-0.89,0.8
		c-11.97,10.34-23.89,20.75-35.95,30.99c-4.84,4.11-6.98,3.34-9.09-2.7c-0.11-0.3-0.21-0.6-0.32-0.91
		c-2.12-6.19-4.15-12.41-6.4-18.56c-1.46-3.99-3.22-7.87-4.98-12.15c-13.49,14.5-26.64,28.63-39.89,42.88
		c3.43,1.75,6.66,3.31,9.81,5.02c3.49,1.9,4.86,1.73,7.37-1.4c4.7-5.86,9.26-11.84,14.08-17.6c1.95-2.32,4.45-4.17,6.95-6.46
		C321.94,206.49,324.53,218.57,330.27,229.39z M310.54,818.57c11.61-0.64,22.68-4.89,30.85-14.96c4.97-6.13,7.32-13.6,9.24-21.14
		c2.35-9.22-2.41-14.7-11.9-13.93c-0.48,0.04-0.97,0.06-1.43,0.19c-5.38,1.46-10.81,2.72-16.11,4.44
		c-10.01,3.25-19.85,7.19-30.45,8.03c-5.91,0.47-11.51,1.76-16.76,4.44c-6.36,3.24-7.51,7.89-2.99,13.4
		C280.92,811.13,293.55,818.11,310.54,818.57z M266.7,752.28c-2.71,0.56-5.47,0.92-8.1,1.74c-2.57,0.8-3.07,2.05-2.52,4.61
		c1.41,6.65,6.17,11.47,12.89,12.56c3.05,0.5,6.26,0.86,9.28,0.43c6.06-0.85,12.27-1.63,18.01-3.61
		c16.51-5.69,32.74-12.22,49.25-17.93c11.21-3.88,12.26-14.28,9.95-22.45c-0.85-3-3.18-4.35-6.29-3.83
		c-1.86,0.31-3.71,0.95-5.44,1.71c-13.36,5.91-26.64,11.99-40.03,17.82C291.92,748.46,279.77,752.25,266.7,752.28z M293.93,233.57
		c29.96,13.03,59.41,26.24,87.14,44.24c-6.58-21.27-12.96-41.85-19.36-62.55c-0.58,0.31-0.82,0.39-0.99,0.54
		c-5.98,5.05-11.89,10.2-17.97,15.14c-3.89,3.17-7.84,6.35-12.11,8.95c-4.02,2.45-7.54,1.08-9.81-3.07
		c-0.53-0.97-0.96-2.02-1.33-3.07c-1.96-5.57-3.89-11.15-5.84-16.72c-0.62-1.77-1.28-3.53-2.04-5.63
		C305.61,218.91,299.89,226.09,293.93,233.57z M201.34,484.26c0.16-0.73,0.28-1.35,0.43-1.96c1.91-7.9,3.38-15.94,5.86-23.65
		c3.65-11.37,10.45-20.62,21-26.69c8.12-4.67,16.26-4.48,24.31,0.31c0.7,0.42,1.42,0.81,2.13,1.21c0.21-0.17,0.42-0.34,0.63-0.51
		c-0.5-1.07-0.98-2.15-1.51-3.21c-3.09-6.23-6.16-12.46-11.33-17.34c-5.03-4.75-10.68-6.96-17.49-4.35
		c-5.95,2.28-11.13,5.83-14.79,11.03c-12.56,17.83-17.03,37.92-15.94,59.43C194.82,482.17,197.09,483.93,201.34,484.26z
		 M257.27,456.28c0.17-0.2,0.33-0.4,0.5-0.59c-1.43-4.22-6.65-12.66-9.74-15.76c-6.19-6.21-13.37-6.26-19.21,0.27
		c-2.91,3.25-5.5,6.88-7.66,10.67c-6.09,10.66-8.07,22.44-8.58,34.52c-0.21,4.95,2.43,7.05,7.65,6.49c0.04-0.07,0.12-0.13,0.12-0.2
		c0.02-1.99,0.03-3.99,0.06-5.98c0.16-10.88,3.39-20.73,10.01-29.4c2.72-3.57,5.99-6.52,10.53-7.44c5.79-1.18,10.23,1.39,14.04,5.46
		C255.67,455.03,256.5,455.62,257.27,456.28z M325.03,719.72c-5.86-1.69-11.34-2.83-16.47-4.86c-5.16-2.05-9.97-4.99-15.02-7.58
		c-0.05,0.06-0.26,0.22-0.35,0.43c-0.41,0.86-0.8,1.74-1.17,2.62c-2.96,7.1-6.98,13.47-12.87,18.52c-8.3,7.1-18.17,9.73-28.84,9.88
		c-6.71,0.09-13.43,0.01-20.14,0.03c-0.78,0-1.57,0.1-2.35,0.15c-0.02,0.27-0.05,0.54-0.07,0.8c3.13,1.39,6.31,2.67,9.83,2.87
		c12.15,0.7,23.64-1.47,35.05-6.03c11.07-4.42,22.77-7.24,34.17-10.83C312.84,723.79,318.85,721.75,325.03,719.72z M256.25,474.92
		c0.1-3.06-1.08-6.61-2.88-8.7c-2.36-2.73-5.12-2.87-7.22,0.05c-1.66,2.3-2.81,4.99-4.14,7.53c-0.16,0.31-0.19,0.8-0.08,1.14
		c0.92,2.72,1.7,5.51,2.9,8.11c1.28,2.77,3.44,3.29,6.18,1.95C255.24,482.92,255.93,479.02,256.25,474.92z M228.59,364.67
		c-8.48-4-28.38,5.53-32.95,15.9C205.61,372.71,216.77,368.19,228.59,364.67z"/>
	<path d="M307.62,529.5c-0.21-17.07,4.25-32.84,9.68-48.45c7.77-22.32,22.01-39.47,41.55-52.36c9.28-6.12,19.57-9.44,30.82-8.84
		c11.42,0.61,20.73,5.99,28.91,13.56c10.42,9.63,15.68,22.01,18.33,35.61c5.7,29.23,0.77,57.06-11.88,83.67
		c-6.96,14.63-16.39,27.47-29.66,37.09c-9.95,7.21-20.97,11.93-33.37,12.73c-9.82,0.63-18.5-2.86-26.59-8.08
		c-11.37-7.33-17.98-18.17-22.19-30.67C309.46,552.56,307.39,541.04,307.62,529.5z M414.75,460.5c0.14-0.12,0.28-0.23,0.41-0.35
		c-0.08-0.28-0.1-0.6-0.25-0.84c-2.76-4.31-5.38-8.71-8.33-12.88c-6.16-8.7-21.32-15.18-32.94-11.11
		c-8.88,3.11-16.44,8.1-21.87,15.67c-13.55,18.9-23.01,39.46-25.38,63.01c-1.61,16.05-0.37,31.56,5.47,46.64
		c4.59,11.87,11.67,21.47,23.93,26.3c4.4,1.74,8.92,3.25,14.42,2.15c-1.28-0.65-2.01-1.1-2.8-1.41c-8.29-3.25-14.01-9.33-18.4-16.82
		c-5.36-9.15-7.03-19.3-7.5-29.68c-0.86-19.08,3.22-37.14,11.48-54.3c6.63-13.79,16.01-24.91,30.13-31.63
		c10.75-5.12,23.43-3.49,30.53,4.51C413.94,460.09,414.38,460.26,414.75,460.5z M422.83,500.68c0.39,0,0.78,0.01,1.17,0.01
		c0.16-0.66,0.64-1.45,0.43-1.97c-3.6-8.87-7.05-17.81-11.04-26.51c-2.32-5.06-6.85-7.98-12.35-8.97
		c-10.73-1.93-19.48,1.94-26.69,9.68c-5.44,5.84-9.41,12.7-12.81,19.88c-6.29,13.27-9.2,27.34-9.77,41.95
		c-0.42,10.86,1.1,21.37,5.87,31.23c6.14,12.68,16.8,15.64,29.02,12.58c0.96-0.24,1.77-1.05,3.03-1.83
		c-1.05-0.34-1.49-0.59-1.95-0.61c-7.21-0.42-11.8-4.83-15.55-10.35c-4.85-7.13-6.11-15.35-6.63-23.71
		c-0.67-10.78,2.07-20.9,6.25-30.71c3.74-8.79,8.58-16.79,16.46-22.58c4.69-3.45,9.74-5.75,15.75-5.42
		c7.45,0.41,13.58,4.66,15.65,10.71C420.45,496.37,421.76,498.48,422.83,500.68z M414.39,512.79c0-1.35,0.05-2.47-0.01-3.59
		c-0.19-4.04-2.7-7.38-6.3-8.47c-2.96-0.89-6.1,0.55-8.6,3.84c-4.3,5.67-3.68,11.58-0.96,17.63c2.08,4.61,6.51,5.91,10.6,2.93
		C413.38,522.03,415.05,517.76,414.39,512.79z"/>
	<path d="M668.89,648.76c-22.17-0.93-42.36,2.39-59.76,17.52c4.04,1.4,7.63,2.39,10.99,3.88c4.42,1.97,8.82,4.09,12.94,6.61
		c3.24,1.98,5.28,5.25,7.05,9.26c-2.25-0.72-4.07-1.37-5.93-1.9c-5.06-1.43-10.06-3.28-15.22-4.1c-9.21-1.46-17.57,0.07-24.61,7.28
		c-8.26,8.45-16.39,16.85-20.92,28.01c-0.89,2.19-1.7,4.42-2.52,6.54c-3.52-0.84-2.55-3.34-2.46-5.46
		c0.57-14.81,4.32-28.83,12.05-41.42c11.98-19.49,29.38-31.71,52.02-35.9c11.25-2.08,22.16-0.42,32.32,4.93
		C666.4,644.84,667.33,646.88,668.89,648.76z"/>
</g>
</svg>
