<?xml version="1.0" encoding="utf-8"?>
<!-- Generator: Adobe Illustrator 25.0.1, SVG Export Plug-In . SVG Version: 6.00 Build 0)  -->
<svg version="1.1" id="Layer_1" xmlns="http://www.w3.org/2000/svg" xmlns:xlink="http://www.w3.org/1999/xlink" x="0px" y="0px"
	 viewBox="0 0 823.7 951.1" style="enable-background:new 0 0 823.7 951.1;" xml:space="preserve">
<g>
	<g>
		<path d="M374.1,265.5l0.6-0.2C374.4,265.3,374.2,265.4,374.1,265.5z"/>
		<path d="M787.6,516.8c-6.8-25.8-21.7-45.8-43.4-60.9c-13.3-9.2-27.7-15.9-43.8-18.4c-2.2-0.3-3.5-2-3.7-4.9
			c-0.3-4.1-0.4-8.2-0.8-12.2c-5-51.3-19.8-99.5-44.5-144.8c-12.8-23.4-27.6-45.5-42.7-67.4c-10.2-14.7-20.3-29.3-31.8-42.9
			c-16.3-19.1-34.6-36-53.9-52.1C507,100,490.2,88.5,471.6,79.4c-15.1-7.3-30.8-12.8-46.8-17.5c-11.5-3.4-23.2-6-35.2-6.8
			c-0.4,0-0.7-0.2-1.1-0.4c-8,0-16,0-24,0c-4.8,0.5-9.7,1-14.5,1.4c-17.6,1.5-34.1,6.6-50,14c-23.3,10.8-43.2,26.4-60.9,44.7
			c-15.4,15.8-28.3,33.4-37.4,53.6c-5.3,11.8-9.1,24-11.4,36.8c-0.1,0.5-0.3,0.1-0.5,0.8c-3.9-0.4-6.4-0.4-10.2-1.2
			c-10.6-2.1-30-3.8-57.8,1.6c-16.3,3.2-59.1,13.2-63.4,61.7c-1.6,17.9,0.3,34.3,8.1,50.2c13.2,27.1,30,51.8,50.4,74.1
			c10.6,11.5,21.2,23.1,31.8,34.6c2.4,2.6,4.5,5.4,6.9,8c1,1.1,1.1,2,0.6,3.4c-3.1,8.4-6.1,16.8-9,25.2c-0.7,2-1.8,2.7-3.7,3
			c-7.6,1-15.2,2.2-22.8,3.3c-36.4,5.5-60.6,26.8-75.6,59.4c-5.7,12.3-9.3,25.3-10.8,38.9c-0.1,0.5-0.3,1.1-0.4,1.6
			c0,4.5,0,9,0,13.4c0.8,4.6,1.5,9.3,2.3,13.9c1.2,6.7,3.4,13.1,6.7,19.1c4.1,7.3,5.3,15.2,4.7,23.6c-1,13.2,2.3,25.4,9.8,36.3
			c2.9,4.2,6.9,7.3,11.7,9.2c2.9,1.1,4.7,3.2,5.5,6.1c2.8,9.8,8.2,17.7,16.5,23.7c3.3,2.4,4.5,6.1,5.3,9.9
			c3.9,17.5,12.3,32.5,24.6,45.4c19.6,20.7,42.1,37,70,44.7c4,1.1,7,3.2,8.5,7.3c12.9,33.4,37.4,54.7,70.2,67.4
			c12.4,4.8,25.3,7.7,38.6,8.8c0.6,0.1,1.2,0.3,1.8,0.4c5.4,0,10.9,0,16.3,0c3.8-0.5,7.6-1,11.4-1.3c17.5-1.5,33.8-6.8,49.6-14.5
			c15.2-7.4,28-17.4,38.9-30.1c2.6-3,5.6-4.4,9.6-4.5c10.3-0.2,19.9-3.5,29.5-7c14.8-5.4,28.6-12.8,41.3-22.1
			c7-5.1,12.1-12.1,17.5-18.7c4.3-5.2,8.3-10.5,12.4-15.9c2.4-3.1,3.9-3.8,6.9-2.1c9.5,5.3,20,7.4,30.3,10.2
			c5.2,1.4,10.4,3.2,15.8,3.8c13,1.4,25.6-1.2,37.7-6c18.9-7.5,35.9-17.9,50.1-32.8c22.5-23.5,37.9-50.6,43.5-83
			c1.4-8.4,1.8-16.8,0.3-25.3c-0.5-2.8,0.1-3.7,2.9-5c23.1-10.4,41.4-26.2,53.7-48.4c6.3-11.4,10.9-23.6,11.9-36.9
			c0-0.4,0.2-0.7,0.4-1.1c0-9.4,0-18.9,0-28.3C789.4,525.6,788.7,521.1,787.6,516.8z M126.2,367.3c-14-19-26.9-38.7-36.6-60.4
			c-5.9-13.4-8.1-27.4-5.6-41.9c3.2-18.9,14-31.8,31.5-39.3c11.3-4.9,23.2-6.9,35.5-7.2c15.2-0.4,30.1,1.8,45.1,3.6
			c22.8,2.8,44.1,10.9,65.7,18.1c16,5.4,31.3,12.5,46.3,20.2c18.2,9.3,36.3,18.8,54.3,28.6c14.5,8,27.6,18,40.4,28.3
			c15.2,12.2,30.4,24.5,44.8,37.6c15.1,13.7,27.9,29.7,41.1,45.3c17.3,20.4,32.8,42.3,48.7,63.9c0.5,0.6,0.8,1.3,1.4,2.5
			c-8,0.4-14.8-1.5-21.2-5.2c-9.4-5.5-17.3-12.9-24.4-21c-7.1-8.2-13.8-16.8-20.7-25.2c-1.5-1.8-3.2-3.6-5-5.1
			c-3.7-2.8-5-6.6-5.5-11c-1.5-14.8-7.1-27.8-17.9-38.2c-8.3-8-18.4-11.2-29.8-11c-11,0.2-21,3.6-30.4,9.2c-3.3,2-6.6,2.5-10.3,1.7
			c-17.4-3.9-35.1-6.2-53-6.2c-7.3,0-14.6-0.9-21.8-0.6c-10.8,0.5-21.5,1.6-32.3,2.6c-5.7,0.5-6.8,0-8.7-5.4
			c-2.8-8.1-6.6-15.6-12.6-21.8c-12.9-13.4-29-13.2-41.8,0.3c-9.1,9.6-14.1,21.2-17,33.8c-1.8,7.9-3.2,16-4.9,23.9
			c-0.4,1.7-1.2,3.5-2.3,4.8c-3.9,4.5-8,8.7-12.1,13c-1.7,1.8-3.6,1.9-5.2,0.2C149.7,393,136.6,381.4,126.2,367.3z M255,219.7
			c2.6-6,4.8-12,7.8-17.6c13.9-25.5,34.7-42.7,63-50.1c3.6-0.9,7.4-1.2,11.1-1.3c8-0.1,16-0.3,24,0.2c10.8,0.7,20.6,4.8,30,10
			c27.1,14.9,42.1,38.1,48.6,68c5.7,26,1.2,50.1-10.8,73.2c-2.7,5.2-3.2,5.3-7.8,1.6c-7.9-6.4-39.4-25.8-39.4-25.8
			c-27.7-18-56.3-30.9-86.1-43.9C295.4,234.2,266.9,222.8,255,219.7z M687.9,705.5c-11.4,23.9-27.9,43.6-50.3,57.9
			c-13.7,8.8-28.7,13.9-45.2,13.6c-11.6-0.2-22.3-3.5-32.6-8.8c-6-3.1-12.1-6.1-18.2-9.1c-1.6-0.8-3.4-1.4-5.2-1.7
			c-4.7-0.8-8.3,1-10.9,4.8c-4,5.9-8,11.8-11.8,17.8c-12.1,19.3-29.2,32.4-50.4,40.2c-8.3,3-16.7,5.8-25.2,8.2
			c-3.4,1-7.1,0.9-10.7,0.8c-7.3-0.3-13.3,2.4-17.4,8.3c-13,18.9-31.4,29.9-52.6,36.9c-16.4,5.4-33.2,6.3-50.2,4.5
			c-18.3-1.9-35.2-7.8-50.4-18.3c-16.4-11.3-29.2-25.6-35.8-44.7c-0.8-2.3-1.6-4.7-2.1-7.1c-1.2-6-5.1-9.2-10.8-10.1
			c-19.5-3.1-36.3-12-51.6-24c-14.2-11.1-25.6-24.6-33.9-40.6c-2.1-4-3.4-8.4-5-12.5c3.6-2.1,6-1.6,8.8,1.4c2.1,2.4,4.1,4.9,6.4,7.2
			c8.6,8.3,19.3,11.4,30.9,12.4c11.9,1.1,22.1-2.4,30.9-10.1c1.3-1.1,2.6-2.1,3.9-3.2c2.3-1.8,3.1-1.8,5.5,0
			c2.6,1.9,5.3,3.8,8.2,5.8c-0.8,1-1.5,1.9-2.1,2.9c-3.1,4.5-2.6,8.8,2.3,11c5.6,2.7,11.8,4.4,17.7,6.4c1.4,0.5,2.9,0.8,4.4,1
			c2.8,0.4,4,2.1,4.5,4.8c1.8,10.1,3.8,20.3,8.2,29.7c9.3,19.9,23.1,35.2,45,41.6c10.4,3,21,3.5,31.6,2.5c9.3-0.8,16-6.9,22.1-12.7
			c7.5-7,12-17.3,15.5-26.6c6.3-16.8,8.8-34,9.5-51.9c0.3-7.9-0.9-15.9-1.5-23.9c-0.1-1-0.1-1.9-0.3-2.9c-0.8-5,0.9-8.5,5.1-11.7
			c8.8-6.7,13.6-16.1,16.1-26.8c1.2-5.2,1.9-5.6,7.2-6.2c9.5-0.9,18.2-3.9,25.9-9.7c11.2-8.4,17.8-19.5,19.9-33.3
			c0.9-6.3,1.2-12.8,0.9-19.1c-0.3-7.4-4.4-13.4-8.3-19.4c-1.2-1.8-2.3-3.6-3.5-5.5c-3.1-5.1-10.1-8.1-15.8-6.7
			c-1.3,0.4-3,1.4-3.6,2.6c-4.2,8.9-12.1,13.4-20.3,17.5c-23.8,11.7-48.7,20-74.5,25.9c-6.7,1.5-13.4,2.9-20.2,4.2
			c-1.1,0.2-2.3,0-3.3,0c-0.1-0.6-0.2-0.8-0.2-0.9c2-7-1.8-12-9.9-12.8c-7.1-0.7-12.7,1.5-16.6,8c-10.4,17.4-25.7,28.6-44.9,34.7
			c-21.4,6.8-43.2,9.9-65.7,8.1c-31.5-2.5-58.3-14.5-79.1-38.8c-9.6-11.2-14.3-24.4-16.6-38.7c-2.9-17.8,1.6-34.6,7.9-51
			c5.4-13.9,13.6-26.1,25.5-35.4c17.7-13.9,37.7-18.1,59.6-13c15.3,3.6,29.5,9.8,43.6,16.6c12.3,6,24.4,12.3,36.4,18.8
			c4.2,2.3,8.1,5.2,11.5,8.5c6,5.8,17.3,3.5,21.4-2.1c2-2.7,1.9-5.6-0.6-8.5c-1.5-1.8-3.3-3.5-5-5.1c-2.4-2.3-3-4.8-1.9-8
			c3.5-10.6,7.5-21.1,9.9-32c4.1-18.4,4-37-2.5-55.1c-3-8.4-8-15.7-15.1-21.2c-12.7-9.9-28-10.1-41.1-0.8
			c-10.3,7.3-16.8,17.4-21.7,28.7c-6.4,14.8-10,30.1-10.2,46.2c0,0.3-0.1,0.6-0.1,0.9c-2.5-1-4.9-1.9-7.4-3
			c-2.8-1.2-3.3-2.1-2.3-5.1c2.7-8.1,5.4-16.2,8.5-24.2c6.4-16.4,14.3-32.1,23.9-46.9c2-3,4.5-5.9,7.4-8.1
			c9.6-7.3,20.6-11.8,32-15.4c2.3-0.7,4.1,0.5,5.7,2.1c7.3,7.5,9.8,16.6,12.9,26.5c0.5,1.7,3.1,1.1,3.7,2.8c3-0.5,4.3,0.6,4.1-2.2
			c-0.4-6.7-1-13.4-1.7-20.1c-0.4-3.7-1.3-7.4-2.1-11c-0.5-2.6,0.4-4,3-4c21.4-0.4,42.8-2.6,64.2,0.9c10.9,1.8,21.7,3.5,33,5.3
			c-1.7,1.9-3.1,3.6-4.6,5.2c-8.4,9.6-15.8,20-21.3,31.5c-0.4,0.8,0.8,0.7,0.7,1.6c0.9-0.2,0.8,0.3,1.7,0.4
			c5.7,0.7,9.7-4.9,13.1-7.2c13.8-9.5,26-14.3,42.8-13.4c13.6,0.8,24.8,6.7,34.2,16.3c11.2,11.5,16.8,25.4,18.3,41.2
			c0.5,4.6,1,9.2,1.6,14.3c6.6-7,7.2-16.2,10.4-24.6c4.1,4.5,8,8.7,11.9,12.9c9.5,9.9,19.9,18.8,33,23.8c11.8,4.5,23.8,5.1,36,2
			c6.4-1.6,9-0.7,12.5,4.8c4.4,7,8.6,14,12.7,21.2c0.8,1.3,1.1,3.6,0.5,4.9c-6.1,12.5-14.1,23.5-26,31c-5.2,3.3-10.6,6.5-16.9,6.9
			c-4.2,0.2-8.8,0-12.7-1.3c-21.2-6.9-54.2,10.7-51.5,42.2c0.9,9.8,5.7,17.5,12.4,24.2c3.6,3.5,3.6,3.6,0.5,7.7
			c-15,19.7-9.7,44.2,2.9,56.8c26.1,25.8,59,14.8,72.4-6.4c2-3.2,3.4-7.1,4.2-10.8c2.3-10.2,7.8-18.5,14.6-26
			c13.6-15,27.2-30,40.7-45c4.5-5,10.1-6.9,16.7-5.4c9.4,2.2,19,3.8,28.1,7c26.7,9.6,41.6,29.1,45.4,57.1
			C701.4,667.5,696.8,687,687.9,705.5z M345.5,750.1c-16.5,5.7-32.7,12.2-49.2,17.9c-5.7,2-12,2.8-18,3.6c-3,0.4-6.2,0.1-9.3-0.4
			c-6.7-1.1-11.5-5.9-12.9-12.6c-0.5-2.6,0-3.8,2.5-4.6c2.6-0.8,32.8-6.8,45.1-10.7c27.3-8.6,43.6-19.2,45.5-19.5
			c3.1-0.5,5.4,0.8,6.3,3.8C357.8,735.8,356.7,746.2,345.5,750.1z M350.6,782.5c-1.9,7.5-4.3,15-9.2,21.1
			c-8.2,10.1-19.2,14.3-30.8,15c-17-0.5-29.6-7.4-39.6-19.5c-4.5-5.5-3.4-10.2,3-13.4c5.2-2.7,10.9-1,16.8-1.4
			c10.6-0.8,20.4-4.8,30.5-8c5.3-1.7,10.7-6,16.1-7.4c0.5-0.1,0.9-0.2,1.4-0.2C348.2,767.8,353,773.2,350.6,782.5z M305.8,724.7
			c-11.4,3.6-22.1,7.4-33.2,11.8c-11.4,4.6-22.9,6.7-35,6c-3.5-0.2-6.7-1.5-9.8-2.9c0-0.3,0-0.5,0.1-0.8c0.8-0.1,1.6-0.2,2.3-0.2
			c6.7,0,13.4,0.1,20.1,0c10.7-0.2,20.5-2.8,28.8-9.9c5.9-5.1,9.9-11.4,12.9-18.5c0.4-0.9,0.8-1.8,1.2-2.6c0.1-0.2,0.3-0.4,0.4-0.4
			c5,2.6,9.9,5.5,15,7.6c5.1,2,8.6,2.2,14.5,3.9C316.9,720.8,311.8,722.8,305.8,724.7z M255,454.3c-3.8-4.1-8.2-6.6-14-5.5
			c-4.5,0.9-7.8,3.9-10.5,7.4c-6.6,8.7-9.9,18.5-10,29.4c0,2,0,4-0.1,6c0,0.1-0.1,0.1-0.1,0.2c-5.2,0.6-7.9-1.5-7.7-6.5
			c0.5-12.1,2.5-23.9,8.6-34.5c2.2-3.8,4.8-7.4,7.7-10.7c5.8-6.5,13-6.5,19.2-0.3c3.1,3.1,8.3,11.5,9.7,15.8
			c-0.2,0.2-0.3,0.4-0.5,0.6C256.5,455.6,255.7,455,255,454.3z M256.2,474.9c-0.3,4.1-1,8-5.2,10.1c-2.7,1.3-4.9,0.8-6.2-2
			c-1.2-2.6-2-5.4-2.9-8.1c-0.1-0.3-0.1-0.8,0.1-1.1c1.3-2.5,2.5-5.2,4.1-7.5c2.1-2.9,4.9-2.8,7.2,0
			C255.2,468.3,256.4,471.9,256.2,474.9z M256.1,432.5c-0.7-0.4-4.5-4.7-5.1-5.2c-8.1-7.1-17.2-6-25.3-1.3
			c-10.5,6.1-17.4,17.3-21,28.7c-2.5,7.7-4,15.8-5.9,23.6c-0.2,0.6-0.3,1.2-0.4,2c-4.2-0.3-3.5,1.9-3.7-1.7
			c-1.1-21.5,3.4-40.6,15.9-58.4c3.7-5.2,8.8-8.8,14.8-11c6.8-2.6,12.5-0.4,17.5,4.3c5.2,4.9,8.2,10.1,11.3,16.3
			c0.5,1.1,1,2.1,1.5,3.2C255.5,433.1,256.3,432.3,256.1,432.5z M494.9,609.1c-3-2.7-6.4-4.8-9.5-7.2c-0.8-0.6-1.6-1.3-2.4-2
			c-10.2-9.7-7.9-26,5.1-33.2c4.7-2.6,10.1-4.1,15.3-5.3c2.4-0.6,5.2,0.6,7.7,1.1c8,1.6,16,3,24.2,0.8c6.8-1.9,12.9-5.2,18.3-9.7
			c7-5.8,13.9-11.8,18.9-19.6c0.9-1.4,1.4-3,2.4-4.4c0.7-1,1.9-2.6,2.8-2.5c1.1,0.1,2.5,1.4,3,2.5c1.5,3.4,2.3,7,3.8,10.3
			c3.5,7.7,7.2,15.3,10.8,22.9c0.9,1.9,1.8,3.8,2.8,5.6c1.3,2.4,0.8,4.4-1,6.3c-6.6,6.9-13.4,13.8-19.8,20.9
			c-5.6,6.2-10.8,12.9-16.2,19.3c-1.8,2.1-3.9,3.8-5.6,5.9c-3.3,4.3-6.4,8.7-9.4,13.2c-2.2,3.2-4.2,6.6-5.9,10.1
			c-1.1,2.3-1.8,4.9-2.2,7.5c-1.8,10.7-13.5,21.1-24.3,21.5c-1.8,0.1-3.5,0-5.3,0c-17.4,1.2-25.5-10.1-28.2-20.4
			c-2-7.6,0.9-14.4,5.1-20.5c2-2.9,5-5.4,8.1-7.3C500.9,620.1,501.6,615.1,494.9,609.1z M740.4,617.2c-2.6,2.4-5.3,4.7-8.2,6.6
			c-4.2,2.8-8.7,5.4-13.3,8.2c-2.2-5.3-4.2-10.3-6.4-15.1c-9.5-20.7-25.4-34.5-46-43.3c-11-4.7-22.5-7-34.3-8.6
			c-5.4-0.7-10.8-1.5-16.1-2.4c-3.5-0.6-5.8-2.6-6.6-6.3c-5.4-23.8-13.6-46.5-26.2-67.4c-8.5-14-18.3-27.2-27.8-40.5
			c-11-15.3-21.9-30.7-33.6-45.5c-20.6-26.1-43-50.6-68.4-72c-3.6-3-7-6.4-10.6-9.3c-1.6-1.3-1.6-2.5-0.8-4.3
			c4.5-10.5,9-21,13.2-31.6c3.1-7.9,3.3-11.3,4.4-24.8c-0.3-7.7,0.1-15.4-0.4-23c-1.3-18.8-7.6-35.8-18-51.4
			c-10.7-16.1-23.7-29.7-40.9-39c-14-7.5-28.9-11.9-44.7-13.5c-25.8-2.5-49.8,3-71.1,17.6c-17.4,11.9-31.2,27.4-40.1,46.8
			c-2.1,4.5-3.7,9.2-5.6,13.8c-1.2,3-2.5,3.6-5.6,2.8c-7.1-1.7-14.3-3.4-21.4-5c-2.8-0.7-3.6-2-3-4.9c5.5-26,16.5-49.4,34.1-69.6
			c11.8-13.5,23.6-26.8,38.1-37.4c23.6-17.3,50-26.9,79.2-29.3c23.1-1.9,45.4,1.7,67.3,8.5c27.8,8.6,52.8,22.6,75.4,40.9
			c11.9,9.7,24.2,18.8,34.9,30c16.9,17.7,32.2,36.9,46.9,56.4c19.4,25.8,37.5,52.5,51.8,81.5c7.9,16.1,15,32.7,21.8,49.3
			c3,7.3,4.3,15.3,6.8,22.9c5.6,17.5,9.4,35.3,11.5,53.5c2.5,22.3,1.7,44.5-3.3,66.5c-0.4,1.9-0.6,4-0.6,5.9c0,4.1,2,6.1,6.1,6.5
			c5.7,0.5,10.9-3.3,11.9-8.9c1.5-8.6,2.8-17.3,4.2-26c0.5-3.4,2-4.6,5.2-3.7c36.6,10,61,33.2,69.8,69.9
			C778.4,558.6,768.4,591,740.4,617.2z"/>
	</g>
	<path d="M307.6,529.5c-0.2-17.1,4.2-32.8,9.7-48.5c7.8-22.3,20-40.5,39.5-53.4c9.3-6.1,21.6-8.4,32.8-7.8
		c11.4,0.6,20.7,6,28.9,13.6c10.4,9.6,15.7,22,18.3,35.6c5.7,29.2,0.8,57.1-11.9,83.7c-7,14.6-16.4,27.5-29.7,37.1
		c-10,7.2-21,11.9-33.4,12.7c-9.8,0.6-18.5-2.9-26.6-8.1c-11.4-7.3-18-18.2-22.2-30.7C309.5,552.6,307.4,541,307.6,529.5z
		 M415.8,458.5c0.1-0.1-0.7,1.8-0.6,1.6c-0.1-0.3-0.1-0.6-0.2-0.8c-2.8-4.3-5.4-8.7-8.3-12.9c-6.2-8.7-20.6-14.5-32.2-10.4
		c-8.9,3.1-16,9.2-22.6,16.3c-13.5,18.9-23,38.1-25.3,61.7c-1.6,16-0.4,31.6,5.5,46.6c4.6,11.9,11.7,21.5,23.9,26.3
		c4.4,1.7,7.9,3.2,13.4,2.2c-1.3-0.7-2-1.1-2.8-1.4c-8.3-3.2-14-9.3-18.4-16.8c-5.4-9.2-7-19.3-7.5-29.7
		c-0.9-19.1,3.2-37.1,11.5-54.3c6.6-13.8,16-24.9,30.1-31.6c10.8-5.1,26.4-4.5,33.5,3.5C415.9,459.1,415.4,458.3,415.8,458.5z
		 M422.8,500.7c0.4,0,0.8,0,1.2,0c0.2-0.7,0.6-1.5,0.4-2c0.1-9.8,0.1-14.6-7-25.5c-3.7-4.4-6.1-6.7-16.4-8
		c-10.4,0.1-12.7,1.7-21.7,8.7c-5.4,5.8-9.4,12.7-12.8,19.9c-6.3,13.3-9.2,27.3-9.8,42c-0.4,10.9,1.1,21.4,5.9,31.2
		c6.1,12.7,13.8,13.6,26,10.6c1-0.2-0.2,0,1-0.8c-1-0.3-1.5-0.6-2-0.6c-7.2-0.4-11.8-4.8-15.5-10.3c-4.9-7.1-6.1-15.3-6.6-23.7
		c-0.7-10.8,2.1-20.9,6.2-30.7c3.7-8.8,8.6-16.8,16.5-22.6c4.7-3.5,9.7-5.8,15.8-5.4c7.5,0.4,13.6,4.7,15.6,10.7
		C420.5,496.4,421.8,498.5,422.8,500.7z M414.4,512.8c0-1.4,0-2.5,0-3.6c-0.2-4-2.7-7.4-6.3-8.5c-3-0.9-6.1,0.5-8.6,3.8
		c-4.3,5.7-3.7,11.6-1,17.6c2.1,4.6,6.5,5.9,10.6,2.9C413.4,522,415,517.8,414.4,512.8z"/>
	<path d="M663.5,648.6c-20.1-0.2-38.4,3.8-54.4,17.7c4.5,0.7,10.3,1.7,14,2.9c4.6,1.6,8.5,3,10.9,5.6s2.5,3.6,2.8,5.5
		c0.4,2.3-0.4,4.5-2.6,3.8c0,0,0,0-0.1,0c-5.1-1.4-10.1-3.3-15.2-4.1c-9.2-1.5-17.6,0.1-24.6,7.3c-8.3,8.5-10.4,16.8-14.9,28
		c-0.9,2.2-2.3,6.5-8.5,6.5c-3.5-0.8-2.5-3.3-2.5-5.5c0.6-14.8,4.3-28.8,12-41.4c12-19.5,29.4-31.7,52-35.9
		c11.2-2.1,21.2-3.4,31.3,1.9c0,0,0,1,0,1C666.1,643.3,666.1,648.6,663.5,648.6z"/>
</g>
<path d="M421.3,266.8l-2.8,1.2L421.3,266.8c-8.2-19.7-16.6-40.1-24.9-60.2c-2.9-7.2-5.9-14.5-8.7-21.7c-1.6-4-3.2-8.1-4.8-12.1
	c-0.6-1.4-1.9-4.6-5.2-5.4c-3.3-0.8-6,1.5-7.2,2.5c-0.2,0.2-0.4,0.3-0.6,0.5c-0.1,0.1-0.2,0.2-0.3,0.3c-3.2,2.7-6.4,5.5-9.5,8.3
	l-0.5,0.4c-8.5,7.3-17.2,14.9-25.9,22.3c-0.5,0.4-0.9,0.7-1.2,1c-0.2-0.4-0.4-1-0.7-1.8c-0.1-0.2-0.1-0.3-0.2-0.5l-0.1-0.3
	c-0.6-1.8-1.2-3.5-1.8-5.3l0-0.1c-1.5-4.3-3-8.8-4.6-13.2c-1-2.8-2.1-5.4-3.3-8.2l-0.5-1.2c-0.9-2-2.7-3.5-4.9-3.9
	c-2.2-0.4-4.4,0.4-5.9,2l-7.4,7.9c-9.5,10.3-19,20.4-28.4,30.6c-1.4,1.6-2.1,3.6-1.7,5.7c0.4,2.1,1.7,3.8,3.6,4.8l0.7,0.3
	c2.2,1.1,4.4,2.2,6.4,3.3c8.3,4.5,11.5-0.2,16.4-7.2l0.6-0.9c2.9-4.2,6.2-8.1,9.7-11.6c0.7-0.7,1.2-1.2,1.8-1.8
	c3.6,10.6,6.8,18.3,10.6,25.9c1,2.1,2.9,3.5,5.2,3.9c2.3,0.4,4.6-0.2,6.3-1.8c0.6-0.6,1.1-1.1,1.4-1.3c2.6-2.2,5.2-4.3,7.7-6.5
	l0.2-0.2c6.3-5.3,12.8-10.8,19.3-16.1c0.9-0.8,1.9-1.2,2.4-1.3c0,0,0.1,0,0.1,0c0.2,0.2,0.7,0.9,1.3,2.8c1.5,4.8,2.9,9.6,4.4,14.4
	c4.2,13.9,8.6,28.2,12.7,42.4c2.2,7.5,6.7,12.7,13.7,15.9c2.7,1.3,6.3,2.7,10.3,2.7c3.1,0,6.1-0.9,9-2.6
	C421.4,276.7,424.4,274.2,421.3,266.8z"/>
</svg>
